<?xml version="1.0" encoding="utf-8" ?><svg version="1.1" xmlns='http://www.w3.org/2000/svg'><defs><font id='font' horiz-adv-x="1000">
<font-face font-family="font" x-height="550" cap-height="715" bbox="-122,-209,1107,956" descent="-230" ascent="770" units-per-em="1000" />
<missing-glyph horiz-adv-x="495" d="M 55 715 L 440 715 L 440 0 L 55 0 L 55 715 Z M 407 44 L 407 671 L 265 358 L 407 44 Z M 88 671 L 88 44 L 229 358 L 88 671 Z M 248 397 L 375 682 L 120 682 L 248 397 Z M 120 33 L 375 33 L 248 317 L 120 33 Z" /><glyph unicode=" " horiz-adv-x="253" d="" />
<glyph unicode="!" horiz-adv-x="255" d="M 164 715 L 254 715 L 137 216 L 105 216 L 164 715 Z M 56 81 L 140 81 L 125 0 L 42 0 L 56 81 Z" />
<glyph unicode="&#x22;" horiz-adv-x="330" d="M 158 495 L 125 495 L 142 715 L 219 715 L 158 495 Z M 290 495 L 257 495 L 274 715 L 351 715 L 290 495 Z" />
<glyph unicode="#" horiz-adv-x="609" d="M 519 188 L 406 188 L 356 0 L 306 0 L 355 188 L 202 188 L 153 0 L 102 0 L 152 188 L 38 188 L 51 234 L 164 234 L 229 482 L 116 482 L 128 528 L 241 528 L 290 715 L 341 715 L 291 528 L 444 528 L 494 715 L 544 715 L 495 528 L 608 528 L 596 482 L 483 482 L 418 234 L 531 234 L 519 188 Z M 215 234 L 367 234 L 432 482 L 279 482 L 215 234 Z" />
<glyph unicode="$" horiz-adv-x="573" d="M 119 237 C 115 216 115 198 117 184 C 119 169 126 157 136 147 C 146 137 161 130 181 126 C 201 121 226 119 257 119 C 293 119 323 121 346 127 C 369 133 387 141 401 151 C 415 161 425 173 431 187 C 437 201 442 216 446 233 C 448 249 448 264 446 276 C 443 288 436 299 425 307 C 414 315 399 322 379 327 C 359 332 333 336 301 339 C 232 345 183 360 155 383 C 127 405 117 441 127 491 C 136 543 158 580 194 604 C 230 627 275 640 330 643 L 346 737 L 399 737 L 383 643 C 439 639 480 625 504 599 C 528 573 536 534 527 481 L 476 481 C 483 522 477 552 458 570 C 439 588 402 598 346 598 C 298 598 260 590 232 575 C 204 559 186 531 179 490 C 172 452 180 426 203 411 C 225 396 263 386 317 382 C 357 378 389 372 415 365 C 440 357 459 348 473 336 C 487 324 495 310 499 293 C 502 276 502 256 498 233 C 494 209 488 188 480 170 C 472 151 461 135 445 121 C 429 107 407 96 381 88 C 355 80 322 75 282 73 L 265 -22 L 212 -22 L 229 73 C 192 74 162 79 140 87 C 117 95 100 107 88 121 C 76 135 68 152 66 172 C 63 191 64 213 68 237 L 119 237 Z" />
<glyph unicode="%" horiz-adv-x="740" d="M 120 0 L 59 0 L 658 715 L 718 715 L 120 0 Z M 413 566 C 402 506 382 465 354 442 C 326 418 287 407 237 407 C 186 407 150 418 130 442 C 110 465 105 506 116 566 C 126 624 145 666 174 690 C 203 714 243 726 293 726 C 343 726 378 714 398 690 C 418 666 423 624 413 566 Z M 661 148 C 650 88 630 47 602 24 C 574 0 535 -11 485 -11 C 435 -11 399 0 379 24 C 358 47 353 88 364 148 C 374 206 394 248 423 272 C 451 296 491 308 541 308 C 591 308 626 296 646 272 C 666 248 671 206 661 148 Z M 362 566 C 369 610 366 640 354 657 C 342 673 319 682 285 682 C 251 682 224 673 206 657 C 187 640 174 610 166 566 C 162 543 160 524 162 510 C 163 495 167 483 174 475 C 180 466 189 460 201 456 C 212 452 226 451 244 451 C 260 451 275 452 288 456 C 301 460 312 466 322 475 C 332 483 340 495 346 510 C 352 524 358 543 362 566 Z M 610 148 C 618 192 615 223 603 239 C 591 255 567 264 533 264 C 499 264 472 255 454 239 C 435 223 422 192 415 148 C 411 125 409 106 411 92 C 412 77 416 65 422 57 C 428 48 437 42 449 38 C 461 34 475 33 493 33 C 509 33 524 34 537 38 C 550 42 561 48 571 57 C 581 65 589 77 595 92 C 601 106 606 125 610 148 Z" />
<glyph unicode="&#x26;" horiz-adv-x="686" d="M 510 535 C 519 586 514 623 494 645 C 474 667 436 678 378 678 C 324 678 281 666 250 644 C 218 622 198 583 188 528 C 180 484 185 450 203 424 C 220 398 246 386 282 386 L 638 386 L 630 340 L 542 340 L 509 155 C 505 137 504 122 505 109 C 506 96 510 85 517 76 C 523 66 533 59 547 55 C 561 50 579 48 601 48 L 593 0 C 518 0 474 24 462 74 C 442 48 415 28 381 12 C 347 -3 301 -11 244 -11 C 169 -11 115 6 82 40 C 48 74 38 125 50 193 C 58 238 75 275 102 303 C 128 331 161 352 199 366 C 175 379 156 399 142 425 C 128 451 125 486 133 528 C 145 596 172 646 215 678 C 257 710 314 726 385 726 C 461 726 513 710 541 680 C 569 650 577 601 565 535 L 510 535 Z M 250 37 C 287 37 318 41 344 49 C 369 57 390 69 406 84 C 422 98 435 116 444 136 C 452 156 459 178 463 202 L 487 340 L 274 340 C 252 340 232 336 214 329 C 195 322 178 312 164 300 C 149 287 136 271 126 253 C 116 235 109 215 105 193 C 95 138 102 98 126 74 C 150 49 191 37 250 37 Z" />
<glyph unicode="'" horiz-adv-x="198" d="M 158 495 L 125 495 L 142 715 L 219 715 L 158 495 Z" />
<glyph unicode="(" horiz-adv-x="338" d="M 131 313 C 115 223 114 141 130 66 C 145 -9 171 -75 209 -132 L 154 -132 C 112 -72 84 -4 70 71 C 56 147 56 227 71 313 C 86 398 114 479 155 555 C 196 631 248 699 311 759 L 366 759 C 338 731 311 700 286 667 C 260 633 237 598 217 560 C 197 522 179 483 165 442 C 150 400 139 357 131 313 Z" />
<glyph unicode=")" horiz-adv-x="338" d="M 229 313 C 244 402 244 484 228 560 C 212 636 186 702 150 759 L 205 759 C 247 699 275 631 289 555 C 303 479 303 398 288 313 C 272 227 244 147 203 71 C 162 -4 110 -72 47 -132 L -8 -132 C 49 -75 99 -9 141 66 C 183 141 213 223 229 313 Z" />
<glyph unicode="*" horiz-adv-x="596" d="M 571 620 L 584 530 L 360 496 L 490 341 L 403 285 L 339 483 L 205 285 L 137 341 L 322 496 L 109 530 L 155 620 L 333 518 L 337 737 L 431 737 L 356 518 L 571 620 Z" />
<glyph unicode="+" horiz-adv-x="565" d="M 74 327 L 272 327 L 307 525 L 355 525 L 320 327 L 518 327 L 509 278 L 311 278 L 276 79 L 228 79 L 263 278 L 65 278 L 74 327 Z" />
<glyph unicode="," horiz-adv-x="216" d="M 42 81 L 125 81 L 52 -110 L 8 -110 L 42 81 Z" />
<glyph unicode="-" horiz-adv-x="374" d="M 65 340 L 340 340 L 332 294 L 57 294 L 65 340 Z" />
<glyph unicode="." horiz-adv-x="227" d="M 42 81 L 125 81 L 111 0 L 28 0 L 42 81 Z" />
<glyph unicode="/" horiz-adv-x="374" d="M 354 737 L 410 737 L 57 -22 L 1 -22 L 354 737 Z" />
<glyph unicode="0" horiz-adv-x="592" d="M 531 255 C 522 206 510 165 495 131 C 479 97 460 70 437 49 C 414 28 387 13 357 3 C 326 -6 291 -11 251 -11 C 211 -11 177 -6 149 3 C 121 13 99 28 83 49 C 67 70 57 97 53 131 C 49 165 52 206 61 255 L 97 460 C 105 508 117 549 133 583 C 149 617 168 644 192 665 C 215 686 242 701 273 711 C 303 721 338 726 378 726 C 417 726 451 721 479 711 C 507 701 529 686 545 665 C 561 644 571 617 575 583 C 579 549 576 508 568 460 L 531 255 Z M 513 460 C 519 500 522 535 520 563 C 518 591 512 613 501 630 C 490 647 474 659 453 667 C 431 674 405 678 373 678 C 341 678 312 674 288 667 C 264 659 243 647 225 630 C 207 613 192 591 180 563 C 168 535 158 500 152 460 L 116 255 C 108 214 105 180 107 152 C 109 124 115 101 127 84 C 138 67 154 55 175 48 C 196 40 223 37 255 37 C 287 37 315 40 339 48 C 363 55 385 67 403 84 C 421 101 435 124 447 152 C 459 180 468 214 476 255 L 513 460 Z" />
<glyph unicode="1" horiz-adv-x="332" d="M 107 0 L 223 667 L 122 667 L 128 698 L 254 715 L 287 715 L 162 0 L 107 0 Z" />
<glyph unicode="2" horiz-adv-x="564" d="M 25 41 C 32 85 48 123 73 154 C 97 184 126 211 159 234 C 192 257 227 278 264 296 C 301 314 336 334 369 354 C 401 374 429 397 453 422 C 477 446 492 477 499 513 C 503 539 505 563 504 583 C 502 603 497 621 487 635 C 477 649 461 659 441 667 C 421 674 394 678 360 678 C 300 678 254 664 222 636 C 190 608 170 565 161 507 L 106 507 C 112 541 121 571 133 598 C 145 625 162 648 183 667 C 204 686 230 701 260 711 C 290 721 325 726 366 726 C 408 726 443 720 470 710 C 497 700 518 685 532 667 C 546 649 555 626 558 600 C 561 574 560 545 555 513 C 547 470 532 434 508 405 C 484 376 456 351 424 329 C 392 307 357 288 321 270 C 285 252 250 234 218 214 C 186 194 157 170 133 144 C 108 118 92 86 84 48 L 479 48 L 471 0 L 19 0 L 25 41 Z" />
<glyph unicode="3" horiz-adv-x="585" d="M 108 518 C 120 593 148 646 191 678 C 234 710 292 726 366 726 C 445 726 500 710 531 678 C 561 646 570 592 558 518 C 550 476 535 443 513 419 C 491 394 465 376 435 365 C 470 353 496 335 513 310 C 530 284 534 247 526 199 C 513 125 484 71 438 38 C 392 5 329 -11 251 -11 C 171 -11 114 4 82 36 C 49 68 39 121 53 197 L 108 197 C 102 167 101 142 103 122 C 105 102 112 85 124 73 C 135 60 151 51 172 45 C 193 39 220 37 253 37 C 317 37 366 49 401 73 C 436 97 459 139 470 199 C 473 217 474 235 472 252 C 470 269 466 284 458 297 C 450 310 438 320 423 328 C 408 336 389 340 365 340 L 261 340 L 268 386 L 373 386 C 391 386 408 390 423 399 C 438 407 451 418 462 431 C 472 444 481 458 488 474 C 494 489 499 504 502 518 C 506 548 507 573 505 593 C 503 613 496 630 485 642 C 473 654 457 663 437 669 C 416 675 390 678 359 678 C 329 678 304 675 282 669 C 260 663 241 654 225 642 C 209 629 195 612 185 592 C 175 572 167 547 163 518 L 108 518 Z" />
<glyph unicode="4" horiz-adv-x="586" d="M 393 176 L 28 176 L 34 216 L 469 715 L 542 715 L 455 224 L 542 224 L 535 176 L 448 176 L 417 0 L 362 0 L 393 176 Z M 400 224 L 477 659 L 103 224 L 400 224 Z" />
<glyph unicode="5" horiz-adv-x="588" d="M 89 340 L 186 715 L 571 715 L 562 667 L 226 667 L 154 382 C 184 404 216 421 248 433 C 280 445 314 452 350 452 C 382 452 411 448 436 440 C 461 432 481 420 497 402 C 512 384 522 361 527 333 C 532 305 531 270 524 228 C 516 188 506 153 493 123 C 479 93 461 69 439 49 C 417 29 390 14 358 4 C 326 -6 289 -11 245 -11 C 201 -11 164 -5 136 5 C 108 15 86 30 72 50 C 57 69 48 92 45 119 C 42 145 44 175 50 207 L 102 207 C 97 181 96 157 98 136 C 100 115 106 97 117 83 C 127 68 143 57 165 49 C 186 41 214 37 249 37 C 283 37 313 41 339 49 C 364 57 385 68 403 84 C 420 100 434 120 444 144 C 454 168 462 196 468 228 C 474 262 475 290 472 314 C 468 337 461 356 450 370 C 438 384 423 394 404 400 C 384 406 361 409 335 409 C 315 409 296 406 278 402 C 260 398 244 392 229 386 C 213 379 199 371 186 363 C 173 355 161 347 151 340 L 89 340 Z" />
<glyph unicode="6" horiz-adv-x="583" d="M 136 374 C 167 389 201 402 239 413 C 276 423 310 429 342 429 C 420 429 473 412 500 378 C 527 344 534 289 521 213 C 507 137 480 80 438 44 C 396 7 336 -11 258 -11 C 217 -11 182 -7 153 0 C 124 7 101 20 84 40 C 67 59 56 85 52 118 C 47 150 49 192 59 244 L 98 464 C 106 512 118 553 133 587 C 147 620 166 647 188 668 C 210 688 237 703 267 712 C 297 721 333 726 373 726 C 449 726 502 710 530 679 C 558 647 567 598 557 532 L 502 532 C 506 556 507 578 505 596 C 503 614 497 630 487 642 C 477 654 462 663 442 669 C 422 675 397 678 366 678 C 333 678 305 674 281 668 C 257 661 237 649 221 633 C 205 617 191 595 180 568 C 169 540 160 506 153 464 L 136 374 Z M 327 386 C 295 386 263 381 230 371 C 197 361 164 347 130 331 L 114 244 C 106 201 104 166 106 139 C 108 112 115 91 127 76 C 139 61 156 51 178 45 C 200 39 227 37 261 37 C 321 37 368 50 400 78 C 432 106 454 151 466 213 C 472 245 474 273 473 295 C 471 317 465 334 455 348 C 444 362 428 371 407 377 C 386 383 359 386 327 386 Z" />
<glyph unicode="7" horiz-adv-x="515" d="M 99 0 L 490 667 L 103 667 L 112 715 L 561 715 L 553 672 L 164 0 L 99 0 Z" />
<glyph unicode="8" horiz-adv-x="601" d="M 258 -10 C 169 -10 107 5 72 36 C 36 67 25 117 37 187 C 45 232 64 270 94 300 C 123 330 162 352 211 364 C 171 375 145 396 131 428 C 117 459 114 496 122 538 C 128 572 138 601 153 625 C 167 649 186 668 208 683 C 230 698 256 709 285 716 C 314 722 346 726 382 726 C 416 726 447 722 475 716 C 502 709 524 698 542 683 C 559 668 571 649 578 625 C 585 601 586 572 580 538 C 572 496 555 459 530 428 C 505 396 471 375 429 364 C 473 352 504 330 523 300 C 541 270 547 232 539 187 C 533 152 523 122 510 97 C 496 72 478 52 456 36 C 433 20 405 8 373 1 C 341 -6 302 -10 258 -10 Z M 356 386 C 404 386 442 399 470 427 C 498 454 516 489 524 532 C 532 586 524 624 500 646 C 476 667 434 678 376 678 C 346 678 320 675 298 670 C 275 665 255 657 239 646 C 222 634 208 619 198 601 C 188 582 180 559 176 532 C 168 489 174 454 192 427 C 210 399 242 386 290 386 L 356 386 Z M 283 340 C 252 340 225 335 203 327 C 181 318 162 306 147 292 C 132 278 120 262 112 244 C 103 226 97 207 94 189 C 84 135 92 96 117 72 C 141 48 189 37 260 37 C 330 37 382 48 418 72 C 453 96 475 135 485 189 C 488 207 488 226 486 244 C 484 262 477 278 467 292 C 457 306 442 318 423 327 C 404 335 379 340 349 340 L 283 340 Z" />
<glyph unicode="9" horiz-adv-x="583" d="M 253 37 C 285 37 312 40 336 47 C 360 54 380 66 397 82 C 414 98 428 120 440 148 C 451 175 460 209 468 251 L 483 341 C 451 325 417 312 380 302 C 342 291 308 286 278 286 C 238 286 206 290 180 298 C 154 306 134 319 120 337 C 106 354 97 376 94 404 C 90 431 92 464 99 502 C 112 578 140 634 184 671 C 227 707 287 726 365 726 C 405 726 440 722 469 715 C 498 707 521 694 537 675 C 553 655 564 629 568 596 C 572 563 569 521 561 471 L 522 251 C 513 202 501 161 487 128 C 472 94 454 67 432 47 C 410 26 385 11 355 2 C 325 -6 290 -11 250 -11 C 173 -11 120 4 91 36 C 61 67 52 116 64 183 L 117 183 C 113 157 112 135 114 117 C 116 99 122 84 132 72 C 142 60 157 51 177 45 C 196 39 221 37 253 37 Z M 291 329 C 321 329 354 333 388 343 C 422 353 457 366 491 384 L 506 471 C 513 513 516 548 514 575 C 512 602 505 623 493 638 C 481 653 463 663 441 669 C 419 675 391 678 359 678 C 298 678 251 664 219 636 C 186 608 164 564 154 502 C 148 469 145 442 147 420 C 148 398 154 380 165 366 C 175 352 191 343 211 337 C 231 331 258 329 291 329 Z" />
<glyph unicode=":" horiz-adv-x="249" d="M 53 81 L 136 81 L 122 0 L 38 0 L 53 81 Z M 120 462 L 204 462 L 189 381 L 106 381 L 120 462 Z" />
<glyph unicode=";" horiz-adv-x="249" d="M 120 462 L 204 462 L 189 381 L 106 381 L 120 462 Z M 53 81 L 136 81 L 63 -110 L 19 -110 L 53 81 Z" />
<glyph unicode="&#x3C;" horiz-adv-x="420" d="M 79 358 L 382 737 L 446 737 L 140 353 L 311 -22 L 252 -22 L 79 358 Z" />
<glyph unicode="=" horiz-adv-x="565" d="M 498 217 L 490 168 L 45 168 L 54 217 L 498 217 Z M 538 437 L 529 388 L 85 388 L 94 437 L 538 437 Z" />
<glyph unicode="&#x3E;" horiz-adv-x="420" d="M 378 358 L 76 -22 L 12 -22 L 318 362 L 146 737 L 206 737 L 378 358 Z" />
<glyph unicode="?" horiz-adv-x="543" d="M 106 539 C 115 596 139 641 178 675 C 217 709 274 726 349 726 C 391 726 426 721 454 713 C 482 705 503 692 519 675 C 534 657 543 635 547 609 C 551 582 549 551 543 515 C 531 447 505 396 463 360 C 421 324 366 305 297 302 L 275 216 L 242 216 L 253 348 C 291 348 323 351 350 357 C 377 363 400 373 418 387 C 436 400 451 417 462 438 C 473 459 481 485 487 515 C 491 543 493 568 491 588 C 489 608 482 625 471 639 C 459 652 443 662 422 668 C 400 674 373 678 340 678 C 311 678 286 674 266 668 C 245 662 227 653 213 641 C 199 629 187 614 179 597 C 171 580 165 561 161 539 L 106 539 Z M 194 81 L 277 81 L 263 0 L 179 0 L 194 81 Z" />
<glyph unicode="@" horiz-adv-x="884" d="M 101 356 C 109 402 123 444 144 482 C 165 519 193 551 227 577 C 261 603 301 624 349 638 C 397 652 452 659 514 659 C 574 659 626 652 669 638 C 712 624 746 603 771 577 C 796 551 813 519 821 482 C 829 444 829 402 821 356 L 792 196 C 784 149 769 107 748 70 C 726 32 698 0 664 -25 C 630 -51 589 -72 541 -86 C 493 -100 439 -107 378 -107 C 318 -107 266 -100 224 -86 C 181 -72 147 -51 122 -25 C 97 0 81 32 73 70 C 65 107 65 149 73 196 L 101 356 Z M 124 200 C 108 111 121 45 165 3 C 208 -39 282 -61 387 -61 C 491 -61 573 -39 631 3 C 689 45 727 111 743 200 L 769 352 C 784 440 770 506 727 549 C 684 591 610 613 506 613 C 401 613 319 591 261 549 C 203 506 166 440 151 352 L 124 200 Z M 256 178 C 248 136 256 106 279 87 C 301 67 334 58 378 58 C 407 58 433 62 457 71 C 481 80 505 94 529 113 L 535 67 L 563 67 L 615 361 C 623 410 618 444 598 464 C 578 484 540 494 486 494 C 461 494 439 492 419 488 C 399 484 382 478 367 469 C 352 459 340 447 330 431 C 320 415 313 394 309 370 L 355 370 C 360 402 372 423 392 435 C 411 447 440 453 479 453 C 500 453 517 451 530 448 C 543 444 553 439 560 432 C 566 424 570 415 571 403 C 572 391 571 377 569 361 L 560 306 L 406 295 C 361 291 326 279 302 259 C 277 239 262 212 256 178 Z M 388 99 C 356 99 333 104 318 116 C 303 128 298 148 304 178 C 307 200 316 218 332 232 C 347 246 371 255 403 258 L 553 272 L 532 152 C 509 134 486 121 464 112 C 441 103 416 99 388 99 Z" />
<glyph unicode="A" horiz-adv-x="579" d="M 421 196 L 143 196 L 51 0 L -11 0 L 335 715 L 406 715 L 502 0 L 447 0 L 421 196 Z M 167 244 L 416 244 L 363 654 L 361 654 L 167 244 Z" />
<glyph unicode="B" horiz-adv-x="617" d="M 175 715 L 399 715 C 439 715 473 711 500 705 C 527 698 548 687 564 672 C 579 657 589 638 593 615 C 597 591 596 563 590 531 C 582 488 564 452 538 423 C 511 393 479 374 441 364 C 489 352 521 332 538 304 C 555 276 559 239 551 191 C 545 155 535 124 521 100 C 507 75 490 55 468 41 C 446 26 421 15 391 9 C 361 3 328 0 290 0 L 50 0 L 175 715 Z M 164 340 L 112 48 L 298 48 C 330 48 358 50 382 56 C 405 62 424 71 440 83 C 455 95 467 110 476 128 C 485 146 492 168 497 194 C 505 242 498 279 476 303 C 454 327 414 340 356 340 L 164 340 Z M 172 386 L 364 386 C 389 386 411 389 431 397 C 450 404 466 414 480 427 C 494 439 505 454 514 472 C 522 489 528 508 532 528 C 541 579 535 615 514 636 C 492 656 451 667 391 667 L 221 667 L 172 386 Z" />
<glyph unicode="C" horiz-adv-x="595" d="M 272 37 C 302 37 328 39 350 44 C 372 48 391 56 407 68 C 423 80 436 95 446 115 C 456 134 463 158 469 188 L 524 188 C 517 151 507 120 493 95 C 479 69 462 49 440 33 C 418 17 393 6 364 0 C 335 -7 302 -11 264 -11 C 222 -11 186 -7 158 1 C 129 9 107 23 91 43 C 75 63 65 89 62 123 C 58 156 61 198 70 249 L 109 468 C 117 516 129 556 143 589 C 157 621 176 648 198 668 C 220 688 248 703 280 712 C 312 721 350 726 394 726 C 431 726 463 722 490 715 C 517 708 538 697 554 681 C 570 665 580 645 585 620 C 590 594 589 563 583 527 L 528 527 C 533 555 534 579 531 599 C 528 619 521 634 509 646 C 497 657 480 665 460 670 C 440 675 415 678 385 678 C 351 678 321 674 297 668 C 272 661 251 650 234 634 C 217 618 203 596 192 569 C 181 542 172 509 165 469 L 125 248 C 117 207 114 173 116 146 C 117 119 123 97 135 81 C 146 65 163 53 185 47 C 207 40 236 37 272 37 Z" />
<glyph unicode="D" horiz-adv-x="629" d="M 50 0 L 175 715 L 377 715 C 418 715 454 711 486 704 C 517 696 542 683 561 664 C 580 644 592 618 598 585 C 604 552 602 510 594 460 L 558 255 C 548 203 535 161 518 129 C 500 96 479 70 453 51 C 427 31 398 18 364 11 C 330 3 293 0 252 0 L 50 0 Z M 260 48 C 292 48 321 50 348 56 C 374 62 398 72 418 88 C 438 103 456 124 470 151 C 484 178 495 213 503 255 L 539 460 C 546 502 547 536 543 563 C 538 590 528 611 513 627 C 498 642 478 652 454 658 C 429 664 401 667 369 667 L 221 667 L 112 48 L 260 48 Z" />
<glyph unicode="E" horiz-adv-x="555" d="M 460 340 L 164 340 L 112 48 L 448 48 L 440 0 L 50 0 L 175 715 L 565 715 L 557 667 L 221 667 L 172 386 L 468 386 L 460 340 Z" />
<glyph unicode="F" horiz-adv-x="513" d="M 440 340 L 164 340 L 105 0 L 50 0 L 175 715 L 544 715 L 536 667 L 221 667 L 172 386 L 448 386 L 440 340 Z" />
<glyph unicode="G" horiz-adv-x="628" d="M 392 726 C 429 726 461 722 488 715 C 515 708 537 697 553 681 C 569 665 580 645 585 620 C 590 594 589 563 583 527 L 528 527 C 533 555 534 579 531 599 C 528 619 521 634 509 646 C 497 657 480 665 460 670 C 440 675 415 678 385 678 C 351 678 321 674 297 668 C 272 661 251 650 234 634 C 217 618 203 596 192 569 C 181 542 172 509 165 469 L 125 248 C 117 207 114 173 116 146 C 117 119 123 97 135 81 C 146 65 163 53 185 47 C 207 40 236 37 272 37 C 336 37 385 50 418 77 C 450 104 471 139 479 183 L 506 340 L 342 340 L 350 386 L 569 386 L 502 0 L 470 0 L 463 66 C 451 54 439 43 427 33 C 414 23 400 15 384 9 C 368 3 351 -1 331 -5 C 311 -9 289 -11 264 -11 C 222 -11 187 -6 159 2 C 130 10 108 25 92 45 C 76 65 66 92 62 125 C 58 158 61 199 70 248 L 110 469 C 118 515 129 555 143 588 C 157 620 175 647 197 668 C 219 688 246 703 278 712 C 310 721 348 726 392 726 Z" />
<glyph unicode="H" horiz-adv-x="636" d="M 498 0 L 443 0 L 503 340 L 164 340 L 105 0 L 50 0 L 175 715 L 230 715 L 172 386 L 510 386 L 569 715 L 624 715 L 498 0 Z" />
<glyph unicode="I" horiz-adv-x="242" d="M 175 715 L 230 715 L 105 0 L 50 0 L 175 715 Z" />
<glyph unicode="J" horiz-adv-x="410" d="M 183 667 L 191 715 L 398 715 L 297 137 C 292 112 285 90 277 72 C 269 53 257 37 243 25 C 229 13 211 4 191 -2 C 170 -8 145 -11 117 -11 C 96 -11 76 -10 57 -8 C 38 -6 21 -4 5 0 L 14 51 C 49 41 85 37 123 37 C 141 37 156 38 169 41 C 182 43 193 48 203 56 C 213 64 221 74 227 87 C 233 100 238 117 242 137 L 334 667 L 183 667 Z" />
<glyph unicode="K" horiz-adv-x="546" d="M 105 0 L 50 0 L 175 715 L 230 715 L 173 391 L 513 715 L 587 715 L 216 364 L 469 0 L 399 0 L 165 346 L 105 0 Z" />
<glyph unicode="L" horiz-adv-x="470" d="M 175 715 L 230 715 L 112 48 L 384 48 L 376 0 L 50 0 L 175 715 Z" />
<glyph unicode="M" horiz-adv-x="805" d="M 366 67 L 369 67 L 700 715 L 793 715 L 668 0 L 613 0 L 729 662 L 387 0 L 330 0 L 221 662 L 105 0 L 50 0 L 175 715 L 263 715 L 366 67 Z" />
<glyph unicode="N" horiz-adv-x="648" d="M 510 0 L 441 0 L 217 639 L 105 0 L 50 0 L 175 715 L 244 715 L 469 76 L 581 715 L 636 715 L 510 0 Z" />
<glyph unicode="O" horiz-adv-x="609" d="M 526 468 C 534 510 536 545 534 573 C 532 600 525 621 513 637 C 501 652 484 663 462 669 C 440 675 412 678 380 678 C 347 678 318 675 294 669 C 270 663 249 652 231 637 C 213 621 199 600 187 573 C 175 545 166 510 158 468 L 120 248 C 112 204 110 169 112 142 C 114 114 121 93 133 78 C 145 62 162 52 184 46 C 206 40 233 37 266 37 C 298 37 327 40 351 46 C 375 52 396 62 414 78 C 432 93 446 114 458 142 C 470 169 479 204 487 248 L 526 468 Z M 542 248 C 533 197 521 155 505 122 C 489 88 470 62 447 42 C 424 22 397 9 366 1 C 334 -7 298 -11 258 -11 C 218 -11 183 -7 155 1 C 126 9 104 22 88 42 C 72 62 62 88 58 122 C 54 155 56 197 65 248 L 103 468 C 112 518 124 559 140 593 C 156 626 175 652 199 672 C 222 692 249 706 281 714 C 312 722 348 726 388 726 C 428 726 463 722 491 714 C 519 706 542 692 558 672 C 574 652 584 626 588 593 C 592 559 589 518 581 468 L 542 248 Z" />
<glyph unicode="P" horiz-adv-x="603" d="M 175 715 L 391 715 C 431 715 466 711 495 705 C 524 698 547 686 564 670 C 580 653 591 630 595 602 C 599 574 598 538 591 496 C 583 457 573 424 559 397 C 545 369 527 347 505 330 C 483 313 456 301 425 293 C 394 285 358 282 317 282 L 154 282 L 105 0 L 50 0 L 175 715 Z M 162 330 L 324 330 C 357 330 386 332 410 338 C 434 343 454 352 471 365 C 487 378 500 395 510 417 C 520 438 527 464 533 496 C 539 532 541 561 538 583 C 535 605 527 622 515 635 C 502 647 485 656 463 660 C 441 664 414 667 382 667 L 221 667 L 162 330 Z" />
<glyph unicode="Q" horiz-adv-x="620" d="M 548 248 C 539 199 527 158 513 126 C 499 94 481 68 460 48 C 439 28 414 14 386 5 C 357 -3 324 -8 288 -10 C 285 -33 288 -49 298 -59 C 307 -68 325 -73 351 -73 L 427 -73 L 400 -112 L 337 -112 C 321 -112 306 -110 293 -107 C 280 -103 269 -98 261 -90 C 253 -82 247 -71 243 -58 C 239 -45 239 -29 242 -10 C 205 -9 174 -4 148 4 C 122 12 102 27 88 47 C 74 67 65 93 62 125 C 58 157 61 198 70 248 L 109 468 C 117 518 129 560 145 594 C 161 627 180 653 204 673 C 227 693 254 706 286 714 C 317 722 353 726 394 726 C 434 726 468 722 497 714 C 525 706 548 693 564 673 C 580 653 590 627 594 594 C 598 560 595 518 586 468 L 548 248 Z M 531 468 C 539 510 542 545 540 573 C 538 600 531 621 519 637 C 507 652 489 663 467 669 C 445 675 417 678 385 678 C 352 678 323 675 299 669 C 275 663 254 652 237 637 C 219 621 205 600 193 573 C 181 545 172 510 164 468 L 125 248 C 117 204 115 169 117 142 C 119 114 126 93 138 78 C 150 62 167 52 189 46 C 211 40 239 37 272 37 C 304 37 333 40 357 46 C 381 52 402 62 420 78 C 438 93 452 114 464 142 C 476 169 485 204 493 248 L 531 468 Z" />
<glyph unicode="R" horiz-adv-x="616" d="M 175 715 L 393 715 C 434 715 469 711 498 705 C 526 698 549 686 565 670 C 581 653 592 630 596 602 C 600 574 598 538 591 496 C 580 436 561 389 534 357 C 506 325 468 303 419 291 L 512 0 L 454 0 L 366 283 C 362 283 358 282 352 282 C 346 282 336 282 322 282 C 307 282 286 282 260 282 C 234 282 198 282 154 282 L 105 0 L 50 0 L 175 715 Z M 162 330 L 324 330 C 357 330 386 332 410 338 C 434 343 454 352 471 365 C 487 378 500 395 510 417 C 520 438 527 464 533 496 C 539 532 541 561 538 583 C 535 605 527 622 515 635 C 502 647 485 656 463 660 C 441 664 414 667 382 667 L 221 667 L 162 330 Z" />
<glyph unicode="S" horiz-adv-x="595" d="M 310 346 C 270 351 236 359 210 369 C 184 379 163 392 148 408 C 133 424 124 442 120 464 C 116 485 116 509 122 537 C 132 599 159 646 202 678 C 244 710 302 726 376 726 C 414 726 446 722 473 715 C 499 708 521 697 537 681 C 553 665 563 645 568 620 C 572 594 571 563 565 527 L 512 527 C 516 555 517 579 514 599 C 511 619 504 634 492 646 C 480 657 464 665 444 670 C 424 675 399 678 370 678 C 312 678 268 666 237 644 C 206 621 186 585 178 537 C 174 515 173 496 176 480 C 178 464 185 450 196 438 C 207 426 223 416 243 409 C 263 401 290 396 323 392 C 373 386 412 377 442 366 C 471 355 492 341 506 324 C 520 307 527 287 528 264 C 529 240 527 213 522 182 C 516 150 506 121 494 97 C 481 73 464 53 443 37 C 421 21 395 9 363 1 C 331 -7 294 -11 251 -11 C 215 -11 184 -8 156 -2 C 128 3 105 13 87 28 C 69 42 56 62 50 88 C 43 113 43 145 51 184 L 103 184 C 97 154 97 129 101 110 C 105 91 113 76 126 65 C 138 54 155 47 177 43 C 199 39 225 37 256 37 C 290 37 320 40 345 46 C 369 52 390 61 407 73 C 423 85 436 100 446 118 C 455 136 462 158 466 182 C 470 206 472 228 472 246 C 472 264 468 280 458 293 C 448 306 431 317 408 325 C 384 333 352 340 310 346 Z" />
<glyph unicode="T" horiz-adv-x="491" d="M 291 667 L 100 667 L 109 715 L 544 715 L 536 667 L 346 667 L 230 0 L 175 0 L 291 667 Z" />
<glyph unicode="U" horiz-adv-x="627" d="M 219 715 L 132 219 C 126 185 124 156 126 133 C 128 109 134 90 146 76 C 157 62 173 52 194 46 C 215 40 242 37 275 37 C 307 37 335 40 359 46 C 382 52 402 62 419 76 C 435 90 449 109 459 133 C 469 156 478 185 484 219 L 571 715 L 626 715 L 539 219 C 531 173 519 136 504 106 C 488 76 469 53 447 36 C 425 18 399 6 369 0 C 339 -7 306 -11 269 -11 C 231 -11 199 -7 171 0 C 143 6 121 18 105 36 C 88 53 77 76 72 106 C 67 136 69 173 77 219 L 164 715 L 219 715 Z" />
<glyph unicode="V" horiz-adv-x="568" d="M 248 63 L 250 63 L 561 715 L 621 715 L 275 0 L 205 0 L 109 715 L 165 715 L 248 63 Z" />
<glyph unicode="W" horiz-adv-x="909" d="M 571 715 L 620 73 L 623 73 L 879 715 L 941 715 L 643 0 L 576 0 L 524 650 L 244 0 L 177 0 L 131 715 L 190 715 L 220 73 L 222 73 L 498 715 L 571 715 Z" />
<glyph unicode="X" horiz-adv-x="546" d="M 322 362 L 474 0 L 413 0 L 286 321 L 51 0 L -17 0 L 263 366 L 120 715 L 182 715 L 298 410 L 521 715 L 588 715 L 322 362 Z" />
<glyph unicode="Y" horiz-adv-x="535" d="M 246 288 L 109 715 L 167 715 L 278 339 L 280 339 L 526 715 L 588 715 L 301 288 L 251 0 L 196 0 L 246 288 Z" />
<glyph unicode="Z" horiz-adv-x="547" d="M 153 715 L 568 715 L 561 674 L 90 48 L 461 48 L 453 0 L 16 0 L 23 38 L 494 667 L 144 667 L 153 715 Z" />
<glyph unicode="[" horiz-adv-x="350" d="M 184 761 L 369 761 L 360 715 L 228 715 L 86 -88 L 218 -88 L 210 -134 L 25 -134 L 184 761 Z" />
<glyph unicode="\" horiz-adv-x="374" d="M 276 -22 L 226 -22 L 135 737 L 186 737 L 276 -22 Z" />
<glyph unicode="]" horiz-adv-x="350" d="M 188 -134 L 3 -134 L 11 -88 L 143 -88 L 285 715 L 153 715 L 162 761 L 346 761 L 188 -134 Z" />
<glyph unicode="^" horiz-adv-x="521" d="M 142 386 L 84 386 L 313 715 L 373 715 L 484 386 L 426 386 L 334 663 L 332 663 L 142 386 Z" />
<glyph unicode="_" horiz-adv-x="490" d="M 2 48 L 415 48 L 407 0 L -6 0 L 2 48 Z" />
<glyph unicode="`" horiz-adv-x="253" d="M 256 621 L 218 621 L 147 754 L 224 754 L 256 621 Z" />
<glyph unicode="a" horiz-adv-x="568" d="M 417 0 L 409 61 C 375 35 341 17 309 6 C 277 -5 242 -11 204 -11 C 176 -11 151 -7 129 -1 C 107 5 88 15 74 29 C 59 43 48 60 42 81 C 36 102 35 127 41 155 C 45 181 53 203 66 222 C 78 241 94 257 112 269 C 130 281 151 289 175 295 C 199 301 224 303 250 302 L 443 295 L 460 386 C 464 409 465 429 464 445 C 462 461 457 475 448 485 C 439 495 426 503 408 508 C 390 512 366 515 338 515 C 308 515 283 513 263 510 C 242 506 225 500 212 491 C 198 482 188 470 180 455 C 172 439 167 420 163 397 L 110 397 C 116 429 125 456 138 477 C 150 498 166 515 186 527 C 206 539 229 548 255 553 C 281 558 311 561 345 561 C 381 561 411 557 435 551 C 459 545 477 535 491 521 C 504 507 512 489 516 467 C 519 445 518 418 513 386 L 447 0 L 417 0 Z M 219 35 C 238 35 256 36 272 39 C 288 42 304 47 319 53 C 334 59 349 66 364 75 C 378 83 394 93 410 105 L 438 260 L 240 260 C 202 260 169 251 143 234 C 117 217 101 190 95 153 C 80 74 121 35 219 35 Z" />
<glyph unicode="b" horiz-adv-x="586" d="M 133 244 C 125 204 122 171 123 145 C 124 118 130 96 141 80 C 151 64 167 52 188 45 C 208 38 234 35 266 35 C 298 35 326 38 349 44 C 371 50 390 60 406 76 C 422 92 435 113 445 140 C 455 167 464 202 472 244 L 483 306 C 490 348 493 382 492 409 C 490 436 484 457 474 473 C 464 489 449 500 429 506 C 409 512 385 515 356 515 C 328 515 297 509 265 497 C 233 485 200 468 168 446 L 133 244 Z M 168 737 L 221 737 L 177 492 C 207 511 239 527 273 541 C 307 554 340 561 370 561 C 403 561 432 557 457 550 C 481 542 501 529 516 510 C 530 490 539 464 543 431 C 547 398 544 356 536 306 L 525 244 C 515 194 504 152 490 120 C 476 87 459 61 439 42 C 418 22 393 9 364 1 C 335 -7 301 -11 261 -11 C 223 -11 191 -6 165 2 C 138 10 117 24 102 44 C 86 64 77 90 73 123 C 69 155 72 196 81 244 L 168 737 Z" />
<glyph unicode="c" horiz-adv-x="548" d="M 330 515 C 298 515 271 512 249 506 C 226 500 206 489 190 474 C 174 458 160 437 150 410 C 139 383 130 348 123 306 L 112 244 C 104 201 100 166 102 139 C 103 112 109 91 120 75 C 130 59 146 49 167 43 C 187 37 213 35 245 35 C 275 35 300 37 320 42 C 340 46 357 54 370 64 C 383 74 393 86 401 101 C 408 115 413 133 417 153 L 470 153 C 464 123 456 98 445 77 C 433 56 418 39 400 26 C 381 13 358 4 332 -2 C 305 -8 274 -11 238 -11 C 200 -11 167 -7 140 0 C 113 7 92 20 77 40 C 62 59 53 85 50 118 C 46 150 49 192 59 244 L 70 306 C 78 356 90 398 105 431 C 120 464 138 490 160 510 C 182 529 207 542 237 550 C 266 557 300 561 338 561 C 410 561 459 548 487 523 C 514 498 523 456 513 397 L 460 397 C 463 417 464 434 462 449 C 460 463 455 476 445 486 C 435 496 421 503 403 508 C 384 512 360 515 330 515 Z" />
<glyph unicode="d" horiz-adv-x="586" d="M 237 35 C 264 35 294 41 327 53 C 360 65 393 83 425 105 L 485 446 C 461 468 434 485 406 497 C 377 509 349 515 321 515 C 291 515 266 512 245 506 C 223 500 205 489 189 473 C 173 457 160 436 150 409 C 139 382 130 348 123 306 L 112 244 C 104 202 101 167 102 140 C 103 113 109 92 119 76 C 129 60 144 50 164 44 C 183 38 207 35 237 35 Z M 227 -11 C 193 -11 164 -7 139 0 C 114 7 94 20 79 40 C 64 59 55 85 51 118 C 47 150 49 192 59 244 L 70 306 C 78 356 90 398 105 431 C 120 464 138 490 159 510 C 180 529 204 542 231 550 C 258 557 288 561 322 561 C 352 561 382 554 412 541 C 442 527 469 511 493 492 L 537 737 L 590 737 L 460 0 L 430 0 L 422 61 C 408 49 392 39 376 30 C 359 21 342 14 325 8 C 308 2 291 -2 274 -6 C 257 -9 241 -11 227 -11 Z" />
<glyph unicode="e" horiz-adv-x="547" d="M 114 260 C 105 210 101 171 102 141 C 103 111 109 89 121 73 C 132 57 149 47 171 42 C 193 37 222 35 256 35 C 290 35 322 37 353 42 C 383 47 412 53 438 59 L 429 11 C 404 5 376 0 345 -4 C 313 -8 278 -11 240 -11 C 201 -11 168 -7 141 0 C 114 6 93 19 78 38 C 62 57 53 83 50 116 C 46 149 49 192 59 244 L 70 306 C 78 356 90 398 105 431 C 120 464 138 490 160 510 C 181 529 206 542 235 550 C 264 557 297 561 335 561 C 365 561 391 558 414 554 C 437 549 456 541 471 530 C 486 518 497 503 505 483 C 512 463 515 437 515 407 C 513 371 506 343 494 323 C 481 302 464 286 442 275 C 420 264 395 257 366 255 C 337 252 306 251 272 253 L 114 260 Z M 279 295 C 311 295 339 296 363 300 C 386 304 405 310 419 318 C 433 326 444 338 451 353 C 458 367 462 386 463 408 C 463 430 461 447 456 461 C 451 475 443 486 432 494 C 420 502 406 507 389 510 C 371 513 351 515 327 515 C 295 515 267 512 245 506 C 223 500 204 488 188 472 C 172 456 158 433 148 405 C 138 376 129 339 121 295 L 279 295 Z" />
<glyph unicode="f" horiz-adv-x="322" d="M 372 691 C 362 693 352 696 341 698 C 329 700 316 702 301 702 C 276 702 257 696 245 686 C 232 675 223 657 219 631 L 205 550 L 315 550 L 306 504 L 196 504 L 90 -99 L 37 -99 L 143 504 L 77 504 L 84 539 L 152 550 L 166 632 C 173 674 188 703 212 721 C 235 739 267 748 308 748 C 325 748 339 747 351 745 C 363 743 373 740 381 737 L 372 691 Z" />
<glyph unicode="g" horiz-adv-x="586" d="M 419 69 C 389 49 357 33 323 20 C 289 6 257 0 227 0 C 193 0 164 3 140 11 C 115 18 95 31 81 51 C 66 70 57 96 53 129 C 49 161 51 203 61 255 L 70 306 C 78 356 90 398 106 431 C 121 464 139 490 160 510 C 181 529 205 542 233 550 C 260 557 290 561 324 561 C 354 561 384 554 415 540 C 445 526 472 509 496 490 L 525 550 L 557 550 L 460 0 C 454 -35 445 -65 435 -90 C 424 -115 410 -136 392 -152 C 374 -168 351 -179 325 -187 C 298 -194 265 -198 227 -198 C 195 -198 165 -195 137 -191 C 108 -187 82 -181 58 -174 L 67 -125 C 93 -134 120 -141 147 -145 C 174 -149 202 -152 232 -152 C 259 -152 282 -149 302 -145 C 322 -140 338 -132 352 -121 C 366 -109 377 -94 386 -74 C 394 -54 401 -30 407 0 L 419 69 Z M 321 515 C 291 515 266 512 245 506 C 223 500 205 489 189 473 C 173 457 160 436 150 409 C 139 382 130 348 123 306 L 113 255 C 105 213 102 178 104 151 C 105 124 111 103 121 87 C 131 71 146 61 166 55 C 185 49 209 46 239 46 C 267 46 297 52 330 64 C 362 76 395 93 427 116 L 485 446 C 461 468 434 485 406 497 C 377 509 349 515 321 515 Z" />
<glyph unicode="h" horiz-adv-x="577" d="M 404 0 L 469 371 C 474 399 476 423 474 442 C 472 460 466 475 457 486 C 447 497 434 505 417 509 C 400 513 380 515 356 515 C 323 515 292 509 262 497 C 232 485 201 468 169 446 L 91 0 L 38 0 L 168 737 L 221 737 L 177 492 C 213 515 245 532 275 544 C 305 555 336 561 369 561 C 400 561 427 558 449 552 C 471 546 489 536 502 522 C 515 508 523 488 526 464 C 529 439 527 408 521 371 L 457 0 L 404 0 Z" />
<glyph unicode="i" horiz-adv-x="229" d="M 141 550 L 194 550 L 97 0 L 44 0 L 141 550 Z M 166 737 L 234 737 L 222 669 L 154 669 L 166 737 Z" />
<glyph unicode="j" horiz-adv-x="229" d="M 84 -73 C 76 -115 62 -146 42 -167 C 22 -187 -9 -198 -51 -198 C -78 -198 -102 -194 -122 -187 L -114 -141 C -104 -144 -94 -147 -82 -149 C -70 -151 -58 -152 -47 -152 C -23 -152 -5 -145 6 -133 C 17 -120 25 -100 31 -74 L 141 550 L 194 550 L 84 -73 Z M 166 737 L 234 737 L 222 669 L 154 669 L 166 737 Z" />
<glyph unicode="k" horiz-adv-x="499" d="M 91 0 L 38 0 L 168 737 L 221 737 L 145 308 L 147 308 L 427 550 L 503 550 L 188 284 L 428 0 L 358 0 L 140 266 L 137 266 L 91 0 Z" />
<glyph unicode="l" horiz-adv-x="218" d="M 168 737 L 221 737 L 91 0 L 38 0 L 168 737 Z" />
<glyph unicode="m" horiz-adv-x="871" d="M 420 0 L 367 0 L 438 404 C 441 424 442 441 442 455 C 441 469 437 480 431 489 C 424 498 414 505 401 509 C 387 513 370 515 348 515 C 320 515 292 509 262 497 C 232 485 201 468 169 446 L 91 0 L 38 0 L 135 550 L 167 550 L 174 490 C 208 513 241 531 273 543 C 305 555 336 561 367 561 C 387 561 405 559 419 556 C 433 552 446 547 456 541 C 466 534 474 526 480 517 C 486 508 492 498 497 488 C 533 512 566 530 598 542 C 630 554 662 561 695 561 C 727 561 752 557 771 550 C 790 542 804 532 813 519 C 821 505 826 489 826 470 C 826 450 825 428 821 404 L 750 0 L 697 0 L 768 404 C 771 424 772 441 771 455 C 770 469 766 480 759 489 C 752 498 742 505 728 509 C 714 513 697 515 675 515 C 649 515 621 509 591 497 C 561 485 530 468 498 446 L 420 0 Z" />
<glyph unicode="n" horiz-adv-x="577" d="M 404 0 L 469 371 C 474 399 476 423 474 442 C 472 460 466 475 457 486 C 447 497 434 505 417 509 C 400 513 380 515 356 515 C 323 515 292 509 262 497 C 232 485 201 468 169 446 L 91 0 L 38 0 L 135 550 L 167 550 L 174 490 C 206 511 238 528 269 541 C 299 554 333 561 369 561 C 400 561 427 558 449 552 C 471 546 489 536 502 522 C 515 508 523 488 526 464 C 529 439 527 408 521 371 L 457 0 L 404 0 Z" />
<glyph unicode="o" horiz-adv-x="568" d="M 506 244 C 497 194 486 152 472 120 C 458 87 440 61 418 42 C 396 22 371 9 342 1 C 312 -7 278 -11 238 -11 C 198 -11 164 -7 137 1 C 110 9 89 22 75 42 C 61 61 52 87 50 120 C 47 152 50 194 59 244 L 70 306 C 78 356 90 397 104 430 C 118 462 135 488 157 508 C 178 527 203 541 233 549 C 263 557 298 561 338 561 C 378 561 411 557 438 549 C 464 541 485 527 500 508 C 514 488 523 462 526 430 C 528 397 525 356 517 306 L 506 244 Z M 464 306 C 471 348 474 382 473 409 C 472 436 466 457 456 473 C 446 489 430 500 410 506 C 389 512 362 515 330 515 C 297 515 269 512 247 506 C 224 500 205 489 189 473 C 173 457 159 436 149 409 C 139 382 130 348 123 306 L 112 244 C 104 202 101 167 102 140 C 102 113 108 92 119 76 C 129 60 145 50 166 44 C 186 38 213 35 245 35 C 277 35 305 38 328 44 C 351 50 371 60 387 76 C 403 92 416 113 426 140 C 436 167 445 202 453 244 L 464 306 Z" />
<glyph unicode="p" horiz-adv-x="592" d="M 358 515 C 330 515 299 509 266 497 C 233 485 201 468 169 446 L 109 105 C 133 83 159 65 188 53 C 216 41 245 35 273 35 C 301 35 326 38 348 44 C 370 50 388 60 404 76 C 420 92 433 113 444 140 C 455 167 464 202 472 244 L 483 306 C 490 348 493 382 492 409 C 490 436 485 457 475 473 C 465 489 450 500 430 506 C 410 512 386 515 358 515 Z M 370 561 C 403 561 432 557 457 550 C 481 542 501 529 516 510 C 530 490 539 464 543 431 C 547 398 544 356 536 306 L 525 244 C 515 192 503 150 488 118 C 472 85 454 59 433 40 C 411 20 387 7 360 0 C 332 -7 302 -11 269 -11 C 239 -11 209 -4 180 9 C 150 22 124 38 101 58 L 58 -187 L 5 -187 L 135 550 L 167 550 L 174 490 C 188 500 204 509 221 517 C 237 525 254 533 271 540 C 288 546 305 551 322 555 C 338 559 354 561 370 561 Z" />
<glyph unicode="q" horiz-adv-x="592" d="M 327 515 C 297 515 272 512 250 506 C 228 500 210 489 194 473 C 178 457 165 436 155 409 C 144 382 135 348 129 306 L 118 244 C 110 202 107 167 108 140 C 109 113 115 92 125 76 C 135 60 149 50 169 44 C 188 38 212 35 242 35 C 270 35 300 41 333 53 C 365 65 398 83 430 105 L 491 446 C 466 468 439 485 411 497 C 383 509 355 515 327 515 Z M 330 561 C 359 561 389 554 420 540 C 451 526 478 509 502 490 L 530 550 L 562 550 L 432 -187 L 380 -187 L 422 58 C 392 36 360 19 326 7 C 292 -4 260 -11 230 -11 C 196 -11 167 -7 143 0 C 118 7 98 20 84 40 C 69 59 60 85 56 118 C 52 150 55 192 65 244 L 76 306 C 84 356 96 398 111 431 C 126 464 144 490 166 510 C 187 529 211 542 239 550 C 266 557 296 561 330 561 Z" />
<glyph unicode="r" horiz-adv-x="337" d="M 343 508 C 323 508 306 506 290 504 C 274 501 260 497 247 492 C 233 486 220 479 208 471 C 195 463 182 453 168 442 L 91 0 L 38 0 L 135 550 L 167 550 L 174 490 C 202 511 229 528 257 541 C 284 554 316 561 352 561 L 343 508 Z" />
<glyph unicode="s" horiz-adv-x="540" d="M 89 153 C 85 131 85 113 87 98 C 89 83 96 71 107 62 C 117 52 132 45 152 41 C 172 37 197 35 228 35 C 264 35 294 37 317 43 C 339 49 357 57 371 67 C 385 77 395 89 401 103 C 407 117 411 132 414 150 C 416 166 416 181 414 193 C 411 205 404 216 394 224 C 383 232 368 238 348 243 C 328 248 302 252 271 255 C 201 261 152 277 124 303 C 96 328 87 363 96 407 C 100 435 109 458 122 478 C 134 497 150 513 170 525 C 190 537 212 546 238 552 C 263 558 291 561 321 561 C 390 561 439 548 468 523 C 496 497 505 455 495 397 L 442 397 C 450 439 444 469 425 487 C 406 505 370 515 316 515 C 268 515 229 507 201 492 C 173 476 155 448 148 406 C 141 368 149 342 172 327 C 194 311 232 301 285 297 C 324 293 356 287 382 280 C 407 273 427 264 441 252 C 455 240 463 226 467 210 C 471 193 470 173 466 150 C 462 127 456 106 448 86 C 440 66 427 49 409 35 C 391 21 367 9 337 1 C 307 -6 268 -11 222 -11 C 181 -11 148 -7 122 1 C 96 9 76 20 62 35 C 48 49 39 67 36 87 C 32 107 33 129 37 153 L 89 153 Z" />
<glyph unicode="t" horiz-adv-x="339" d="M 175 683 L 230 693 L 205 550 L 337 550 L 328 504 L 196 504 L 128 117 C 123 91 124 70 132 56 C 140 42 157 35 184 35 C 201 35 216 36 230 38 C 244 40 257 43 269 46 L 262 0 C 250 -3 237 -6 223 -8 C 208 -10 192 -11 175 -11 C 134 -11 105 0 88 19 C 71 39 67 72 75 117 L 143 504 L 77 504 L 84 539 L 152 550 L 175 683 Z" />
<glyph unicode="u" horiz-adv-x="572" d="M 183 550 L 117 179 C 111 149 110 125 112 107 C 114 89 119 74 129 63 C 138 52 151 45 168 41 C 184 37 205 35 229 35 C 261 35 293 41 323 53 C 353 65 384 83 416 105 L 495 550 L 548 550 L 451 0 L 421 0 L 414 61 C 378 37 346 19 316 7 C 286 -4 253 -11 217 -11 C 185 -11 157 -8 135 -2 C 113 3 95 13 82 27 C 69 41 61 61 58 86 C 55 110 57 141 64 179 L 130 550 L 183 550 Z" />
<glyph unicode="v" horiz-adv-x="524" d="M 224 55 L 227 55 L 488 550 L 549 550 L 249 0 L 189 0 L 80 550 L 137 550 L 224 55 Z" />
<glyph unicode="w" horiz-adv-x="805" d="M 487 550 L 543 53 L 756 550 L 814 550 L 570 0 L 504 0 L 446 498 L 213 0 L 147 0 L 97 550 L 153 550 L 188 53 L 421 550 L 487 550 Z" />
<glyph unicode="x" horiz-adv-x="524" d="M 48 0 L -17 0 L 237 288 L 95 550 L 159 550 L 271 323 L 465 550 L 535 550 L 297 285 L 452 0 L 388 0 L 263 248 L 48 0 Z" />
<glyph unicode="y" horiz-adv-x="535" d="M 86 550 L 142 550 L 231 63 L 233 63 L 494 550 L 554 550 L 207 -81 C 195 -103 183 -121 171 -136 C 159 -150 147 -162 134 -172 C 120 -181 105 -188 89 -192 C 73 -196 54 -198 32 -198 C 20 -198 11 -197 3 -196 C -4 -194 -12 -192 -22 -189 L -13 -142 C 2 -148 19 -152 38 -152 C 50 -152 62 -150 73 -148 C 84 -145 94 -140 104 -134 C 113 -128 122 -119 131 -108 C 140 -96 149 -82 159 -64 L 195 0 L 86 550 Z" />
<glyph unicode="z" horiz-adv-x="528" d="M 124 550 L 514 550 L 507 513 L 94 46 L 442 46 L 435 0 L 16 0 L 22 37 L 436 504 L 116 504 L 124 550 Z" />
<glyph unicode="{" horiz-adv-x="446" d="M 75 337 L 148 337 C 167 337 182 340 192 348 C 202 356 209 370 213 391 L 258 648 C 265 688 280 716 302 734 C 324 752 356 761 398 761 L 464 761 L 455 715 L 389 715 C 366 715 348 709 336 699 C 324 688 315 671 311 648 L 267 394 C 263 374 256 357 246 344 C 235 331 219 321 198 313 C 216 305 228 295 234 282 C 240 269 242 253 239 233 L 194 -21 C 190 -44 192 -61 200 -72 C 208 -82 224 -88 248 -88 L 313 -88 L 306 -134 L 240 -134 C 198 -134 169 -125 153 -107 C 137 -89 133 -61 141 -21 L 186 237 C 190 257 188 270 181 278 C 173 286 160 290 141 290 L 67 290 L 75 337 Z" />
<glyph unicode="|" horiz-adv-x="242" d="M 80 -132 L 25 -132 L 183 759 L 238 759 L 80 -132 Z" />
<glyph unicode="}" horiz-adv-x="446" d="M 392 290 L 318 290 C 298 290 284 286 274 278 C 264 270 257 257 253 237 L 208 -21 C 200 -61 186 -89 164 -107 C 142 -125 111 -134 69 -134 L 3 -134 L 11 -88 L 77 -88 C 99 -88 117 -82 130 -72 C 142 -61 151 -44 155 -21 L 200 233 C 203 253 210 269 221 282 C 231 295 247 305 269 313 C 250 321 238 331 232 344 C 226 357 225 374 229 394 L 273 648 C 277 671 275 688 266 699 C 257 709 241 715 219 715 L 153 715 L 162 761 L 228 761 C 269 761 297 752 313 734 C 329 716 333 688 326 648 L 280 391 C 276 370 278 356 286 348 C 293 340 306 337 326 337 L 399 337 L 392 290 Z" />
<glyph unicode="~" horiz-adv-x="494" d="M 241 726 C 263 726 280 721 294 712 C 307 702 319 692 330 681 C 341 669 352 659 362 650 C 372 640 386 636 402 636 C 424 636 442 642 454 654 C 466 666 474 687 480 715 L 526 715 C 517 669 502 636 480 618 C 458 599 430 590 396 590 C 374 590 357 594 343 604 C 329 613 317 623 306 635 C 295 646 284 656 274 666 C 263 675 250 680 234 680 C 211 680 194 673 182 661 C 170 649 162 629 157 601 L 111 601 C 119 647 135 679 157 698 C 179 716 207 726 241 726 Z" />
<glyph unicode=" " horiz-adv-x="253" d="" />
<glyph unicode="¡" horiz-adv-x="255" d="M 125 334 L 158 334 L 99 -165 L 9 -165 L 125 334 Z M 139 550 L 222 550 L 208 469 L 124 469 L 139 550 Z" />
<glyph unicode="¢" horiz-adv-x="548" d="M 345 597 C 313 597 286 594 263 588 C 240 582 221 572 205 556 C 189 540 175 519 164 492 C 153 465 144 430 137 388 L 127 327 C 119 284 116 249 117 222 C 117 195 123 174 133 158 C 143 142 159 132 179 126 C 199 120 225 118 257 118 C 287 118 312 120 333 125 C 353 129 370 136 384 146 C 397 156 407 168 415 183 C 422 197 427 215 431 235 L 484 235 C 474 179 452 139 420 113 C 387 87 339 73 277 71 L 261 -22 L 208 -22 L 224 71 C 190 73 162 78 139 87 C 116 95 98 109 86 129 C 74 148 66 174 64 206 C 62 238 65 279 74 327 L 85 388 C 93 436 103 476 117 508 C 130 540 146 565 166 585 C 186 604 209 618 235 627 C 261 635 290 640 324 642 L 342 737 L 395 737 L 377 642 C 439 639 482 625 506 600 C 530 575 537 535 527 480 L 474 480 C 477 500 478 517 476 532 C 474 546 469 558 459 568 C 449 578 435 585 417 590 C 399 594 375 597 345 597 Z" />
<glyph unicode="£" horiz-adv-x="608" d="M 198 536 C 192 506 191 476 193 448 C 195 419 197 391 201 364 L 349 364 L 340 318 L 207 318 C 210 296 212 276 213 256 C 213 236 212 216 209 198 C 203 162 192 132 177 107 C 161 81 141 62 116 48 L 353 48 C 391 48 419 56 437 72 C 455 88 468 114 474 150 L 529 150 C 520 100 502 62 476 37 C 449 12 406 0 348 0 L 5 0 L 13 48 L 20 48 C 62 49 94 63 116 89 C 138 115 153 151 162 198 C 165 216 166 236 164 256 C 162 276 160 296 156 318 L 61 318 L 69 364 L 148 364 C 143 390 140 418 138 446 C 136 474 137 504 143 536 C 155 604 182 652 224 682 C 266 711 318 726 380 726 C 450 726 498 711 525 681 C 552 651 560 603 549 537 L 494 537 C 503 589 498 626 478 647 C 458 667 423 678 371 678 C 321 678 282 667 254 645 C 226 623 207 587 198 536 Z" />
<glyph unicode="¤" horiz-adv-x="673" d="M 531 388 C 538 430 541 464 541 492 C 540 519 534 540 524 556 C 513 571 497 582 477 588 C 456 594 429 597 397 597 C 364 597 336 594 314 588 C 291 582 272 571 256 556 C 240 540 226 519 216 492 C 206 464 197 430 190 388 L 179 327 C 171 285 168 250 169 223 C 170 195 176 174 186 159 C 196 143 212 133 233 127 C 253 121 280 118 312 118 C 344 118 372 121 395 127 C 418 133 438 143 454 159 C 470 174 483 195 493 223 C 503 250 512 285 520 327 L 531 388 Z M 25 69 L 123 164 C 111 202 113 256 127 327 L 137 388 C 143 423 151 454 159 480 C 167 506 177 529 189 549 L 127 643 L 172 676 L 228 593 C 249 611 274 624 303 632 C 332 639 366 643 406 643 C 445 643 478 639 504 632 C 530 624 551 611 566 593 L 652 676 L 685 643 L 586 549 C 591 529 593 506 593 480 C 593 454 590 423 584 388 L 573 327 C 567 291 559 259 550 233 C 541 207 531 184 519 165 L 584 70 L 538 36 L 481 120 C 459 102 434 90 406 82 C 377 74 343 71 305 71 C 266 71 233 74 207 82 C 181 90 160 102 145 120 L 58 36 L 25 69 Z" />
<glyph unicode="¥" horiz-adv-x="579" d="M 240 125 L 253 205 L 90 205 L 98 249 L 261 249 L 268 288 L 131 715 L 189 715 L 301 342 L 304 342 L 548 715 L 610 715 L 323 288 L 316 249 L 479 249 L 471 205 L 308 205 L 295 125 L 458 125 L 450 81 L 287 81 L 273 0 L 218 0 L 232 81 L 69 81 L 77 125 L 240 125 Z" />
<glyph unicode="¦" horiz-adv-x="242" d="M 80 -132 L 25 -132 L 91 242 L 146 242 L 80 -132 Z M 172 385 L 117 385 L 183 759 L 238 759 L 172 385 Z" />
<glyph unicode="§" horiz-adv-x="610" d="M 539 250 C 533 217 519 189 498 167 C 477 144 452 125 422 111 C 446 97 461 80 469 59 C 477 38 478 13 473 -17 C 463 -72 439 -114 400 -143 C 361 -172 305 -187 232 -187 C 164 -187 115 -172 83 -144 C 51 -115 41 -67 53 0 L 105 0 C 95 -52 102 -89 124 -109 C 146 -129 184 -139 238 -139 C 292 -139 333 -128 363 -107 C 392 -86 410 -56 418 -17 C 421 3 421 19 419 33 C 417 47 410 58 400 67 C 390 76 375 83 356 89 C 336 94 311 98 280 102 C 236 106 199 113 171 123 C 143 133 121 145 105 160 C 89 175 80 193 76 214 C 72 235 72 260 78 289 C 83 321 96 349 118 372 C 140 394 165 413 195 427 C 171 440 156 457 148 478 C 140 499 138 525 144 555 C 153 607 178 648 220 679 C 261 710 316 726 385 726 C 453 726 503 711 535 683 C 566 654 576 606 564 539 L 510 539 C 519 591 512 627 490 647 C 468 667 430 678 376 678 C 321 678 279 667 251 646 C 223 625 205 595 199 555 C 195 536 195 520 198 507 C 201 493 208 482 219 473 C 229 463 244 456 264 450 C 283 444 307 440 337 437 C 381 431 417 424 445 415 C 473 405 495 393 511 378 C 526 363 536 345 540 324 C 544 303 543 278 539 250 Z M 327 392 C 292 395 263 400 241 408 C 209 397 185 381 167 361 C 149 341 138 316 133 287 C 129 265 128 246 131 230 C 133 214 140 201 152 190 C 164 179 181 170 203 164 C 225 157 255 151 291 147 C 307 145 323 142 338 140 C 352 137 365 134 377 131 C 408 141 432 156 450 176 C 467 196 478 222 484 252 C 488 274 488 293 486 309 C 483 325 476 338 465 349 C 453 360 436 369 414 376 C 392 382 363 388 327 392 Z" />
<glyph unicode="¨" horiz-adv-x="418" d="M 319 715 L 389 715 L 377 645 L 307 645 L 319 715 Z M 176 715 L 246 715 L 234 645 L 164 645 L 176 715 Z" />
<glyph unicode="©" horiz-adv-x="862" d="M 105 438 C 113 484 127 526 148 564 C 169 601 197 633 231 659 C 265 685 305 705 353 719 C 401 733 455 740 517 740 C 577 740 629 733 672 719 C 715 705 749 685 774 659 C 799 633 816 601 824 564 C 832 526 832 484 824 438 L 795 277 C 787 230 772 188 751 151 C 729 113 701 82 667 56 C 633 30 592 10 544 -4 C 496 -18 442 -25 382 -25 C 322 -25 270 -18 228 -4 C 185 10 151 30 126 56 C 100 82 84 113 76 151 C 68 188 68 230 76 277 L 105 438 Z M 128 282 C 112 193 125 127 169 85 C 212 42 286 21 391 21 C 495 21 576 42 634 85 C 692 127 730 193 746 282 L 772 433 C 787 521 773 587 730 630 C 687 672 613 694 509 694 C 404 694 322 672 264 630 C 206 587 169 521 154 433 L 128 282 Z M 620 422 C 624 444 625 463 623 480 C 621 496 614 510 604 522 C 594 533 579 542 559 548 C 539 554 514 557 484 557 C 454 557 428 554 406 548 C 383 542 363 533 346 520 C 329 506 315 489 304 468 C 293 446 285 420 280 389 L 268 323 C 262 291 261 265 265 244 C 269 223 277 206 290 193 C 302 179 319 170 340 164 C 360 158 385 156 414 156 C 445 156 471 159 493 165 C 515 171 533 180 547 192 C 561 203 572 217 580 234 C 588 250 593 269 597 290 L 544 290 C 541 274 537 260 532 249 C 527 237 520 228 511 221 C 501 214 489 209 475 206 C 461 203 443 202 421 202 C 399 202 380 204 366 208 C 351 212 340 218 332 228 C 324 238 319 250 317 266 C 315 281 317 300 321 323 L 333 389 C 337 413 342 432 350 448 C 357 464 366 476 378 485 C 389 494 403 500 419 504 C 435 508 453 510 475 510 C 497 510 514 508 528 505 C 541 502 551 497 558 490 C 565 483 569 474 570 463 C 571 451 570 438 568 422 L 620 422 Z" />
<glyph unicode="ª" horiz-adv-x="454" d="M 74 393 C 80 429 96 457 122 479 C 147 500 183 512 231 516 L 394 527 L 404 585 C 410 620 407 645 395 660 C 382 674 353 682 308 682 C 266 682 235 675 216 663 C 196 651 184 628 178 594 L 130 594 C 134 620 142 642 153 659 C 163 676 177 689 193 699 C 209 709 227 715 248 719 C 268 723 291 725 316 725 C 344 725 368 722 388 718 C 408 713 423 705 434 694 C 445 683 452 669 455 651 C 457 633 456 611 452 585 L 398 276 L 367 276 L 362 324 C 336 304 310 290 285 281 C 260 271 232 267 202 267 C 156 267 121 277 97 297 C 73 317 66 349 74 393 Z M 213 310 C 243 310 270 314 294 324 C 318 333 341 347 365 365 L 387 492 L 229 477 C 195 473 170 464 154 450 C 138 436 127 417 123 393 C 117 362 123 340 139 328 C 155 316 179 310 213 310 Z" />
<glyph unicode="«" horiz-adv-x="521" d="M 70 275 L 256 473 L 313 473 L 127 275 L 244 77 L 187 77 L 70 275 Z M 251 275 L 437 473 L 494 473 L 307 275 L 425 77 L 367 77 L 251 275 Z" />
<glyph unicode="¬" horiz-adv-x="565" d="M 538 438 L 488 157 L 440 157 L 481 389 L 85 389 L 94 438 L 538 438 Z" />
<glyph unicode="­" horiz-adv-x="374" d="M 65 340 L 340 340 L 332 294 L 57 294 L 65 340 Z" />
<glyph unicode="®" horiz-adv-x="862" d="M 105 438 C 113 484 127 526 148 564 C 169 601 197 633 231 659 C 265 685 305 705 353 719 C 401 733 455 740 517 740 C 577 740 629 733 672 719 C 715 705 749 685 774 659 C 799 633 816 601 824 564 C 832 526 832 484 824 438 L 795 277 C 787 230 772 188 751 151 C 729 113 701 82 667 56 C 633 30 592 10 544 -4 C 496 -18 442 -25 382 -25 C 322 -25 270 -18 228 -4 C 185 10 151 30 126 56 C 100 82 84 113 76 151 C 68 188 68 230 76 277 L 105 438 Z M 128 282 C 112 193 125 127 169 85 C 212 42 286 21 391 21 C 495 21 576 42 634 85 C 692 127 730 193 746 282 L 772 433 C 787 521 773 587 730 630 C 687 672 613 694 509 694 C 404 694 322 672 264 630 C 206 587 169 521 154 433 L 128 282 Z M 482 310 L 352 310 L 326 161 L 273 161 L 342 554 L 513 554 C 561 554 593 544 611 524 C 628 504 633 475 627 437 C 621 403 609 376 591 358 C 573 339 554 326 535 320 L 586 161 L 529 161 L 482 310 Z M 361 356 L 482 356 C 511 356 532 364 546 380 C 559 396 568 414 572 436 C 576 460 574 478 564 490 C 554 502 534 508 504 508 L 387 508 L 361 356 Z" />
<glyph unicode="¯" horiz-adv-x="418" d="M 159 693 L 413 693 L 404 647 L 151 647 L 159 693 Z" />
<glyph unicode="°" horiz-adv-x="462" d="M 454 552 C 448 518 439 489 428 467 C 416 445 402 427 386 414 C 370 400 350 391 328 386 C 306 380 281 378 253 378 C 225 378 200 380 180 386 C 160 391 144 400 132 414 C 120 427 112 445 109 467 C 105 489 107 518 113 552 C 119 585 127 613 139 635 C 150 657 164 675 181 689 C 197 702 217 711 239 717 C 261 723 287 726 315 726 C 343 726 367 723 387 717 C 407 711 424 702 436 689 C 448 675 455 657 458 635 C 461 613 460 585 454 552 Z M 404 552 C 408 578 410 599 408 616 C 406 632 402 646 394 656 C 386 666 374 672 360 676 C 345 680 327 682 307 682 C 285 682 267 680 251 676 C 235 672 222 666 211 656 C 199 646 190 632 182 616 C 174 599 168 578 164 552 C 159 526 157 504 159 487 C 161 470 166 457 174 447 C 182 437 193 431 207 427 C 221 423 239 422 261 422 C 281 422 299 423 315 427 C 331 431 344 437 356 447 C 368 457 377 470 385 487 C 393 504 399 526 404 552 Z" />
<glyph unicode="±" horiz-adv-x="565" d="M 16 0 L 24 48 L 469 48 L 461 0 L 16 0 Z M 87 402 L 285 402 L 320 599 L 369 599 L 333 402 L 531 402 L 522 353 L 324 353 L 289 154 L 241 154 L 276 353 L 78 353 L 87 402 Z" />
<glyph unicode="²" horiz-adv-x="358" d="M 113 451 C 116 470 123 487 135 501 C 146 515 159 527 174 537 C 188 547 204 557 221 565 C 237 573 253 582 268 592 C 282 601 295 611 306 622 C 316 633 323 647 327 663 C 330 685 328 703 321 715 C 313 727 295 733 267 733 C 241 733 221 726 209 714 C 197 701 188 682 184 656 L 148 656 C 153 690 166 716 186 735 C 206 753 235 763 273 763 C 313 763 340 754 352 736 C 364 718 367 693 362 663 C 358 644 351 628 341 615 C 330 601 317 590 303 580 C 288 570 272 561 256 553 C 240 545 224 536 210 527 C 195 518 182 508 171 498 C 159 487 152 474 148 459 L 328 459 L 322 428 L 109 428 L 113 451 Z" />
<glyph unicode="³" horiz-adv-x="367" d="M 137 661 C 144 697 158 723 179 739 C 200 755 228 763 262 763 C 300 763 325 755 339 740 C 353 725 357 700 351 665 C 345 632 328 609 302 597 C 316 591 327 582 333 570 C 339 558 341 542 338 521 C 332 486 317 461 294 445 C 271 429 241 422 205 422 C 167 422 140 429 126 445 C 112 461 108 488 116 526 L 151 526 C 145 498 147 479 155 469 C 163 458 182 453 210 453 C 237 453 258 458 273 468 C 288 478 298 496 302 521 C 305 536 304 550 298 562 C 292 574 279 581 260 581 L 208 581 L 212 610 L 264 610 C 272 610 278 611 284 615 C 290 619 295 623 299 629 C 303 634 307 640 310 646 C 312 652 314 659 316 665 C 320 690 317 708 309 718 C 300 728 282 733 256 733 C 232 733 213 727 200 717 C 187 706 178 687 173 661 L 137 661 Z" />
<glyph unicode="´" horiz-adv-x="253" d="M 209 754 L 286 754 L 169 621 L 131 621 L 209 754 Z" />
<glyph unicode="µ" horiz-adv-x="572" d="M 548 550 L 482 179 C 475 141 466 110 454 86 C 442 61 427 41 409 27 C 391 13 370 3 346 -2 C 322 -8 294 -11 263 -11 C 230 -11 201 -5 175 6 C 149 17 123 34 96 58 L 53 -187 L 0 -187 L 130 550 L 183 550 L 103 105 C 127 83 152 65 178 53 C 204 41 233 35 266 35 C 290 35 311 37 329 41 C 347 45 363 52 376 63 C 389 74 400 89 408 107 C 416 125 423 149 429 179 L 495 550 L 548 550 Z" />
<glyph unicode="¶" horiz-adv-x="761" d="M 95 447 C 103 497 117 540 135 574 C 153 608 176 636 203 657 C 229 678 260 693 296 702 C 331 710 371 715 415 715 L 749 715 L 591 -187 L 536 -187 L 685 667 L 597 667 L 448 -187 L 393 -187 L 458 187 L 319 187 C 227 187 163 207 126 248 C 89 289 79 355 95 447 Z" />
<glyph unicode="·" horiz-adv-x="249" d="M 109 405 L 193 405 L 178 323 L 95 323 L 109 405 Z" />
<glyph unicode="¸" horiz-adv-x="263" d="M 86 -55 C 105 -57 121 -63 135 -74 C 149 -85 154 -103 150 -129 C 144 -159 131 -179 109 -191 C 87 -202 57 -208 21 -208 L -34 -208 L -28 -171 L 37 -171 C 58 -171 74 -167 84 -159 C 94 -151 100 -141 102 -129 C 104 -115 102 -105 95 -98 C 88 -90 74 -87 53 -87 L 32 -87 L 73 0 L 111 0 L 86 -55 Z" />
<glyph unicode="¹" horiz-adv-x="256" d="M 164 428 L 216 722 L 159 722 L 164 744 L 237 759 L 257 759 L 199 428 L 164 428 Z" />
<glyph unicode="º" horiz-adv-x="477" d="M 455 473 C 448 433 439 399 428 373 C 417 347 403 326 386 310 C 369 294 349 283 325 277 C 301 271 274 268 242 268 C 210 268 183 271 161 277 C 139 283 123 294 112 310 C 100 326 93 347 91 373 C 89 399 91 433 99 473 L 108 521 C 114 561 123 594 135 620 C 146 646 160 667 177 683 C 194 699 214 710 238 716 C 262 722 290 726 322 726 C 354 726 380 722 402 716 C 424 710 440 699 452 683 C 463 667 470 646 472 620 C 474 594 471 561 464 521 L 455 473 Z M 417 521 C 423 553 425 580 425 601 C 424 622 420 639 412 651 C 404 663 392 671 376 676 C 360 680 339 683 315 683 C 290 683 269 680 251 676 C 233 671 218 663 206 651 C 194 639 184 622 176 601 C 168 580 161 553 155 521 L 146 473 C 140 440 137 413 138 392 C 139 371 144 355 152 343 C 160 331 172 322 188 318 C 204 313 224 311 249 311 C 273 311 294 313 312 318 C 330 322 345 331 357 343 C 369 355 379 371 387 392 C 395 413 402 440 408 473 L 417 521 Z" />
<glyph unicode="»" horiz-adv-x="521" d="M 273 77 L 216 77 L 404 275 L 285 473 L 342 473 L 460 275 L 273 77 Z M 92 77 L 35 77 L 223 275 L 105 473 L 162 473 L 279 275 L 92 77 Z" />
<glyph unicode="¼" horiz-adv-x="701" d="M 642 715 L 681 715 L 71 0 L 33 0 L 642 715 Z M 173 384 L 224 678 L 168 678 L 173 700 L 245 715 L 266 715 L 208 384 L 173 384 Z M 502 79 L 338 79 L 342 102 L 542 331 L 581 331 L 541 110 L 581 110 L 575 79 L 536 79 L 522 0 L 488 0 L 502 79 Z M 507 110 L 539 289 L 381 110 L 507 110 Z" />
<glyph unicode="½" horiz-adv-x="702" d="M 642 715 L 681 715 L 71 0 L 33 0 L 642 715 Z M 173 384 L 224 678 L 168 678 L 173 700 L 245 715 L 266 715 L 208 384 L 173 384 Z M 371 23 C 374 42 381 59 393 73 C 404 87 417 99 432 109 C 446 119 462 129 479 137 C 495 145 511 154 526 164 C 540 173 553 183 564 194 C 574 205 581 219 584 235 C 588 257 586 275 579 287 C 571 299 553 305 525 305 C 498 305 478 298 466 286 C 454 273 445 254 441 228 L 406 228 C 412 262 424 288 444 307 C 463 325 492 335 530 335 C 550 335 567 332 580 328 C 592 323 602 316 609 308 C 615 299 619 288 621 276 C 622 264 621 250 619 235 C 615 215 608 199 598 186 C 587 173 574 162 560 152 C 546 142 530 133 514 125 C 498 117 482 108 468 99 C 453 90 440 80 429 70 C 417 59 410 46 406 31 L 585 31 L 581 0 L 367 0 L 371 23 Z" />
<glyph unicode="¾" horiz-adv-x="741" d="M 683 715 L 722 715 L 112 0 L 74 0 L 683 715 Z M 542 79 L 378 79 L 383 102 L 583 331 L 621 331 L 582 110 L 621 110 L 616 79 L 576 79 L 563 0 L 529 0 L 542 79 Z M 548 110 L 580 289 L 421 110 L 548 110 Z M 141 617 C 147 653 161 679 182 695 C 203 711 231 719 265 719 C 303 719 328 711 342 696 C 356 681 360 656 354 621 C 351 603 345 589 337 578 C 328 567 318 559 306 553 C 320 547 330 538 337 526 C 343 514 345 498 341 477 C 335 442 320 417 298 401 C 275 385 245 378 208 378 C 170 378 144 385 130 401 C 116 417 112 444 119 482 L 154 482 C 148 454 150 435 158 425 C 166 414 185 409 213 409 C 240 409 261 414 276 424 C 291 434 301 452 306 477 C 308 492 307 506 301 518 C 295 530 282 537 263 537 L 211 537 L 216 566 L 267 566 C 275 566 282 567 288 571 C 294 575 299 579 303 585 C 307 590 311 596 313 602 C 315 608 317 615 319 621 C 323 646 321 664 312 674 C 303 684 286 689 260 689 C 235 689 216 683 203 673 C 190 662 181 643 176 617 L 141 617 Z" />
<glyph unicode="¿" horiz-adv-x="563" d="M 460 11 C 450 -46 425 -91 386 -125 C 347 -159 291 -176 217 -176 C 175 -176 140 -171 112 -163 C 84 -155 62 -142 47 -125 C 31 -107 22 -85 18 -59 C 14 -32 16 -1 22 35 C 34 102 60 153 102 189 C 144 225 199 244 268 248 L 290 334 L 323 334 L 312 202 C 274 202 242 198 215 192 C 187 186 164 176 146 163 C 128 149 113 132 102 111 C 91 90 83 65 78 35 C 72 6 71 -18 73 -38 C 75 -58 82 -75 94 -89 C 105 -102 121 -112 143 -118 C 165 -124 192 -128 226 -128 C 282 -128 324 -115 352 -91 C 379 -66 397 -32 405 11 L 460 11 Z M 373 469 L 289 469 L 304 550 L 387 550 L 373 469 Z" />
<glyph unicode="À" horiz-adv-x="568" d="M 415 196 L 137 196 L 45 0 L -17 0 L 329 715 L 400 715 L 496 0 L 441 0 L 415 196 Z M 161 244 L 410 244 L 357 654 L 355 654 L 161 244 Z M 396 786 L 358 786 L 287 919 L 364 919 L 396 786 Z" />
<glyph unicode="Á" horiz-adv-x="568" d="M 415 196 L 137 196 L 45 0 L -17 0 L 329 715 L 400 715 L 496 0 L 441 0 L 415 196 Z M 161 244 L 410 244 L 357 654 L 355 654 L 161 244 Z M 441 919 L 518 919 L 401 786 L 363 786 L 441 919 Z" />
<glyph unicode="Â" horiz-adv-x="568" d="M 415 196 L 137 196 L 45 0 L -17 0 L 329 715 L 400 715 L 496 0 L 441 0 L 415 196 Z M 161 244 L 410 244 L 357 654 L 355 654 L 161 244 Z M 485 786 L 448 786 L 396 873 L 313 786 L 272 786 L 365 919 L 438 919 L 485 786 Z" />
<glyph unicode="Ã" horiz-adv-x="568" d="M 415 196 L 137 196 L 45 0 L -17 0 L 329 715 L 400 715 L 496 0 L 441 0 L 415 196 Z M 161 244 L 410 244 L 357 654 L 355 654 L 161 244 Z M 448 802 C 432 802 419 805 409 811 C 399 817 390 823 382 831 C 374 838 366 845 358 851 C 350 857 341 860 331 860 C 313 860 300 854 293 844 C 285 834 280 822 278 808 L 240 808 C 246 844 257 869 274 883 C 291 897 312 904 336 904 C 352 904 364 901 374 895 C 384 889 393 882 401 875 C 409 867 416 861 424 855 C 432 849 441 846 453 846 C 471 846 483 851 491 861 C 498 871 503 884 506 898 L 544 898 C 538 862 526 837 509 823 C 492 809 472 802 448 802 Z" />
<glyph unicode="Ä" horiz-adv-x="568" d="M 415 196 L 137 196 L 45 0 L -17 0 L 329 715 L 400 715 L 496 0 L 441 0 L 415 196 Z M 161 244 L 410 244 L 357 654 L 355 654 L 161 244 Z M 435 880 L 505 880 L 493 810 L 423 810 L 435 880 Z M 292 880 L 362 880 L 350 810 L 280 810 L 292 880 Z" />
<glyph unicode="Å" horiz-adv-x="568" d="M 415 196 L 137 196 L 45 0 L -17 0 L 329 715 L 400 715 L 496 0 L 441 0 L 415 196 Z M 161 244 L 410 244 L 357 654 L 355 654 L 161 244 Z M 495 868 C 489 838 476 816 456 802 C 436 787 410 780 379 780 C 348 780 325 787 310 802 C 294 816 289 838 294 868 C 299 897 312 919 332 934 C 352 948 378 956 410 956 C 441 956 464 948 480 934 C 495 919 500 897 495 868 Z M 451 868 C 453 883 451 895 444 903 C 436 911 423 916 403 916 C 365 916 344 900 339 868 C 335 852 337 839 345 831 C 352 822 366 818 386 818 C 423 818 445 834 451 868 Z" />
<glyph unicode="Æ" horiz-adv-x="947" d="M 851 340 L 555 340 L 504 48 L 839 48 L 832 0 L 441 0 L 475 196 L 194 196 L 45 0 L -17 0 L 533 715 L 957 715 L 948 667 L 613 667 L 563 386 L 859 386 L 851 340 Z M 231 244 L 484 244 L 558 667 L 555 667 L 231 244 Z" />
<glyph unicode="Ç" horiz-adv-x="595" d="M 272 37 C 302 37 328 39 350 44 C 372 48 391 56 407 68 C 423 80 436 95 446 115 C 456 134 463 158 469 188 L 524 188 C 517 152 507 121 493 96 C 479 70 462 50 442 34 C 421 18 396 7 368 0 C 340 -6 307 -10 271 -11 L 251 -55 C 270 -57 286 -63 300 -74 C 314 -85 319 -103 315 -129 C 309 -159 295 -179 273 -191 C 251 -202 222 -208 186 -208 L 131 -208 L 137 -171 L 202 -171 C 223 -171 239 -167 249 -159 C 259 -151 265 -141 267 -129 C 269 -115 267 -105 260 -98 C 253 -90 239 -87 218 -87 L 197 -87 L 232 -10 C 196 -8 165 -2 141 7 C 117 17 98 32 85 52 C 71 72 63 98 61 130 C 59 162 62 201 70 249 L 109 468 C 117 516 129 556 143 589 C 157 621 176 648 198 668 C 220 688 248 703 280 712 C 312 721 350 726 394 726 C 431 726 463 722 490 715 C 517 708 538 697 554 681 C 570 665 580 645 585 620 C 590 594 589 563 583 527 L 528 527 C 533 555 534 579 531 599 C 528 619 521 634 509 646 C 497 657 480 665 460 670 C 440 675 415 678 385 678 C 351 678 321 674 297 668 C 272 661 251 650 234 634 C 217 618 203 596 192 569 C 181 542 172 509 165 469 L 125 248 C 117 207 114 173 116 146 C 117 119 123 97 135 81 C 146 65 163 53 185 47 C 207 40 236 37 272 37 Z" />
<glyph unicode="È" horiz-adv-x="555" d="M 460 340 L 164 340 L 112 48 L 448 48 L 440 0 L 50 0 L 175 715 L 565 715 L 557 667 L 221 667 L 172 386 L 468 386 L 460 340 Z M 418 786 L 380 786 L 309 919 L 386 919 L 418 786 Z" />
<glyph unicode="É" horiz-adv-x="555" d="M 460 340 L 164 340 L 112 48 L 448 48 L 440 0 L 50 0 L 175 715 L 565 715 L 557 667 L 221 667 L 172 386 L 468 386 L 460 340 Z M 461 919 L 538 919 L 421 786 L 383 786 L 461 919 Z" />
<glyph unicode="Ê" horiz-adv-x="555" d="M 460 340 L 164 340 L 112 48 L 448 48 L 440 0 L 50 0 L 175 715 L 565 715 L 557 667 L 221 667 L 172 386 L 468 386 L 460 340 Z M 498 786 L 461 786 L 409 873 L 326 786 L 285 786 L 378 919 L 451 919 L 498 786 Z" />
<glyph unicode="Ë" horiz-adv-x="555" d="M 460 340 L 164 340 L 112 48 L 448 48 L 440 0 L 50 0 L 175 715 L 565 715 L 557 667 L 221 667 L 172 386 L 468 386 L 460 340 Z M 447 880 L 517 880 L 505 810 L 435 810 L 447 880 Z M 304 880 L 374 880 L 362 810 L 292 810 L 304 880 Z" />
<glyph unicode="Ì" horiz-adv-x="242" d="M 175 715 L 230 715 L 105 0 L 50 0 L 175 715 Z M 234 786 L 196 786 L 125 919 L 202 919 L 234 786 Z" />
<glyph unicode="Í" horiz-adv-x="242" d="M 175 715 L 230 715 L 105 0 L 50 0 L 175 715 Z M 276 919 L 353 919 L 236 786 L 198 786 L 276 919 Z" />
<glyph unicode="Î" horiz-adv-x="242" d="M 175 715 L 230 715 L 105 0 L 50 0 L 175 715 Z M 324 786 L 287 786 L 235 873 L 152 786 L 111 786 L 204 919 L 277 919 L 324 786 Z" />
<glyph unicode="Ï" horiz-adv-x="242" d="M 175 715 L 230 715 L 105 0 L 50 0 L 175 715 Z M 272 880 L 342 880 L 330 810 L 260 810 L 272 880 Z M 129 880 L 199 880 L 187 810 L 117 810 L 129 880 Z" />
<glyph unicode="Ð" horiz-adv-x="629" d="M 50 0 L 109 340 L 43 340 L 51 386 L 117 386 L 175 715 L 377 715 C 418 715 454 711 486 704 C 517 696 542 683 561 664 C 580 644 592 618 598 585 C 604 552 602 510 594 460 L 558 255 C 548 203 535 161 518 129 C 500 96 479 70 453 51 C 427 31 398 18 364 11 C 330 3 293 0 252 0 L 50 0 Z M 260 48 C 292 48 321 50 348 56 C 374 62 398 72 418 88 C 438 103 456 124 470 151 C 484 178 495 213 503 255 L 539 460 C 546 502 547 536 543 563 C 538 590 528 611 513 627 C 498 642 478 652 454 658 C 429 664 401 667 369 667 L 221 667 L 172 386 L 304 386 L 296 340 L 164 340 L 112 48 L 260 48 Z" />
<glyph unicode="Ñ" horiz-adv-x="648" d="M 510 0 L 441 0 L 217 639 L 105 0 L 50 0 L 175 715 L 244 715 L 469 76 L 581 715 L 636 715 L 510 0 Z M 489 802 C 473 802 460 805 450 811 C 440 817 431 823 423 831 C 415 838 407 845 399 851 C 391 857 382 860 372 860 C 354 860 341 854 334 844 C 326 834 321 822 319 808 L 281 808 C 287 844 298 869 315 883 C 332 897 353 904 377 904 C 393 904 405 901 415 895 C 425 889 434 882 442 875 C 450 867 457 861 465 855 C 473 849 482 846 494 846 C 512 846 524 851 532 861 C 539 871 544 884 547 898 L 585 898 C 579 862 567 837 550 823 C 533 809 513 802 489 802 Z" />
<glyph unicode="Ò" horiz-adv-x="609" d="M 526 468 C 534 510 536 545 534 573 C 532 600 525 621 513 637 C 501 652 484 663 462 669 C 440 675 412 678 380 678 C 347 678 318 675 294 669 C 270 663 249 652 231 637 C 213 621 199 600 187 573 C 175 545 166 510 158 468 L 120 248 C 112 204 110 169 112 142 C 114 114 121 93 133 78 C 145 62 162 52 184 46 C 206 40 233 37 266 37 C 298 37 327 40 351 46 C 375 52 396 62 414 78 C 432 93 446 114 458 142 C 470 169 479 204 487 248 L 526 468 Z M 542 248 C 533 197 521 155 505 122 C 489 88 470 62 447 42 C 424 22 397 9 366 1 C 334 -7 298 -11 258 -11 C 218 -11 183 -7 155 1 C 126 9 104 22 88 42 C 72 62 62 88 58 122 C 54 155 56 197 65 248 L 103 468 C 112 518 124 559 140 593 C 156 626 175 652 199 672 C 222 692 249 706 281 714 C 312 722 348 726 388 726 C 428 726 463 722 491 714 C 519 706 542 692 558 672 C 574 652 584 626 588 593 C 592 559 589 518 581 468 L 542 248 Z M 420 786 L 382 786 L 311 919 L 388 919 L 420 786 Z" />
<glyph unicode="Ó" horiz-adv-x="609" d="M 526 468 C 534 510 536 545 534 573 C 532 600 525 621 513 637 C 501 652 484 663 462 669 C 440 675 412 678 380 678 C 347 678 318 675 294 669 C 270 663 249 652 231 637 C 213 621 199 600 187 573 C 175 545 166 510 158 468 L 120 248 C 112 204 110 169 112 142 C 114 114 121 93 133 78 C 145 62 162 52 184 46 C 206 40 233 37 266 37 C 298 37 327 40 351 46 C 375 52 396 62 414 78 C 432 93 446 114 458 142 C 470 169 479 204 487 248 L 526 468 Z M 542 248 C 533 197 521 155 505 122 C 489 88 470 62 447 42 C 424 22 397 9 366 1 C 334 -7 298 -11 258 -11 C 218 -11 183 -7 155 1 C 126 9 104 22 88 42 C 72 62 62 88 58 122 C 54 155 56 197 65 248 L 103 468 C 112 518 124 559 140 593 C 156 626 175 652 199 672 C 222 692 249 706 281 714 C 312 722 348 726 388 726 C 428 726 463 722 491 714 C 519 706 542 692 558 672 C 574 652 584 626 588 593 C 592 559 589 518 581 468 L 542 248 Z M 474 919 L 551 919 L 434 786 L 396 786 L 474 919 Z" />
<glyph unicode="Ô" horiz-adv-x="609" d="M 526 468 C 534 510 536 545 534 573 C 532 600 525 621 513 637 C 501 652 484 663 462 669 C 440 675 412 678 380 678 C 347 678 318 675 294 669 C 270 663 249 652 231 637 C 213 621 199 600 187 573 C 175 545 166 510 158 468 L 120 248 C 112 204 110 169 112 142 C 114 114 121 93 133 78 C 145 62 162 52 184 46 C 206 40 233 37 266 37 C 298 37 327 40 351 46 C 375 52 396 62 414 78 C 432 93 446 114 458 142 C 470 169 479 204 487 248 L 526 468 Z M 542 248 C 533 197 521 155 505 122 C 489 88 470 62 447 42 C 424 22 397 9 366 1 C 334 -7 298 -11 258 -11 C 218 -11 183 -7 155 1 C 126 9 104 22 88 42 C 72 62 62 88 58 122 C 54 155 56 197 65 248 L 103 468 C 112 518 124 559 140 593 C 156 626 175 652 199 672 C 222 692 249 706 281 714 C 312 722 348 726 388 726 C 428 726 463 722 491 714 C 519 706 542 692 558 672 C 574 652 584 626 588 593 C 592 559 589 518 581 468 L 542 248 Z M 511 786 L 474 786 L 422 873 L 339 786 L 298 786 L 391 919 L 464 919 L 511 786 Z" />
<glyph unicode="Õ" horiz-adv-x="609" d="M 526 468 C 534 510 536 545 534 573 C 532 600 525 621 513 637 C 501 652 484 663 462 669 C 440 675 412 678 380 678 C 347 678 318 675 294 669 C 270 663 249 652 231 637 C 213 621 199 600 187 573 C 175 545 166 510 158 468 L 120 248 C 112 204 110 169 112 142 C 114 114 121 93 133 78 C 145 62 162 52 184 46 C 206 40 233 37 266 37 C 298 37 327 40 351 46 C 375 52 396 62 414 78 C 432 93 446 114 458 142 C 470 169 479 204 487 248 L 526 468 Z M 542 248 C 533 197 521 155 505 122 C 489 88 470 62 447 42 C 424 22 397 9 366 1 C 334 -7 298 -11 258 -11 C 218 -11 183 -7 155 1 C 126 9 104 22 88 42 C 72 62 62 88 58 122 C 54 155 56 197 65 248 L 103 468 C 112 518 124 559 140 593 C 156 626 175 652 199 672 C 222 692 249 706 281 714 C 312 722 348 726 388 726 C 428 726 463 722 491 714 C 519 706 542 692 558 672 C 574 652 584 626 588 593 C 592 559 589 518 581 468 L 542 248 Z M 469 802 C 453 802 440 805 430 811 C 420 817 411 823 403 831 C 395 838 387 845 379 851 C 371 857 362 860 352 860 C 334 860 321 854 314 844 C 306 834 301 822 299 808 L 261 808 C 267 844 278 869 295 883 C 312 897 333 904 357 904 C 373 904 385 901 395 895 C 405 889 414 882 422 875 C 430 867 437 861 445 855 C 453 849 462 846 474 846 C 492 846 504 851 512 861 C 519 871 524 884 527 898 L 565 898 C 559 862 547 837 530 823 C 513 809 493 802 469 802 Z" />
<glyph unicode="Ö" horiz-adv-x="609" d="M 526 468 C 534 510 536 545 534 573 C 532 600 525 621 513 637 C 501 652 484 663 462 669 C 440 675 412 678 380 678 C 347 678 318 675 294 669 C 270 663 249 652 231 637 C 213 621 199 600 187 573 C 175 545 166 510 158 468 L 120 248 C 112 204 110 169 112 142 C 114 114 121 93 133 78 C 145 62 162 52 184 46 C 206 40 233 37 266 37 C 298 37 327 40 351 46 C 375 52 396 62 414 78 C 432 93 446 114 458 142 C 470 169 479 204 487 248 L 526 468 Z M 542 248 C 533 197 521 155 505 122 C 489 88 470 62 447 42 C 424 22 397 9 366 1 C 334 -7 298 -11 258 -11 C 218 -11 183 -7 155 1 C 126 9 104 22 88 42 C 72 62 62 88 58 122 C 54 155 56 197 65 248 L 103 468 C 112 518 124 559 140 593 C 156 626 175 652 199 672 C 222 692 249 706 281 714 C 312 722 348 726 388 726 C 428 726 463 722 491 714 C 519 706 542 692 558 672 C 574 652 584 626 588 593 C 592 559 589 518 581 468 L 542 248 Z M 455 880 L 525 880 L 513 810 L 443 810 L 455 880 Z M 312 880 L 382 880 L 370 810 L 300 810 L 312 880 Z" />
<glyph unicode="×" horiz-adv-x="517" d="M 38 140 L 233 306 L 100 468 L 136 497 L 268 335 L 463 501 L 493 465 L 299 300 L 435 136 L 398 107 L 264 271 L 68 105 L 38 140 Z" />
<glyph unicode="Ø" horiz-adv-x="609" d="M 70 68 C 61 88 56 112 55 142 C 54 171 57 206 65 248 L 103 468 C 112 518 124 559 140 593 C 156 626 175 652 199 672 C 222 692 249 706 281 714 C 312 722 348 726 388 726 C 425 726 457 722 484 716 C 511 709 533 697 550 681 L 594 737 L 646 737 L 574 647 C 584 626 589 601 590 572 C 591 543 588 508 581 468 L 542 248 C 533 197 521 155 505 122 C 489 88 470 62 447 42 C 424 22 397 9 366 1 C 334 -7 298 -11 258 -11 C 220 -11 188 -7 162 -1 C 135 5 113 17 96 33 L 53 -22 L 1 -22 L 70 68 Z M 526 468 C 531 494 534 517 535 538 C 535 558 534 576 531 592 L 132 79 C 144 63 160 52 182 46 C 204 40 232 37 266 37 C 298 37 327 40 351 46 C 375 52 396 62 414 78 C 432 93 446 114 458 142 C 470 169 479 204 487 248 L 526 468 Z M 120 248 C 115 220 112 196 111 176 C 109 156 110 138 113 123 L 514 635 C 502 651 485 663 463 669 C 441 675 413 678 380 678 C 347 678 318 675 294 669 C 270 663 249 652 231 637 C 213 621 199 600 187 573 C 175 545 166 510 158 468 L 120 248 Z" />
<glyph unicode="Ù" horiz-adv-x="627" d="M 219 715 L 132 219 C 126 185 124 156 126 133 C 128 109 134 90 146 76 C 157 62 173 52 194 46 C 215 40 242 37 275 37 C 307 37 335 40 359 46 C 382 52 402 62 419 76 C 435 90 449 109 459 133 C 469 156 478 185 484 219 L 571 715 L 626 715 L 539 219 C 531 173 519 136 504 106 C 488 76 469 53 447 36 C 425 18 399 6 369 0 C 339 -7 306 -11 269 -11 C 231 -11 199 -7 171 0 C 143 6 121 18 105 36 C 88 53 77 76 72 106 C 67 136 69 173 77 219 L 164 715 L 219 715 Z M 431 786 L 393 786 L 322 919 L 399 919 L 431 786 Z" />
<glyph unicode="Ú" horiz-adv-x="627" d="M 219 715 L 132 219 C 126 185 124 156 126 133 C 128 109 134 90 146 76 C 157 62 173 52 194 46 C 215 40 242 37 275 37 C 307 37 335 40 359 46 C 382 52 402 62 419 76 C 435 90 449 109 459 133 C 469 156 478 185 484 219 L 571 715 L 626 715 L 539 219 C 531 173 519 136 504 106 C 488 76 469 53 447 36 C 425 18 399 6 369 0 C 339 -7 306 -11 269 -11 C 231 -11 199 -7 171 0 C 143 6 121 18 105 36 C 88 53 77 76 72 106 C 67 136 69 173 77 219 L 164 715 L 219 715 Z M 471 919 L 548 919 L 431 786 L 393 786 L 471 919 Z" />
<glyph unicode="Û" horiz-adv-x="627" d="M 219 715 L 132 219 C 126 185 124 156 126 133 C 128 109 134 90 146 76 C 157 62 173 52 194 46 C 215 40 242 37 275 37 C 307 37 335 40 359 46 C 382 52 402 62 419 76 C 435 90 449 109 459 133 C 469 156 478 185 484 219 L 571 715 L 626 715 L 539 219 C 531 173 519 136 504 106 C 488 76 469 53 447 36 C 425 18 399 6 369 0 C 339 -7 306 -11 269 -11 C 231 -11 199 -7 171 0 C 143 6 121 18 105 36 C 88 53 77 76 72 106 C 67 136 69 173 77 219 L 164 715 L 219 715 Z M 520 786 L 483 786 L 431 873 L 348 786 L 307 786 L 400 919 L 473 919 L 520 786 Z" />
<glyph unicode="Ü" horiz-adv-x="627" d="M 219 715 L 132 219 C 126 185 124 156 126 133 C 128 109 134 90 146 76 C 157 62 173 52 194 46 C 215 40 242 37 275 37 C 307 37 335 40 359 46 C 382 52 402 62 419 76 C 435 90 449 109 459 133 C 469 156 478 185 484 219 L 571 715 L 626 715 L 539 219 C 531 173 519 136 504 106 C 488 76 469 53 447 36 C 425 18 399 6 369 0 C 339 -7 306 -11 269 -11 C 231 -11 199 -7 171 0 C 143 6 121 18 105 36 C 88 53 77 76 72 106 C 67 136 69 173 77 219 L 164 715 L 219 715 Z M 464 880 L 534 880 L 522 810 L 452 810 L 464 880 Z M 321 880 L 391 880 L 379 810 L 309 810 L 321 880 Z" />
<glyph unicode="Ý" horiz-adv-x="535" d="M 246 288 L 109 715 L 167 715 L 278 339 L 280 339 L 526 715 L 588 715 L 301 288 L 251 0 L 196 0 L 246 288 Z M 425 919 L 502 919 L 385 786 L 347 786 L 425 919 Z" />
<glyph unicode="Þ" horiz-adv-x="603" d="M 175 715 L 230 715 L 206 577 L 366 577 C 407 577 442 573 471 567 C 499 560 522 548 539 532 C 555 515 566 493 570 465 C 574 437 573 401 566 359 C 559 320 549 287 535 260 C 521 232 503 210 481 193 C 459 176 432 164 401 156 C 370 148 334 144 293 144 L 130 144 L 105 0 L 50 0 L 175 715 Z M 137 193 L 300 193 C 333 193 361 195 385 201 C 409 206 429 215 446 228 C 462 241 476 258 486 279 C 496 300 503 327 509 359 C 515 395 517 424 514 446 C 511 468 503 485 491 497 C 478 509 461 518 439 522 C 417 526 390 529 358 529 L 197 529 L 137 193 Z" />
<glyph unicode="ß" horiz-adv-x="617" d="M 285 421 L 318 421 C 372 421 412 433 440 458 C 467 482 485 517 494 562 C 501 607 495 642 477 666 C 458 690 421 702 366 702 C 310 702 268 690 242 666 C 215 642 198 607 190 563 L 91 0 L 38 0 L 137 563 C 147 623 172 669 210 701 C 248 732 302 748 374 748 C 446 748 495 732 522 701 C 549 669 557 623 547 562 C 531 480 489 428 419 406 C 442 402 463 397 482 389 C 500 381 516 370 528 355 C 540 340 548 321 552 298 C 556 275 556 247 550 213 L 547 197 C 539 155 527 120 510 94 C 492 67 472 46 448 30 C 424 14 397 4 367 -2 C 337 -8 305 -11 273 -11 C 229 -11 191 -7 158 0 L 166 46 C 185 41 204 38 222 37 C 240 35 259 35 280 35 C 304 35 327 37 350 41 C 373 45 394 53 414 65 C 433 77 450 93 464 114 C 478 135 488 163 494 197 L 497 213 C 503 247 502 274 496 296 C 489 317 478 333 463 345 C 448 357 430 365 409 369 C 387 373 365 375 341 375 L 277 375 L 285 421 Z" />
<glyph unicode="à" horiz-adv-x="546" d="M 406 0 L 398 61 C 364 35 330 17 298 6 C 266 -5 231 -11 193 -11 C 165 -11 140 -7 118 -1 C 96 5 77 15 63 29 C 48 43 37 60 31 81 C 25 102 24 127 30 155 C 34 181 42 203 55 222 C 67 241 83 257 101 269 C 119 281 140 289 164 295 C 188 301 213 303 239 302 L 432 295 L 449 386 C 453 409 454 429 453 445 C 451 461 446 475 437 485 C 428 495 415 503 397 508 C 379 512 355 515 327 515 C 297 515 272 513 252 510 C 231 506 214 500 201 491 C 187 482 177 470 169 455 C 161 439 156 420 152 397 L 99 397 C 105 429 114 456 127 477 C 139 498 155 515 175 527 C 195 539 218 548 244 553 C 270 558 300 561 334 561 C 370 561 400 557 424 551 C 448 545 466 535 480 521 C 493 507 501 489 505 467 C 508 445 507 418 502 386 L 436 0 L 406 0 Z M 208 35 C 227 35 245 36 261 39 C 277 42 293 47 308 53 C 323 59 338 66 353 75 C 367 83 383 93 399 105 L 427 260 L 229 260 C 191 260 158 251 132 234 C 106 217 90 190 84 153 C 69 74 110 35 208 35 Z M 380 621 L 342 621 L 271 754 L 348 754 L 380 621 Z" />
<glyph unicode="á" horiz-adv-x="546" d="M 406 0 L 398 61 C 364 35 330 17 298 6 C 266 -5 231 -11 193 -11 C 165 -11 140 -7 118 -1 C 96 5 77 15 63 29 C 48 43 37 60 31 81 C 25 102 24 127 30 155 C 34 181 42 203 55 222 C 67 241 83 257 101 269 C 119 281 140 289 164 295 C 188 301 213 303 239 302 L 432 295 L 449 386 C 453 409 454 429 453 445 C 451 461 446 475 437 485 C 428 495 415 503 397 508 C 379 512 355 515 327 515 C 297 515 272 513 252 510 C 231 506 214 500 201 491 C 187 482 177 470 169 455 C 161 439 156 420 152 397 L 99 397 C 105 429 114 456 127 477 C 139 498 155 515 175 527 C 195 539 218 548 244 553 C 270 558 300 561 334 561 C 370 561 400 557 424 551 C 448 545 466 535 480 521 C 493 507 501 489 505 467 C 508 445 507 418 502 386 L 436 0 L 406 0 Z M 208 35 C 227 35 245 36 261 39 C 277 42 293 47 308 53 C 323 59 338 66 353 75 C 367 83 383 93 399 105 L 427 260 L 229 260 C 191 260 158 251 132 234 C 106 217 90 190 84 153 C 69 74 110 35 208 35 Z M 420 754 L 497 754 L 380 621 L 342 621 L 420 754 Z" />
<glyph unicode="â" horiz-adv-x="546" d="M 406 0 L 398 61 C 364 35 330 17 298 6 C 266 -5 231 -11 193 -11 C 165 -11 140 -7 118 -1 C 96 5 77 15 63 29 C 48 43 37 60 31 81 C 25 102 24 127 30 155 C 34 181 42 203 55 222 C 67 241 83 257 101 269 C 119 281 140 289 164 295 C 188 301 213 303 239 302 L 432 295 L 449 386 C 453 409 454 429 453 445 C 451 461 446 475 437 485 C 428 495 415 503 397 508 C 379 512 355 515 327 515 C 297 515 272 513 252 510 C 231 506 214 500 201 491 C 187 482 177 470 169 455 C 161 439 156 420 152 397 L 99 397 C 105 429 114 456 127 477 C 139 498 155 515 175 527 C 195 539 218 548 244 553 C 270 558 300 561 334 561 C 370 561 400 557 424 551 C 448 545 466 535 480 521 C 493 507 501 489 505 467 C 508 445 507 418 502 386 L 436 0 L 406 0 Z M 208 35 C 227 35 245 36 261 39 C 277 42 293 47 308 53 C 323 59 338 66 353 75 C 367 83 383 93 399 105 L 427 260 L 229 260 C 191 260 158 251 132 234 C 106 217 90 190 84 153 C 69 74 110 35 208 35 Z M 454 621 L 417 621 L 365 708 L 282 621 L 241 621 L 334 754 L 407 754 L 454 621 Z" />
<glyph unicode="ã" horiz-adv-x="546" d="M 406 0 L 398 61 C 364 35 330 17 298 6 C 266 -5 231 -11 193 -11 C 165 -11 140 -7 118 -1 C 96 5 77 15 63 29 C 48 43 37 60 31 81 C 25 102 24 127 30 155 C 34 181 42 203 55 222 C 67 241 83 257 101 269 C 119 281 140 289 164 295 C 188 301 213 303 239 302 L 432 295 L 449 386 C 453 409 454 429 453 445 C 451 461 446 475 437 485 C 428 495 415 503 397 508 C 379 512 355 515 327 515 C 297 515 272 513 252 510 C 231 506 214 500 201 491 C 187 482 177 470 169 455 C 161 439 156 420 152 397 L 99 397 C 105 429 114 456 127 477 C 139 498 155 515 175 527 C 195 539 218 548 244 553 C 270 558 300 561 334 561 C 370 561 400 557 424 551 C 448 545 466 535 480 521 C 493 507 501 489 505 467 C 508 445 507 418 502 386 L 436 0 L 406 0 Z M 208 35 C 227 35 245 36 261 39 C 277 42 293 47 308 53 C 323 59 338 66 353 75 C 367 83 383 93 399 105 L 427 260 L 229 260 C 191 260 158 251 132 234 C 106 217 90 190 84 153 C 69 74 110 35 208 35 Z M 415 637 C 399 637 386 640 376 646 C 366 652 357 658 349 666 C 341 673 333 680 325 686 C 317 692 308 695 298 695 C 280 695 267 689 260 679 C 252 669 247 657 245 643 L 207 643 C 213 679 224 704 241 718 C 258 732 279 739 303 739 C 319 739 331 736 341 730 C 351 724 360 717 368 710 C 376 702 383 696 391 690 C 399 684 408 681 420 681 C 438 681 450 686 458 696 C 465 706 470 719 473 733 L 511 733 C 505 697 493 672 476 658 C 459 644 439 637 415 637 Z" />
<glyph unicode="ä" horiz-adv-x="546" d="M 406 0 L 398 61 C 364 35 330 17 298 6 C 266 -5 231 -11 193 -11 C 165 -11 140 -7 118 -1 C 96 5 77 15 63 29 C 48 43 37 60 31 81 C 25 102 24 127 30 155 C 34 181 42 203 55 222 C 67 241 83 257 101 269 C 119 281 140 289 164 295 C 188 301 213 303 239 302 L 432 295 L 449 386 C 453 409 454 429 453 445 C 451 461 446 475 437 485 C 428 495 415 503 397 508 C 379 512 355 515 327 515 C 297 515 272 513 252 510 C 231 506 214 500 201 491 C 187 482 177 470 169 455 C 161 439 156 420 152 397 L 99 397 C 105 429 114 456 127 477 C 139 498 155 515 175 527 C 195 539 218 548 244 553 C 270 558 300 561 334 561 C 370 561 400 557 424 551 C 448 545 466 535 480 521 C 493 507 501 489 505 467 C 508 445 507 418 502 386 L 436 0 L 406 0 Z M 208 35 C 227 35 245 36 261 39 C 277 42 293 47 308 53 C 323 59 338 66 353 75 C 367 83 383 93 399 105 L 427 260 L 229 260 C 191 260 158 251 132 234 C 106 217 90 190 84 153 C 69 74 110 35 208 35 Z M 400 715 L 470 715 L 458 645 L 388 645 L 400 715 Z M 257 715 L 327 715 L 315 645 L 245 645 L 257 715 Z" />
<glyph unicode="å" horiz-adv-x="546" d="M 406 0 L 398 61 C 364 35 330 17 298 6 C 266 -5 231 -11 193 -11 C 165 -11 140 -7 118 -1 C 96 5 77 15 63 29 C 48 43 37 60 31 81 C 25 102 24 127 30 155 C 34 181 42 203 55 222 C 67 241 83 257 101 269 C 119 281 140 289 164 295 C 188 301 213 303 239 302 L 432 295 L 449 386 C 453 409 454 429 453 445 C 451 461 446 475 437 485 C 428 495 415 503 397 508 C 379 512 355 515 327 515 C 297 515 272 513 252 510 C 231 506 214 500 201 491 C 187 482 177 470 169 455 C 161 439 156 420 152 397 L 99 397 C 105 429 114 456 127 477 C 139 498 155 515 175 527 C 195 539 218 548 244 553 C 270 558 300 561 334 561 C 370 561 400 557 424 551 C 448 545 466 535 480 521 C 493 507 501 489 505 467 C 508 445 507 418 502 386 L 436 0 L 406 0 Z M 208 35 C 227 35 245 36 261 39 C 277 42 293 47 308 53 C 323 59 338 66 353 75 C 367 83 383 93 399 105 L 427 260 L 229 260 C 191 260 158 251 132 234 C 106 217 90 190 84 153 C 69 74 110 35 208 35 Z M 468 703 C 462 673 449 651 429 637 C 409 622 383 615 352 615 C 321 615 298 622 283 637 C 267 651 262 673 267 703 C 272 732 285 754 305 769 C 325 783 351 791 383 791 C 414 791 437 783 453 769 C 468 754 473 732 468 703 Z M 424 703 C 426 718 424 730 417 738 C 409 746 396 751 376 751 C 338 751 317 735 312 703 C 308 687 310 674 318 666 C 325 657 339 653 359 653 C 396 653 418 669 424 703 Z" />
<glyph unicode="æ" horiz-adv-x="922" d="M 219 35 C 251 35 279 37 303 42 C 326 47 346 57 363 73 C 379 89 393 111 405 141 C 417 171 428 210 438 260 L 240 260 C 202 260 169 251 143 234 C 117 217 101 190 95 153 C 80 74 121 35 219 35 Z M 654 295 C 687 295 715 296 738 300 C 761 304 780 310 794 318 C 808 326 819 338 826 353 C 833 367 837 386 838 408 C 838 430 836 447 831 461 C 826 475 818 486 807 494 C 796 502 782 507 764 510 C 746 513 726 515 702 515 C 670 515 642 512 620 506 C 598 500 579 488 563 472 C 547 456 533 433 523 405 C 513 376 504 339 496 295 L 654 295 Z M 211 -11 C 149 -11 102 2 72 29 C 41 56 31 98 41 155 C 45 181 53 203 66 222 C 78 241 94 257 112 269 C 130 281 151 289 175 295 C 199 301 224 303 250 302 L 443 295 L 460 386 C 464 409 465 429 464 445 C 462 461 457 475 448 485 C 439 495 426 503 408 508 C 390 512 366 515 338 515 C 308 515 283 513 263 510 C 242 506 225 500 212 491 C 198 482 188 470 180 455 C 172 439 167 420 163 397 L 110 397 C 116 429 125 456 138 477 C 150 498 166 515 186 527 C 206 539 229 548 255 553 C 281 558 311 561 345 561 C 396 561 435 554 461 541 C 487 528 503 507 509 477 C 531 509 558 531 591 543 C 623 555 663 561 711 561 C 741 561 767 558 790 554 C 812 549 831 541 847 530 C 862 518 873 503 880 483 C 887 463 890 437 890 407 C 888 371 881 343 869 323 C 856 302 839 286 817 275 C 795 264 770 257 741 255 C 712 252 681 251 647 253 L 490 260 C 481 210 477 171 478 141 C 478 111 484 89 496 73 C 507 57 524 47 546 42 C 568 37 597 35 631 35 C 665 35 698 37 728 42 C 758 47 787 53 813 59 L 804 11 C 779 5 751 0 720 -4 C 688 -8 653 -11 615 -11 C 561 -11 520 -3 490 10 C 460 24 441 52 433 92 C 409 52 380 24 344 10 C 308 -3 264 -11 211 -11 Z" />
<glyph unicode="ç" horiz-adv-x="548" d="M 330 515 C 298 515 271 512 249 506 C 226 500 206 489 190 474 C 174 458 160 437 150 410 C 139 383 130 348 123 306 L 112 244 C 104 201 100 166 102 139 C 103 112 109 91 120 75 C 130 59 146 49 167 43 C 187 37 213 35 245 35 C 275 35 300 37 320 42 C 340 46 357 54 370 64 C 383 74 393 86 401 101 C 408 115 413 133 417 153 L 470 153 C 459 95 436 54 402 29 C 368 3 317 -9 251 -11 L 231 -55 C 251 -57 267 -63 281 -74 C 295 -85 299 -103 295 -129 C 289 -159 276 -179 254 -191 C 232 -202 202 -208 166 -208 L 111 -208 L 118 -171 L 183 -171 C 204 -171 219 -167 229 -159 C 239 -151 245 -141 248 -129 C 250 -115 247 -105 240 -98 C 233 -90 219 -87 198 -87 L 177 -87 L 212 -10 C 178 -8 150 -3 127 5 C 103 13 85 27 72 47 C 59 66 51 92 49 124 C 47 156 50 196 59 244 L 70 306 C 78 356 90 398 105 431 C 120 464 138 490 160 510 C 182 529 207 542 237 550 C 266 557 300 561 338 561 C 410 561 459 548 487 523 C 514 498 523 456 513 397 L 460 397 C 463 417 464 434 462 449 C 460 463 455 476 445 486 C 435 496 421 503 403 508 C 384 512 360 515 330 515 Z" />
<glyph unicode="è" horiz-adv-x="547" d="M 114 260 C 105 210 101 171 102 141 C 103 111 109 89 121 73 C 132 57 149 47 171 42 C 193 37 222 35 256 35 C 290 35 322 37 353 42 C 383 47 412 53 438 59 L 429 11 C 404 5 376 0 345 -4 C 313 -8 278 -11 240 -11 C 201 -11 168 -7 141 0 C 114 6 93 19 78 38 C 62 57 53 83 50 116 C 46 149 49 192 59 244 L 70 306 C 78 356 90 398 105 431 C 120 464 138 490 160 510 C 181 529 206 542 235 550 C 264 557 297 561 335 561 C 365 561 391 558 414 554 C 437 549 456 541 471 530 C 486 518 497 503 505 483 C 512 463 515 437 515 407 C 513 371 506 343 494 323 C 481 302 464 286 442 275 C 420 264 395 257 366 255 C 337 252 306 251 272 253 L 114 260 Z M 279 295 C 311 295 339 296 363 300 C 386 304 405 310 419 318 C 433 326 444 338 451 353 C 458 367 462 386 463 408 C 463 430 461 447 456 461 C 451 475 443 486 432 494 C 420 502 406 507 389 510 C 371 513 351 515 327 515 C 295 515 267 512 245 506 C 223 500 204 488 188 472 C 172 456 158 433 148 405 C 138 376 129 339 121 295 L 279 295 Z M 385 621 L 347 621 L 276 754 L 353 754 L 385 621 Z" />
<glyph unicode="é" horiz-adv-x="547" d="M 114 260 C 105 210 101 171 102 141 C 103 111 109 89 121 73 C 132 57 149 47 171 42 C 193 37 222 35 256 35 C 290 35 322 37 353 42 C 383 47 412 53 438 59 L 429 11 C 404 5 376 0 345 -4 C 313 -8 278 -11 240 -11 C 201 -11 168 -7 141 0 C 114 6 93 19 78 38 C 62 57 53 83 50 116 C 46 149 49 192 59 244 L 70 306 C 78 356 90 398 105 431 C 120 464 138 490 160 510 C 181 529 206 542 235 550 C 264 557 297 561 335 561 C 365 561 391 558 414 554 C 437 549 456 541 471 530 C 486 518 497 503 505 483 C 512 463 515 437 515 407 C 513 371 506 343 494 323 C 481 302 464 286 442 275 C 420 264 395 257 366 255 C 337 252 306 251 272 253 L 114 260 Z M 279 295 C 311 295 339 296 363 300 C 386 304 405 310 419 318 C 433 326 444 338 451 353 C 458 367 462 386 463 408 C 463 430 461 447 456 461 C 451 475 443 486 432 494 C 420 502 406 507 389 510 C 371 513 351 515 327 515 C 295 515 267 512 245 506 C 223 500 204 488 188 472 C 172 456 158 433 148 405 C 138 376 129 339 121 295 L 279 295 Z M 414 754 L 491 754 L 374 621 L 336 621 L 414 754 Z" />
<glyph unicode="ê" horiz-adv-x="547" d="M 114 260 C 105 210 101 171 102 141 C 103 111 109 89 121 73 C 132 57 149 47 171 42 C 193 37 222 35 256 35 C 290 35 322 37 353 42 C 383 47 412 53 438 59 L 429 11 C 404 5 376 0 345 -4 C 313 -8 278 -11 240 -11 C 201 -11 168 -7 141 0 C 114 6 93 19 78 38 C 62 57 53 83 50 116 C 46 149 49 192 59 244 L 70 306 C 78 356 90 398 105 431 C 120 464 138 490 160 510 C 181 529 206 542 235 550 C 264 557 297 561 335 561 C 365 561 391 558 414 554 C 437 549 456 541 471 530 C 486 518 497 503 505 483 C 512 463 515 437 515 407 C 513 371 506 343 494 323 C 481 302 464 286 442 275 C 420 264 395 257 366 255 C 337 252 306 251 272 253 L 114 260 Z M 279 295 C 311 295 339 296 363 300 C 386 304 405 310 419 318 C 433 326 444 338 451 353 C 458 367 462 386 463 408 C 463 430 461 447 456 461 C 451 475 443 486 432 494 C 420 502 406 507 389 510 C 371 513 351 515 327 515 C 295 515 267 512 245 506 C 223 500 204 488 188 472 C 172 456 158 433 148 405 C 138 376 129 339 121 295 L 279 295 Z M 459 621 L 422 621 L 370 708 L 287 621 L 246 621 L 339 754 L 412 754 L 459 621 Z" />
<glyph unicode="ë" horiz-adv-x="547" d="M 114 260 C 105 210 101 171 102 141 C 103 111 109 89 121 73 C 132 57 149 47 171 42 C 193 37 222 35 256 35 C 290 35 322 37 353 42 C 383 47 412 53 438 59 L 429 11 C 404 5 376 0 345 -4 C 313 -8 278 -11 240 -11 C 201 -11 168 -7 141 0 C 114 6 93 19 78 38 C 62 57 53 83 50 116 C 46 149 49 192 59 244 L 70 306 C 78 356 90 398 105 431 C 120 464 138 490 160 510 C 181 529 206 542 235 550 C 264 557 297 561 335 561 C 365 561 391 558 414 554 C 437 549 456 541 471 530 C 486 518 497 503 505 483 C 512 463 515 437 515 407 C 513 371 506 343 494 323 C 481 302 464 286 442 275 C 420 264 395 257 366 255 C 337 252 306 251 272 253 L 114 260 Z M 279 295 C 311 295 339 296 363 300 C 386 304 405 310 419 318 C 433 326 444 338 451 353 C 458 367 462 386 463 408 C 463 430 461 447 456 461 C 451 475 443 486 432 494 C 420 502 406 507 389 510 C 371 513 351 515 327 515 C 295 515 267 512 245 506 C 223 500 204 488 188 472 C 172 456 158 433 148 405 C 138 376 129 339 121 295 L 279 295 Z M 403 715 L 473 715 L 461 645 L 391 645 L 403 715 Z M 260 715 L 330 715 L 318 645 L 248 645 L 260 715 Z" />
<glyph unicode="ì" horiz-adv-x="229" d="M 141 550 L 194 550 L 97 0 L 44 0 L 141 550 Z M 195 621 L 157 621 L 86 754 L 163 754 L 195 621 Z" />
<glyph unicode="í" horiz-adv-x="229" d="M 141 550 L 194 550 L 97 0 L 44 0 L 141 550 Z M 243 754 L 320 754 L 203 621 L 165 621 L 243 754 Z" />
<glyph unicode="î" horiz-adv-x="229" d="M 141 550 L 194 550 L 97 0 L 44 0 L 141 550 Z M 286 621 L 249 621 L 197 708 L 114 621 L 73 621 L 166 754 L 239 754 L 286 621 Z" />
<glyph unicode="ï" horiz-adv-x="229" d="M 220 684 L 288 684 L 276 616 L 208 616 L 220 684 Z M 92 684 L 161 684 L 148 616 L 80 616 L 92 684 Z M 141 550 L 194 550 L 97 0 L 44 0 L 141 550 Z" />
<glyph unicode="ð" horiz-adv-x="577" d="M 506 244 C 497 194 486 152 472 120 C 458 87 440 61 418 42 C 396 22 371 9 342 1 C 312 -7 278 -11 238 -11 C 198 -11 164 -7 137 1 C 110 9 89 22 75 42 C 61 61 52 87 50 120 C 47 152 50 194 59 244 L 70 306 C 78 356 90 397 104 430 C 118 462 135 488 157 508 C 178 527 203 541 233 549 C 263 557 298 561 338 561 C 369 561 396 557 419 551 C 442 545 461 534 477 519 C 470 565 457 608 439 649 L 348 627 L 339 662 L 421 681 C 414 693 407 704 399 715 C 391 726 383 737 374 749 L 436 749 C 442 740 449 731 455 722 C 461 712 467 703 473 693 L 573 717 L 582 683 L 487 661 C 508 611 521 555 526 494 C 531 432 528 370 517 306 L 506 244 Z M 464 306 C 471 348 474 382 473 409 C 472 436 466 457 456 473 C 446 489 430 500 410 506 C 389 512 362 515 330 515 C 297 515 269 512 247 506 C 224 500 205 489 189 473 C 173 457 159 436 149 409 C 139 382 130 348 123 306 L 112 244 C 104 202 101 167 102 140 C 102 113 108 92 119 76 C 129 60 145 50 166 44 C 186 38 213 35 245 35 C 277 35 305 38 328 44 C 351 50 371 60 387 76 C 403 92 416 113 426 140 C 436 167 445 202 453 244 L 464 306 Z" />
<glyph unicode="ñ" horiz-adv-x="577" d="M 404 0 L 469 371 C 474 399 476 423 474 442 C 472 460 466 475 457 486 C 447 497 434 505 417 509 C 400 513 380 515 356 515 C 323 515 292 509 262 497 C 232 485 201 468 169 446 L 91 0 L 38 0 L 135 550 L 167 550 L 174 490 C 206 511 238 528 269 541 C 299 554 333 561 369 561 C 400 561 427 558 449 552 C 471 546 489 536 502 522 C 515 508 523 488 526 464 C 529 439 527 408 521 371 L 457 0 L 404 0 Z M 423 637 C 407 637 394 640 384 646 C 374 652 365 658 357 666 C 349 673 341 680 333 686 C 325 692 316 695 306 695 C 288 695 275 689 268 679 C 260 669 255 657 253 643 L 215 643 C 221 679 232 704 249 718 C 266 732 287 739 311 739 C 327 739 339 736 349 730 C 359 724 368 717 376 710 C 384 702 391 696 399 690 C 407 684 416 681 428 681 C 446 681 458 686 466 696 C 473 706 478 719 481 733 L 519 733 C 513 697 501 672 484 658 C 467 644 447 637 423 637 Z" />
<glyph unicode="ò" horiz-adv-x="568" d="M 506 244 C 497 194 486 152 472 120 C 458 87 440 61 418 42 C 396 22 371 9 342 1 C 312 -7 278 -11 238 -11 C 198 -11 164 -7 137 1 C 110 9 89 22 75 42 C 61 61 52 87 50 120 C 47 152 50 194 59 244 L 70 306 C 78 356 90 397 104 430 C 118 462 135 488 157 508 C 178 527 203 541 233 549 C 263 557 298 561 338 561 C 378 561 411 557 438 549 C 464 541 485 527 500 508 C 514 488 523 462 526 430 C 528 397 525 356 517 306 L 506 244 Z M 464 306 C 471 348 474 382 473 409 C 472 436 466 457 456 473 C 446 489 430 500 410 506 C 389 512 362 515 330 515 C 297 515 269 512 247 506 C 224 500 205 489 189 473 C 173 457 159 436 149 409 C 139 382 130 348 123 306 L 112 244 C 104 202 101 167 102 140 C 102 113 108 92 119 76 C 129 60 145 50 166 44 C 186 38 213 35 245 35 C 277 35 305 38 328 44 C 351 50 371 60 387 76 C 403 92 416 113 426 140 C 436 167 445 202 453 244 L 464 306 Z M 367 621 L 329 621 L 258 754 L 335 754 L 367 621 Z" />
<glyph unicode="ó" horiz-adv-x="568" d="M 506 244 C 497 194 486 152 472 120 C 458 87 440 61 418 42 C 396 22 371 9 342 1 C 312 -7 278 -11 238 -11 C 198 -11 164 -7 137 1 C 110 9 89 22 75 42 C 61 61 52 87 50 120 C 47 152 50 194 59 244 L 70 306 C 78 356 90 397 104 430 C 118 462 135 488 157 508 C 178 527 203 541 233 549 C 263 557 298 561 338 561 C 378 561 411 557 438 549 C 464 541 485 527 500 508 C 514 488 523 462 526 430 C 528 397 525 356 517 306 L 506 244 Z M 464 306 C 471 348 474 382 473 409 C 472 436 466 457 456 473 C 446 489 430 500 410 506 C 389 512 362 515 330 515 C 297 515 269 512 247 506 C 224 500 205 489 189 473 C 173 457 159 436 149 409 C 139 382 130 348 123 306 L 112 244 C 104 202 101 167 102 140 C 102 113 108 92 119 76 C 129 60 145 50 166 44 C 186 38 213 35 245 35 C 277 35 305 38 328 44 C 351 50 371 60 387 76 C 403 92 416 113 426 140 C 436 167 445 202 453 244 L 464 306 Z M 419 754 L 496 754 L 379 621 L 341 621 L 419 754 Z" />
<glyph unicode="ô" horiz-adv-x="568" d="M 506 244 C 497 194 486 152 472 120 C 458 87 440 61 418 42 C 396 22 371 9 342 1 C 312 -7 278 -11 238 -11 C 198 -11 164 -7 137 1 C 110 9 89 22 75 42 C 61 61 52 87 50 120 C 47 152 50 194 59 244 L 70 306 C 78 356 90 397 104 430 C 118 462 135 488 157 508 C 178 527 203 541 233 549 C 263 557 298 561 338 561 C 378 561 411 557 438 549 C 464 541 485 527 500 508 C 514 488 523 462 526 430 C 528 397 525 356 517 306 L 506 244 Z M 464 306 C 471 348 474 382 473 409 C 472 436 466 457 456 473 C 446 489 430 500 410 506 C 389 512 362 515 330 515 C 297 515 269 512 247 506 C 224 500 205 489 189 473 C 173 457 159 436 149 409 C 139 382 130 348 123 306 L 112 244 C 104 202 101 167 102 140 C 102 113 108 92 119 76 C 129 60 145 50 166 44 C 186 38 213 35 245 35 C 277 35 305 38 328 44 C 351 50 371 60 387 76 C 403 92 416 113 426 140 C 436 167 445 202 453 244 L 464 306 Z M 458 621 L 421 621 L 369 708 L 286 621 L 245 621 L 338 754 L 411 754 L 458 621 Z" />
<glyph unicode="õ" horiz-adv-x="568" d="M 506 244 C 497 194 486 152 472 120 C 458 87 440 61 418 42 C 396 22 371 9 342 1 C 312 -7 278 -11 238 -11 C 198 -11 164 -7 137 1 C 110 9 89 22 75 42 C 61 61 52 87 50 120 C 47 152 50 194 59 244 L 70 306 C 78 356 90 397 104 430 C 118 462 135 488 157 508 C 178 527 203 541 233 549 C 263 557 298 561 338 561 C 378 561 411 557 438 549 C 464 541 485 527 500 508 C 514 488 523 462 526 430 C 528 397 525 356 517 306 L 506 244 Z M 464 306 C 471 348 474 382 473 409 C 472 436 466 457 456 473 C 446 489 430 500 410 506 C 389 512 362 515 330 515 C 297 515 269 512 247 506 C 224 500 205 489 189 473 C 173 457 159 436 149 409 C 139 382 130 348 123 306 L 112 244 C 104 202 101 167 102 140 C 102 113 108 92 119 76 C 129 60 145 50 166 44 C 186 38 213 35 245 35 C 277 35 305 38 328 44 C 351 50 371 60 387 76 C 403 92 416 113 426 140 C 436 167 445 202 453 244 L 464 306 Z M 415 637 C 399 637 386 640 376 646 C 366 652 357 658 349 666 C 341 673 333 680 325 686 C 317 692 308 695 298 695 C 280 695 267 689 260 679 C 252 669 247 657 245 643 L 207 643 C 213 679 224 704 241 718 C 258 732 279 739 303 739 C 319 739 331 736 341 730 C 351 724 360 717 368 710 C 376 702 383 696 391 690 C 399 684 408 681 420 681 C 438 681 450 686 458 696 C 465 706 470 719 473 733 L 511 733 C 505 697 493 672 476 658 C 459 644 439 637 415 637 Z" />
<glyph unicode="ö" horiz-adv-x="568" d="M 506 244 C 497 194 486 152 472 120 C 458 87 440 61 418 42 C 396 22 371 9 342 1 C 312 -7 278 -11 238 -11 C 198 -11 164 -7 137 1 C 110 9 89 22 75 42 C 61 61 52 87 50 120 C 47 152 50 194 59 244 L 70 306 C 78 356 90 397 104 430 C 118 462 135 488 157 508 C 178 527 203 541 233 549 C 263 557 298 561 338 561 C 378 561 411 557 438 549 C 464 541 485 527 500 508 C 514 488 523 462 526 430 C 528 397 525 356 517 306 L 506 244 Z M 464 306 C 471 348 474 382 473 409 C 472 436 466 457 456 473 C 446 489 430 500 410 506 C 389 512 362 515 330 515 C 297 515 269 512 247 506 C 224 500 205 489 189 473 C 173 457 159 436 149 409 C 139 382 130 348 123 306 L 112 244 C 104 202 101 167 102 140 C 102 113 108 92 119 76 C 129 60 145 50 166 44 C 186 38 213 35 245 35 C 277 35 305 38 328 44 C 351 50 371 60 387 76 C 403 92 416 113 426 140 C 436 167 445 202 453 244 L 464 306 Z M 401 715 L 471 715 L 459 645 L 389 645 L 401 715 Z M 258 715 L 328 715 L 316 645 L 246 645 L 258 715 Z" />
<glyph unicode="÷" horiz-adv-x="565" d="M 226 168 L 309 168 L 295 87 L 211 87 L 226 168 Z M 288 518 L 372 518 L 358 437 L 274 437 L 288 518 Z M 518 327 L 509 278 L 65 278 L 74 327 L 518 327 Z" />
<glyph unicode="ø" horiz-adv-x="568" d="M 506 244 C 497 194 486 152 472 120 C 458 87 440 61 418 42 C 396 22 371 9 342 1 C 312 -7 278 -11 238 -11 C 171 -11 123 0 95 22 L 57 -22 L 7 -22 L 69 51 C 46 89 43 153 59 244 L 70 306 C 78 356 90 397 104 430 C 118 462 135 488 157 508 C 178 527 203 541 233 549 C 263 557 298 561 338 561 C 370 561 397 558 421 553 C 445 547 464 539 480 528 L 518 572 L 569 572 L 505 498 C 517 478 523 453 525 422 C 527 390 524 352 517 306 L 506 244 Z M 464 306 C 469 340 472 369 473 393 C 473 417 471 437 466 453 L 131 63 C 142 52 157 45 175 41 C 193 37 217 35 245 35 C 277 35 305 38 328 44 C 351 50 371 60 387 76 C 403 92 416 113 426 140 C 436 167 445 202 453 244 L 464 306 Z M 112 244 C 106 210 102 181 102 157 C 101 133 103 113 109 97 L 444 486 C 432 496 417 504 399 508 C 380 512 357 515 330 515 C 297 515 269 512 247 506 C 224 500 205 489 189 473 C 173 457 159 436 149 409 C 139 382 130 348 123 306 L 112 244 Z" />
<glyph unicode="ù" horiz-adv-x="572" d="M 183 550 L 117 179 C 111 149 110 125 112 107 C 114 89 119 74 129 63 C 138 52 151 45 168 41 C 184 37 205 35 229 35 C 261 35 293 41 323 53 C 353 65 384 83 416 105 L 495 550 L 548 550 L 451 0 L 421 0 L 414 61 C 378 37 346 19 316 7 C 286 -4 253 -11 217 -11 C 185 -11 157 -8 135 -2 C 113 3 95 13 82 27 C 69 41 61 61 58 86 C 55 110 57 141 64 179 L 130 550 L 183 550 Z M 372 621 L 334 621 L 263 754 L 340 754 L 372 621 Z" />
<glyph unicode="ú" horiz-adv-x="572" d="M 183 550 L 117 179 C 111 149 110 125 112 107 C 114 89 119 74 129 63 C 138 52 151 45 168 41 C 184 37 205 35 229 35 C 261 35 293 41 323 53 C 353 65 384 83 416 105 L 495 550 L 548 550 L 451 0 L 421 0 L 414 61 C 378 37 346 19 316 7 C 286 -4 253 -11 217 -11 C 185 -11 157 -8 135 -2 C 113 3 95 13 82 27 C 69 41 61 61 58 86 C 55 110 57 141 64 179 L 130 550 L 183 550 Z M 415 754 L 492 754 L 375 621 L 337 621 L 415 754 Z" />
<glyph unicode="û" horiz-adv-x="572" d="M 183 550 L 117 179 C 111 149 110 125 112 107 C 114 89 119 74 129 63 C 138 52 151 45 168 41 C 184 37 205 35 229 35 C 261 35 293 41 323 53 C 353 65 384 83 416 105 L 495 550 L 548 550 L 451 0 L 421 0 L 414 61 C 378 37 346 19 316 7 C 286 -4 253 -11 217 -11 C 185 -11 157 -8 135 -2 C 113 3 95 13 82 27 C 69 41 61 61 58 86 C 55 110 57 141 64 179 L 130 550 L 183 550 Z M 460 621 L 423 621 L 371 708 L 288 621 L 247 621 L 340 754 L 413 754 L 460 621 Z" />
<glyph unicode="ü" horiz-adv-x="572" d="M 183 550 L 117 179 C 111 149 110 125 112 107 C 114 89 119 74 129 63 C 138 52 151 45 168 41 C 184 37 205 35 229 35 C 261 35 293 41 323 53 C 353 65 384 83 416 105 L 495 550 L 548 550 L 451 0 L 421 0 L 414 61 C 378 37 346 19 316 7 C 286 -4 253 -11 217 -11 C 185 -11 157 -8 135 -2 C 113 3 95 13 82 27 C 69 41 61 61 58 86 C 55 110 57 141 64 179 L 130 550 L 183 550 Z M 404 715 L 474 715 L 462 645 L 392 645 L 404 715 Z M 261 715 L 331 715 L 319 645 L 249 645 L 261 715 Z" />
<glyph unicode="ý" horiz-adv-x="524" d="M 80 550 L 136 550 L 225 63 L 227 63 L 488 550 L 548 550 L 201 -81 C 189 -103 177 -121 165 -136 C 153 -150 141 -162 128 -172 C 114 -181 99 -188 83 -192 C 67 -196 48 -198 26 -198 C 14 -198 5 -197 -2 -196 C -10 -194 -18 -192 -28 -189 L -19 -142 C -3 -148 13 -152 32 -152 C 44 -152 56 -150 67 -148 C 78 -145 88 -140 98 -134 C 107 -128 116 -119 125 -108 C 134 -96 143 -82 153 -64 L 189 0 L 80 550 Z M 377 754 L 454 754 L 337 621 L 299 621 L 377 754 Z" />
<glyph unicode="þ" horiz-adv-x="592" d="M 168 737 L 221 737 L 177 492 C 207 511 239 527 273 541 C 307 554 340 561 370 561 C 403 561 432 557 457 550 C 481 542 501 529 516 510 C 530 490 539 464 543 431 C 547 398 544 356 536 306 L 525 244 C 515 192 503 150 488 118 C 472 85 454 59 433 40 C 411 20 387 7 360 0 C 332 -7 302 -11 269 -11 C 239 -11 209 -4 180 9 C 150 22 124 38 101 58 L 58 -187 L 5 -187 L 168 737 Z M 109 105 C 133 83 159 65 188 53 C 216 41 245 35 273 35 C 301 35 326 38 348 44 C 370 50 388 60 404 76 C 420 92 433 113 444 140 C 455 167 464 202 472 244 L 483 306 C 490 348 493 382 492 409 C 490 436 485 457 475 473 C 465 489 450 500 430 506 C 410 512 386 515 358 515 C 330 515 299 509 266 497 C 233 485 201 468 169 446 L 109 105 Z" />
<glyph unicode="ÿ" horiz-adv-x="524" d="M 80 550 L 136 550 L 225 63 L 227 63 L 488 550 L 548 550 L 201 -81 C 189 -103 177 -121 165 -136 C 153 -150 141 -162 128 -172 C 114 -181 99 -188 83 -192 C 67 -196 48 -198 26 -198 C 14 -198 5 -197 -2 -196 C -10 -194 -18 -192 -28 -189 L -19 -142 C -3 -148 13 -152 32 -152 C 44 -152 56 -150 67 -148 C 78 -145 88 -140 98 -134 C 107 -128 116 -119 125 -108 C 134 -96 143 -82 153 -64 L 189 0 L 80 550 Z M 380 715 L 450 715 L 438 645 L 368 645 L 380 715 Z M 237 715 L 307 715 L 295 645 L 225 645 L 237 715 Z" />
<glyph unicode="Ā" horiz-adv-x="568" d="M 415 196 L 137 196 L 45 0 L -17 0 L 329 715 L 400 715 L 496 0 L 441 0 L 415 196 Z M 161 244 L 410 244 L 357 654 L 355 654 L 161 244 Z M 267 858 L 521 858 L 512 812 L 259 812 L 267 858 Z" />
<glyph unicode="ā" horiz-adv-x="546" d="M 406 0 L 398 61 C 364 35 330 17 298 6 C 266 -5 231 -11 193 -11 C 165 -11 140 -7 118 -1 C 96 5 77 15 63 29 C 48 43 37 60 31 81 C 25 102 24 127 30 155 C 34 181 42 203 55 222 C 67 241 83 257 101 269 C 119 281 140 289 164 295 C 188 301 213 303 239 302 L 432 295 L 449 386 C 453 409 454 429 453 445 C 451 461 446 475 437 485 C 428 495 415 503 397 508 C 379 512 355 515 327 515 C 297 515 272 513 252 510 C 231 506 214 500 201 491 C 187 482 177 470 169 455 C 161 439 156 420 152 397 L 99 397 C 105 429 114 456 127 477 C 139 498 155 515 175 527 C 195 539 218 548 244 553 C 270 558 300 561 334 561 C 370 561 400 557 424 551 C 448 545 466 535 480 521 C 493 507 501 489 505 467 C 508 445 507 418 502 386 L 436 0 L 406 0 Z M 208 35 C 227 35 245 36 261 39 C 277 42 293 47 308 53 C 323 59 338 66 353 75 C 367 83 383 93 399 105 L 427 260 L 229 260 C 191 260 158 251 132 234 C 106 217 90 190 84 153 C 69 74 110 35 208 35 Z M 238 693 L 492 693 L 483 647 L 230 647 L 238 693 Z" />
<glyph unicode="Ă" horiz-adv-x="568" d="M 415 196 L 137 196 L 45 0 L -17 0 L 329 715 L 400 715 L 496 0 L 441 0 L 415 196 Z M 161 244 L 410 244 L 357 654 L 355 654 L 161 244 Z M 322 916 C 316 888 319 866 329 850 C 339 834 359 827 387 827 C 415 827 437 834 453 850 C 469 866 479 888 485 916 L 530 916 C 522 872 506 839 481 816 C 456 792 423 781 382 781 C 340 781 310 792 292 816 C 274 839 269 872 277 916 L 322 916 Z" />
<glyph unicode="ă" horiz-adv-x="546" d="M 406 0 L 398 61 C 364 35 330 17 298 6 C 266 -5 231 -11 193 -11 C 165 -11 140 -7 118 -1 C 96 5 77 15 63 29 C 48 43 37 60 31 81 C 25 102 24 127 30 155 C 34 181 42 203 55 222 C 67 241 83 257 101 269 C 119 281 140 289 164 295 C 188 301 213 303 239 302 L 432 295 L 449 386 C 453 409 454 429 453 445 C 451 461 446 475 437 485 C 428 495 415 503 397 508 C 379 512 355 515 327 515 C 297 515 272 513 252 510 C 231 506 214 500 201 491 C 187 482 177 470 169 455 C 161 439 156 420 152 397 L 99 397 C 105 429 114 456 127 477 C 139 498 155 515 175 527 C 195 539 218 548 244 553 C 270 558 300 561 334 561 C 370 561 400 557 424 551 C 448 545 466 535 480 521 C 493 507 501 489 505 467 C 508 445 507 418 502 386 L 436 0 L 406 0 Z M 208 35 C 227 35 245 36 261 39 C 277 42 293 47 308 53 C 323 59 338 66 353 75 C 367 83 383 93 399 105 L 427 260 L 229 260 C 191 260 158 251 132 234 C 106 217 90 190 84 153 C 69 74 110 35 208 35 Z M 291 751 C 285 723 288 701 298 685 C 308 669 328 662 356 662 C 384 662 406 669 422 685 C 438 701 448 723 454 751 L 499 751 C 491 707 475 674 450 651 C 425 627 392 616 351 616 C 309 616 279 627 261 651 C 243 674 238 707 246 751 L 291 751 Z" />
<glyph unicode="Ą" horiz-adv-x="579" d="M 360 -110 C 363 -90 372 -71 386 -53 C 400 -35 419 -18 443 -4 L 418 196 L 140 196 L 47 0 L -11 0 L 335 715 L 406 715 L 502 0 C 476 -15 455 -31 440 -48 C 424 -65 415 -81 413 -97 C 409 -112 411 -123 418 -129 C 425 -135 436 -139 451 -139 L 476 -139 L 469 -183 L 430 -183 C 403 -183 383 -177 371 -165 C 359 -153 355 -135 360 -110 Z M 164 244 L 413 244 L 361 652 L 359 652 L 164 244 Z" />
<glyph unicode="ą" horiz-adv-x="546" d="M 403 -183 L 364 -183 C 337 -183 317 -177 305 -165 C 293 -153 289 -135 294 -110 C 297 -89 307 -69 323 -50 C 339 -31 359 -14 385 0 L 403 10 L 396 61 C 362 35 329 17 297 6 C 265 -5 231 -11 193 -11 C 165 -11 139 -7 117 -1 C 95 5 76 15 62 29 C 47 43 37 60 31 81 C 25 102 24 127 30 155 C 34 181 42 203 55 222 C 67 241 83 257 101 269 C 119 281 140 289 164 295 C 188 301 213 303 239 302 L 432 295 L 449 386 C 453 409 454 429 453 445 C 451 461 446 475 437 485 C 428 495 415 503 397 508 C 379 512 355 515 327 515 C 297 515 272 513 252 510 C 231 506 214 500 201 491 C 187 482 177 470 169 455 C 161 439 156 420 152 397 L 99 397 C 105 429 114 456 127 477 C 139 498 155 515 175 527 C 195 539 218 548 244 553 C 270 558 300 561 334 561 C 370 561 400 557 424 551 C 448 545 466 535 480 521 C 493 507 501 489 505 467 C 508 445 507 418 502 386 L 436 0 C 410 -15 389 -31 374 -48 C 358 -65 349 -81 346 -97 C 343 -112 345 -123 352 -129 C 359 -135 370 -139 385 -139 L 410 -139 L 403 -183 Z M 208 35 C 227 35 245 36 261 39 C 277 42 293 47 308 53 C 323 59 338 66 353 75 C 367 83 383 93 399 105 L 427 260 L 229 260 C 191 260 158 251 132 234 C 106 217 90 190 84 153 C 69 74 110 35 208 35 Z" />
<glyph unicode="Ć" horiz-adv-x="595" d="M 272 37 C 302 37 328 39 350 44 C 372 48 391 56 407 68 C 423 80 436 95 446 115 C 456 134 463 158 469 188 L 524 188 C 517 151 507 120 493 95 C 479 69 462 49 440 33 C 418 17 393 6 364 0 C 335 -7 302 -11 264 -11 C 222 -11 186 -7 158 1 C 129 9 107 23 91 43 C 75 63 65 89 62 123 C 58 156 61 198 70 249 L 109 468 C 117 516 129 556 143 589 C 157 621 176 648 198 668 C 220 688 248 703 280 712 C 312 721 350 726 394 726 C 431 726 463 722 490 715 C 517 708 538 697 554 681 C 570 665 580 645 585 620 C 590 594 589 563 583 527 L 528 527 C 533 555 534 579 531 599 C 528 619 521 634 509 646 C 497 657 480 665 460 670 C 440 675 415 678 385 678 C 351 678 321 674 297 668 C 272 661 251 650 234 634 C 217 618 203 596 192 569 C 181 542 172 509 165 469 L 125 248 C 117 207 114 173 116 146 C 117 119 123 97 135 81 C 146 65 163 53 185 47 C 207 40 236 37 272 37 Z M 477 919 L 554 919 L 437 786 L 399 786 L 477 919 Z" />
<glyph unicode="ć" horiz-adv-x="548" d="M 330 515 C 298 515 271 512 249 506 C 226 500 206 489 190 474 C 174 458 160 437 150 410 C 139 383 130 348 123 306 L 112 244 C 104 201 100 166 102 139 C 103 112 109 91 120 75 C 130 59 146 49 167 43 C 187 37 213 35 245 35 C 275 35 300 37 320 42 C 340 46 357 54 370 64 C 383 74 393 86 401 101 C 408 115 413 133 417 153 L 470 153 C 464 123 456 98 445 77 C 433 56 418 39 400 26 C 381 13 358 4 332 -2 C 305 -8 274 -11 238 -11 C 200 -11 167 -7 140 0 C 113 7 92 20 77 40 C 62 59 53 85 50 118 C 46 150 49 192 59 244 L 70 306 C 78 356 90 398 105 431 C 120 464 138 490 160 510 C 182 529 207 542 237 550 C 266 557 300 561 338 561 C 410 561 459 548 487 523 C 514 498 523 456 513 397 L 460 397 C 463 417 464 434 462 449 C 460 463 455 476 445 486 C 435 496 421 503 403 508 C 384 512 360 515 330 515 Z M 415 754 L 492 754 L 375 621 L 337 621 L 415 754 Z" />
<glyph unicode="Ĉ" horiz-adv-x="595" d="M 272 37 C 302 37 328 39 350 44 C 372 48 391 56 407 68 C 423 80 436 95 446 115 C 456 134 463 158 469 188 L 524 188 C 517 151 507 120 493 95 C 479 69 462 49 440 33 C 418 17 393 6 364 0 C 335 -7 302 -11 264 -11 C 222 -11 186 -7 158 1 C 129 9 107 23 91 43 C 75 63 65 89 62 123 C 58 156 61 198 70 249 L 109 468 C 117 516 129 556 143 589 C 157 621 176 648 198 668 C 220 688 248 703 280 712 C 312 721 350 726 394 726 C 431 726 463 722 490 715 C 517 708 538 697 554 681 C 570 665 580 645 585 620 C 590 594 589 563 583 527 L 528 527 C 533 555 534 579 531 599 C 528 619 521 634 509 646 C 497 657 480 665 460 670 C 440 675 415 678 385 678 C 351 678 321 674 297 668 C 272 661 251 650 234 634 C 217 618 203 596 192 569 C 181 542 172 509 165 469 L 125 248 C 117 207 114 173 116 146 C 117 119 123 97 135 81 C 146 65 163 53 185 47 C 207 40 236 37 272 37 Z M 520 786 L 483 786 L 431 873 L 348 786 L 307 786 L 400 919 L 473 919 L 520 786 Z" />
<glyph unicode="ĉ" horiz-adv-x="548" d="M 330 515 C 298 515 271 512 249 506 C 226 500 206 489 190 474 C 174 458 160 437 150 410 C 139 383 130 348 123 306 L 112 244 C 104 201 100 166 102 139 C 103 112 109 91 120 75 C 130 59 146 49 167 43 C 187 37 213 35 245 35 C 275 35 300 37 320 42 C 340 46 357 54 370 64 C 383 74 393 86 401 101 C 408 115 413 133 417 153 L 470 153 C 464 123 456 98 445 77 C 433 56 418 39 400 26 C 381 13 358 4 332 -2 C 305 -8 274 -11 238 -11 C 200 -11 167 -7 140 0 C 113 7 92 20 77 40 C 62 59 53 85 50 118 C 46 150 49 192 59 244 L 70 306 C 78 356 90 398 105 431 C 120 464 138 490 160 510 C 182 529 207 542 237 550 C 266 557 300 561 338 561 C 410 561 459 548 487 523 C 514 498 523 456 513 397 L 460 397 C 463 417 464 434 462 449 C 460 463 455 476 445 486 C 435 496 421 503 403 508 C 384 512 360 515 330 515 Z M 463 621 L 426 621 L 374 708 L 291 621 L 250 621 L 343 754 L 416 754 L 463 621 Z" />
<glyph unicode="Ċ" horiz-adv-x="595" d="M 272 37 C 302 37 328 39 350 44 C 372 48 391 56 407 68 C 423 80 436 95 446 115 C 456 134 463 158 469 188 L 524 188 C 517 151 507 120 493 95 C 479 69 462 49 440 33 C 418 17 393 6 364 0 C 335 -7 302 -11 264 -11 C 222 -11 186 -7 158 1 C 129 9 107 23 91 43 C 75 63 65 89 62 123 C 58 156 61 198 70 249 L 109 468 C 117 516 129 556 143 589 C 157 621 176 648 198 668 C 220 688 248 703 280 712 C 312 721 350 726 394 726 C 431 726 463 722 490 715 C 517 708 538 697 554 681 C 570 665 580 645 585 620 C 590 594 589 563 583 527 L 528 527 C 533 555 534 579 531 599 C 528 619 521 634 509 646 C 497 657 480 665 460 670 C 440 675 415 678 385 678 C 351 678 321 674 297 668 C 272 661 251 650 234 634 C 217 618 203 596 192 569 C 181 542 172 509 165 469 L 125 248 C 117 207 114 173 116 146 C 117 119 123 97 135 81 C 146 65 163 53 185 47 C 207 40 236 37 272 37 Z M 394 880 L 465 880 L 453 810 L 382 810 L 394 880 Z" />
<glyph unicode="ċ" horiz-adv-x="548" d="M 330 515 C 298 515 271 512 249 506 C 226 500 206 489 190 474 C 174 458 160 437 150 410 C 139 383 130 348 123 306 L 112 244 C 104 201 100 166 102 139 C 103 112 109 91 120 75 C 130 59 146 49 167 43 C 187 37 213 35 245 35 C 275 35 300 37 320 42 C 340 46 357 54 370 64 C 383 74 393 86 401 101 C 408 115 413 133 417 153 L 470 153 C 464 123 456 98 445 77 C 433 56 418 39 400 26 C 381 13 358 4 332 -2 C 305 -8 274 -11 238 -11 C 200 -11 167 -7 140 0 C 113 7 92 20 77 40 C 62 59 53 85 50 118 C 46 150 49 192 59 244 L 70 306 C 78 356 90 398 105 431 C 120 464 138 490 160 510 C 182 529 207 542 237 550 C 266 557 300 561 338 561 C 410 561 459 548 487 523 C 514 498 523 456 513 397 L 460 397 C 463 417 464 434 462 449 C 460 463 455 476 445 486 C 435 496 421 503 403 508 C 384 512 360 515 330 515 Z M 339 715 L 410 715 L 398 645 L 327 645 L 339 715 Z" />
<glyph unicode="Č" horiz-adv-x="595" d="M 272 37 C 302 37 328 39 350 44 C 372 48 391 56 407 68 C 423 80 436 95 446 115 C 456 134 463 158 469 188 L 524 188 C 517 151 507 120 493 95 C 479 69 462 49 440 33 C 418 17 393 6 364 0 C 335 -7 302 -11 264 -11 C 222 -11 186 -7 158 1 C 129 9 107 23 91 43 C 75 63 65 89 62 123 C 58 156 61 198 70 249 L 109 468 C 117 516 129 556 143 589 C 157 621 176 648 198 668 C 220 688 248 703 280 712 C 312 721 350 726 394 726 C 431 726 463 722 490 715 C 517 708 538 697 554 681 C 570 665 580 645 585 620 C 590 594 589 563 583 527 L 528 527 C 533 555 534 579 531 599 C 528 619 521 634 509 646 C 497 657 480 665 460 670 C 440 675 415 678 385 678 C 351 678 321 674 297 668 C 272 661 251 650 234 634 C 217 618 203 596 192 569 C 181 542 172 509 165 469 L 125 248 C 117 207 114 173 116 146 C 117 119 123 97 135 81 C 146 65 163 53 185 47 C 207 40 236 37 272 37 Z M 447 786 L 374 786 L 327 919 L 364 919 L 416 832 L 498 919 L 540 919 L 447 786 Z" />
<glyph unicode="č" horiz-adv-x="548" d="M 330 515 C 298 515 271 512 249 506 C 226 500 206 489 190 474 C 174 458 160 437 150 410 C 139 383 130 348 123 306 L 112 244 C 104 201 100 166 102 139 C 103 112 109 91 120 75 C 130 59 146 49 167 43 C 187 37 213 35 245 35 C 275 35 300 37 320 42 C 340 46 357 54 370 64 C 383 74 393 86 401 101 C 408 115 413 133 417 153 L 470 153 C 464 123 456 98 445 77 C 433 56 418 39 400 26 C 381 13 358 4 332 -2 C 305 -8 274 -11 238 -11 C 200 -11 167 -7 140 0 C 113 7 92 20 77 40 C 62 59 53 85 50 118 C 46 150 49 192 59 244 L 70 306 C 78 356 90 398 105 431 C 120 464 138 490 160 510 C 182 529 207 542 237 550 C 266 557 300 561 338 561 C 410 561 459 548 487 523 C 514 498 523 456 513 397 L 460 397 C 463 417 464 434 462 449 C 460 463 455 476 445 486 C 435 496 421 503 403 508 C 384 512 360 515 330 515 Z M 396 621 L 323 621 L 276 754 L 313 754 L 365 667 L 447 754 L 489 754 L 396 621 Z" />
<glyph unicode="Ď" horiz-adv-x="629" d="M 50 0 L 175 715 L 377 715 C 418 715 454 711 486 704 C 517 696 542 683 561 664 C 580 644 592 618 598 585 C 604 552 602 510 594 460 L 558 255 C 548 203 535 161 518 129 C 500 96 479 70 453 51 C 427 31 398 18 364 11 C 330 3 293 0 252 0 L 50 0 Z M 260 48 C 292 48 321 50 348 56 C 374 62 398 72 418 88 C 438 103 456 124 470 151 C 484 178 495 213 503 255 L 539 460 C 546 502 547 536 543 563 C 538 590 528 611 513 627 C 498 642 478 652 454 658 C 429 664 401 667 369 667 L 221 667 L 112 48 L 260 48 Z M 430 786 L 357 786 L 310 919 L 347 919 L 399 832 L 481 919 L 523 919 L 430 786 Z" />
<glyph unicode="ď" horiz-adv-x="641" d="M 237 35 C 264 35 294 41 327 53 C 360 65 393 83 425 105 L 485 446 C 461 468 434 485 406 497 C 377 509 349 515 321 515 C 291 515 266 512 245 506 C 223 500 205 489 189 473 C 173 457 160 436 150 409 C 139 382 130 348 123 306 L 112 244 C 104 202 101 167 102 140 C 103 113 109 92 119 76 C 129 60 144 50 164 44 C 183 38 207 35 237 35 Z M 227 -11 C 193 -11 164 -7 139 0 C 114 7 94 20 79 40 C 64 59 55 85 51 118 C 47 150 49 192 59 244 L 70 306 C 78 356 90 398 105 431 C 120 464 138 490 159 510 C 180 529 204 542 231 550 C 258 557 288 561 322 561 C 352 561 382 554 412 541 C 442 527 469 511 493 492 L 537 737 L 590 737 L 460 0 L 430 0 L 422 61 C 408 49 392 39 376 30 C 359 21 342 14 325 8 C 308 2 291 -2 274 -6 C 257 -9 241 -11 227 -11 Z M 666 737 L 727 737 L 663 528 L 628 528 L 666 737 Z" />
<glyph unicode="Đ" horiz-adv-x="629" d="M 50 0 L 109 340 L 43 340 L 51 386 L 117 386 L 175 715 L 377 715 C 418 715 454 711 486 704 C 517 696 542 683 561 664 C 580 644 592 618 598 585 C 604 552 602 510 594 460 L 558 255 C 548 203 535 161 518 129 C 500 96 479 70 453 51 C 427 31 398 18 364 11 C 330 3 293 0 252 0 L 50 0 Z M 260 48 C 292 48 321 50 348 56 C 374 62 398 72 418 88 C 438 103 456 124 470 151 C 484 178 495 213 503 255 L 539 460 C 546 502 547 536 543 563 C 538 590 528 611 513 627 C 498 642 478 652 454 658 C 429 664 401 667 369 667 L 221 667 L 172 386 L 304 386 L 296 340 L 164 340 L 112 48 L 260 48 Z" />
<glyph unicode="đ" horiz-adv-x="586" d="M 224 -11 C 190 -11 161 -7 137 0 C 112 7 92 20 78 40 C 63 59 54 85 50 118 C 46 150 49 192 59 244 L 70 306 C 78 356 90 398 106 431 C 121 464 139 490 160 510 C 181 529 205 542 233 550 C 260 557 290 561 324 561 C 354 561 383 554 413 541 C 443 527 469 511 493 492 L 517 627 L 396 627 L 403 667 L 524 667 L 537 737 L 590 737 L 576 667 L 637 667 L 630 627 L 570 627 L 460 0 L 428 0 L 420 61 C 405 51 389 41 373 33 C 356 24 339 16 322 10 C 305 3 288 -1 271 -5 C 254 -9 238 -11 224 -11 Z M 237 35 C 264 35 294 41 327 53 C 360 65 393 83 425 105 L 485 446 C 461 468 434 485 406 497 C 377 509 349 515 321 515 C 291 515 266 512 245 506 C 223 500 205 489 189 473 C 173 457 160 436 150 409 C 139 382 130 348 123 306 L 112 244 C 104 202 101 167 102 140 C 103 113 109 92 119 76 C 129 60 144 50 164 44 C 183 38 207 35 237 35 Z" />
<glyph unicode="Ē" horiz-adv-x="555" d="M 460 340 L 164 340 L 112 48 L 448 48 L 440 0 L 50 0 L 175 715 L 565 715 L 557 667 L 221 667 L 172 386 L 468 386 L 460 340 Z M 276 858 L 530 858 L 521 812 L 268 812 L 276 858 Z" />
<glyph unicode="ē" horiz-adv-x="547" d="M 114 260 C 105 210 101 171 102 141 C 103 111 109 89 121 73 C 132 57 149 47 171 42 C 193 37 222 35 256 35 C 290 35 322 37 353 42 C 383 47 412 53 438 59 L 429 11 C 404 5 376 0 345 -4 C 313 -8 278 -11 240 -11 C 201 -11 168 -7 141 0 C 114 6 93 19 78 38 C 62 57 53 83 50 116 C 46 149 49 192 59 244 L 70 306 C 78 356 90 398 105 431 C 120 464 138 490 160 510 C 181 529 206 542 235 550 C 264 557 297 561 335 561 C 365 561 391 558 414 554 C 437 549 456 541 471 530 C 486 518 497 503 505 483 C 512 463 515 437 515 407 C 513 371 506 343 494 323 C 481 302 464 286 442 275 C 420 264 395 257 366 255 C 337 252 306 251 272 253 L 114 260 Z M 279 295 C 311 295 339 296 363 300 C 386 304 405 310 419 318 C 433 326 444 338 451 353 C 458 367 462 386 463 408 C 463 430 461 447 456 461 C 451 475 443 486 432 494 C 420 502 406 507 389 510 C 371 513 351 515 327 515 C 295 515 267 512 245 506 C 223 500 204 488 188 472 C 172 456 158 433 148 405 C 138 376 129 339 121 295 L 279 295 Z M 246 693 L 500 693 L 491 647 L 238 647 L 246 693 Z" />
<glyph unicode="Ĕ" horiz-adv-x="555" d="M 460 340 L 164 340 L 112 48 L 448 48 L 440 0 L 50 0 L 175 715 L 565 715 L 557 667 L 221 667 L 172 386 L 468 386 L 460 340 Z M 333 916 C 327 888 330 866 340 850 C 350 834 370 827 398 827 C 426 827 448 834 464 850 C 480 866 490 888 496 916 L 541 916 C 533 872 517 839 492 816 C 467 792 434 781 393 781 C 351 781 321 792 303 816 C 285 839 280 872 288 916 L 333 916 Z" />
<glyph unicode="ĕ" horiz-adv-x="547" d="M 114 260 C 105 210 101 171 102 141 C 103 111 109 89 121 73 C 132 57 149 47 171 42 C 193 37 222 35 256 35 C 290 35 322 37 353 42 C 383 47 412 53 438 59 L 429 11 C 404 5 376 0 345 -4 C 313 -8 278 -11 240 -11 C 201 -11 168 -7 141 0 C 114 6 93 19 78 38 C 62 57 53 83 50 116 C 46 149 49 192 59 244 L 70 306 C 78 356 90 398 105 431 C 120 464 138 490 160 510 C 181 529 206 542 235 550 C 264 557 297 561 335 561 C 365 561 391 558 414 554 C 437 549 456 541 471 530 C 486 518 497 503 505 483 C 512 463 515 437 515 407 C 513 371 506 343 494 323 C 481 302 464 286 442 275 C 420 264 395 257 366 255 C 337 252 306 251 272 253 L 114 260 Z M 279 295 C 311 295 339 296 363 300 C 386 304 405 310 419 318 C 433 326 444 338 451 353 C 458 367 462 386 463 408 C 463 430 461 447 456 461 C 451 475 443 486 432 494 C 420 502 406 507 389 510 C 371 513 351 515 327 515 C 295 515 267 512 245 506 C 223 500 204 488 188 472 C 172 456 158 433 148 405 C 138 376 129 339 121 295 L 279 295 Z M 299 751 C 293 723 296 701 306 685 C 316 669 336 662 364 662 C 392 662 414 669 430 685 C 446 701 456 723 462 751 L 507 751 C 499 707 483 674 458 651 C 433 627 400 616 359 616 C 317 616 287 627 269 651 C 251 674 246 707 254 751 L 299 751 Z" />
<glyph unicode="Ė" horiz-adv-x="555" d="M 460 340 L 164 340 L 112 48 L 448 48 L 440 0 L 50 0 L 175 715 L 565 715 L 557 667 L 221 667 L 172 386 L 468 386 L 460 340 Z M 368 880 L 439 880 L 427 810 L 356 810 L 368 880 Z" />
<glyph unicode="ė" horiz-adv-x="547" d="M 114 260 C 105 210 101 171 102 141 C 103 111 109 89 121 73 C 132 57 149 47 171 42 C 193 37 222 35 256 35 C 290 35 322 37 353 42 C 383 47 412 53 438 59 L 429 11 C 404 5 376 0 345 -4 C 313 -8 278 -11 240 -11 C 201 -11 168 -7 141 0 C 114 6 93 19 78 38 C 62 57 53 83 50 116 C 46 149 49 192 59 244 L 70 306 C 78 356 90 398 105 431 C 120 464 138 490 160 510 C 181 529 206 542 235 550 C 264 557 297 561 335 561 C 365 561 391 558 414 554 C 437 549 456 541 471 530 C 486 518 497 503 505 483 C 512 463 515 437 515 407 C 513 371 506 343 494 323 C 481 302 464 286 442 275 C 420 264 395 257 366 255 C 337 252 306 251 272 253 L 114 260 Z M 279 295 C 311 295 339 296 363 300 C 386 304 405 310 419 318 C 433 326 444 338 451 353 C 458 367 462 386 463 408 C 463 430 461 447 456 461 C 451 475 443 486 432 494 C 420 502 406 507 389 510 C 371 513 351 515 327 515 C 295 515 267 512 245 506 C 223 500 204 488 188 472 C 172 456 158 433 148 405 C 138 376 129 339 121 295 L 279 295 Z M 331 715 L 402 715 L 390 645 L 319 645 L 331 715 Z" />
<glyph unicode="Ę" horiz-adv-x="555" d="M 407 -183 L 369 -183 C 342 -183 322 -177 310 -165 C 297 -153 293 -135 298 -110 C 301 -89 311 -69 327 -51 C 343 -32 364 -15 389 0 L 50 0 L 175 715 L 565 715 L 557 667 L 221 667 L 172 386 L 468 386 L 460 340 L 164 340 L 112 48 L 448 48 L 440 0 C 414 -15 393 -31 378 -48 C 362 -65 353 -81 351 -97 C 347 -112 349 -123 357 -129 C 364 -135 375 -139 389 -139 L 415 -139 L 407 -183 Z" />
<glyph unicode="ę" horiz-adv-x="547" d="M 396 -172 L 358 -172 C 331 -172 311 -166 299 -154 C 286 -142 282 -124 287 -99 C 290 -81 297 -64 309 -48 C 321 -31 336 -16 356 -2 C 320 -8 282 -11 240 -11 C 201 -11 168 -7 141 0 C 114 6 93 19 78 38 C 62 57 53 83 50 116 C 46 149 49 192 59 244 L 70 306 C 78 356 90 398 105 431 C 120 464 138 490 160 510 C 181 529 206 542 235 550 C 264 557 297 561 335 561 C 365 561 391 558 414 554 C 437 549 456 541 471 530 C 486 518 497 503 505 483 C 512 463 515 437 515 407 C 513 371 506 343 494 323 C 481 302 464 286 442 275 C 420 264 395 257 366 255 C 337 252 306 251 272 253 L 114 260 C 105 210 101 171 102 141 C 103 111 109 89 121 73 C 132 57 149 47 171 42 C 193 37 222 35 256 35 C 290 35 322 37 353 42 C 383 47 412 53 438 59 L 429 11 C 403 -4 382 -20 367 -37 C 351 -54 342 -70 340 -86 C 336 -101 338 -112 346 -118 C 353 -124 364 -128 378 -128 L 404 -128 L 396 -172 Z M 279 295 C 311 295 339 296 363 300 C 386 304 405 310 419 318 C 433 326 444 338 451 353 C 458 367 462 386 463 408 C 463 430 461 447 456 461 C 451 475 443 486 432 494 C 420 502 406 507 389 510 C 371 513 351 515 327 515 C 295 515 267 512 245 506 C 223 500 204 488 188 472 C 172 456 158 433 148 405 C 138 376 129 339 121 295 L 279 295 Z" />
<glyph unicode="Ě" horiz-adv-x="555" d="M 460 340 L 164 340 L 112 48 L 448 48 L 440 0 L 50 0 L 175 715 L 565 715 L 557 667 L 221 667 L 172 386 L 468 386 L 460 340 Z M 427 786 L 354 786 L 307 919 L 344 919 L 396 832 L 478 919 L 520 919 L 427 786 Z" />
<glyph unicode="ě" horiz-adv-x="547" d="M 114 260 C 105 210 101 171 102 141 C 103 111 109 89 121 73 C 132 57 149 47 171 42 C 193 37 222 35 256 35 C 290 35 322 37 353 42 C 383 47 412 53 438 59 L 429 11 C 404 5 376 0 345 -4 C 313 -8 278 -11 240 -11 C 201 -11 168 -7 141 0 C 114 6 93 19 78 38 C 62 57 53 83 50 116 C 46 149 49 192 59 244 L 70 306 C 78 356 90 398 105 431 C 120 464 138 490 160 510 C 181 529 206 542 235 550 C 264 557 297 561 335 561 C 365 561 391 558 414 554 C 437 549 456 541 471 530 C 486 518 497 503 505 483 C 512 463 515 437 515 407 C 513 371 506 343 494 323 C 481 302 464 286 442 275 C 420 264 395 257 366 255 C 337 252 306 251 272 253 L 114 260 Z M 279 295 C 311 295 339 296 363 300 C 386 304 405 310 419 318 C 433 326 444 338 451 353 C 458 367 462 386 463 408 C 463 430 461 447 456 461 C 451 475 443 486 432 494 C 420 502 406 507 389 510 C 371 513 351 515 327 515 C 295 515 267 512 245 506 C 223 500 204 488 188 472 C 172 456 158 433 148 405 C 138 376 129 339 121 295 L 279 295 Z M 395 621 L 322 621 L 275 754 L 312 754 L 364 667 L 446 754 L 488 754 L 395 621 Z" />
<glyph unicode="Ĝ" horiz-adv-x="628" d="M 392 726 C 429 726 461 722 488 715 C 515 708 537 697 553 681 C 569 665 580 645 585 620 C 590 594 589 563 583 527 L 528 527 C 533 555 534 579 531 599 C 528 619 521 634 509 646 C 497 657 480 665 460 670 C 440 675 415 678 385 678 C 351 678 321 674 297 668 C 272 661 251 650 234 634 C 217 618 203 596 192 569 C 181 542 172 509 165 469 L 125 248 C 117 207 114 173 116 146 C 117 119 123 97 135 81 C 146 65 163 53 185 47 C 207 40 236 37 272 37 C 336 37 385 50 418 77 C 450 104 471 139 479 183 L 506 340 L 342 340 L 350 386 L 569 386 L 502 0 L 470 0 L 463 66 C 451 54 439 43 427 33 C 414 23 400 15 384 9 C 368 3 351 -1 331 -5 C 311 -9 289 -11 264 -11 C 222 -11 187 -6 159 2 C 130 10 108 25 92 45 C 76 65 66 92 62 125 C 58 158 61 199 70 248 L 110 469 C 118 515 129 555 143 588 C 157 620 175 647 197 668 C 219 688 246 703 278 712 C 310 721 348 726 392 726 Z M 517 786 L 480 786 L 428 873 L 345 786 L 304 786 L 397 919 L 470 919 L 517 786 Z" />
<glyph unicode="ĝ" horiz-adv-x="586" d="M 419 69 C 389 49 357 33 323 20 C 289 6 257 0 227 0 C 193 0 164 3 140 11 C 115 18 95 31 81 51 C 66 70 57 96 53 129 C 49 161 51 203 61 255 L 70 306 C 78 356 90 398 106 431 C 121 464 139 490 160 510 C 181 529 205 542 233 550 C 260 557 290 561 324 561 C 354 561 384 554 415 540 C 445 526 472 509 496 490 L 525 550 L 557 550 L 460 0 C 454 -35 445 -65 435 -90 C 424 -115 410 -136 392 -152 C 374 -168 351 -179 325 -187 C 298 -194 265 -198 227 -198 C 195 -198 165 -195 137 -191 C 108 -187 82 -181 58 -174 L 67 -125 C 93 -134 120 -141 147 -145 C 174 -149 202 -152 232 -152 C 259 -152 282 -149 302 -145 C 322 -140 338 -132 352 -121 C 366 -109 377 -94 386 -74 C 394 -54 401 -30 407 0 L 419 69 Z M 321 515 C 291 515 266 512 245 506 C 223 500 205 489 189 473 C 173 457 160 436 150 409 C 139 382 130 348 123 306 L 113 255 C 105 213 102 178 104 151 C 105 124 111 103 121 87 C 131 71 146 61 166 55 C 185 49 209 46 239 46 C 267 46 297 52 330 64 C 362 76 395 93 427 116 L 485 446 C 461 468 434 485 406 497 C 377 509 349 515 321 515 Z M 475 621 L 438 621 L 386 708 L 303 621 L 262 621 L 355 754 L 428 754 L 475 621 Z" />
<glyph unicode="Ğ" horiz-adv-x="628" d="M 392 726 C 429 726 461 722 488 715 C 515 708 537 697 553 681 C 569 665 580 645 585 620 C 590 594 589 563 583 527 L 528 527 C 533 555 534 579 531 599 C 528 619 521 634 509 646 C 497 657 480 665 460 670 C 440 675 415 678 385 678 C 351 678 321 674 297 668 C 272 661 251 650 234 634 C 217 618 203 596 192 569 C 181 542 172 509 165 469 L 125 248 C 117 207 114 173 116 146 C 117 119 123 97 135 81 C 146 65 163 53 185 47 C 207 40 236 37 272 37 C 336 37 385 50 418 77 C 450 104 471 139 479 183 L 506 340 L 342 340 L 350 386 L 569 386 L 502 0 L 470 0 L 463 66 C 451 54 439 43 427 33 C 414 23 400 15 384 9 C 368 3 351 -1 331 -5 C 311 -9 289 -11 264 -11 C 222 -11 187 -6 159 2 C 130 10 108 25 92 45 C 76 65 66 92 62 125 C 58 158 61 199 70 248 L 110 469 C 118 515 129 555 143 588 C 157 620 175 647 197 668 C 219 688 246 703 278 712 C 310 721 348 726 392 726 Z M 354 916 C 348 888 351 866 361 850 C 371 834 391 827 419 827 C 447 827 469 834 485 850 C 501 866 511 888 517 916 L 562 916 C 554 872 538 839 513 816 C 488 792 455 781 414 781 C 372 781 342 792 324 816 C 306 839 301 872 309 916 L 354 916 Z" />
<glyph unicode="ğ" horiz-adv-x="586" d="M 419 69 C 389 49 357 33 323 20 C 289 6 257 0 227 0 C 193 0 164 3 140 11 C 115 18 95 31 81 51 C 66 70 57 96 53 129 C 49 161 51 203 61 255 L 70 306 C 78 356 90 398 106 431 C 121 464 139 490 160 510 C 181 529 205 542 233 550 C 260 557 290 561 324 561 C 354 561 384 554 415 540 C 445 526 472 509 496 490 L 525 550 L 557 550 L 460 0 C 454 -35 445 -65 435 -90 C 424 -115 410 -136 392 -152 C 374 -168 351 -179 325 -187 C 298 -194 265 -198 227 -198 C 195 -198 165 -195 137 -191 C 108 -187 82 -181 58 -174 L 67 -125 C 93 -134 120 -141 147 -145 C 174 -149 202 -152 232 -152 C 259 -152 282 -149 302 -145 C 322 -140 338 -132 352 -121 C 366 -109 377 -94 386 -74 C 394 -54 401 -30 407 0 L 419 69 Z M 321 515 C 291 515 266 512 245 506 C 223 500 205 489 189 473 C 173 457 160 436 150 409 C 139 382 130 348 123 306 L 113 255 C 105 213 102 178 104 151 C 105 124 111 103 121 87 C 131 71 146 61 166 55 C 185 49 209 46 239 46 C 267 46 297 52 330 64 C 362 76 395 93 427 116 L 485 446 C 461 468 434 485 406 497 C 377 509 349 515 321 515 Z M 319 751 C 313 723 316 701 326 685 C 336 669 356 662 384 662 C 412 662 434 669 450 685 C 466 701 476 723 482 751 L 527 751 C 519 707 503 674 478 651 C 453 627 420 616 379 616 C 337 616 307 627 289 651 C 271 674 266 707 274 751 L 319 751 Z" />
<glyph unicode="Ġ" horiz-adv-x="628" d="M 392 726 C 429 726 461 722 488 715 C 515 708 537 697 553 681 C 569 665 580 645 585 620 C 590 594 589 563 583 527 L 528 527 C 533 555 534 579 531 599 C 528 619 521 634 509 646 C 497 657 480 665 460 670 C 440 675 415 678 385 678 C 351 678 321 674 297 668 C 272 661 251 650 234 634 C 217 618 203 596 192 569 C 181 542 172 509 165 469 L 125 248 C 117 207 114 173 116 146 C 117 119 123 97 135 81 C 146 65 163 53 185 47 C 207 40 236 37 272 37 C 336 37 385 50 418 77 C 450 104 471 139 479 183 L 506 340 L 342 340 L 350 386 L 569 386 L 502 0 L 470 0 L 463 66 C 451 54 439 43 427 33 C 414 23 400 15 384 9 C 368 3 351 -1 331 -5 C 311 -9 289 -11 264 -11 C 222 -11 187 -6 159 2 C 130 10 108 25 92 45 C 76 65 66 92 62 125 C 58 158 61 199 70 248 L 110 469 C 118 515 129 555 143 588 C 157 620 175 647 197 668 C 219 688 246 703 278 712 C 310 721 348 726 392 726 Z M 398 880 L 469 880 L 457 810 L 386 810 L 398 880 Z" />
<glyph unicode="ġ" horiz-adv-x="586" d="M 419 69 C 389 49 357 33 323 20 C 289 6 257 0 227 0 C 193 0 164 3 140 11 C 115 18 95 31 81 51 C 66 70 57 96 53 129 C 49 161 51 203 61 255 L 70 306 C 78 356 90 398 106 431 C 121 464 139 490 160 510 C 181 529 205 542 233 550 C 260 557 290 561 324 561 C 354 561 384 554 415 540 C 445 526 472 509 496 490 L 525 550 L 557 550 L 460 0 C 454 -35 445 -65 435 -90 C 424 -115 410 -136 392 -152 C 374 -168 351 -179 325 -187 C 298 -194 265 -198 227 -198 C 195 -198 165 -195 137 -191 C 108 -187 82 -181 58 -174 L 67 -125 C 93 -134 120 -141 147 -145 C 174 -149 202 -152 232 -152 C 259 -152 282 -149 302 -145 C 322 -140 338 -132 352 -121 C 366 -109 377 -94 386 -74 C 394 -54 401 -30 407 0 L 419 69 Z M 321 515 C 291 515 266 512 245 506 C 223 500 205 489 189 473 C 173 457 160 436 150 409 C 139 382 130 348 123 306 L 113 255 C 105 213 102 178 104 151 C 105 124 111 103 121 87 C 131 71 146 61 166 55 C 185 49 209 46 239 46 C 267 46 297 52 330 64 C 362 76 395 93 427 116 L 485 446 C 461 468 434 485 406 497 C 377 509 349 515 321 515 Z M 347 715 L 418 715 L 406 645 L 335 645 L 347 715 Z" />
<glyph unicode="Ģ" horiz-adv-x="628" d="M 392 726 C 429 726 461 722 488 715 C 515 708 537 697 553 681 C 569 665 580 645 585 620 C 590 594 589 563 583 527 L 528 527 C 533 555 534 579 531 599 C 528 619 521 634 509 646 C 497 657 480 665 460 670 C 440 675 415 678 385 678 C 351 678 321 674 297 668 C 272 661 251 650 234 634 C 217 618 203 596 192 569 C 181 542 172 509 165 469 L 125 248 C 117 207 114 173 116 146 C 117 119 123 97 135 81 C 146 65 163 53 185 47 C 207 40 236 37 272 37 C 336 37 385 50 418 77 C 450 104 471 139 479 183 L 506 340 L 342 340 L 350 386 L 569 386 L 502 0 L 470 0 L 463 66 C 451 54 439 43 427 33 C 414 23 400 15 384 9 C 368 3 351 -1 331 -5 C 311 -9 289 -11 264 -11 C 222 -11 187 -6 159 2 C 130 10 108 25 92 45 C 76 65 66 92 62 125 C 58 158 61 199 70 248 L 110 469 C 118 515 129 555 143 588 C 157 620 175 647 197 668 C 219 688 246 703 278 712 C 310 721 348 726 392 726 Z M 228 -66 L 296 -66 L 213 -209 L 174 -209 L 228 -66 Z" />
<glyph unicode="ģ" horiz-adv-x="586" d="M 419 69 C 389 49 357 33 323 20 C 289 6 257 0 227 0 C 193 0 164 3 140 11 C 115 18 95 31 81 51 C 66 70 57 96 53 129 C 49 161 51 203 61 255 L 70 306 C 78 356 90 398 106 431 C 121 464 139 490 160 510 C 181 529 205 542 233 550 C 260 557 290 561 324 561 C 354 561 384 554 415 540 C 445 526 472 509 496 490 L 525 550 L 557 550 L 460 0 C 454 -35 445 -65 435 -90 C 424 -115 410 -136 392 -152 C 374 -168 351 -179 325 -187 C 298 -194 265 -198 227 -198 C 195 -198 165 -195 137 -191 C 108 -187 82 -181 58 -174 L 67 -125 C 93 -134 120 -141 147 -145 C 174 -149 202 -152 232 -152 C 259 -152 282 -149 302 -145 C 322 -140 338 -132 352 -121 C 366 -109 377 -94 386 -74 C 394 -54 401 -30 407 0 L 419 69 Z M 321 515 C 291 515 266 512 245 506 C 223 500 205 489 189 473 C 173 457 160 436 150 409 C 139 382 130 348 123 306 L 113 255 C 105 213 102 178 104 151 C 105 124 111 103 121 87 C 131 71 146 61 166 55 C 185 49 209 46 239 46 C 267 46 297 52 330 64 C 362 76 395 93 427 116 L 485 446 C 461 468 434 485 406 497 C 377 509 349 515 321 515 Z M 394 615 L 326 615 L 409 758 L 448 758 L 394 615 Z" />
<glyph unicode="Ĥ" horiz-adv-x="636" d="M 498 0 L 443 0 L 503 340 L 164 340 L 105 0 L 50 0 L 175 715 L 230 715 L 172 386 L 510 386 L 569 715 L 624 715 L 498 0 Z M 525 786 L 488 786 L 436 873 L 353 786 L 312 786 L 405 919 L 478 919 L 525 786 Z" />
<glyph unicode="ĥ" horiz-adv-x="577" d="M 404 0 L 469 371 C 474 399 476 423 474 442 C 472 460 466 475 457 486 C 447 497 434 505 417 509 C 400 513 380 515 356 515 C 323 515 292 509 262 497 C 232 485 201 468 169 446 L 91 0 L 38 0 L 168 737 L 221 737 L 177 492 C 213 515 245 532 275 544 C 305 555 336 561 369 561 C 400 561 427 558 449 552 C 471 546 489 536 502 522 C 515 508 523 488 526 464 C 529 439 527 408 521 371 L 457 0 L 404 0 Z M 311 791 L 274 791 L 222 878 L 139 791 L 98 791 L 191 924 L 264 924 L 311 791 Z" />
<glyph unicode="Ħ" horiz-adv-x="636" d="M 99 596 L 154 596 L 175 715 L 230 715 L 209 596 L 548 596 L 569 715 L 624 715 L 603 596 L 658 596 L 650 550 L 595 550 L 498 0 L 443 0 L 503 340 L 164 340 L 105 0 L 50 0 L 146 550 L 91 550 L 99 596 Z M 510 386 L 540 550 L 201 550 L 172 386 L 510 386 Z" />
<glyph unicode="ħ" horiz-adv-x="577" d="M 404 0 L 469 371 C 474 399 476 423 474 442 C 472 460 466 475 457 486 C 447 497 434 505 417 509 C 400 513 380 515 356 515 C 323 515 292 509 262 497 C 232 485 201 468 169 446 L 91 0 L 38 0 L 168 737 L 221 737 L 209 673 L 532 673 L 526 630 L 202 630 L 177 492 C 213 515 245 532 275 544 C 305 555 336 561 369 561 C 400 561 427 558 449 552 C 471 546 489 536 502 522 C 515 508 523 488 526 464 C 529 439 527 408 521 371 L 457 0 L 404 0 Z" />
<glyph unicode="Ĩ" horiz-adv-x="242" d="M 260 770 C 247 770 237 772 230 777 C 222 781 216 786 210 792 C 204 797 199 802 194 807 C 188 811 181 814 173 814 C 155 814 144 801 140 776 L 107 776 C 115 827 139 853 177 853 C 189 853 199 850 207 846 C 215 841 221 836 227 831 C 232 825 237 820 243 816 C 249 811 256 809 265 809 C 283 809 294 821 298 847 L 331 847 C 326 819 318 800 306 788 C 294 776 279 770 260 770 Z M 175 715 L 230 715 L 105 0 L 50 0 L 175 715 Z" />
<glyph unicode="ĩ" horiz-adv-x="229" d="M 230 606 C 217 606 207 608 200 613 C 192 617 186 622 180 628 C 174 633 169 638 164 643 C 158 647 151 650 143 650 C 135 650 128 647 122 641 C 116 635 112 625 110 612 L 73 612 C 77 638 85 658 98 670 C 111 682 127 689 147 689 C 159 689 169 686 177 682 C 185 677 191 672 197 667 C 202 661 207 656 213 652 C 219 647 226 645 235 645 C 253 645 264 657 268 683 L 306 683 C 300 655 291 636 278 624 C 265 612 249 606 230 606 Z M 141 550 L 194 550 L 97 0 L 44 0 L 141 550 Z" />
<glyph unicode="Ī" horiz-adv-x="242" d="M 120 836 L 329 836 L 320 790 L 111 790 L 120 836 Z M 175 715 L 230 715 L 105 0 L 50 0 L 175 715 Z" />
<glyph unicode="ī" horiz-adv-x="229" d="M 90 671 L 286 671 L 278 625 L 82 625 L 90 671 Z M 141 550 L 194 550 L 97 0 L 44 0 L 141 550 Z" />
<glyph unicode="Ĭ" horiz-adv-x="242" d="M 175 715 L 230 715 L 105 0 L 50 0 L 175 715 Z M 153 916 C 147 888 150 866 160 850 C 170 834 190 827 218 827 C 246 827 268 834 284 850 C 300 866 310 888 316 916 L 361 916 C 353 872 337 839 312 816 C 287 792 254 781 213 781 C 171 781 141 792 123 816 C 105 839 100 872 108 916 L 153 916 Z" />
<glyph unicode="ĭ" horiz-adv-x="229" d="M 141 550 L 194 550 L 97 0 L 44 0 L 141 550 Z M 120 751 C 114 723 117 701 127 685 C 137 669 157 662 185 662 C 213 662 235 669 251 685 C 267 701 277 723 283 751 L 328 751 C 320 707 304 674 279 651 C 254 627 221 616 180 616 C 138 616 108 627 90 651 C 72 674 67 707 75 751 L 120 751 Z" />
<glyph unicode="Į" horiz-adv-x="242" d="M -37 -110 C -33 -90 -24 -70 -9 -52 C 5 -34 24 -17 48 -2 L 175 715 L 230 715 L 105 0 C 79 -15 58 -31 43 -48 C 27 -65 18 -81 15 -97 C 12 -112 14 -123 21 -129 C 28 -135 39 -139 54 -139 L 79 -139 L 71 -183 L 33 -183 C 6 -183 -13 -177 -25 -165 C -37 -153 -41 -135 -37 -110 Z" />
<glyph unicode="į" horiz-adv-x="229" d="M -44 -110 C -41 -89 -32 -69 -16 -51 C 0 -32 20 -15 44 0 L 141 550 L 194 550 L 97 0 C 71 -15 50 -31 35 -48 C 19 -65 10 -81 8 -97 C 4 -112 6 -123 14 -129 C 21 -135 32 -139 46 -139 L 71 -139 L 64 -183 L 25 -183 C -1 -183 -21 -177 -33 -165 C -45 -153 -48 -135 -44 -110 Z M 166 737 L 234 737 L 222 669 L 154 669 L 166 737 Z" />
<glyph unicode="İ" horiz-adv-x="242" d="M 175 715 L 230 715 L 105 0 L 50 0 L 175 715 Z M 195 880 L 266 880 L 254 810 L 183 810 L 195 880 Z" />
<glyph unicode="ı" horiz-adv-x="229" d="M 141 550 L 194 550 L 97 0 L 44 0 L 141 550 Z" />
<glyph unicode="Ĵ" horiz-adv-x="410" d="M 183 667 L 191 715 L 398 715 L 297 137 C 292 112 285 90 277 72 C 269 53 257 37 243 25 C 229 13 211 4 191 -2 C 170 -8 145 -11 117 -11 C 96 -11 76 -10 57 -8 C 38 -6 21 -4 5 0 L 14 51 C 49 41 85 37 123 37 C 141 37 156 38 169 41 C 182 43 193 48 203 56 C 213 64 221 74 227 87 C 233 100 238 117 242 137 L 334 667 L 183 667 Z M 417 786 L 380 786 L 328 873 L 245 786 L 204 786 L 297 919 L 370 919 L 417 786 Z" />
<glyph unicode="ĵ" horiz-adv-x="229" d="M 84 -73 C 76 -115 62 -146 42 -167 C 22 -187 -9 -198 -51 -198 C -78 -198 -102 -194 -122 -187 L -114 -141 C -104 -144 -94 -147 -82 -149 C -70 -151 -58 -152 -47 -152 C -23 -152 -5 -145 6 -133 C 17 -120 25 -100 31 -74 L 141 550 L 194 550 L 84 -73 Z M 283 621 L 246 621 L 194 708 L 111 621 L 70 621 L 163 754 L 236 754 L 283 621 Z" />
<glyph unicode="Ķ" horiz-adv-x="546" d="M 105 0 L 50 0 L 175 715 L 230 715 L 173 391 L 513 715 L 587 715 L 216 364 L 469 0 L 399 0 L 165 346 L 105 0 Z M 200 -66 L 268 -66 L 185 -209 L 146 -209 L 200 -66 Z" />
<glyph unicode="ķ" horiz-adv-x="499" d="M 91 0 L 38 0 L 168 737 L 221 737 L 145 308 L 147 308 L 427 550 L 503 550 L 188 284 L 428 0 L 358 0 L 140 266 L 137 266 L 91 0 Z M 180 -66 L 248 -66 L 165 -209 L 126 -209 L 180 -66 Z" />
<glyph unicode="ĸ" horiz-adv-x="499" d="M 91 0 L 38 0 L 135 550 L 188 550 L 145 308 L 147 308 L 427 550 L 503 550 L 188 284 L 428 0 L 358 0 L 140 266 L 137 266 L 91 0 Z" />
<glyph unicode="Ĺ" horiz-adv-x="459" d="M 175 715 L 230 715 L 112 48 L 384 48 L 376 0 L 50 0 L 175 715 Z M 277 919 L 354 919 L 237 786 L 199 786 L 277 919 Z" />
<glyph unicode="ĺ" horiz-adv-x="218" d="M 168 737 L 221 737 L 91 0 L 38 0 L 168 737 Z M 270 930 L 347 930 L 230 797 L 192 797 L 270 930 Z" />
<glyph unicode="Ļ" horiz-adv-x="459" d="M 175 715 L 230 715 L 112 48 L 384 48 L 376 0 L 50 0 L 175 715 Z M 172 -66 L 240 -66 L 157 -209 L 118 -209 L 172 -66 Z" />
<glyph unicode="ļ" horiz-adv-x="218" d="M 168 737 L 221 737 L 91 0 L 38 0 L 168 737 Z M 19 -66 L 87 -66 L 4 -209 L -35 -209 L 19 -66 Z" />
<glyph unicode="Ľ" horiz-adv-x="459" d="M 175 715 L 230 715 L 112 48 L 384 48 L 376 0 L 50 0 L 175 715 Z M 311 737 L 373 737 L 309 528 L 274 528 L 311 737 Z" />
<glyph unicode="ľ" horiz-adv-x="274" d="M 168 737 L 221 737 L 91 0 L 38 0 L 168 737 Z M 298 737 L 359 737 L 295 528 L 260 528 L 298 737 Z" />
<glyph unicode="Ŀ" horiz-adv-x="459" d="M 175 715 L 230 715 L 112 48 L 384 48 L 376 0 L 50 0 L 175 715 Z M 263 407 L 347 407 L 332 325 L 249 325 L 263 407 Z" />
<glyph unicode="ŀ" horiz-adv-x="319" d="M 168 737 L 221 737 L 91 0 L 38 0 L 168 737 Z M 245 405 L 329 405 L 314 323 L 231 323 L 245 405 Z" />
<glyph unicode="Ł" horiz-adv-x="459" d="M 102 305 L 33 284 L 41 328 L 110 349 L 175 715 L 230 715 L 168 366 L 239 388 L 231 344 L 161 322 L 112 48 L 384 48 L 376 0 L 50 0 L 102 305 Z" />
<glyph unicode="ł" horiz-adv-x="240" d="M 103 309 L 14 274 L 23 319 L 111 354 L 179 737 L 232 737 L 168 377 L 257 414 L 250 369 L 161 332 L 102 0 L 50 0 L 103 309 Z" />
<glyph unicode="Ń" horiz-adv-x="648" d="M 510 0 L 441 0 L 217 639 L 105 0 L 50 0 L 175 715 L 244 715 L 469 76 L 581 715 L 636 715 L 510 0 Z M 483 919 L 560 919 L 443 786 L 405 786 L 483 919 Z" />
<glyph unicode="ń" horiz-adv-x="577" d="M 404 0 L 469 371 C 474 399 476 423 474 442 C 472 460 466 475 457 486 C 447 497 434 505 417 509 C 400 513 380 515 356 515 C 323 515 292 509 262 497 C 232 485 201 468 169 446 L 91 0 L 38 0 L 135 550 L 167 550 L 174 490 C 206 511 238 528 269 541 C 299 554 333 561 369 561 C 400 561 427 558 449 552 C 471 546 489 536 502 522 C 515 508 523 488 526 464 C 529 439 527 408 521 371 L 457 0 L 404 0 Z M 432 754 L 509 754 L 392 621 L 354 621 L 432 754 Z" />
<glyph unicode="Ņ" horiz-adv-x="648" d="M 510 0 L 441 0 L 217 639 L 105 0 L 50 0 L 175 715 L 244 715 L 469 76 L 581 715 L 636 715 L 510 0 Z M 245 -66 L 313 -66 L 230 -209 L 191 -209 L 245 -66 Z" />
<glyph unicode="ņ" horiz-adv-x="577" d="M 404 0 L 469 371 C 474 399 476 423 474 442 C 472 460 466 475 457 486 C 447 497 434 505 417 509 C 400 513 380 515 356 515 C 323 515 292 509 262 497 C 232 485 201 468 169 446 L 91 0 L 38 0 L 135 550 L 167 550 L 174 490 C 206 511 238 528 269 541 C 299 554 333 561 369 561 C 400 561 427 558 449 552 C 471 546 489 536 502 522 C 515 508 523 488 526 464 C 529 439 527 408 521 371 L 457 0 L 404 0 Z M 212 -66 L 280 -66 L 197 -209 L 158 -209 L 212 -66 Z" />
<glyph unicode="Ň" horiz-adv-x="648" d="M 510 0 L 441 0 L 217 639 L 105 0 L 50 0 L 175 715 L 244 715 L 469 76 L 581 715 L 636 715 L 510 0 Z M 457 786 L 384 786 L 337 919 L 374 919 L 426 832 L 508 919 L 550 919 L 457 786 Z" />
<glyph unicode="ň" horiz-adv-x="577" d="M 404 0 L 469 371 C 474 399 476 423 474 442 C 472 460 466 475 457 486 C 447 497 434 505 417 509 C 400 513 380 515 356 515 C 323 515 292 509 262 497 C 232 485 201 468 169 446 L 91 0 L 38 0 L 135 550 L 167 550 L 174 490 C 206 511 238 528 269 541 C 299 554 333 561 369 561 C 400 561 427 558 449 552 C 471 546 489 536 502 522 C 515 508 523 488 526 464 C 529 439 527 408 521 371 L 457 0 L 404 0 Z M 392 621 L 319 621 L 272 754 L 309 754 L 361 667 L 443 754 L 485 754 L 392 621 Z" />
<glyph unicode="Ŋ" horiz-adv-x="648" d="M 505 -28 C 500 -52 493 -74 485 -93 C 477 -111 465 -127 451 -139 C 437 -151 419 -161 398 -167 C 377 -173 352 -176 324 -176 C 304 -176 284 -175 266 -173 C 247 -171 229 -169 213 -165 L 222 -114 C 258 -123 294 -128 332 -128 C 366 -128 392 -120 411 -106 C 429 -91 442 -65 449 -28 L 217 639 L 105 0 L 50 0 L 175 715 L 244 715 L 469 76 L 581 715 L 636 715 L 505 -28 Z" />
<glyph unicode="ŋ" horiz-adv-x="577" d="M 469 371 C 474 399 476 423 474 442 C 472 460 466 475 457 486 C 447 497 434 505 417 509 C 400 513 380 515 356 515 C 323 515 292 509 262 497 C 232 485 201 468 169 446 L 91 0 L 38 0 L 135 550 L 167 550 L 174 490 C 206 511 238 528 269 541 C 299 554 333 561 369 561 C 400 561 427 558 449 552 C 471 546 489 536 502 522 C 515 508 523 488 526 464 C 529 439 527 408 521 371 L 446 -62 C 438 -104 423 -135 403 -156 C 383 -176 352 -187 310 -187 C 282 -187 258 -183 238 -176 L 246 -130 C 256 -133 266 -136 278 -138 C 290 -140 301 -141 313 -141 C 338 -141 356 -134 368 -121 C 379 -107 387 -88 393 -62 L 469 371 Z" />
<glyph unicode="Ō" horiz-adv-x="609" d="M 526 468 C 534 510 536 545 534 573 C 532 600 525 621 513 637 C 501 652 484 663 462 669 C 440 675 412 678 380 678 C 347 678 318 675 294 669 C 270 663 249 652 231 637 C 213 621 199 600 187 573 C 175 545 166 510 158 468 L 120 248 C 112 204 110 169 112 142 C 114 114 121 93 133 78 C 145 62 162 52 184 46 C 206 40 233 37 266 37 C 298 37 327 40 351 46 C 375 52 396 62 414 78 C 432 93 446 114 458 142 C 470 169 479 204 487 248 L 526 468 Z M 542 248 C 533 197 521 155 505 122 C 489 88 470 62 447 42 C 424 22 397 9 366 1 C 334 -7 298 -11 258 -11 C 218 -11 183 -7 155 1 C 126 9 104 22 88 42 C 72 62 62 88 58 122 C 54 155 56 197 65 248 L 103 468 C 112 518 124 559 140 593 C 156 626 175 652 199 672 C 222 692 249 706 281 714 C 312 722 348 726 388 726 C 428 726 463 722 491 714 C 519 706 542 692 558 672 C 574 652 584 626 588 593 C 592 559 589 518 581 468 L 542 248 Z M 288 858 L 542 858 L 533 812 L 280 812 L 288 858 Z" />
<glyph unicode="ō" horiz-adv-x="568" d="M 506 244 C 497 194 486 152 472 120 C 458 87 440 61 418 42 C 396 22 371 9 342 1 C 312 -7 278 -11 238 -11 C 198 -11 164 -7 137 1 C 110 9 89 22 75 42 C 61 61 52 87 50 120 C 47 152 50 194 59 244 L 70 306 C 78 356 90 397 104 430 C 118 462 135 488 157 508 C 178 527 203 541 233 549 C 263 557 298 561 338 561 C 378 561 411 557 438 549 C 464 541 485 527 500 508 C 514 488 523 462 526 430 C 528 397 525 356 517 306 L 506 244 Z M 464 306 C 471 348 474 382 473 409 C 472 436 466 457 456 473 C 446 489 430 500 410 506 C 389 512 362 515 330 515 C 297 515 269 512 247 506 C 224 500 205 489 189 473 C 173 457 159 436 149 409 C 139 382 130 348 123 306 L 112 244 C 104 202 101 167 102 140 C 102 113 108 92 119 76 C 129 60 145 50 166 44 C 186 38 213 35 245 35 C 277 35 305 38 328 44 C 351 50 371 60 387 76 C 403 92 416 113 426 140 C 436 167 445 202 453 244 L 464 306 Z M 234 693 L 488 693 L 479 647 L 226 647 L 234 693 Z" />
<glyph unicode="Ŏ" horiz-adv-x="609" d="M 526 468 C 534 510 536 545 534 573 C 532 600 525 621 513 637 C 501 652 484 663 462 669 C 440 675 412 678 380 678 C 347 678 318 675 294 669 C 270 663 249 652 231 637 C 213 621 199 600 187 573 C 175 545 166 510 158 468 L 120 248 C 112 204 110 169 112 142 C 114 114 121 93 133 78 C 145 62 162 52 184 46 C 206 40 233 37 266 37 C 298 37 327 40 351 46 C 375 52 396 62 414 78 C 432 93 446 114 458 142 C 470 169 479 204 487 248 L 526 468 Z M 542 248 C 533 197 521 155 505 122 C 489 88 470 62 447 42 C 424 22 397 9 366 1 C 334 -7 298 -11 258 -11 C 218 -11 183 -7 155 1 C 126 9 104 22 88 42 C 72 62 62 88 58 122 C 54 155 56 197 65 248 L 103 468 C 112 518 124 559 140 593 C 156 626 175 652 199 672 C 222 692 249 706 281 714 C 312 722 348 726 388 726 C 428 726 463 722 491 714 C 519 706 542 692 558 672 C 574 652 584 626 588 593 C 592 559 589 518 581 468 L 542 248 Z M 343 916 C 337 888 340 866 350 850 C 360 834 380 827 408 827 C 436 827 458 834 474 850 C 490 866 500 888 506 916 L 551 916 C 543 872 527 839 502 816 C 477 792 444 781 403 781 C 361 781 331 792 313 816 C 295 839 290 872 298 916 L 343 916 Z" />
<glyph unicode="ŏ" horiz-adv-x="568" d="M 506 244 C 497 194 486 152 472 120 C 458 87 440 61 418 42 C 396 22 371 9 342 1 C 312 -7 278 -11 238 -11 C 198 -11 164 -7 137 1 C 110 9 89 22 75 42 C 61 61 52 87 50 120 C 47 152 50 194 59 244 L 70 306 C 78 356 90 397 104 430 C 118 462 135 488 157 508 C 178 527 203 541 233 549 C 263 557 298 561 338 561 C 378 561 411 557 438 549 C 464 541 485 527 500 508 C 514 488 523 462 526 430 C 528 397 525 356 517 306 L 506 244 Z M 464 306 C 471 348 474 382 473 409 C 472 436 466 457 456 473 C 446 489 430 500 410 506 C 389 512 362 515 330 515 C 297 515 269 512 247 506 C 224 500 205 489 189 473 C 173 457 159 436 149 409 C 139 382 130 348 123 306 L 112 244 C 104 202 101 167 102 140 C 102 113 108 92 119 76 C 129 60 145 50 166 44 C 186 38 213 35 245 35 C 277 35 305 38 328 44 C 351 50 371 60 387 76 C 403 92 416 113 426 140 C 436 167 445 202 453 244 L 464 306 Z M 289 751 C 283 723 286 701 296 685 C 306 669 326 662 354 662 C 382 662 404 669 420 685 C 436 701 446 723 452 751 L 497 751 C 489 707 473 674 448 651 C 423 627 390 616 349 616 C 307 616 277 627 259 651 C 241 674 236 707 244 751 L 289 751 Z" />
<glyph unicode="Ő" horiz-adv-x="609" d="M 526 468 C 534 510 536 545 534 573 C 532 600 525 621 513 637 C 501 652 484 663 462 669 C 440 675 412 678 380 678 C 347 678 318 675 294 669 C 270 663 249 652 231 637 C 213 621 199 600 187 573 C 175 545 166 510 158 468 L 120 248 C 112 204 110 169 112 142 C 114 114 121 93 133 78 C 145 62 162 52 184 46 C 206 40 233 37 266 37 C 298 37 327 40 351 46 C 375 52 396 62 414 78 C 432 93 446 114 458 142 C 470 169 479 204 487 248 L 526 468 Z M 542 248 C 533 197 521 155 505 122 C 489 88 470 62 447 42 C 424 22 397 9 366 1 C 334 -7 298 -11 258 -11 C 218 -11 183 -7 155 1 C 126 9 104 22 88 42 C 72 62 62 88 58 122 C 54 155 56 197 65 248 L 103 468 C 112 518 124 559 140 593 C 156 626 175 652 199 672 C 222 692 249 706 281 714 C 312 722 348 726 388 726 C 428 726 463 722 491 714 C 519 706 542 692 558 672 C 574 652 584 626 588 593 C 592 559 589 518 581 468 L 542 248 Z M 376 919 L 450 919 L 366 786 L 331 786 L 376 919 Z M 527 919 L 604 919 L 487 786 L 449 786 L 527 919 Z" />
<glyph unicode="ő" horiz-adv-x="568" d="M 506 244 C 497 194 486 152 472 120 C 458 87 440 61 418 42 C 396 22 371 9 342 1 C 312 -7 278 -11 238 -11 C 198 -11 164 -7 137 1 C 110 9 89 22 75 42 C 61 61 52 87 50 120 C 47 152 50 194 59 244 L 70 306 C 78 356 90 397 104 430 C 118 462 135 488 157 508 C 178 527 203 541 233 549 C 263 557 298 561 338 561 C 378 561 411 557 438 549 C 464 541 485 527 500 508 C 514 488 523 462 526 430 C 528 397 525 356 517 306 L 506 244 Z M 464 306 C 471 348 474 382 473 409 C 472 436 466 457 456 473 C 446 489 430 500 410 506 C 389 512 362 515 330 515 C 297 515 269 512 247 506 C 224 500 205 489 189 473 C 173 457 159 436 149 409 C 139 382 130 348 123 306 L 112 244 C 104 202 101 167 102 140 C 102 113 108 92 119 76 C 129 60 145 50 166 44 C 186 38 213 35 245 35 C 277 35 305 38 328 44 C 351 50 371 60 387 76 C 403 92 416 113 426 140 C 436 167 445 202 453 244 L 464 306 Z M 318 754 L 392 754 L 308 621 L 273 621 L 318 754 Z M 469 754 L 546 754 L 429 621 L 391 621 L 469 754 Z" />
<glyph unicode="Œ" horiz-adv-x="930" d="M 392 667 C 359 667 330 664 305 658 C 279 652 257 642 239 628 C 221 613 205 593 193 567 C 181 541 171 508 164 468 L 125 248 C 117 207 116 174 120 148 C 124 122 132 102 146 87 C 160 72 178 62 201 56 C 224 50 251 48 283 48 L 431 48 L 540 667 L 392 667 Z M 275 0 C 236 0 202 3 173 11 C 143 19 120 32 102 51 C 84 69 72 95 66 127 C 60 159 61 199 70 248 L 109 468 C 117 517 130 558 147 590 C 164 622 185 647 209 665 C 233 683 262 696 294 704 C 326 711 361 715 400 715 L 939 715 L 931 667 L 595 667 L 546 386 L 842 386 L 834 340 L 538 340 L 486 48 L 822 48 L 814 0 L 275 0 Z" />
<glyph unicode="œ" horiz-adv-x="941" d="M 464 306 C 471 348 474 382 473 409 C 472 436 466 457 456 473 C 446 489 430 500 410 506 C 389 512 362 515 330 515 C 297 515 269 512 247 506 C 224 500 205 489 189 473 C 173 457 159 436 149 409 C 139 382 130 348 123 306 L 112 244 C 104 202 101 167 102 140 C 102 113 108 92 119 76 C 129 60 145 50 166 44 C 186 38 213 35 245 35 C 277 35 305 38 328 44 C 351 50 371 60 387 76 C 403 92 416 113 426 140 C 436 167 445 202 453 244 L 464 306 Z M 673 295 C 705 295 733 296 757 300 C 780 304 799 310 813 318 C 827 326 838 338 845 353 C 852 367 856 386 857 408 C 857 430 855 447 850 461 C 845 475 837 486 826 494 C 814 502 800 507 783 510 C 765 513 745 515 721 515 C 689 515 661 512 639 506 C 617 500 598 488 582 472 C 566 456 552 433 542 405 C 532 376 523 339 515 295 L 673 295 Z M 508 260 C 499 210 495 171 496 141 C 497 111 503 89 515 73 C 526 57 543 47 565 42 C 587 37 616 35 650 35 C 684 35 716 37 747 42 C 777 47 806 53 832 59 L 823 11 C 797 5 769 0 738 -4 C 707 -8 672 -11 634 -11 C 581 -11 540 -4 510 10 C 480 24 460 50 452 90 C 430 52 403 25 369 11 C 335 -3 291 -11 238 -11 C 198 -11 164 -7 137 1 C 110 9 89 22 75 42 C 61 61 52 87 50 120 C 47 152 50 194 59 244 L 70 306 C 78 356 90 397 104 430 C 118 462 135 488 157 508 C 178 527 203 541 233 549 C 263 557 298 561 338 561 C 391 561 432 553 461 539 C 490 524 509 497 517 459 C 538 498 566 525 601 539 C 635 553 678 561 729 561 C 759 561 785 558 808 554 C 831 549 850 541 865 530 C 880 518 891 503 899 483 C 906 463 909 437 909 407 C 907 371 900 343 888 323 C 875 302 858 286 836 275 C 814 264 789 257 760 255 C 731 252 699 251 665 253 L 508 260 Z" />
<glyph unicode="Ŕ" horiz-adv-x="616" d="M 175 715 L 393 715 C 434 715 469 711 498 705 C 526 698 549 686 565 670 C 581 653 592 630 596 602 C 600 574 598 538 591 496 C 580 436 561 389 534 357 C 506 325 468 303 419 291 L 512 0 L 454 0 L 366 283 C 362 283 358 282 352 282 C 346 282 336 282 322 282 C 307 282 286 282 260 282 C 234 282 198 282 154 282 L 105 0 L 50 0 L 175 715 Z M 162 330 L 324 330 C 357 330 386 332 410 338 C 434 343 454 352 471 365 C 487 378 500 395 510 417 C 520 438 527 464 533 496 C 539 532 541 561 538 583 C 535 605 527 622 515 635 C 502 647 485 656 463 660 C 441 664 414 667 382 667 L 221 667 L 162 330 Z M 452 919 L 529 919 L 412 786 L 374 786 L 452 919 Z" />
<glyph unicode="ŕ" horiz-adv-x="348" d="M 343 508 C 323 508 306 506 290 504 C 274 501 260 497 247 492 C 233 486 220 479 208 471 C 195 463 182 453 168 442 L 91 0 L 38 0 L 135 550 L 167 550 L 174 490 C 202 511 229 528 257 541 C 284 554 316 561 352 561 L 343 508 Z M 325 754 L 402 754 L 285 621 L 247 621 L 325 754 Z" />
<glyph unicode="Ŗ" horiz-adv-x="616" d="M 175 715 L 393 715 C 434 715 469 711 498 705 C 526 698 549 686 565 670 C 581 653 592 630 596 602 C 600 574 598 538 591 496 C 580 436 561 389 534 357 C 506 325 468 303 419 291 L 512 0 L 454 0 L 366 283 C 362 283 358 282 352 282 C 346 282 336 282 322 282 C 307 282 286 282 260 282 C 234 282 198 282 154 282 L 105 0 L 50 0 L 175 715 Z M 162 330 L 324 330 C 357 330 386 332 410 338 C 434 343 454 352 471 365 C 487 378 500 395 510 417 C 520 438 527 464 533 496 C 539 532 541 561 538 583 C 535 605 527 622 515 635 C 502 647 485 656 463 660 C 441 664 414 667 382 667 L 221 667 L 162 330 Z M 228 -66 L 296 -66 L 213 -209 L 174 -209 L 228 -66 Z" />
<glyph unicode="ŗ" horiz-adv-x="348" d="M 374 508 C 354 508 337 506 321 504 C 305 501 291 497 278 492 C 264 486 251 479 239 471 C 226 463 213 453 199 442 L 122 0 L 69 0 L 166 550 L 198 550 L 205 490 C 233 511 260 528 288 541 C 315 554 347 561 383 561 L 374 508 Z M 48 -66 L 116 -66 L 33 -209 L -6 -209 L 48 -66 Z" />
<glyph unicode="Ř" horiz-adv-x="616" d="M 175 715 L 393 715 C 434 715 469 711 498 705 C 526 698 549 686 565 670 C 581 653 592 630 596 602 C 600 574 598 538 591 496 C 580 436 561 389 534 357 C 506 325 468 303 419 291 L 512 0 L 454 0 L 366 283 C 362 283 358 282 352 282 C 346 282 336 282 322 282 C 307 282 286 282 260 282 C 234 282 198 282 154 282 L 105 0 L 50 0 L 175 715 Z M 162 330 L 324 330 C 357 330 386 332 410 338 C 434 343 454 352 471 365 C 487 378 500 395 510 417 C 520 438 527 464 533 496 C 539 532 541 561 538 583 C 535 605 527 622 515 635 C 502 647 485 656 463 660 C 441 664 414 667 382 667 L 221 667 L 162 330 Z M 428 786 L 355 786 L 308 919 L 345 919 L 397 832 L 479 919 L 521 919 L 428 786 Z" />
<glyph unicode="ř" horiz-adv-x="348" d="M 343 508 C 323 508 306 506 290 504 C 274 501 260 497 247 492 C 233 486 220 479 208 471 C 195 463 182 453 168 442 L 91 0 L 38 0 L 135 550 L 167 550 L 174 490 C 202 511 229 528 257 541 C 284 554 316 561 352 561 L 343 508 Z M 296 621 L 223 621 L 176 754 L 213 754 L 265 667 L 347 754 L 389 754 L 296 621 Z" />
<glyph unicode="Ś" horiz-adv-x="595" d="M 310 346 C 270 351 236 359 210 369 C 184 379 163 392 148 408 C 133 424 124 442 120 464 C 116 485 116 509 122 537 C 132 599 159 646 202 678 C 244 710 302 726 376 726 C 414 726 446 722 473 715 C 499 708 521 697 537 681 C 553 665 563 645 568 620 C 572 594 571 563 565 527 L 512 527 C 516 555 517 579 514 599 C 511 619 504 634 492 646 C 480 657 464 665 444 670 C 424 675 399 678 370 678 C 312 678 268 666 237 644 C 206 621 186 585 178 537 C 174 515 173 496 176 480 C 178 464 185 450 196 438 C 207 426 223 416 243 409 C 263 401 290 396 323 392 C 373 386 412 377 442 366 C 471 355 492 341 506 324 C 520 307 527 287 528 264 C 529 240 527 213 522 182 C 516 150 506 121 494 97 C 481 73 464 53 443 37 C 421 21 395 9 363 1 C 331 -7 294 -11 251 -11 C 215 -11 184 -8 156 -2 C 128 3 105 13 87 28 C 69 42 56 62 50 88 C 43 113 43 145 51 184 L 103 184 C 97 154 97 129 101 110 C 105 91 113 76 126 65 C 138 54 155 47 177 43 C 199 39 225 37 256 37 C 290 37 320 40 345 46 C 369 52 390 61 407 73 C 423 85 436 100 446 118 C 455 136 462 158 466 182 C 470 206 472 228 472 246 C 472 264 468 280 458 293 C 448 306 431 317 408 325 C 384 333 352 340 310 346 Z M 458 919 L 535 919 L 418 786 L 380 786 L 458 919 Z" />
<glyph unicode="ś" horiz-adv-x="551" d="M 94 153 C 90 131 90 113 92 98 C 94 83 101 71 112 62 C 122 52 137 45 157 41 C 177 37 202 35 233 35 C 269 35 299 37 322 43 C 344 49 362 57 376 67 C 390 77 400 89 406 103 C 412 117 416 132 419 150 C 421 166 421 181 419 193 C 416 205 409 216 399 224 C 388 232 373 238 353 243 C 333 248 307 252 276 255 C 206 261 157 277 129 303 C 101 328 92 363 101 407 C 105 435 114 458 127 478 C 139 497 155 513 175 525 C 195 537 217 546 243 552 C 268 558 296 561 326 561 C 395 561 444 548 473 523 C 501 497 510 455 500 397 L 447 397 C 455 439 449 469 430 487 C 411 505 375 515 321 515 C 273 515 234 507 206 492 C 178 476 160 448 153 406 C 146 368 154 342 177 327 C 199 311 237 301 290 297 C 329 293 361 287 387 280 C 412 273 432 264 446 252 C 460 240 468 226 472 210 C 476 193 475 173 471 150 C 467 127 461 106 453 86 C 445 66 432 49 414 35 C 396 21 372 9 342 1 C 312 -6 273 -11 227 -11 C 186 -11 153 -7 127 1 C 101 9 81 20 67 35 C 53 49 44 67 41 87 C 37 107 38 129 42 153 L 94 153 Z M 411 754 L 488 754 L 371 621 L 333 621 L 411 754 Z" />
<glyph unicode="Ŝ" horiz-adv-x="595" d="M 310 346 C 270 351 236 359 210 369 C 184 379 163 392 148 408 C 133 424 124 442 120 464 C 116 485 116 509 122 537 C 132 599 159 646 202 678 C 244 710 302 726 376 726 C 414 726 446 722 473 715 C 499 708 521 697 537 681 C 553 665 563 645 568 620 C 572 594 571 563 565 527 L 512 527 C 516 555 517 579 514 599 C 511 619 504 634 492 646 C 480 657 464 665 444 670 C 424 675 399 678 370 678 C 312 678 268 666 237 644 C 206 621 186 585 178 537 C 174 515 173 496 176 480 C 178 464 185 450 196 438 C 207 426 223 416 243 409 C 263 401 290 396 323 392 C 373 386 412 377 442 366 C 471 355 492 341 506 324 C 520 307 527 287 528 264 C 529 240 527 213 522 182 C 516 150 506 121 494 97 C 481 73 464 53 443 37 C 421 21 395 9 363 1 C 331 -7 294 -11 251 -11 C 215 -11 184 -8 156 -2 C 128 3 105 13 87 28 C 69 42 56 62 50 88 C 43 113 43 145 51 184 L 103 184 C 97 154 97 129 101 110 C 105 91 113 76 126 65 C 138 54 155 47 177 43 C 199 39 225 37 256 37 C 290 37 320 40 345 46 C 369 52 390 61 407 73 C 423 85 436 100 446 118 C 455 136 462 158 466 182 C 470 206 472 228 472 246 C 472 264 468 280 458 293 C 448 306 431 317 408 325 C 384 333 352 340 310 346 Z M 505 786 L 468 786 L 416 873 L 333 786 L 292 786 L 385 919 L 458 919 L 505 786 Z" />
<glyph unicode="ŝ" horiz-adv-x="551" d="M 94 153 C 90 131 90 113 92 98 C 94 83 101 71 112 62 C 122 52 137 45 157 41 C 177 37 202 35 233 35 C 269 35 299 37 322 43 C 344 49 362 57 376 67 C 390 77 400 89 406 103 C 412 117 416 132 419 150 C 421 166 421 181 419 193 C 416 205 409 216 399 224 C 388 232 373 238 353 243 C 333 248 307 252 276 255 C 206 261 157 277 129 303 C 101 328 92 363 101 407 C 105 435 114 458 127 478 C 139 497 155 513 175 525 C 195 537 217 546 243 552 C 268 558 296 561 326 561 C 395 561 444 548 473 523 C 501 497 510 455 500 397 L 447 397 C 455 439 449 469 430 487 C 411 505 375 515 321 515 C 273 515 234 507 206 492 C 178 476 160 448 153 406 C 146 368 154 342 177 327 C 199 311 237 301 290 297 C 329 293 361 287 387 280 C 412 273 432 264 446 252 C 460 240 468 226 472 210 C 476 193 475 173 471 150 C 467 127 461 106 453 86 C 445 66 432 49 414 35 C 396 21 372 9 342 1 C 312 -6 273 -11 227 -11 C 186 -11 153 -7 127 1 C 101 9 81 20 67 35 C 53 49 44 67 41 87 C 37 107 38 129 42 153 L 94 153 Z M 453 621 L 416 621 L 364 708 L 281 621 L 240 621 L 333 754 L 406 754 L 453 621 Z" />
<glyph unicode="Ş" horiz-adv-x="595" d="M 310 346 C 270 351 236 359 210 369 C 184 379 163 392 148 408 C 133 424 124 442 120 464 C 116 485 116 509 122 537 C 132 599 159 646 202 678 C 244 710 302 726 376 726 C 414 726 446 722 473 715 C 499 708 521 697 537 681 C 553 665 563 645 568 620 C 572 594 571 563 565 527 L 512 527 C 516 555 517 579 514 599 C 511 619 504 634 492 646 C 480 657 464 665 444 670 C 424 675 399 678 370 678 C 312 678 268 666 237 644 C 206 621 186 585 178 537 C 174 515 173 496 176 480 C 178 464 185 450 196 438 C 207 426 223 416 243 409 C 263 401 290 396 323 392 C 373 386 412 377 442 366 C 471 355 492 341 506 324 C 520 307 527 287 528 264 C 529 240 527 213 522 182 C 510 118 485 71 445 39 C 405 7 343 -9 261 -11 L 241 -55 C 260 -57 276 -63 290 -74 C 304 -85 309 -103 305 -129 C 299 -159 286 -179 264 -191 C 242 -202 212 -208 176 -208 L 121 -208 L 128 -171 L 193 -171 C 214 -171 229 -167 239 -159 C 249 -151 255 -141 257 -129 C 259 -115 257 -105 250 -98 C 243 -90 229 -87 208 -87 L 187 -87 L 222 -10 C 190 -8 163 -4 139 2 C 115 8 95 19 80 34 C 64 49 54 69 49 93 C 43 117 44 147 51 184 L 103 184 C 97 154 97 129 101 110 C 105 91 113 76 126 65 C 138 54 155 47 177 43 C 199 39 225 37 256 37 C 290 37 320 40 345 46 C 369 52 390 61 407 73 C 423 85 436 100 446 118 C 455 136 462 158 466 182 C 470 206 472 228 472 246 C 472 264 468 280 458 293 C 448 306 431 317 408 325 C 384 333 352 340 310 346 Z" />
<glyph unicode="ş" horiz-adv-x="540" d="M 89 153 C 85 131 85 113 87 98 C 89 83 96 71 107 62 C 117 52 132 45 152 41 C 172 37 197 35 228 35 C 264 35 294 37 317 43 C 339 49 357 57 371 67 C 385 77 395 89 401 103 C 407 117 411 132 414 150 C 416 166 416 181 414 193 C 411 205 404 216 394 224 C 383 232 368 238 348 243 C 328 248 302 252 271 255 C 201 261 152 277 124 303 C 96 328 87 363 96 407 C 100 435 109 458 122 478 C 134 497 150 513 170 525 C 190 537 212 546 238 552 C 263 558 291 561 321 561 C 390 561 439 548 468 523 C 496 497 505 455 495 397 L 442 397 C 450 439 444 469 425 487 C 406 505 370 515 316 515 C 268 515 229 507 201 492 C 173 476 155 448 148 406 C 141 368 149 342 172 327 C 194 311 232 301 285 297 C 324 293 356 287 382 280 C 407 273 427 264 441 252 C 455 240 463 226 467 210 C 471 193 470 173 466 150 C 462 128 456 107 448 88 C 440 68 428 51 411 37 C 394 23 372 11 344 3 C 316 -5 279 -10 235 -11 L 216 -55 C 235 -57 251 -63 265 -74 C 279 -85 283 -103 279 -129 C 273 -159 260 -179 238 -191 C 216 -202 187 -208 151 -208 L 96 -208 L 102 -171 L 167 -171 C 188 -171 204 -167 214 -159 C 224 -151 230 -141 232 -129 C 234 -115 232 -105 225 -98 C 218 -90 204 -87 183 -87 L 162 -87 L 197 -10 C 161 -8 132 -2 110 6 C 87 14 70 26 58 40 C 46 54 38 70 35 90 C 32 109 33 130 37 153 L 89 153 Z" />
<glyph unicode="Š" horiz-adv-x="595" d="M 310 346 C 270 351 236 359 210 369 C 184 379 163 392 148 408 C 133 424 124 442 120 464 C 116 485 116 509 122 537 C 132 599 159 646 202 678 C 244 710 302 726 376 726 C 414 726 446 722 473 715 C 499 708 521 697 537 681 C 553 665 563 645 568 620 C 572 594 571 563 565 527 L 512 527 C 516 555 517 579 514 599 C 511 619 504 634 492 646 C 480 657 464 665 444 670 C 424 675 399 678 370 678 C 312 678 268 666 237 644 C 206 621 186 585 178 537 C 174 515 173 496 176 480 C 178 464 185 450 196 438 C 207 426 223 416 243 409 C 263 401 290 396 323 392 C 373 386 412 377 442 366 C 471 355 492 341 506 324 C 520 307 527 287 528 264 C 529 240 527 213 522 182 C 516 150 506 121 494 97 C 481 73 464 53 443 37 C 421 21 395 9 363 1 C 331 -7 294 -11 251 -11 C 215 -11 184 -8 156 -2 C 128 3 105 13 87 28 C 69 42 56 62 50 88 C 43 113 43 145 51 184 L 103 184 C 97 154 97 129 101 110 C 105 91 113 76 126 65 C 138 54 155 47 177 43 C 199 39 225 37 256 37 C 290 37 320 40 345 46 C 369 52 390 61 407 73 C 423 85 436 100 446 118 C 455 136 462 158 466 182 C 470 206 472 228 472 246 C 472 264 468 280 458 293 C 448 306 431 317 408 325 C 384 333 352 340 310 346 Z M 431 786 L 358 786 L 311 919 L 348 919 L 400 832 L 482 919 L 524 919 L 431 786 Z" />
<glyph unicode="š" horiz-adv-x="551" d="M 94 153 C 90 131 90 113 92 98 C 94 83 101 71 112 62 C 122 52 137 45 157 41 C 177 37 202 35 233 35 C 269 35 299 37 322 43 C 344 49 362 57 376 67 C 390 77 400 89 406 103 C 412 117 416 132 419 150 C 421 166 421 181 419 193 C 416 205 409 216 399 224 C 388 232 373 238 353 243 C 333 248 307 252 276 255 C 206 261 157 277 129 303 C 101 328 92 363 101 407 C 105 435 114 458 127 478 C 139 497 155 513 175 525 C 195 537 217 546 243 552 C 268 558 296 561 326 561 C 395 561 444 548 473 523 C 501 497 510 455 500 397 L 447 397 C 455 439 449 469 430 487 C 411 505 375 515 321 515 C 273 515 234 507 206 492 C 178 476 160 448 153 406 C 146 368 154 342 177 327 C 199 311 237 301 290 297 C 329 293 361 287 387 280 C 412 273 432 264 446 252 C 460 240 468 226 472 210 C 476 193 475 173 471 150 C 467 127 461 106 453 86 C 445 66 432 49 414 35 C 396 21 372 9 342 1 C 312 -6 273 -11 227 -11 C 186 -11 153 -7 127 1 C 101 9 81 20 67 35 C 53 49 44 67 41 87 C 37 107 38 129 42 153 L 94 153 Z M 375 621 L 302 621 L 255 754 L 292 754 L 344 667 L 426 754 L 468 754 L 375 621 Z" />
<glyph unicode="Ţ" horiz-adv-x="491" d="M 291 667 L 100 667 L 109 715 L 544 715 L 536 667 L 346 667 L 230 0 L 175 0 L 291 667 Z M 155 -66 L 223 -66 L 140 -209 L 101 -209 L 155 -66 Z" />
<glyph unicode="ţ" horiz-adv-x="339" d="M 175 683 L 230 693 L 205 550 L 337 550 L 328 504 L 196 504 L 128 117 C 123 91 124 70 132 56 C 140 42 157 35 184 35 C 201 35 216 36 230 38 C 244 40 257 43 269 46 L 262 0 C 250 -3 237 -6 223 -8 C 208 -10 192 -11 175 -11 C 134 -11 105 0 88 19 C 71 39 67 72 75 117 L 143 504 L 77 504 L 84 539 L 152 550 L 175 683 Z M 115 -66 L 183 -66 L 100 -209 L 61 -209 L 115 -66 Z" />
<glyph unicode="Ť" horiz-adv-x="491" d="M 291 667 L 100 667 L 109 715 L 544 715 L 536 667 L 346 667 L 230 0 L 175 0 L 291 667 Z M 379 786 L 306 786 L 259 919 L 296 919 L 348 832 L 430 919 L 472 919 L 379 786 Z" />
<glyph unicode="ť" horiz-adv-x="339" d="M 337 759 L 394 759 L 342 594 L 308 594 L 337 759 Z M 175 683 L 230 693 L 205 550 L 337 550 L 328 504 L 196 504 L 128 117 C 123 91 124 70 132 56 C 140 42 157 35 184 35 C 201 35 216 36 230 38 C 244 40 257 43 269 46 L 262 0 C 250 -3 237 -6 223 -8 C 208 -10 192 -11 175 -11 C 134 -11 105 0 88 19 C 71 39 67 72 75 117 L 143 504 L 77 504 L 84 539 L 152 550 L 175 683 Z" />
<glyph unicode="Ŧ" horiz-adv-x="491" d="M 131 386 L 242 386 L 291 667 L 100 667 L 109 715 L 544 715 L 536 667 L 346 667 L 297 386 L 406 386 L 398 340 L 289 340 L 230 0 L 175 0 L 234 340 L 123 340 L 131 386 Z" />
<glyph unicode="ŧ" horiz-adv-x="339" d="M 61 322 L 111 322 L 143 504 L 77 504 L 84 539 L 152 550 L 175 683 L 230 693 L 205 550 L 337 550 L 328 504 L 196 504 L 164 322 L 274 322 L 266 280 L 156 280 L 128 117 C 123 91 124 70 132 56 C 140 42 157 35 184 35 C 201 35 216 36 230 38 C 244 40 257 43 269 46 L 262 0 C 250 -3 237 -6 223 -8 C 208 -10 192 -11 175 -11 C 134 -11 105 0 88 19 C 71 39 67 72 75 117 L 103 280 L 53 280 L 61 322 Z" />
<glyph unicode="Ũ" horiz-adv-x="627" d="M 219 715 L 132 219 C 126 185 124 156 126 133 C 128 109 134 90 146 76 C 157 62 173 52 194 46 C 215 40 242 37 275 37 C 307 37 335 40 359 46 C 382 52 402 62 419 76 C 435 90 449 109 459 133 C 469 156 478 185 484 219 L 571 715 L 626 715 L 539 219 C 531 173 519 136 504 106 C 488 76 469 53 447 36 C 425 18 399 6 369 0 C 339 -7 306 -11 269 -11 C 231 -11 199 -7 171 0 C 143 6 121 18 105 36 C 88 53 77 76 72 106 C 67 136 69 173 77 219 L 164 715 L 219 715 Z M 478 802 C 462 802 449 805 439 811 C 429 817 420 823 412 831 C 404 838 396 845 388 851 C 380 857 371 860 361 860 C 343 860 330 854 323 844 C 315 834 310 822 308 808 L 270 808 C 276 844 287 869 304 883 C 321 897 342 904 366 904 C 382 904 394 901 404 895 C 414 889 423 882 431 875 C 439 867 446 861 454 855 C 462 849 471 846 483 846 C 501 846 513 851 521 861 C 528 871 533 884 536 898 L 574 898 C 568 862 556 837 539 823 C 522 809 502 802 478 802 Z" />
<glyph unicode="ũ" horiz-adv-x="572" d="M 183 550 L 117 179 C 111 149 110 125 112 107 C 114 89 119 74 129 63 C 138 52 151 45 168 41 C 184 37 205 35 229 35 C 261 35 293 41 323 53 C 353 65 384 83 416 105 L 495 550 L 548 550 L 451 0 L 421 0 L 414 61 C 378 37 346 19 316 7 C 286 -4 253 -11 217 -11 C 185 -11 157 -8 135 -2 C 113 3 95 13 82 27 C 69 41 61 61 58 86 C 55 110 57 141 64 179 L 130 550 L 183 550 Z M 417 637 C 401 637 388 640 378 646 C 368 652 359 658 351 666 C 343 673 335 680 327 686 C 319 692 310 695 300 695 C 282 695 269 689 262 679 C 254 669 249 657 247 643 L 209 643 C 215 679 226 704 243 718 C 260 732 281 739 305 739 C 321 739 333 736 343 730 C 353 724 362 717 370 710 C 378 702 385 696 393 690 C 401 684 410 681 422 681 C 440 681 452 686 460 696 C 467 706 472 719 475 733 L 513 733 C 507 697 495 672 478 658 C 461 644 441 637 417 637 Z" />
<glyph unicode="Ū" horiz-adv-x="627" d="M 219 715 L 132 219 C 126 185 124 156 126 133 C 128 109 134 90 146 76 C 157 62 173 52 194 46 C 215 40 242 37 275 37 C 307 37 335 40 359 46 C 382 52 402 62 419 76 C 435 90 449 109 459 133 C 469 156 478 185 484 219 L 571 715 L 626 715 L 539 219 C 531 173 519 136 504 106 C 488 76 469 53 447 36 C 425 18 399 6 369 0 C 339 -7 306 -11 269 -11 C 231 -11 199 -7 171 0 C 143 6 121 18 105 36 C 88 53 77 76 72 106 C 67 136 69 173 77 219 L 164 715 L 219 715 Z M 296 858 L 550 858 L 541 812 L 288 812 L 296 858 Z" />
<glyph unicode="ū" horiz-adv-x="572" d="M 183 550 L 117 179 C 111 149 110 125 112 107 C 114 89 119 74 129 63 C 138 52 151 45 168 41 C 184 37 205 35 229 35 C 261 35 293 41 323 53 C 353 65 384 83 416 105 L 495 550 L 548 550 L 451 0 L 421 0 L 414 61 C 378 37 346 19 316 7 C 286 -4 253 -11 217 -11 C 185 -11 157 -8 135 -2 C 113 3 95 13 82 27 C 69 41 61 61 58 86 C 55 110 57 141 64 179 L 130 550 L 183 550 Z M 236 693 L 490 693 L 481 647 L 228 647 L 236 693 Z" />
<glyph unicode="Ŭ" horiz-adv-x="627" d="M 219 715 L 132 219 C 126 185 124 156 126 133 C 128 109 134 90 146 76 C 157 62 173 52 194 46 C 215 40 242 37 275 37 C 307 37 335 40 359 46 C 382 52 402 62 419 76 C 435 90 449 109 459 133 C 469 156 478 185 484 219 L 571 715 L 626 715 L 539 219 C 531 173 519 136 504 106 C 488 76 469 53 447 36 C 425 18 399 6 369 0 C 339 -7 306 -11 269 -11 C 231 -11 199 -7 171 0 C 143 6 121 18 105 36 C 88 53 77 76 72 106 C 67 136 69 173 77 219 L 164 715 L 219 715 Z M 352 916 C 346 888 349 866 359 850 C 369 834 389 827 417 827 C 445 827 467 834 483 850 C 499 866 509 888 515 916 L 560 916 C 552 872 536 839 511 816 C 486 792 453 781 412 781 C 370 781 340 792 322 816 C 304 839 299 872 307 916 L 352 916 Z" />
<glyph unicode="ŭ" horiz-adv-x="572" d="M 183 550 L 117 179 C 111 149 110 125 112 107 C 114 89 119 74 129 63 C 138 52 151 45 168 41 C 184 37 205 35 229 35 C 261 35 293 41 323 53 C 353 65 384 83 416 105 L 495 550 L 548 550 L 451 0 L 421 0 L 414 61 C 378 37 346 19 316 7 C 286 -4 253 -11 217 -11 C 185 -11 157 -8 135 -2 C 113 3 95 13 82 27 C 69 41 61 61 58 86 C 55 110 57 141 64 179 L 130 550 L 183 550 Z M 291 751 C 285 723 288 701 298 685 C 308 669 328 662 356 662 C 384 662 406 669 422 685 C 438 701 448 723 454 751 L 499 751 C 491 707 475 674 450 651 C 425 627 392 616 351 616 C 309 616 279 627 261 651 C 243 674 238 707 246 751 L 291 751 Z" />
<glyph unicode="Ů" horiz-adv-x="627" d="M 219 715 L 132 219 C 126 185 124 156 126 133 C 128 109 134 90 146 76 C 157 62 173 52 194 46 C 215 40 242 37 275 37 C 307 37 335 40 359 46 C 382 52 402 62 419 76 C 435 90 449 109 459 133 C 469 156 478 185 484 219 L 571 715 L 626 715 L 539 219 C 531 173 519 136 504 106 C 488 76 469 53 447 36 C 425 18 399 6 369 0 C 339 -7 306 -11 269 -11 C 231 -11 199 -7 171 0 C 143 6 121 18 105 36 C 88 53 77 76 72 106 C 67 136 69 173 77 219 L 164 715 L 219 715 Z M 525 868 C 519 838 506 816 486 802 C 466 787 440 780 409 780 C 378 780 355 787 340 802 C 324 816 319 838 324 868 C 329 897 342 919 362 934 C 382 948 408 956 440 956 C 471 956 494 948 510 934 C 525 919 530 897 525 868 Z M 481 868 C 483 883 481 895 474 903 C 466 911 453 916 433 916 C 395 916 374 900 369 868 C 365 852 367 839 375 831 C 382 822 396 818 416 818 C 453 818 475 834 481 868 Z" />
<glyph unicode="ů" horiz-adv-x="572" d="M 183 550 L 117 179 C 111 149 110 125 112 107 C 114 89 119 74 129 63 C 138 52 151 45 168 41 C 184 37 205 35 229 35 C 261 35 293 41 323 53 C 353 65 384 83 416 105 L 495 550 L 548 550 L 451 0 L 421 0 L 414 61 C 378 37 346 19 316 7 C 286 -4 253 -11 217 -11 C 185 -11 157 -8 135 -2 C 113 3 95 13 82 27 C 69 41 61 61 58 86 C 55 110 57 141 64 179 L 130 550 L 183 550 Z M 465 703 C 459 673 446 651 426 637 C 406 622 380 615 349 615 C 318 615 295 622 280 637 C 264 651 259 673 264 703 C 269 732 282 754 302 769 C 322 783 348 791 380 791 C 411 791 434 783 450 769 C 465 754 470 732 465 703 Z M 421 703 C 423 718 421 730 414 738 C 406 746 393 751 373 751 C 335 751 314 735 309 703 C 305 687 307 674 315 666 C 322 657 336 653 356 653 C 393 653 415 669 421 703 Z" />
<glyph unicode="Ű" horiz-adv-x="627" d="M 219 715 L 132 219 C 126 185 124 156 126 133 C 128 109 134 90 146 76 C 157 62 173 52 194 46 C 215 40 242 37 275 37 C 307 37 335 40 359 46 C 382 52 402 62 419 76 C 435 90 449 109 459 133 C 469 156 478 185 484 219 L 571 715 L 626 715 L 539 219 C 531 173 519 136 504 106 C 488 76 469 53 447 36 C 425 18 399 6 369 0 C 339 -7 306 -11 269 -11 C 231 -11 199 -7 171 0 C 143 6 121 18 105 36 C 88 53 77 76 72 106 C 67 136 69 173 77 219 L 164 715 L 219 715 Z M 379 919 L 453 919 L 369 786 L 334 786 L 379 919 Z M 530 919 L 607 919 L 490 786 L 452 786 L 530 919 Z" />
<glyph unicode="ű" horiz-adv-x="572" d="M 183 550 L 117 179 C 111 149 110 125 112 107 C 114 89 119 74 129 63 C 138 52 151 45 168 41 C 184 37 205 35 229 35 C 261 35 293 41 323 53 C 353 65 384 83 416 105 L 495 550 L 548 550 L 451 0 L 421 0 L 414 61 C 378 37 346 19 316 7 C 286 -4 253 -11 217 -11 C 185 -11 157 -8 135 -2 C 113 3 95 13 82 27 C 69 41 61 61 58 86 C 55 110 57 141 64 179 L 130 550 L 183 550 Z M 312 754 L 386 754 L 302 621 L 267 621 L 312 754 Z M 463 754 L 540 754 L 423 621 L 385 621 L 463 754 Z" />
<glyph unicode="Ų" horiz-adv-x="627" d="M 334 -183 L 296 -183 C 269 -183 249 -177 237 -165 C 225 -153 221 -135 226 -110 C 229 -92 237 -74 251 -56 C 264 -38 280 -23 300 -10 C 294 -10 289 -10 283 -10 C 277 -10 272 -11 267 -11 C 229 -11 197 -7 169 0 C 141 6 119 18 103 36 C 87 53 76 76 72 106 C 67 136 69 173 77 219 L 164 715 L 219 715 L 132 219 C 126 185 124 156 126 133 C 128 109 134 90 146 76 C 157 62 173 52 194 46 C 215 40 242 37 275 37 C 307 37 335 40 359 46 C 382 52 402 62 419 76 C 435 90 449 109 459 133 C 469 156 478 185 484 219 L 571 715 L 626 715 L 539 219 C 533 184 524 154 514 129 C 504 103 491 82 477 64 C 462 46 445 32 427 22 C 408 12 387 4 364 -1 C 339 -16 319 -32 305 -49 C 290 -65 281 -81 278 -97 C 275 -112 277 -123 284 -129 C 291 -135 302 -139 317 -139 L 342 -139 L 334 -183 Z" />
<glyph unicode="ų" horiz-adv-x="572" d="M 418 -183 L 380 -183 C 353 -183 333 -177 321 -165 C 308 -153 304 -135 309 -110 C 312 -89 322 -69 338 -51 C 354 -32 375 -15 400 0 L 418 11 L 411 61 C 376 37 344 19 314 7 C 284 -4 252 -11 217 -11 C 185 -11 157 -8 135 -2 C 113 3 95 13 82 27 C 69 41 61 61 58 86 C 55 110 57 141 64 179 L 130 550 L 183 550 L 117 179 C 111 149 110 125 112 107 C 114 89 119 74 129 63 C 138 52 151 45 168 41 C 184 37 205 35 229 35 C 261 35 293 41 323 53 C 353 65 384 83 416 105 L 495 550 L 548 550 L 451 0 C 425 -15 404 -31 389 -48 C 373 -65 364 -81 362 -97 C 358 -112 360 -123 368 -129 C 375 -135 386 -139 400 -139 L 426 -139 L 418 -183 Z" />
<glyph unicode="Ŵ" horiz-adv-x="909" d="M 571 715 L 620 73 L 623 73 L 879 715 L 941 715 L 643 0 L 576 0 L 524 650 L 244 0 L 177 0 L 131 715 L 190 715 L 220 73 L 222 73 L 498 715 L 571 715 Z M 661 786 L 624 786 L 572 873 L 489 786 L 448 786 L 541 919 L 614 919 L 661 786 Z" />
<glyph unicode="ŵ" horiz-adv-x="805" d="M 487 550 L 543 53 L 756 550 L 814 550 L 570 0 L 504 0 L 446 498 L 213 0 L 147 0 L 97 550 L 153 550 L 188 53 L 421 550 L 487 550 Z M 576 621 L 539 621 L 487 708 L 404 621 L 363 621 L 456 754 L 529 754 L 576 621 Z" />
<glyph unicode="Ŷ" horiz-adv-x="535" d="M 246 288 L 109 715 L 167 715 L 278 339 L 280 339 L 526 715 L 588 715 L 301 288 L 251 0 L 196 0 L 246 288 Z M 474 786 L 437 786 L 385 873 L 302 786 L 261 786 L 354 919 L 427 919 L 474 786 Z" />
<glyph unicode="ŷ" horiz-adv-x="524" d="M 80 550 L 136 550 L 225 63 L 227 63 L 488 550 L 548 550 L 201 -81 C 189 -103 177 -121 165 -136 C 153 -150 141 -162 128 -172 C 114 -181 99 -188 83 -192 C 67 -196 48 -198 26 -198 C 14 -198 5 -197 -2 -196 C -10 -194 -18 -192 -28 -189 L -19 -142 C -3 -148 13 -152 32 -152 C 44 -152 56 -150 67 -148 C 78 -145 88 -140 98 -134 C 107 -128 116 -119 125 -108 C 134 -96 143 -82 153 -64 L 189 0 L 80 550 Z M 436 621 L 399 621 L 347 708 L 264 621 L 223 621 L 316 754 L 389 754 L 436 621 Z" />
<glyph unicode="Ÿ" horiz-adv-x="535" d="M 246 288 L 109 715 L 167 715 L 278 339 L 280 339 L 526 715 L 588 715 L 301 288 L 251 0 L 196 0 L 246 288 Z M 409 880 L 479 880 L 467 810 L 397 810 L 409 880 Z M 266 880 L 336 880 L 324 810 L 254 810 L 266 880 Z" />
<glyph unicode="Ź" horiz-adv-x="547" d="M 153 715 L 568 715 L 561 674 L 90 48 L 461 48 L 453 0 L 16 0 L 23 38 L 494 667 L 144 667 L 153 715 Z M 426 919 L 503 919 L 386 786 L 348 786 L 426 919 Z" />
<glyph unicode="ź" horiz-adv-x="528" d="M 124 550 L 514 550 L 507 513 L 94 46 L 442 46 L 435 0 L 16 0 L 22 37 L 436 504 L 116 504 L 124 550 Z M 388 754 L 465 754 L 348 621 L 310 621 L 388 754 Z" />
<glyph unicode="Ż" horiz-adv-x="547" d="M 153 715 L 568 715 L 561 674 L 90 48 L 461 48 L 453 0 L 16 0 L 23 38 L 494 667 L 144 667 L 153 715 Z M 352 880 L 423 880 L 411 810 L 340 810 L 352 880 Z" />
<glyph unicode="ż" horiz-adv-x="528" d="M 124 550 L 514 550 L 507 513 L 94 46 L 442 46 L 435 0 L 16 0 L 22 37 L 436 504 L 116 504 L 124 550 Z M 310 715 L 381 715 L 369 645 L 298 645 L 310 715 Z" />
<glyph unicode="Ž" horiz-adv-x="547" d="M 153 715 L 568 715 L 561 674 L 90 48 L 461 48 L 453 0 L 16 0 L 23 38 L 494 667 L 144 667 L 153 715 Z M 406 786 L 333 786 L 286 919 L 323 919 L 375 832 L 457 919 L 499 919 L 406 786 Z" />
<glyph unicode="ž" horiz-adv-x="528" d="M 124 550 L 514 550 L 507 513 L 94 46 L 442 46 L 435 0 L 16 0 L 22 37 L 436 504 L 116 504 L 124 550 Z M 364 621 L 291 621 L 244 754 L 281 754 L 333 667 L 415 754 L 457 754 L 364 621 Z" />
<glyph unicode="ƒ" horiz-adv-x="396" d="M 193 504 L 127 504 L 133 539 L 201 550 L 216 632 C 223 672 238 701 261 720 C 284 738 316 748 358 748 C 375 748 389 746 401 744 C 413 741 422 738 430 736 L 421 691 C 412 693 402 696 391 698 C 379 700 366 702 351 702 C 325 702 306 696 294 686 C 281 675 272 657 268 631 L 254 550 L 364 550 L 355 504 L 245 504 L 142 -83 C 135 -125 120 -155 96 -172 C 72 -189 41 -198 2 -198 C -15 -198 -29 -196 -41 -194 C -53 -191 -62 -188 -70 -186 L -63 -141 C -53 -143 -43 -146 -32 -148 C -21 -150 -8 -152 7 -152 C 31 -152 50 -146 63 -136 C 75 -125 84 -107 89 -81 L 193 504 Z" />
<glyph unicode="Ș" horiz-adv-x="595" d="M 310 346 C 270 351 236 359 210 369 C 184 379 163 392 148 408 C 133 424 124 442 120 464 C 116 485 116 509 122 537 C 132 599 159 646 202 678 C 244 710 302 726 376 726 C 414 726 446 722 473 715 C 499 708 521 697 537 681 C 553 665 563 645 568 620 C 572 594 571 563 565 527 L 512 527 C 516 555 517 579 514 599 C 511 619 504 634 492 646 C 480 657 464 665 444 670 C 424 675 399 678 370 678 C 312 678 268 666 237 644 C 206 621 186 585 178 537 C 174 515 173 496 176 480 C 178 464 185 450 196 438 C 207 426 223 416 243 409 C 263 401 290 396 323 392 C 373 386 412 377 442 366 C 471 355 492 341 506 324 C 520 307 527 287 528 264 C 529 240 527 213 522 182 C 516 150 506 121 494 97 C 481 73 464 53 443 37 C 421 21 395 9 363 1 C 331 -7 294 -11 251 -11 C 215 -11 184 -8 156 -2 C 128 3 105 13 87 28 C 69 42 56 62 50 88 C 43 113 43 145 51 184 L 103 184 C 97 154 97 129 101 110 C 105 91 113 76 126 65 C 138 54 155 47 177 43 C 199 39 225 37 256 37 C 290 37 320 40 345 46 C 369 52 390 61 407 73 C 423 85 436 100 446 118 C 455 136 462 158 466 182 C 470 206 472 228 472 246 C 472 264 468 280 458 293 C 448 306 431 317 408 325 C 384 333 352 340 310 346 Z M 205 -66 L 273 -66 L 190 -209 L 151 -209 L 205 -66 Z" />
<glyph unicode="ș" horiz-adv-x="551" d="M 94 153 C 90 131 90 113 92 98 C 94 83 101 71 112 62 C 122 52 137 45 157 41 C 177 37 202 35 233 35 C 269 35 299 37 322 43 C 344 49 362 57 376 67 C 390 77 400 89 406 103 C 412 117 416 132 419 150 C 421 166 421 181 419 193 C 416 205 409 216 399 224 C 388 232 373 238 353 243 C 333 248 307 252 276 255 C 206 261 157 277 129 303 C 101 328 92 363 101 407 C 105 435 114 458 127 478 C 139 497 155 513 175 525 C 195 537 217 546 243 552 C 268 558 296 561 326 561 C 395 561 444 548 473 523 C 501 497 510 455 500 397 L 447 397 C 455 439 449 469 430 487 C 411 505 375 515 321 515 C 273 515 234 507 206 492 C 178 476 160 448 153 406 C 146 368 154 342 177 327 C 199 311 237 301 290 297 C 329 293 361 287 387 280 C 412 273 432 264 446 252 C 460 240 468 226 472 210 C 476 193 475 173 471 150 C 467 127 461 106 453 86 C 445 66 432 49 414 35 C 396 21 372 9 342 1 C 312 -6 273 -11 227 -11 C 186 -11 153 -7 127 1 C 101 9 81 20 67 35 C 53 49 44 67 41 87 C 37 107 38 129 42 153 L 94 153 Z M 186 -66 L 254 -66 L 171 -209 L 132 -209 L 186 -66 Z" />
<glyph unicode="ˆ" horiz-adv-x="334" d="M 341 621 L 304 621 L 252 708 L 169 621 L 128 621 L 221 754 L 294 754 L 341 621 Z" />
<glyph unicode="ˇ" horiz-adv-x="382" d="M 294 621 L 221 621 L 174 754 L 211 754 L 263 667 L 345 754 L 387 754 L 294 621 Z" />
<glyph unicode="˘" horiz-adv-x="367" d="M 189 751 C 183 723 186 701 196 685 C 206 669 226 662 254 662 C 282 662 304 669 320 685 C 336 701 346 723 352 751 L 397 751 C 389 707 373 674 348 651 C 323 627 290 616 249 616 C 207 616 177 627 159 651 C 141 674 136 707 144 751 L 189 751 Z" />
<glyph unicode="˙" horiz-adv-x="220" d="M 159 715 L 230 715 L 218 645 L 147 645 L 159 715 Z" />
<glyph unicode="˚" horiz-adv-x="341" d="M 349 703 C 343 673 330 651 310 637 C 290 622 264 615 233 615 C 202 615 179 622 164 637 C 148 651 143 673 148 703 C 153 732 166 754 186 769 C 206 783 232 791 264 791 C 295 791 318 783 334 769 C 349 754 354 732 349 703 Z M 305 703 C 307 718 305 730 298 738 C 290 746 277 751 257 751 C 219 751 198 735 193 703 C 189 687 191 674 199 666 C 206 657 220 653 240 653 C 277 653 299 669 305 703 Z" />
<glyph unicode="˛" horiz-adv-x="234" d="M 97 -183 L 58 -183 C 31 -183 11 -177 0 -165 C -12 -153 -16 -135 -12 -110 C -8 -89 1 -69 17 -51 C 33 -32 54 -15 79 0 L 130 0 C 104 -15 83 -31 68 -48 C 52 -65 43 -81 41 -97 C 37 -112 39 -123 47 -129 C 54 -135 65 -139 79 -139 L 105 -139 L 97 -183 Z" />
<glyph unicode="˜" horiz-adv-x="451" d="M 358 637 C 342 637 329 640 319 646 C 309 652 300 658 292 666 C 284 673 276 680 268 686 C 260 692 251 695 241 695 C 223 695 210 689 203 679 C 195 669 190 657 188 643 L 150 643 C 156 679 167 704 184 718 C 201 732 222 739 246 739 C 262 739 274 736 284 730 C 294 724 303 717 311 710 C 319 702 326 696 334 690 C 342 684 351 681 363 681 C 381 681 393 686 401 696 C 408 706 413 719 416 733 L 454 733 C 448 697 436 672 419 658 C 402 644 382 637 358 637 Z" />
<glyph unicode="˝" horiz-adv-x="433" d="M 211 754 L 285 754 L 201 621 L 166 621 L 211 754 Z M 362 754 L 439 754 L 322 621 L 284 621 L 362 754 Z" />
<glyph unicode="π" horiz-adv-x="673" d="M 226 504 L 105 504 L 113 550 L 665 550 L 657 504 L 536 504 L 469 119 C 464 93 466 75 474 63 C 482 51 500 46 528 46 L 543 46 L 536 0 L 520 0 C 478 0 448 9 430 28 C 412 46 408 77 416 119 L 483 504 L 278 504 L 190 0 L 137 0 L 226 504 Z" />
<glyph unicode="Ḃ" horiz-adv-x="617" d="M 175 715 L 399 715 C 439 715 473 711 500 705 C 527 698 548 687 564 672 C 579 657 589 638 593 615 C 597 591 596 563 590 531 C 582 488 564 452 538 423 C 511 393 479 374 441 364 C 489 352 521 332 538 304 C 555 276 559 239 551 191 C 545 155 535 124 521 100 C 507 75 490 55 468 41 C 446 26 421 15 391 9 C 361 3 328 0 290 0 L 50 0 L 175 715 Z M 164 340 L 112 48 L 298 48 C 330 48 358 50 382 56 C 405 62 424 71 440 83 C 455 95 467 110 476 128 C 485 146 492 168 497 194 C 505 242 498 279 476 303 C 454 327 414 340 356 340 L 164 340 Z M 172 386 L 364 386 C 389 386 411 389 431 397 C 450 404 466 414 480 427 C 494 439 505 454 514 472 C 522 489 528 508 532 528 C 541 579 535 615 514 636 C 492 656 451 667 391 667 L 221 667 L 172 386 Z M 380 880 L 451 880 L 439 810 L 368 810 L 380 880 Z" />
<glyph unicode="ḃ" horiz-adv-x="586" d="M 133 244 C 125 204 122 171 123 145 C 124 118 130 96 141 80 C 151 64 167 52 188 45 C 208 38 234 35 266 35 C 298 35 326 38 349 44 C 371 50 390 60 406 76 C 422 92 435 113 445 140 C 455 167 464 202 472 244 L 483 306 C 490 348 493 382 492 409 C 490 436 484 457 474 473 C 464 489 449 500 429 506 C 409 512 385 515 356 515 C 328 515 297 509 265 497 C 233 485 200 468 168 446 L 133 244 Z M 168 737 L 221 737 L 177 492 C 207 511 239 527 273 541 C 307 554 340 561 370 561 C 403 561 432 557 457 550 C 481 542 501 529 516 510 C 530 490 539 464 543 431 C 547 398 544 356 536 306 L 525 244 C 515 194 504 152 490 120 C 476 87 459 61 439 42 C 418 22 393 9 364 1 C 335 -7 301 -11 261 -11 C 223 -11 191 -6 165 2 C 138 10 117 24 102 44 C 86 64 77 90 73 123 C 69 155 72 196 81 244 L 168 737 Z M 360 715 L 431 715 L 419 645 L 348 645 L 360 715 Z" />
<glyph unicode="Ḋ" horiz-adv-x="629" d="M 50 0 L 175 715 L 377 715 C 418 715 454 711 486 704 C 517 696 542 683 561 664 C 580 644 592 618 598 585 C 604 552 602 510 594 460 L 558 255 C 548 203 535 161 518 129 C 500 96 479 70 453 51 C 427 31 398 18 364 11 C 330 3 293 0 252 0 L 50 0 Z M 260 48 C 292 48 321 50 348 56 C 374 62 398 72 418 88 C 438 103 456 124 470 151 C 484 178 495 213 503 255 L 539 460 C 546 502 547 536 543 563 C 538 590 528 611 513 627 C 498 642 478 652 454 658 C 429 664 401 667 369 667 L 221 667 L 112 48 L 260 48 Z M 376 880 L 447 880 L 435 810 L 364 810 L 376 880 Z" />
<glyph unicode="ḋ" horiz-adv-x="586" d="M 237 35 C 264 35 294 41 327 53 C 360 65 393 83 425 105 L 485 446 C 461 468 434 485 406 497 C 377 509 349 515 321 515 C 291 515 266 512 245 506 C 223 500 205 489 189 473 C 173 457 160 436 150 409 C 139 382 130 348 123 306 L 112 244 C 104 202 101 167 102 140 C 103 113 109 92 119 76 C 129 60 144 50 164 44 C 183 38 207 35 237 35 Z M 227 -11 C 193 -11 164 -7 139 0 C 114 7 94 20 79 40 C 64 59 55 85 51 118 C 47 150 49 192 59 244 L 70 306 C 78 356 90 398 105 431 C 120 464 138 490 159 510 C 180 529 204 542 231 550 C 258 557 288 561 322 561 C 352 561 382 554 412 541 C 442 527 469 511 493 492 L 537 737 L 590 737 L 460 0 L 430 0 L 422 61 C 408 49 392 39 376 30 C 359 21 342 14 325 8 C 308 2 291 -2 274 -6 C 257 -9 241 -11 227 -11 Z M 336 715 L 407 715 L 395 645 L 324 645 L 336 715 Z" />
<glyph unicode="Ḟ" horiz-adv-x="524" d="M 440 340 L 164 340 L 105 0 L 50 0 L 175 715 L 544 715 L 536 667 L 221 667 L 172 386 L 448 386 L 440 340 Z M 359 880 L 430 880 L 418 810 L 347 810 L 359 880 Z" />
<glyph unicode="ḟ" horiz-adv-x="322" d="M 372 691 C 362 693 352 696 341 698 C 329 700 316 702 301 702 C 276 702 257 696 245 686 C 232 675 223 657 219 631 L 205 550 L 315 550 L 306 504 L 196 504 L 90 -99 L 37 -99 L 143 504 L 77 504 L 84 539 L 152 550 L 166 632 C 173 674 188 703 212 721 C 235 739 267 748 308 748 C 325 748 339 747 351 745 C 363 743 373 740 381 737 L 372 691 Z M 288 891 L 359 891 L 347 821 L 276 821 L 288 891 Z" />
<glyph unicode="Ṁ" horiz-adv-x="805" d="M 366 67 L 369 67 L 700 715 L 793 715 L 668 0 L 613 0 L 729 662 L 387 0 L 330 0 L 221 662 L 105 0 L 50 0 L 175 715 L 263 715 L 366 67 Z M 474 880 L 545 880 L 533 810 L 462 810 L 474 880 Z" />
<glyph unicode="ṁ" horiz-adv-x="871" d="M 420 0 L 367 0 L 438 404 C 441 424 442 441 442 455 C 441 469 437 480 431 489 C 424 498 414 505 401 509 C 387 513 370 515 348 515 C 320 515 292 509 262 497 C 232 485 201 468 169 446 L 91 0 L 38 0 L 135 550 L 167 550 L 174 490 C 208 513 241 531 273 543 C 305 555 336 561 367 561 C 387 561 405 559 419 556 C 433 552 446 547 456 541 C 466 534 474 526 480 517 C 486 508 492 498 497 488 C 533 512 566 530 598 542 C 630 554 662 561 695 561 C 727 561 752 557 771 550 C 790 542 804 532 813 519 C 821 505 826 489 826 470 C 826 450 825 428 821 404 L 750 0 L 697 0 L 768 404 C 771 424 772 441 771 455 C 770 469 766 480 759 489 C 752 498 742 505 728 509 C 714 513 697 515 675 515 C 649 515 621 509 591 497 C 561 485 530 468 498 446 L 420 0 Z M 483 715 L 554 715 L 542 645 L 471 645 L 483 715 Z" />
<glyph unicode="Ṗ" horiz-adv-x="603" d="M 175 715 L 391 715 C 431 715 466 711 495 705 C 524 698 547 686 564 670 C 580 653 591 630 595 602 C 599 574 598 538 591 496 C 583 457 573 424 559 397 C 545 369 527 347 505 330 C 483 313 456 301 425 293 C 394 285 358 282 317 282 L 154 282 L 105 0 L 50 0 L 175 715 Z M 162 330 L 324 330 C 357 330 386 332 410 338 C 434 343 454 352 471 365 C 487 378 500 395 510 417 C 520 438 527 464 533 496 C 539 532 541 561 538 583 C 535 605 527 622 515 635 C 502 647 485 656 463 660 C 441 664 414 667 382 667 L 221 667 L 162 330 Z M 376 880 L 447 880 L 435 810 L 364 810 L 376 880 Z" />
<glyph unicode="ṗ" horiz-adv-x="592" d="M 358 515 C 330 515 299 509 266 497 C 233 485 201 468 169 446 L 109 105 C 133 83 159 65 188 53 C 216 41 245 35 273 35 C 301 35 326 38 348 44 C 370 50 388 60 404 76 C 420 92 433 113 444 140 C 455 167 464 202 472 244 L 483 306 C 490 348 493 382 492 409 C 490 436 485 457 475 473 C 465 489 450 500 430 506 C 410 512 386 515 358 515 Z M 370 561 C 403 561 432 557 457 550 C 481 542 501 529 516 510 C 530 490 539 464 543 431 C 547 398 544 356 536 306 L 525 244 C 515 192 503 150 488 118 C 472 85 454 59 433 40 C 411 20 387 7 360 0 C 332 -7 302 -11 269 -11 C 239 -11 209 -4 180 9 C 150 22 124 38 101 58 L 58 -187 L 5 -187 L 135 550 L 167 550 L 174 490 C 188 500 204 509 221 517 C 237 525 254 533 271 540 C 288 546 305 551 322 555 C 338 559 354 561 370 561 Z M 353 715 L 424 715 L 412 645 L 341 645 L 353 715 Z" />
<glyph unicode="Ṡ" horiz-adv-x="595" d="M 310 346 C 270 351 236 359 210 369 C 184 379 163 392 148 408 C 133 424 124 442 120 464 C 116 485 116 509 122 537 C 132 599 159 646 202 678 C 244 710 302 726 376 726 C 414 726 446 722 473 715 C 499 708 521 697 537 681 C 553 665 563 645 568 620 C 572 594 571 563 565 527 L 512 527 C 516 555 517 579 514 599 C 511 619 504 634 492 646 C 480 657 464 665 444 670 C 424 675 399 678 370 678 C 312 678 268 666 237 644 C 206 621 186 585 178 537 C 174 515 173 496 176 480 C 178 464 185 450 196 438 C 207 426 223 416 243 409 C 263 401 290 396 323 392 C 373 386 412 377 442 366 C 471 355 492 341 506 324 C 520 307 527 287 528 264 C 529 240 527 213 522 182 C 516 150 506 121 494 97 C 481 73 464 53 443 37 C 421 21 395 9 363 1 C 331 -7 294 -11 251 -11 C 215 -11 184 -8 156 -2 C 128 3 105 13 87 28 C 69 42 56 62 50 88 C 43 113 43 145 51 184 L 103 184 C 97 154 97 129 101 110 C 105 91 113 76 126 65 C 138 54 155 47 177 43 C 199 39 225 37 256 37 C 290 37 320 40 345 46 C 369 52 390 61 407 73 C 423 85 436 100 446 118 C 455 136 462 158 466 182 C 470 206 472 228 472 246 C 472 264 468 280 458 293 C 448 306 431 317 408 325 C 384 333 352 340 310 346 Z M 378 880 L 449 880 L 437 810 L 366 810 L 378 880 Z" />
<glyph unicode="ṡ" horiz-adv-x="551" d="M 94 153 C 90 131 90 113 92 98 C 94 83 101 71 112 62 C 122 52 137 45 157 41 C 177 37 202 35 233 35 C 269 35 299 37 322 43 C 344 49 362 57 376 67 C 390 77 400 89 406 103 C 412 117 416 132 419 150 C 421 166 421 181 419 193 C 416 205 409 216 399 224 C 388 232 373 238 353 243 C 333 248 307 252 276 255 C 206 261 157 277 129 303 C 101 328 92 363 101 407 C 105 435 114 458 127 478 C 139 497 155 513 175 525 C 195 537 217 546 243 552 C 268 558 296 561 326 561 C 395 561 444 548 473 523 C 501 497 510 455 500 397 L 447 397 C 455 439 449 469 430 487 C 411 505 375 515 321 515 C 273 515 234 507 206 492 C 178 476 160 448 153 406 C 146 368 154 342 177 327 C 199 311 237 301 290 297 C 329 293 361 287 387 280 C 412 273 432 264 446 252 C 460 240 468 226 472 210 C 476 193 475 173 471 150 C 467 127 461 106 453 86 C 445 66 432 49 414 35 C 396 21 372 9 342 1 C 312 -6 273 -11 227 -11 C 186 -11 153 -7 127 1 C 101 9 81 20 67 35 C 53 49 44 67 41 87 C 37 107 38 129 42 153 L 94 153 Z M 321 715 L 392 715 L 380 645 L 309 645 L 321 715 Z" />
<glyph unicode="Ṫ" horiz-adv-x="491" d="M 291 667 L 100 667 L 109 715 L 544 715 L 536 667 L 346 667 L 230 0 L 175 0 L 291 667 Z M 324 880 L 395 880 L 383 810 L 312 810 L 324 880 Z" />
<glyph unicode="ṫ" horiz-adv-x="339" d="M 175 683 L 230 693 L 205 550 L 337 550 L 328 504 L 196 504 L 128 117 C 123 91 124 70 132 56 C 140 42 157 35 184 35 C 201 35 216 36 230 38 C 244 40 257 43 269 46 L 262 0 C 250 -3 237 -6 223 -8 C 208 -10 192 -11 175 -11 C 134 -11 105 0 88 19 C 71 39 67 72 75 117 L 143 504 L 77 504 L 84 539 L 152 550 L 175 683 Z M 195 842 L 266 842 L 254 772 L 183 772 L 195 842 Z" />
<glyph unicode="Ẁ" horiz-adv-x="909" d="M 571 715 L 620 73 L 623 73 L 879 715 L 941 715 L 643 0 L 576 0 L 524 650 L 244 0 L 177 0 L 131 715 L 190 715 L 220 73 L 222 73 L 498 715 L 571 715 Z M 563 786 L 525 786 L 454 919 L 531 919 L 563 786 Z" />
<glyph unicode="ẁ" horiz-adv-x="805" d="M 487 550 L 543 53 L 756 550 L 814 550 L 570 0 L 504 0 L 446 498 L 213 0 L 147 0 L 97 550 L 153 550 L 188 53 L 421 550 L 487 550 Z M 488 621 L 450 621 L 379 754 L 456 754 L 488 621 Z" />
<glyph unicode="Ẃ" horiz-adv-x="909" d="M 571 715 L 620 73 L 623 73 L 879 715 L 941 715 L 643 0 L 576 0 L 524 650 L 244 0 L 177 0 L 131 715 L 190 715 L 220 73 L 222 73 L 498 715 L 571 715 Z M 615 919 L 692 919 L 575 786 L 537 786 L 615 919 Z" />
<glyph unicode="ẃ" horiz-adv-x="805" d="M 487 550 L 543 53 L 756 550 L 814 550 L 570 0 L 504 0 L 446 498 L 213 0 L 147 0 L 97 550 L 153 550 L 188 53 L 421 550 L 487 550 Z M 531 754 L 608 754 L 491 621 L 453 621 L 531 754 Z" />
<glyph unicode="Ẅ" horiz-adv-x="909" d="M 571 715 L 620 73 L 623 73 L 879 715 L 941 715 L 643 0 L 576 0 L 524 650 L 244 0 L 177 0 L 131 715 L 190 715 L 220 73 L 222 73 L 498 715 L 571 715 Z M 605 880 L 675 880 L 663 810 L 593 810 L 605 880 Z M 462 880 L 532 880 L 520 810 L 450 810 L 462 880 Z" />
<glyph unicode="ẅ" horiz-adv-x="805" d="M 487 550 L 543 53 L 756 550 L 814 550 L 570 0 L 504 0 L 446 498 L 213 0 L 147 0 L 97 550 L 153 550 L 188 53 L 421 550 L 487 550 Z M 520 715 L 590 715 L 578 645 L 508 645 L 520 715 Z M 377 715 L 447 715 L 435 645 L 365 645 L 377 715 Z" />
<glyph unicode="Ỳ" horiz-adv-x="535" d="M 246 288 L 109 715 L 167 715 L 278 339 L 280 339 L 526 715 L 588 715 L 301 288 L 251 0 L 196 0 L 246 288 Z M 397 786 L 359 786 L 288 919 L 365 919 L 397 786 Z" />
<glyph unicode="ỳ" horiz-adv-x="524" d="M 80 550 L 136 550 L 225 63 L 227 63 L 488 550 L 548 550 L 201 -81 C 189 -103 177 -121 165 -136 C 153 -150 141 -162 128 -172 C 114 -181 99 -188 83 -192 C 67 -196 48 -198 26 -198 C 14 -198 5 -197 -2 -196 C -10 -194 -18 -192 -28 -189 L -19 -142 C -3 -148 13 -152 32 -152 C 44 -152 56 -150 67 -148 C 78 -145 88 -140 98 -134 C 107 -128 116 -119 125 -108 C 134 -96 143 -82 153 -64 L 189 0 L 80 550 Z M 345 621 L 307 621 L 236 754 L 313 754 L 345 621 Z" />
<glyph unicode="–" horiz-adv-x="512" d="M 65 340 L 477 340 L 470 294 L 57 294 L 65 340 Z" />
<glyph unicode="—" horiz-adv-x="792" d="M 87 340 L 736 340 L 728 294 L 79 294 L 87 340 Z" />
<glyph unicode="‘" horiz-adv-x="198" d="M 178 484 L 145 484 L 142 715 L 219 715 L 178 484 Z" />
<glyph unicode="’" horiz-adv-x="198" d="M 142 715 L 219 715 L 134 484 L 101 484 L 142 715 Z" />
<glyph unicode="‚" horiz-adv-x="231" d="M 59 121 L 136 121 L 52 -110 L 19 -110 L 59 121 Z" />
<glyph unicode="“" horiz-adv-x="319" d="M 178 484 L 145 484 L 142 715 L 219 715 L 178 484 Z M 299 484 L 266 484 L 263 715 L 340 715 L 299 484 Z" />
<glyph unicode="”" horiz-adv-x="319" d="M 263 715 L 340 715 L 255 484 L 222 484 L 263 715 Z M 142 715 L 219 715 L 134 484 L 101 484 L 142 715 Z" />
<glyph unicode="„" horiz-adv-x="352" d="M 178 110 L 255 110 L 170 -121 L 137 -121 L 178 110 Z M 57 110 L 134 110 L 50 -121 L 16 -121 L 57 110 Z" />
<glyph unicode="†" horiz-adv-x="376" d="M 220 577 L 107 577 L 114 618 L 228 618 L 249 737 L 299 737 L 278 618 L 392 618 L 384 577 L 271 577 L 219 286 L 168 286 L 220 577 Z" />
<glyph unicode="‡" horiz-adv-x="376" d="M 228 618 L 249 737 L 299 737 L 278 618 L 392 618 L 384 577 L 271 577 L 248 446 L 361 446 L 353 405 L 240 405 L 219 286 L 168 286 L 189 405 L 76 405 L 84 446 L 197 446 L 220 577 L 107 577 L 114 618 L 228 618 Z" />
<glyph unicode="•" horiz-adv-x="480" d="M 422 334 C 416 300 408 273 398 252 C 388 230 375 214 359 202 C 343 190 324 181 302 177 C 280 172 254 170 226 170 C 196 170 171 172 151 177 C 131 181 115 190 103 202 C 91 214 84 230 81 252 C 78 273 80 300 86 334 L 95 381 C 101 414 109 441 119 462 C 129 483 142 500 158 512 C 174 524 192 532 214 537 C 236 541 261 544 291 544 C 320 544 345 541 365 537 C 385 532 401 524 413 512 C 425 500 432 483 435 462 C 438 441 437 414 431 381 L 422 334 Z" />
<glyph unicode="…" horiz-adv-x="559" d="M 42 81 L 125 81 L 111 0 L 28 0 L 42 81 Z M 213 81 L 297 81 L 283 0 L 199 0 L 213 81 Z M 385 81 L 469 81 L 454 0 L 371 0 L 385 81 Z" />
<glyph unicode="‰" horiz-adv-x="987" d="M 413 566 C 402 506 382 465 354 442 C 326 418 287 407 237 407 C 186 407 150 418 130 442 C 110 465 105 506 116 566 C 126 624 145 666 174 690 C 203 714 243 726 293 726 C 343 726 378 714 398 690 C 418 666 423 624 413 566 Z M 362 566 C 369 610 366 640 354 657 C 342 673 319 682 285 682 C 251 682 224 673 206 657 C 187 640 174 610 166 566 C 162 543 160 524 162 510 C 163 495 167 483 174 475 C 180 466 189 460 201 456 C 212 452 226 451 244 451 C 260 451 275 452 288 456 C 301 460 312 466 322 475 C 332 483 340 495 346 510 C 352 524 358 543 362 566 Z M 908 148 C 897 88 877 47 849 24 C 821 0 782 -11 732 -11 C 700 -11 674 -6 656 4 C 637 14 625 31 619 55 C 605 31 588 14 566 4 C 544 -6 517 -11 485 -11 C 435 -11 399 0 379 24 C 358 47 353 88 364 148 C 374 206 394 248 423 272 C 451 296 491 308 541 308 C 573 308 598 302 616 292 C 634 281 646 264 652 240 C 666 264 685 281 707 292 C 729 302 756 308 788 308 C 838 308 873 296 893 272 C 913 248 918 206 908 148 Z M 857 148 C 864 192 861 223 849 239 C 837 255 814 264 780 264 C 746 264 719 255 700 239 C 681 223 668 192 661 148 C 657 125 655 106 657 92 C 658 77 662 65 669 57 C 675 48 684 42 696 38 C 707 34 721 33 739 33 C 755 33 770 34 784 38 C 797 42 808 48 818 57 C 827 65 835 77 841 92 C 847 106 853 125 857 148 Z M 610 148 C 618 192 615 223 603 239 C 591 255 567 264 533 264 C 499 264 472 255 454 239 C 435 223 422 192 415 148 C 411 125 409 106 411 92 C 412 77 416 65 422 57 C 428 48 437 42 449 38 C 461 34 475 33 493 33 C 509 33 524 34 537 38 C 550 42 561 48 571 57 C 581 65 589 77 595 92 C 601 106 606 125 610 148 Z M 120 0 L 59 0 L 658 715 L 718 715 L 120 0 Z" />
<glyph unicode="‹" horiz-adv-x="341" d="M 70 275 L 256 473 L 313 473 L 127 275 L 244 77 L 187 77 L 70 275 Z" />
<glyph unicode="›" horiz-adv-x="341" d="M 92 77 L 35 77 L 223 275 L 105 473 L 162 473 L 279 275 L 92 77 Z" />
<glyph unicode="€" horiz-adv-x="647" d="M 205 399 L 189 316 L 435 316 L 419 269 L 182 269 L 177 248 C 169 207 166 173 168 146 C 169 119 175 97 187 81 C 198 65 215 53 237 47 C 259 40 287 37 323 37 C 353 37 379 39 401 44 C 423 48 442 56 458 68 C 474 80 487 95 497 115 C 507 134 514 158 520 188 L 575 188 C 568 151 558 120 544 95 C 530 69 513 49 492 33 C 470 17 445 6 416 0 C 386 -7 353 -11 316 -11 C 274 -11 238 -7 209 1 C 180 9 158 23 142 43 C 126 63 117 89 114 123 C 110 156 113 198 122 249 L 127 269 L 53 269 L 61 316 L 134 316 L 150 399 L 76 399 L 84 446 L 157 446 L 161 468 C 169 516 181 556 195 589 C 209 621 228 648 250 668 C 272 688 300 703 332 712 C 364 721 402 726 446 726 C 483 726 515 722 542 715 C 569 708 590 697 606 681 C 622 665 632 645 637 620 C 642 594 641 563 635 527 L 580 527 C 585 555 586 579 583 599 C 579 619 572 634 560 646 C 548 657 532 665 512 670 C 491 675 466 678 437 678 C 402 678 372 674 348 668 C 323 661 302 650 285 634 C 268 618 254 596 243 569 C 232 542 223 509 217 469 L 212 446 L 480 446 L 464 399 L 205 399 Z" />
<glyph unicode="™" horiz-adv-x="632" d="M 206 686 L 127 686 L 131 715 L 323 715 L 319 686 L 240 686 L 194 429 L 159 429 L 206 686 Z M 436 429 L 393 674 L 349 429 L 315 429 L 365 715 L 416 715 L 460 462 L 592 715 L 642 715 L 592 429 L 558 429 L 602 674 L 471 429 L 436 429 Z" />
</font>
</defs>
</svg>
