<?xml version="1.0" encoding="utf-8" ?><svg version="1.1" xmlns='http://www.w3.org/2000/svg'><defs><font id='font' horiz-adv-x="1000">
<font-face font-family="font" x-height="550" cap-height="715" bbox="-46,-209,1072,956" descent="-230" ascent="770" units-per-em="1000" />
<missing-glyph horiz-adv-x="495" d="M 55 715 L 440 715 L 440 0 L 55 0 L 55 715 Z M 407 44 L 407 671 L 265 358 L 407 44 Z M 88 671 L 88 44 L 229 358 L 88 671 Z M 248 397 L 375 682 L 120 682 L 248 397 Z M 120 33 L 375 33 L 248 317 L 120 33 Z" /><glyph unicode=" " horiz-adv-x="253" d="" />
<glyph unicode="!" horiz-adv-x="255" d="M 82 715 L 173 715 L 144 216 L 111 216 L 82 715 Z M 86 81 L 169 81 L 169 0 L 86 0 L 86 81 Z" />
<glyph unicode="&#x22;" horiz-adv-x="328" d="M 116 451 L 80 451 L 61 715 L 135 715 L 116 451 Z M 248 451 L 212 451 L 193 715 L 267 715 L 248 451 Z" />
<glyph unicode="#" horiz-adv-x="609" d="M 530 188 L 417 188 L 400 0 L 350 0 L 366 188 L 213 188 L 197 0 L 146 0 L 163 188 L 50 188 L 54 234 L 167 234 L 188 482 L 75 482 L 79 528 L 193 528 L 209 715 L 260 715 L 243 528 L 396 528 L 413 715 L 463 715 L 447 528 L 560 528 L 555 482 L 442 482 L 421 234 L 535 234 L 530 188 Z M 218 234 L 371 234 L 392 482 L 239 482 L 218 234 Z" />
<glyph unicode="$" horiz-adv-x="573" d="M 124 237 C 124 216 126 198 132 184 C 137 169 146 157 158 147 C 170 137 187 130 207 126 C 227 121 253 119 283 119 C 319 119 348 121 370 127 C 392 133 408 141 420 151 C 432 161 439 173 443 187 C 447 201 449 216 449 233 C 449 249 446 264 441 276 C 435 288 426 299 414 307 C 402 315 385 321 364 326 C 343 331 317 335 286 338 C 216 344 165 359 133 382 C 101 404 85 440 85 490 C 85 542 100 579 132 603 C 164 627 207 640 261 643 L 261 737 L 313 737 L 313 643 C 372 639 416 625 444 599 C 472 573 486 534 486 481 L 433 481 C 433 523 422 553 400 571 C 378 589 340 598 286 598 C 238 598 202 590 176 575 C 150 559 137 531 137 490 C 137 452 149 426 175 411 C 201 396 240 386 294 382 C 334 378 368 372 395 365 C 421 358 443 349 459 338 C 475 326 486 312 492 295 C 498 277 502 257 502 233 C 502 211 499 191 495 173 C 490 154 481 137 468 123 C 454 109 435 97 410 89 C 385 80 353 75 313 73 L 313 -22 L 261 -22 L 261 73 C 223 74 191 79 167 87 C 143 95 124 107 110 121 C 96 135 86 152 80 172 C 74 191 71 213 71 237 L 124 237 Z" />
<glyph unicode="%" horiz-adv-x="740" d="M 162 0 L 103 0 L 579 715 L 637 715 L 162 0 Z M 358 566 C 358 506 345 465 321 442 C 296 418 259 407 209 407 C 159 407 121 418 97 442 C 73 465 61 506 61 566 C 61 624 73 666 97 690 C 121 714 159 726 209 726 C 259 726 296 714 321 690 C 345 666 358 624 358 566 Z M 680 148 C 680 88 667 47 643 24 C 618 0 581 -11 531 -11 C 481 -11 443 0 419 24 C 395 47 383 88 383 148 C 383 206 395 248 419 272 C 443 296 481 308 531 308 C 581 308 618 296 643 272 C 667 248 680 206 680 148 Z M 307 566 C 307 610 299 640 283 657 C 267 673 243 682 209 682 C 175 682 150 673 134 657 C 118 640 111 610 111 566 C 111 543 112 524 116 510 C 120 495 126 483 134 475 C 142 466 152 460 164 456 C 176 452 191 451 209 451 C 225 451 240 452 252 456 C 264 460 275 466 283 475 C 291 483 297 495 301 510 C 305 524 307 543 307 566 Z M 629 148 C 629 192 621 223 605 239 C 589 255 565 264 531 264 C 497 264 472 255 456 239 C 440 223 433 192 433 148 C 433 125 434 106 438 92 C 442 77 448 65 456 57 C 464 48 474 42 486 38 C 498 34 513 33 531 33 C 547 33 562 34 574 38 C 586 42 597 48 605 57 C 613 65 619 77 623 92 C 627 106 629 125 629 148 Z" />
<glyph unicode="&#x26;" horiz-adv-x="686" d="M 461 535 C 461 586 449 623 425 645 C 401 667 361 678 304 678 C 250 678 209 666 181 644 C 153 622 140 583 140 528 C 140 484 151 450 173 424 C 195 398 223 386 258 386 L 615 386 L 615 340 L 527 340 L 527 155 C 527 137 528 122 531 109 C 534 96 540 85 548 76 C 556 66 568 59 582 55 C 596 50 615 48 637 48 L 637 0 C 561 0 513 24 492 74 C 476 48 453 28 421 12 C 389 -3 345 -11 288 -11 C 213 -11 156 6 118 40 C 80 74 61 125 61 193 C 61 235 72 271 94 300 C 116 329 144 350 177 364 C 150 377 128 397 111 424 C 93 451 85 486 85 528 C 85 596 103 646 141 678 C 179 710 233 726 304 726 C 379 726 433 710 466 680 C 499 650 516 601 516 535 L 461 535 Z M 288 37 C 326 37 356 41 380 49 C 404 57 422 69 436 84 C 450 98 459 116 464 136 C 469 156 472 178 472 202 L 472 340 L 258 340 C 237 340 218 336 201 329 C 183 322 168 312 156 300 C 143 287 133 271 126 253 C 119 235 116 215 116 193 C 116 139 130 100 159 75 C 188 49 231 37 288 37 Z" />
<glyph unicode="'" horiz-adv-x="196" d="M 116 451 L 80 451 L 61 715 L 135 715 L 116 451 Z" />
<glyph unicode="(" horiz-adv-x="338" d="M 120 313 C 120 223 134 141 163 66 C 192 -9 230 -75 277 -132 L 222 -132 C 170 -72 130 -4 102 71 C 74 147 61 227 61 313 C 61 398 74 479 102 555 C 130 631 170 699 222 759 L 277 759 C 230 702 192 636 163 560 C 134 484 120 402 120 313 Z" />
<glyph unicode=")" horiz-adv-x="338" d="M 218 313 C 218 402 203 484 174 560 C 145 636 107 702 61 759 L 116 759 C 168 699 207 631 235 555 C 263 479 277 398 277 313 C 277 227 263 147 235 71 C 207 -4 168 -72 116 -132 L 61 -132 C 107 -75 145 -9 174 66 C 203 141 218 223 218 313 Z" />
<glyph unicode="*" horiz-adv-x="596" d="M 506 620 L 536 530 L 317 496 L 474 341 L 397 285 L 298 483 L 199 285 L 122 341 L 279 496 L 61 530 L 90 620 L 286 518 L 251 737 L 345 737 L 309 518 L 506 620 Z" />
<glyph unicode="+" horiz-adv-x="565" d="M 61 327 L 258 327 L 258 525 L 307 525 L 307 327 L 505 327 L 505 278 L 307 278 L 307 79 L 258 79 L 258 278 L 61 278 L 61 327 Z" />
<glyph unicode="," horiz-adv-x="216" d="M 77 92 L 154 92 L 112 -132 L 77 -132 L 77 92 Z" />
<glyph unicode="-" horiz-adv-x="374" d="M 50 340 L 324 340 L 324 294 L 50 294 L 50 340 Z" />
<glyph unicode="." horiz-adv-x="227" d="M 71 81 L 155 81 L 155 0 L 71 0 L 71 81 Z" />
<glyph unicode="/" horiz-adv-x="374" d="M 272 737 L 324 737 L 102 -22 L 50 -22 L 272 737 Z" />
<glyph unicode="0" horiz-adv-x="592" d="M 531 255 C 531 206 526 165 516 131 C 506 97 492 70 473 49 C 453 28 429 13 400 3 C 370 -6 336 -11 296 -11 C 256 -11 221 -6 192 3 C 162 13 138 28 118 49 C 98 70 84 97 75 131 C 65 165 61 206 61 255 L 61 460 C 61 508 66 549 76 583 C 86 617 100 644 120 665 C 139 686 163 701 193 711 C 222 721 256 726 296 726 C 334 726 368 721 398 711 C 428 701 452 686 472 665 C 491 644 506 617 516 583 C 526 549 531 508 531 460 L 531 255 Z M 476 460 C 476 500 472 535 466 563 C 459 591 448 613 434 630 C 419 647 400 659 378 667 C 355 674 328 678 296 678 C 264 678 236 674 214 667 C 191 659 172 647 158 630 C 143 613 132 591 126 563 C 119 535 116 500 116 460 L 116 255 C 116 214 119 180 126 152 C 132 124 143 101 158 84 C 172 67 191 55 214 48 C 236 40 264 37 296 37 C 328 37 355 40 378 48 C 400 55 419 67 434 84 C 448 101 459 124 466 152 C 472 180 476 214 476 255 L 476 460 Z" />
<glyph unicode="1" horiz-adv-x="332" d="M 151 0 L 151 667 L 50 667 L 50 698 L 173 715 L 206 715 L 206 0 L 151 0 Z" />
<glyph unicode="2" horiz-adv-x="564" d="M 63 41 C 63 73 68 101 80 126 C 91 150 106 172 124 192 C 142 211 162 228 186 244 C 209 260 233 275 258 289 C 282 303 306 318 330 333 C 353 347 374 363 392 381 C 410 398 424 417 436 439 C 447 460 453 485 453 513 C 453 539 450 563 445 583 C 440 603 431 621 419 635 C 407 649 390 659 368 667 C 346 674 319 678 285 678 C 253 678 227 674 205 667 C 183 660 166 650 153 636 C 139 622 130 604 124 583 C 118 561 116 536 116 507 L 61 507 C 61 541 65 571 73 598 C 81 625 94 648 112 667 C 130 686 153 701 181 711 C 209 721 244 726 285 726 C 327 726 363 720 392 710 C 420 700 443 685 461 667 C 478 649 490 626 498 600 C 505 574 509 545 509 513 C 509 470 499 434 480 405 C 461 376 437 351 409 329 C 381 307 350 287 317 269 C 283 251 252 232 223 212 C 194 192 169 169 149 143 C 129 117 118 86 117 48 L 515 48 L 515 0 L 63 0 L 63 41 Z" />
<glyph unicode="3" horiz-adv-x="585" d="M 61 518 C 61 591 80 644 118 677 C 156 709 212 726 284 726 C 362 726 420 710 456 678 C 492 646 510 592 510 518 C 510 476 501 443 484 419 C 466 394 443 376 415 365 C 453 353 482 335 504 310 C 525 284 536 247 536 199 C 536 125 514 71 472 38 C 430 5 369 -11 291 -11 C 211 -11 153 4 117 36 C 81 68 63 121 63 197 L 118 197 C 118 167 121 142 127 122 C 133 102 142 85 156 73 C 169 60 187 51 209 45 C 231 39 259 37 291 37 C 355 37 402 49 433 73 C 464 97 480 139 480 199 C 480 217 477 235 473 252 C 468 269 460 284 450 297 C 440 310 426 320 410 328 C 393 336 373 340 350 340 L 245 340 L 245 386 L 350 386 C 368 386 384 390 398 399 C 411 407 422 418 430 431 C 438 444 444 458 448 474 C 452 489 454 504 454 518 C 454 548 451 573 445 593 C 439 613 429 630 416 642 C 402 654 385 663 363 669 C 341 675 315 678 284 678 C 225 678 182 666 156 642 C 129 618 116 576 116 518 L 61 518 Z" />
<glyph unicode="4" horiz-adv-x="586" d="M 406 176 L 41 176 L 41 216 L 391 715 L 461 715 L 461 224 L 548 224 L 548 176 L 461 176 L 461 0 L 406 0 L 406 176 Z M 406 224 L 406 659 L 107 224 L 406 224 Z" />
<glyph unicode="5" horiz-adv-x="588" d="M 74 340 L 105 715 L 490 715 L 490 667 L 153 667 L 131 382 C 157 404 187 421 219 433 C 251 445 285 452 320 452 C 352 452 381 448 407 440 C 433 432 455 420 473 402 C 491 384 504 361 514 333 C 523 305 528 270 528 228 C 528 188 523 153 515 123 C 507 93 493 69 474 49 C 455 29 430 14 400 4 C 370 -6 333 -11 289 -11 C 243 -11 206 -5 176 5 C 146 15 123 30 105 50 C 87 69 75 92 68 119 C 60 145 57 175 57 207 L 112 207 C 112 181 115 157 121 136 C 127 115 136 97 150 83 C 164 68 182 57 205 49 C 227 41 255 37 289 37 C 324 37 353 41 377 49 C 400 57 419 68 433 84 C 447 100 457 120 463 144 C 469 168 472 196 472 228 C 472 262 468 290 461 314 C 454 337 444 356 430 370 C 416 384 398 394 378 400 C 358 406 334 409 308 409 C 288 409 269 406 252 402 C 235 398 219 392 205 386 C 191 379 178 371 166 363 C 154 355 144 347 135 340 L 74 340 Z" />
<glyph unicode="6" horiz-adv-x="583" d="M 116 374 C 130 382 145 389 161 396 C 177 402 194 408 211 413 C 228 418 245 422 262 425 C 279 427 295 429 311 429 C 350 429 383 424 411 416 C 439 408 461 395 479 378 C 496 360 508 338 516 311 C 524 283 528 251 528 213 C 528 63 451 -11 299 -11 C 258 -11 223 -7 193 0 C 163 7 138 20 119 40 C 99 59 85 85 75 118 C 65 150 61 192 61 244 L 61 464 C 61 512 65 553 74 587 C 83 620 97 647 115 668 C 133 688 157 703 186 712 C 214 721 249 726 289 726 C 365 726 420 710 454 679 C 488 647 505 598 507 532 L 452 532 C 452 556 449 578 444 596 C 438 614 429 630 417 642 C 404 654 387 663 367 669 C 346 675 320 678 289 678 C 256 678 229 674 207 668 C 185 661 167 649 153 633 C 139 617 130 595 124 568 C 118 540 116 506 116 464 L 116 374 Z M 304 386 C 272 386 241 381 209 371 C 177 361 146 347 116 331 L 116 244 C 116 201 119 166 126 139 C 132 112 143 91 158 76 C 172 61 191 51 214 45 C 237 39 265 37 299 37 C 359 37 403 50 431 78 C 459 106 473 151 473 213 C 473 245 470 273 465 295 C 459 317 450 334 437 348 C 424 362 407 371 385 377 C 363 383 336 386 304 386 Z" />
<glyph unicode="7" horiz-adv-x="515" d="M 153 0 L 419 667 L 31 667 L 31 715 L 480 715 L 480 672 L 215 0 L 153 0 Z" />
<glyph unicode="8" horiz-adv-x="601" d="M 300 -11 C 211 -11 147 4 108 36 C 69 67 50 117 50 187 C 50 232 62 270 86 300 C 110 330 145 352 191 364 C 150 375 120 396 100 428 C 80 459 71 496 71 538 C 71 572 76 601 87 625 C 97 649 113 668 133 683 C 153 698 177 709 205 716 C 233 722 265 726 300 726 C 334 726 366 722 394 716 C 422 709 447 698 467 683 C 487 668 502 649 513 625 C 523 601 529 572 529 538 C 529 496 519 459 500 428 C 480 396 450 375 409 364 C 455 352 491 330 515 300 C 539 270 551 232 551 187 C 551 117 531 67 492 36 C 452 4 388 -11 300 -11 Z M 333 386 C 381 386 416 399 439 427 C 462 454 474 489 474 532 C 474 586 459 624 431 646 C 402 667 358 678 300 678 C 241 678 197 667 169 646 C 141 624 127 586 127 532 C 127 489 138 454 161 427 C 184 399 219 386 267 386 L 333 386 Z M 267 340 C 236 340 210 335 190 327 C 169 318 152 306 140 292 C 127 278 118 262 113 244 C 107 226 105 207 105 189 C 105 135 119 96 149 72 C 179 48 229 37 300 37 C 370 37 421 48 451 72 C 481 96 496 135 496 189 C 496 207 493 226 487 244 C 481 262 472 278 460 292 C 447 306 430 318 410 327 C 389 335 363 340 333 340 L 267 340 Z" />
<glyph unicode="9" horiz-adv-x="583" d="M 294 37 C 326 37 354 40 376 47 C 398 53 416 65 430 81 C 443 97 453 119 459 147 C 465 174 468 209 468 251 L 468 341 C 454 333 438 325 422 319 C 405 312 388 306 371 301 C 353 296 336 292 319 290 C 302 287 286 286 272 286 C 232 286 199 290 171 298 C 143 306 121 319 104 337 C 86 354 74 376 66 404 C 58 431 55 464 55 502 C 55 651 131 726 284 726 C 324 726 360 722 390 715 C 420 707 444 694 464 675 C 483 655 497 629 507 596 C 517 563 522 521 522 471 L 522 251 C 522 202 517 161 508 128 C 499 94 485 67 467 47 C 449 26 425 11 397 2 C 368 -6 334 -11 294 -11 C 217 -11 162 4 128 36 C 94 67 77 116 76 183 L 131 183 C 131 157 133 135 139 117 C 144 99 153 84 166 72 C 178 60 195 51 216 45 C 236 39 262 37 294 37 Z M 279 329 C 309 329 341 333 373 343 C 405 353 436 366 468 384 L 468 471 C 468 513 464 548 458 575 C 451 602 440 623 425 638 C 410 653 391 663 368 669 C 344 675 316 678 284 678 C 223 678 179 664 151 636 C 123 608 110 564 110 502 C 110 469 112 442 118 420 C 123 398 132 380 145 366 C 158 352 175 343 197 337 C 219 331 246 329 279 329 Z" />
<glyph unicode=":" horiz-adv-x="249" d="M 82 81 L 166 81 L 166 0 L 82 0 L 82 81 Z M 82 462 L 166 462 L 166 381 L 82 381 L 82 462 Z" />
<glyph unicode=";" horiz-adv-x="249" d="M 82 462 L 166 462 L 166 381 L 82 381 L 82 462 Z M 86 92 L 163 92 L 121 -132 L 86 -132 L 86 92 Z" />
<glyph unicode="&#x3C;" horiz-adv-x="420" d="M 61 358 L 298 737 L 360 737 L 123 358 L 360 -22 L 298 -22 L 61 358 Z" />
<glyph unicode="=" horiz-adv-x="565" d="M 505 217 L 505 168 L 61 168 L 61 217 L 505 217 Z M 505 437 L 505 388 L 61 388 L 61 437 L 505 437 Z" />
<glyph unicode="&#x3E;" horiz-adv-x="420" d="M 122 -22 L 61 -22 L 297 358 L 61 737 L 122 737 L 360 358 L 122 -22 Z" />
<glyph unicode="?" horiz-adv-x="543" d="M 55 539 C 55 567 59 593 67 616 C 75 639 87 659 104 675 C 121 691 143 704 169 713 C 195 721 227 726 265 726 C 349 726 408 709 444 675 C 479 641 497 587 497 515 C 497 447 479 396 444 360 C 408 324 356 305 288 302 L 282 216 L 249 216 L 237 348 C 274 348 306 351 332 357 C 358 363 379 373 395 387 C 411 400 422 417 430 438 C 437 459 441 485 441 515 C 441 543 438 568 432 588 C 426 608 416 625 402 639 C 388 652 370 662 348 668 C 326 674 298 678 265 678 C 236 678 212 674 192 668 C 172 662 156 653 144 641 C 132 629 123 614 118 597 C 112 580 110 561 110 539 L 55 539 Z M 223 81 L 307 81 L 307 0 L 223 0 L 223 81 Z" />
<glyph unicode="@" horiz-adv-x="884" d="M 82 356 C 82 402 89 444 103 482 C 117 519 139 551 169 577 C 199 603 236 624 282 638 C 327 652 380 659 442 659 C 502 659 555 652 601 638 C 646 624 683 603 713 577 C 743 551 765 519 780 482 C 794 444 802 402 802 356 L 802 196 C 802 149 794 107 780 70 C 765 32 743 0 713 -25 C 683 -51 646 -72 601 -86 C 555 -100 502 -107 442 -107 C 382 -107 329 -100 284 -86 C 239 -72 202 -51 172 -25 C 142 0 119 32 104 70 C 89 107 82 149 82 196 L 82 356 Z M 133 200 C 133 111 158 45 209 3 C 259 -39 337 -61 442 -61 C 546 -61 624 -39 675 3 C 725 45 751 111 751 200 L 751 352 C 751 440 725 506 675 549 C 624 591 546 613 442 613 C 337 613 259 591 209 549 C 158 506 133 440 133 352 L 133 200 Z M 269 178 C 269 136 282 105 308 86 C 334 67 369 58 413 58 C 441 58 467 62 489 71 C 511 80 532 94 553 113 L 568 67 L 596 67 L 596 361 C 596 410 584 444 560 464 C 536 484 497 494 443 494 C 418 494 396 492 377 488 C 358 484 342 478 329 469 C 315 459 305 447 298 431 C 291 415 288 394 288 370 L 334 370 C 334 402 342 423 359 435 C 376 447 404 453 443 453 C 464 453 482 451 496 448 C 510 444 521 439 529 432 C 537 424 542 415 545 403 C 548 391 550 377 550 361 L 550 306 L 398 295 C 354 291 321 279 300 259 C 279 239 269 212 269 178 Z M 416 99 C 384 99 359 104 342 116 C 325 128 317 148 317 178 C 317 200 323 218 335 232 C 347 246 370 255 402 258 L 550 272 L 550 152 C 530 134 510 121 489 112 C 468 103 444 99 416 99 Z" />
<glyph unicode="A" horiz-adv-x="579" d="M 428 196 L 150 196 L 91 0 L 33 0 L 254 715 L 324 715 L 546 0 L 487 0 L 428 196 Z M 165 244 L 414 244 L 290 652 L 288 652 L 165 244 Z" />
<glyph unicode="B" horiz-adv-x="617" d="M 94 715 L 318 715 C 358 715 393 711 421 705 C 449 698 471 687 489 672 C 507 657 520 638 528 615 C 536 591 540 563 540 531 C 540 488 529 452 508 423 C 486 393 457 374 421 364 C 471 352 507 332 529 304 C 551 276 562 239 562 191 C 562 155 557 124 548 100 C 538 75 524 55 505 41 C 486 26 462 15 434 9 C 405 3 372 0 334 0 L 94 0 L 94 715 Z M 148 340 L 148 48 L 334 48 C 366 48 394 50 416 56 C 438 62 455 71 469 83 C 483 95 492 110 498 128 C 504 146 507 168 507 194 C 507 242 493 279 467 303 C 440 327 398 340 341 340 L 148 340 Z M 148 386 L 341 386 C 366 386 388 389 406 397 C 424 404 438 414 450 427 C 462 439 470 454 476 472 C 481 489 484 508 484 528 C 484 554 481 575 475 593 C 469 611 459 625 446 636 C 433 647 416 655 395 660 C 373 664 348 667 318 667 L 148 667 L 148 386 Z" />
<glyph unicode="C" horiz-adv-x="595" d="M 310 37 C 340 37 365 39 387 44 C 408 48 425 56 439 68 C 453 80 463 95 470 115 C 476 134 480 158 480 188 L 535 188 C 535 114 516 63 479 33 C 441 3 385 -11 310 -11 C 268 -11 232 -7 202 1 C 172 9 147 23 127 43 C 107 63 93 89 84 123 C 75 156 71 198 71 249 L 71 468 C 71 516 75 556 83 589 C 91 621 105 648 124 668 C 143 688 168 703 198 712 C 228 721 266 726 310 726 C 385 726 441 711 479 681 C 516 651 535 600 535 527 L 480 527 C 480 555 476 579 470 599 C 463 619 453 634 439 646 C 425 657 408 665 387 670 C 365 675 340 678 310 678 C 276 678 247 674 224 668 C 200 661 181 650 167 634 C 153 618 142 596 136 569 C 130 542 127 509 127 469 L 127 248 C 127 207 130 173 136 146 C 142 119 152 97 166 81 C 180 65 198 53 222 47 C 245 40 274 37 310 37 Z" />
<glyph unicode="D" horiz-adv-x="629" d="M 94 0 L 94 715 L 296 715 C 337 715 374 711 407 704 C 439 696 467 683 489 664 C 511 644 528 618 540 585 C 552 552 558 510 558 460 L 558 255 C 558 203 552 161 540 129 C 528 96 511 70 489 51 C 467 31 439 18 407 11 C 374 3 337 0 296 0 L 94 0 Z M 296 48 C 328 48 357 50 383 56 C 409 62 430 72 448 88 C 466 103 479 124 489 151 C 498 178 503 213 503 255 L 503 460 C 503 502 498 536 489 563 C 479 590 466 611 448 627 C 430 642 409 652 383 658 C 357 664 328 667 296 667 L 148 667 L 148 48 L 296 48 Z" />
<glyph unicode="E" horiz-adv-x="555" d="M 444 340 L 148 340 L 148 48 L 484 48 L 484 0 L 94 0 L 94 715 L 484 715 L 484 667 L 148 667 L 148 386 L 444 386 L 444 340 Z" />
<glyph unicode="F" horiz-adv-x="513" d="M 425 340 L 148 340 L 148 0 L 94 0 L 94 715 L 463 715 L 463 667 L 148 667 L 148 386 L 425 386 L 425 340 Z" />
<glyph unicode="G" horiz-adv-x="628" d="M 310 726 C 385 726 441 711 479 681 C 516 651 535 600 535 527 L 480 527 C 480 555 476 579 470 599 C 463 619 453 634 439 646 C 425 657 408 665 387 670 C 365 675 340 678 310 678 C 276 678 247 674 224 668 C 200 661 181 650 167 634 C 153 618 142 596 136 569 C 130 542 127 509 127 469 L 127 248 C 127 207 130 173 136 146 C 142 119 152 97 166 81 C 180 65 198 53 222 47 C 245 40 274 37 310 37 C 374 37 421 50 449 77 C 477 104 491 139 491 183 L 491 340 L 327 340 L 327 386 L 546 386 L 546 0 L 514 0 L 496 66 C 486 54 476 43 465 33 C 454 23 441 15 427 9 C 412 3 395 -1 376 -5 C 357 -9 335 -11 310 -11 C 268 -11 232 -6 202 1 C 172 9 147 24 127 44 C 107 64 93 90 84 124 C 75 157 71 198 71 248 L 71 469 C 71 515 75 555 83 588 C 91 620 105 647 124 668 C 143 688 168 703 198 712 C 228 721 266 726 310 726 Z" />
<glyph unicode="H" horiz-adv-x="636" d="M 542 0 L 487 0 L 487 340 L 148 340 L 148 0 L 94 0 L 94 715 L 148 715 L 148 386 L 487 386 L 487 715 L 542 715 L 542 0 Z" />
<glyph unicode="I" horiz-adv-x="242" d="M 94 715 L 148 715 L 148 0 L 94 0 L 94 715 Z" />
<glyph unicode="J" horiz-adv-x="410" d="M 110 667 L 110 715 L 317 715 L 317 137 C 317 87 305 50 283 26 C 260 1 220 -11 163 -11 C 142 -11 122 -10 104 -8 C 85 -6 67 -4 50 0 L 50 51 C 68 46 86 42 104 40 C 122 38 142 37 162 37 C 179 37 194 38 207 41 C 219 43 230 48 238 56 C 246 64 252 74 256 87 C 260 100 262 117 262 137 L 262 667 L 110 667 Z" />
<glyph unicode="K" horiz-adv-x="546" d="M 148 0 L 94 0 L 94 715 L 148 715 L 148 391 L 435 715 L 506 715 L 198 371 L 513 0 L 440 0 L 148 346 L 148 0 Z" />
<glyph unicode="L" horiz-adv-x="470" d="M 94 715 L 148 715 L 148 48 L 420 48 L 420 0 L 94 0 L 94 715 Z" />
<glyph unicode="M" horiz-adv-x="805" d="M 402 67 L 404 67 L 621 715 L 712 715 L 712 0 L 657 0 L 657 662 L 431 0 L 374 0 L 148 662 L 148 0 L 94 0 L 94 715 L 184 715 L 402 67 Z" />
<glyph unicode="N" horiz-adv-x="648" d="M 554 0 L 482 0 L 148 639 L 148 0 L 94 0 L 94 715 L 166 715 L 499 76 L 499 715 L 554 715 L 554 0 Z" />
<glyph unicode="O" horiz-adv-x="609" d="M 488 468 C 488 510 484 545 478 573 C 471 600 460 621 446 637 C 431 652 412 663 389 669 C 365 675 337 678 305 678 C 272 678 244 675 221 669 C 197 663 178 652 164 637 C 149 621 138 600 131 573 C 124 545 121 510 121 468 L 121 248 C 121 204 124 169 131 142 C 138 114 149 93 164 78 C 178 62 197 52 221 46 C 244 40 272 37 305 37 C 337 37 365 40 389 46 C 412 52 431 62 446 78 C 460 93 471 114 478 142 C 484 169 488 204 488 248 L 488 468 Z M 543 248 C 543 197 538 155 528 122 C 518 88 504 62 484 42 C 464 22 440 9 410 1 C 380 -7 345 -11 305 -11 C 264 -11 229 -7 199 1 C 169 9 144 22 124 42 C 104 62 90 88 80 122 C 70 155 66 197 66 248 L 66 468 C 66 518 70 559 80 593 C 90 626 104 652 124 672 C 144 692 169 706 199 714 C 229 722 264 726 305 726 C 345 726 380 722 410 714 C 440 706 464 692 484 672 C 504 652 518 626 528 593 C 538 559 543 518 543 468 L 543 248 Z" />
<glyph unicode="P" horiz-adv-x="603" d="M 94 715 L 309 715 C 350 715 386 711 416 705 C 446 698 470 686 490 670 C 510 653 524 630 534 602 C 543 574 548 538 548 496 C 548 457 543 424 534 397 C 524 369 510 347 491 330 C 471 313 447 301 417 293 C 387 285 352 282 311 282 L 148 282 L 148 0 L 94 0 L 94 715 Z M 148 330 L 311 330 C 344 330 372 332 395 338 C 418 343 437 352 451 365 C 465 378 475 395 481 417 C 487 438 491 464 491 496 C 491 532 487 561 480 583 C 473 605 462 622 448 635 C 433 647 414 656 391 660 C 368 664 341 667 309 667 L 148 667 L 148 330 Z" />
<glyph unicode="Q" horiz-adv-x="620" d="M 549 248 C 549 199 544 158 536 126 C 527 94 514 68 496 48 C 478 28 456 14 429 5 C 402 -3 370 -8 334 -10 C 335 -33 341 -49 352 -59 C 363 -68 382 -73 408 -73 L 484 -73 L 464 -112 L 400 -112 C 368 -112 342 -104 321 -90 C 300 -75 289 -48 288 -10 C 251 -9 219 -4 192 4 C 164 12 142 27 124 47 C 106 67 92 93 84 125 C 75 157 71 198 71 248 L 71 468 C 71 518 75 560 85 594 C 95 627 109 653 129 673 C 149 693 174 706 204 714 C 234 722 269 726 310 726 C 350 726 386 722 416 714 C 446 706 470 693 490 673 C 510 653 524 627 534 594 C 544 560 549 518 549 468 L 549 248 Z M 494 468 C 494 510 490 545 483 573 C 476 600 465 621 451 637 C 436 652 417 663 394 669 C 370 675 342 678 310 678 C 277 678 249 675 226 669 C 202 663 183 652 169 637 C 154 621 143 600 137 573 C 130 545 127 510 127 468 L 127 248 C 127 204 130 169 137 142 C 143 114 154 93 169 78 C 183 62 202 52 226 46 C 249 40 277 37 310 37 C 342 37 370 40 394 46 C 417 52 436 62 451 78 C 465 93 476 114 483 142 C 490 169 494 204 494 248 L 494 468 Z" />
<glyph unicode="R" horiz-adv-x="616" d="M 94 715 L 309 715 C 350 715 386 711 416 705 C 446 698 470 686 490 670 C 510 653 524 630 534 602 C 543 574 548 538 548 496 C 548 436 537 389 515 357 C 493 325 459 303 413 291 L 555 0 L 496 0 L 359 283 C 351 282 344 282 336 282 C 328 282 319 282 311 282 L 148 282 L 148 0 L 94 0 L 94 715 Z M 148 330 L 311 330 C 344 330 372 332 395 338 C 418 343 437 352 451 365 C 465 378 475 395 481 417 C 487 438 491 464 491 496 C 491 532 487 561 480 583 C 473 605 462 622 448 635 C 433 647 414 656 391 660 C 368 664 341 667 309 667 L 148 667 L 148 330 Z" />
<glyph unicode="S" horiz-adv-x="595" d="M 294 343 C 251 347 215 355 187 365 C 159 375 136 389 119 405 C 101 421 89 440 82 462 C 74 484 71 509 71 537 C 71 599 89 646 126 678 C 163 710 219 726 293 726 C 330 726 363 722 391 715 C 419 708 442 697 461 681 C 479 665 493 645 503 620 C 512 594 517 563 517 527 L 462 527 C 462 555 458 579 452 599 C 445 619 435 634 421 646 C 407 657 390 665 369 670 C 347 675 322 678 293 678 C 235 678 193 666 167 644 C 141 621 128 585 128 537 C 128 515 130 497 136 481 C 141 465 150 451 163 439 C 176 427 194 418 216 411 C 238 403 265 398 299 394 C 348 388 388 380 419 369 C 449 358 473 344 491 327 C 508 309 520 289 526 265 C 532 241 535 213 535 182 C 535 150 530 121 522 97 C 514 73 500 53 481 37 C 462 21 437 9 407 1 C 377 -7 340 -11 297 -11 C 261 -11 229 -8 200 -2 C 171 3 146 13 126 28 C 105 42 89 62 78 88 C 66 113 61 145 61 184 L 116 184 C 116 154 120 129 128 110 C 136 91 147 76 163 65 C 179 54 198 47 220 43 C 242 39 268 37 297 37 C 331 37 360 40 384 46 C 407 52 426 61 440 73 C 454 85 464 100 470 118 C 476 136 479 158 479 182 C 479 206 477 228 473 246 C 469 264 461 279 448 292 C 435 304 416 315 392 323 C 368 331 335 338 294 343 Z" />
<glyph unicode="T" horiz-adv-x="491" d="M 219 667 L 28 667 L 28 715 L 463 715 L 463 667 L 274 667 L 274 0 L 219 0 L 219 667 Z" />
<glyph unicode="U" horiz-adv-x="627" d="M 137 715 L 137 219 C 137 185 140 156 146 133 C 152 109 163 90 177 76 C 191 62 209 52 231 46 C 253 40 281 37 313 37 C 345 37 373 40 395 46 C 417 52 436 62 450 76 C 464 90 474 109 480 133 C 486 156 490 185 490 219 L 490 715 L 544 715 L 544 219 C 544 173 539 136 529 106 C 519 76 504 53 484 36 C 464 18 440 6 412 0 C 383 -7 350 -11 313 -11 C 275 -11 242 -7 214 0 C 185 6 161 18 141 36 C 121 53 107 76 97 106 C 87 136 82 173 82 219 L 82 715 L 137 715 Z" />
<glyph unicode="V" horiz-adv-x="568" d="M 283 63 L 285 63 L 482 715 L 540 715 L 319 0 L 249 0 L 28 715 L 86 715 L 283 63 Z" />
<glyph unicode="W" horiz-adv-x="909" d="M 491 715 L 653 73 L 656 73 L 799 715 L 859 715 L 687 0 L 620 0 L 454 650 L 288 0 L 221 0 L 50 715 L 110 715 L 253 73 L 255 73 L 418 715 L 491 715 Z" />
<glyph unicode="X" horiz-adv-x="546" d="M 304 366 L 518 0 L 453 0 L 273 317 L 92 0 L 28 0 L 242 366 L 38 715 L 103 715 L 273 415 L 442 715 L 507 715 L 304 366 Z" />
<glyph unicode="Y" horiz-adv-x="535" d="M 240 288 L 28 715 L 88 715 L 266 342 L 268 342 L 447 715 L 507 715 L 295 288 L 295 0 L 240 0 L 240 288 Z" />
<glyph unicode="Z" horiz-adv-x="547" d="M 71 715 L 486 715 L 486 674 L 127 48 L 497 48 L 497 0 L 61 0 L 61 38 L 421 667 L 71 667 L 71 715 Z" />
<glyph unicode="[" horiz-adv-x="350" d="M 94 761 L 278 761 L 278 715 L 146 715 L 146 -88 L 278 -88 L 278 -134 L 94 -134 L 94 761 Z" />
<glyph unicode="\" horiz-adv-x="374" d="M 324 -22 L 272 -22 L 50 737 L 102 737 L 324 -22 Z" />
<glyph unicode="]" horiz-adv-x="350" d="M 256 -134 L 71 -134 L 71 -88 L 204 -88 L 204 715 L 71 715 L 71 761 L 256 761 L 256 -134 Z" />
<glyph unicode="^" horiz-adv-x="521" d="M 119 386 L 61 386 L 232 715 L 291 715 L 461 386 L 403 386 L 262 663 L 260 663 L 119 386 Z" />
<glyph unicode="_" horiz-adv-x="490" d="M 38 48 L 451 48 L 451 0 L 38 0 L 38 48 Z" />
<glyph unicode="`" horiz-adv-x="253" d="M 193 621 L 154 621 L 61 754 L 137 754 L 193 621 Z" />
<glyph unicode="a" horiz-adv-x="568" d="M 61 145 C 61 190 74 226 101 252 C 128 278 171 293 230 297 L 438 309 L 438 386 C 438 410 435 430 431 447 C 427 463 419 477 408 487 C 396 497 381 504 362 508 C 342 512 318 515 288 515 C 260 515 237 513 219 510 C 200 506 185 500 173 491 C 161 482 152 470 147 455 C 141 439 139 420 139 397 L 86 397 C 86 430 90 457 100 479 C 110 500 123 517 141 529 C 158 541 179 549 204 554 C 229 558 257 561 288 561 C 324 561 355 558 381 552 C 407 546 428 536 444 522 C 460 508 472 490 480 468 C 487 446 491 418 491 386 L 491 0 L 459 0 L 441 61 C 408 36 377 18 348 6 C 319 -5 286 -11 249 -11 C 220 -11 194 -8 171 -2 C 148 4 128 13 112 26 C 96 38 83 54 74 74 C 65 94 61 117 61 145 Z M 253 35 C 291 35 325 41 353 53 C 381 65 410 83 438 105 L 438 268 L 235 252 C 193 248 163 238 143 222 C 123 206 114 181 114 145 C 114 105 126 76 150 60 C 174 43 209 35 253 35 Z" />
<glyph unicode="b" horiz-adv-x="586" d="M 311 35 C 340 35 365 38 385 44 C 405 50 422 60 435 76 C 448 92 458 113 464 140 C 470 167 473 202 473 244 L 473 306 C 473 348 470 382 464 409 C 458 436 448 457 435 473 C 422 489 405 500 385 506 C 365 512 340 515 311 515 C 283 515 253 509 223 497 C 192 485 163 468 135 446 L 135 105 C 163 83 192 65 223 53 C 253 41 283 35 311 35 Z M 316 -11 C 286 -11 254 -4 221 10 C 188 24 158 41 132 61 L 114 0 L 82 0 L 82 737 L 135 737 L 135 492 C 161 511 191 527 223 541 C 255 554 286 561 316 561 C 349 561 379 557 405 550 C 431 542 453 529 471 510 C 489 490 502 464 512 431 C 521 398 526 356 526 306 L 526 244 C 526 192 521 150 512 118 C 502 85 489 59 471 40 C 453 20 431 7 405 0 C 379 -7 349 -11 316 -11 Z" />
<glyph unicode="c" horiz-adv-x="548" d="M 284 515 C 252 515 225 512 203 506 C 181 500 164 489 151 474 C 137 458 128 437 122 410 C 116 383 113 348 113 306 L 113 244 C 113 201 116 166 122 139 C 128 112 137 91 151 75 C 164 59 181 49 203 43 C 225 37 252 35 284 35 C 314 35 338 37 358 42 C 377 46 392 54 404 64 C 416 74 424 86 428 101 C 432 115 435 133 435 153 L 487 153 C 487 123 483 98 475 77 C 467 56 455 39 439 26 C 422 13 401 4 376 -2 C 350 -8 320 -11 284 -11 C 246 -11 213 -7 185 0 C 157 7 133 20 115 40 C 97 59 83 85 74 118 C 65 150 61 192 61 244 L 61 306 C 61 356 65 398 74 431 C 83 464 97 490 115 510 C 133 529 157 542 185 550 C 213 557 246 561 284 561 C 355 561 407 548 439 523 C 471 497 487 455 487 397 L 435 397 C 435 417 432 434 428 449 C 424 463 416 476 404 486 C 392 496 377 503 358 508 C 338 512 314 515 284 515 Z" />
<glyph unicode="d" horiz-adv-x="586" d="M 275 35 C 303 35 332 41 363 53 C 393 65 423 83 451 105 L 451 446 C 423 468 393 485 363 497 C 332 509 303 515 275 515 C 245 515 220 512 200 506 C 180 500 163 489 150 473 C 137 457 128 436 122 409 C 116 382 113 348 113 306 L 113 244 C 113 202 116 167 122 140 C 128 113 137 92 150 76 C 163 60 180 50 200 44 C 220 38 245 35 275 35 Z M 271 -11 C 237 -11 208 -7 182 0 C 156 7 134 20 116 40 C 98 59 84 85 75 118 C 65 150 61 192 61 244 L 61 306 C 61 356 65 398 75 431 C 84 464 98 490 116 510 C 134 529 156 542 182 550 C 208 557 237 561 271 561 C 301 561 331 554 363 541 C 395 527 424 511 451 492 L 451 737 L 504 737 L 504 0 L 472 0 L 454 61 C 440 51 426 41 411 33 C 396 24 381 16 365 10 C 349 3 333 -1 317 -5 C 301 -9 285 -11 271 -11 Z" />
<glyph unicode="e" horiz-adv-x="557" d="M 113 252 C 113 205 116 167 122 139 C 128 111 138 89 152 73 C 166 57 184 47 208 42 C 231 37 260 35 295 35 C 329 35 360 37 390 42 C 419 47 446 53 472 59 L 472 11 C 448 5 421 0 390 -4 C 359 -8 324 -11 286 -11 C 247 -11 213 -7 185 0 C 157 6 133 19 115 38 C 97 57 83 83 74 116 C 65 149 61 192 61 244 L 61 306 C 61 356 65 398 74 431 C 83 464 97 490 115 510 C 133 529 156 542 184 550 C 212 557 244 561 282 561 C 319 561 351 557 378 549 C 405 541 427 528 445 509 C 462 489 475 463 483 430 C 491 396 496 354 496 304 L 496 252 L 113 252 Z M 443 298 C 443 342 440 378 435 406 C 430 434 422 456 410 472 C 398 488 381 500 361 506 C 340 512 314 515 282 515 C 250 515 223 512 202 506 C 180 500 163 488 150 472 C 136 456 127 434 121 406 C 115 378 113 342 113 298 L 443 298 Z" />
<glyph unicode="f" horiz-adv-x="322" d="M 295 691 C 285 693 275 696 263 698 C 251 700 237 702 222 702 C 197 702 179 696 168 686 C 157 675 152 657 152 631 L 152 550 L 262 550 L 262 504 L 152 504 L 152 0 L 99 0 L 99 504 L 33 504 L 33 539 L 99 550 L 99 632 C 99 672 109 701 130 720 C 151 738 181 748 221 748 C 238 748 252 747 264 745 C 276 743 286 740 295 737 L 295 691 Z" />
<glyph unicode="g" horiz-adv-x="586" d="M 451 69 C 424 49 395 33 363 20 C 331 6 301 0 271 0 C 237 0 208 3 182 11 C 156 18 134 31 116 51 C 98 70 84 96 75 129 C 65 161 61 203 61 255 L 61 306 C 61 356 65 398 75 431 C 84 464 98 490 116 510 C 134 529 156 542 182 550 C 208 557 237 561 271 561 C 285 561 301 559 317 555 C 333 551 349 546 365 540 C 381 533 396 525 411 517 C 426 509 440 500 454 490 L 472 550 L 504 550 L 504 0 C 504 -35 500 -65 494 -90 C 488 -115 477 -136 462 -152 C 446 -168 426 -179 400 -187 C 374 -194 342 -198 304 -198 C 272 -198 242 -196 214 -192 C 186 -188 159 -183 134 -176 L 134 -125 C 162 -134 189 -141 217 -145 C 245 -149 274 -152 304 -152 C 331 -152 354 -149 373 -145 C 391 -140 406 -132 418 -121 C 430 -109 438 -94 443 -74 C 448 -54 451 -30 451 0 L 451 69 Z M 275 515 C 245 515 220 512 200 506 C 180 500 163 489 150 473 C 137 457 128 436 122 409 C 116 382 113 348 113 306 L 113 255 C 113 213 116 178 122 151 C 128 124 137 103 150 87 C 163 71 180 61 200 55 C 220 49 245 46 275 46 C 303 46 332 52 363 64 C 393 76 423 93 451 116 L 451 446 C 423 468 393 485 363 497 C 332 509 303 515 275 515 Z" />
<glyph unicode="h" horiz-adv-x="577" d="M 448 0 L 448 371 C 448 399 445 423 440 442 C 434 460 426 475 415 486 C 404 497 390 505 372 509 C 354 513 334 515 310 515 C 277 515 247 509 219 497 C 191 485 163 468 135 446 L 135 0 L 82 0 L 82 737 L 135 737 L 135 492 C 167 515 196 532 224 544 C 252 555 282 561 315 561 C 346 561 373 558 397 552 C 420 546 439 536 455 522 C 470 508 481 488 489 464 C 497 439 501 408 501 371 L 501 0 L 448 0 Z" />
<glyph unicode="i" horiz-adv-x="229" d="M 88 550 L 141 550 L 141 0 L 88 0 L 88 550 Z M 80 737 L 148 737 L 148 669 L 80 669 L 80 737 Z" />
<glyph unicode="j" horiz-adv-x="229" d="M 141 -73 C 141 -115 132 -146 116 -167 C 99 -187 70 -198 28 -198 C 0 -198 -24 -194 -46 -187 L -46 -141 C -35 -144 -24 -147 -12 -149 C 0 -151 11 -152 23 -152 C 48 -152 65 -145 74 -133 C 83 -120 88 -100 88 -74 L 88 550 L 141 550 L 141 -73 Z M 80 737 L 148 737 L 148 669 L 80 669 L 80 737 Z" />
<glyph unicode="k" horiz-adv-x="499" d="M 135 0 L 82 0 L 82 737 L 135 737 L 135 308 L 137 308 L 377 550 L 450 550 L 185 289 L 472 0 L 397 0 L 137 266 L 135 266 L 135 0 Z" />
<glyph unicode="l" horiz-adv-x="218" d="M 82 737 L 135 737 L 135 0 L 82 0 L 82 737 Z" />
<glyph unicode="m" horiz-adv-x="871" d="M 464 0 L 411 0 L 411 404 C 411 424 409 441 406 455 C 402 469 396 480 388 489 C 380 498 369 505 355 509 C 341 513 323 515 301 515 C 274 515 247 509 219 497 C 191 485 163 468 135 446 L 135 0 L 82 0 L 82 550 L 114 550 L 132 490 C 163 513 193 531 223 543 C 252 555 282 561 313 561 C 333 561 351 559 366 556 C 381 552 394 547 405 541 C 416 534 425 526 433 517 C 441 508 448 498 455 488 C 487 512 517 530 547 542 C 577 554 608 561 641 561 C 673 561 699 557 719 550 C 739 542 754 532 765 519 C 776 505 784 489 788 470 C 792 450 794 428 794 404 L 794 0 L 741 0 L 741 404 C 741 444 733 472 717 489 C 701 506 672 515 629 515 C 603 515 576 509 548 497 C 520 485 492 468 464 446 L 464 0 Z" />
<glyph unicode="n" horiz-adv-x="577" d="M 448 0 L 448 371 C 448 399 445 423 440 442 C 434 460 426 475 415 486 C 404 497 390 505 372 509 C 354 513 334 515 310 515 C 277 515 247 509 219 497 C 191 485 163 468 135 446 L 135 0 L 82 0 L 82 550 L 114 550 L 132 490 C 160 511 189 528 218 541 C 246 554 279 561 315 561 C 346 561 373 558 397 552 C 420 546 439 536 455 522 C 470 508 481 488 489 464 C 497 439 501 408 501 371 L 501 0 L 448 0 Z" />
<glyph unicode="o" horiz-adv-x="568" d="M 507 244 C 507 194 502 152 494 120 C 486 87 473 61 455 42 C 437 22 414 9 386 1 C 358 -7 324 -11 284 -11 C 244 -11 209 -7 181 1 C 153 9 130 22 112 42 C 94 61 81 87 73 120 C 65 152 61 194 61 244 L 61 306 C 61 356 65 397 73 430 C 81 462 94 488 112 508 C 130 527 153 541 181 549 C 209 557 244 561 284 561 C 324 561 358 557 386 549 C 414 541 437 527 455 508 C 473 488 486 462 494 430 C 502 397 507 356 507 306 L 507 244 Z M 454 306 C 454 348 451 382 445 409 C 439 436 430 457 417 473 C 404 489 387 500 365 506 C 343 512 316 515 284 515 C 251 515 224 512 202 506 C 180 500 163 489 150 473 C 136 457 127 436 121 409 C 115 382 113 348 113 306 L 113 244 C 113 202 115 167 121 140 C 127 113 136 92 150 76 C 163 60 180 50 202 44 C 224 38 251 35 284 35 C 316 35 343 38 365 44 C 387 50 404 60 417 76 C 430 92 439 113 445 140 C 451 167 454 202 454 244 L 454 306 Z" />
<glyph unicode="p" horiz-adv-x="592" d="M 311 515 C 283 515 253 509 223 497 C 192 485 163 468 135 446 L 135 105 C 163 83 192 65 223 53 C 253 41 283 35 311 35 C 340 35 365 38 385 44 C 405 50 422 60 435 76 C 448 92 458 113 464 140 C 470 167 473 202 473 244 L 473 306 C 473 348 470 382 464 409 C 458 436 448 457 435 473 C 422 489 405 500 385 506 C 365 512 340 515 311 515 Z M 316 561 C 349 561 379 557 405 550 C 431 542 453 529 471 510 C 489 490 502 464 512 431 C 521 398 526 356 526 306 L 526 244 C 526 192 521 150 512 118 C 502 85 489 59 471 40 C 453 20 431 7 405 0 C 379 -7 349 -11 316 -11 C 286 -11 255 -4 223 9 C 191 22 161 38 135 58 L 135 -187 L 82 -187 L 82 550 L 114 550 L 132 490 C 158 509 188 526 221 540 C 254 554 286 561 316 561 Z" />
<glyph unicode="q" horiz-adv-x="592" d="M 280 515 C 250 515 225 512 205 506 C 185 500 168 489 156 473 C 143 457 134 436 128 409 C 122 382 119 348 119 306 L 119 244 C 119 202 122 167 128 140 C 134 113 143 92 156 76 C 168 60 185 50 205 44 C 225 38 250 35 280 35 C 308 35 337 41 368 53 C 398 65 428 83 457 105 L 457 446 C 428 468 398 485 368 497 C 337 509 308 515 280 515 Z M 276 561 C 306 561 337 554 370 540 C 403 526 433 509 460 490 L 477 550 L 509 550 L 509 -187 L 457 -187 L 457 58 C 430 38 401 22 369 9 C 337 -4 306 -11 276 -11 C 242 -11 213 -7 187 0 C 161 7 139 20 121 40 C 103 59 89 85 80 118 C 70 150 66 192 66 244 L 66 306 C 66 356 70 398 80 431 C 89 464 103 490 121 510 C 139 529 161 542 187 550 C 213 557 242 561 276 561 Z" />
<glyph unicode="r" horiz-adv-x="337" d="M 298 508 C 278 508 261 506 246 504 C 231 501 217 497 205 492 C 192 486 180 479 169 471 C 158 463 147 453 135 442 L 135 0 L 82 0 L 82 550 L 114 550 L 132 490 C 155 510 180 527 206 541 C 232 554 262 561 298 561 L 298 508 Z" />
<glyph unicode="s" horiz-adv-x="540" d="M 108 153 C 108 132 110 114 116 100 C 121 85 130 73 142 63 C 154 53 170 46 190 42 C 210 37 236 35 266 35 C 302 35 332 37 354 43 C 376 49 392 57 404 67 C 415 77 422 89 426 103 C 430 117 432 132 432 150 C 432 166 429 181 424 193 C 418 205 409 215 397 223 C 385 231 368 237 347 242 C 326 246 300 250 269 253 C 199 259 148 274 116 297 C 84 320 68 356 68 406 C 68 461 86 501 122 525 C 158 549 207 561 269 561 C 338 561 389 548 421 523 C 453 497 470 455 470 397 L 417 397 C 417 439 405 469 383 487 C 361 505 323 515 269 515 C 221 515 185 507 159 492 C 133 476 121 448 121 406 C 121 368 133 342 159 328 C 184 313 223 303 277 299 C 317 295 351 289 378 282 C 404 275 426 266 442 254 C 458 242 469 228 475 211 C 481 194 485 174 485 150 C 485 127 482 106 477 86 C 471 66 461 49 446 35 C 430 21 408 9 379 1 C 350 -6 312 -11 266 -11 C 224 -11 189 -7 162 0 C 134 8 113 19 97 33 C 81 47 70 65 64 85 C 58 105 55 128 55 153 L 108 153 Z" />
<glyph unicode="t" horiz-adv-x="339" d="M 99 683 L 152 693 L 152 550 L 284 550 L 284 504 L 152 504 L 152 117 C 152 91 157 70 167 56 C 177 42 195 35 222 35 C 239 35 254 36 268 38 C 282 40 294 43 306 46 L 306 0 C 294 -3 282 -6 268 -8 C 254 -10 238 -11 221 -11 C 180 -11 149 0 129 19 C 109 39 99 72 99 117 L 99 504 L 33 504 L 33 539 L 99 550 L 99 683 Z" />
<glyph unicode="u" horiz-adv-x="572" d="M 130 550 L 130 179 C 130 149 132 125 138 107 C 143 89 151 74 162 63 C 173 52 187 45 205 41 C 222 37 243 35 267 35 C 299 35 330 41 358 53 C 386 65 414 83 442 105 L 442 550 L 495 550 L 495 0 L 463 0 L 446 61 C 430 49 415 38 401 29 C 387 20 372 13 358 7 C 343 1 328 -3 313 -6 C 297 -9 281 -11 263 -11 C 231 -11 203 -8 180 -2 C 156 3 137 13 122 27 C 106 41 95 61 88 86 C 80 110 77 141 77 179 L 77 550 L 130 550 Z" />
<glyph unicode="v" horiz-adv-x="524" d="M 261 55 L 263 55 L 438 550 L 496 550 L 293 0 L 233 0 L 28 550 L 86 550 L 261 55 Z" />
<glyph unicode="w" horiz-adv-x="805" d="M 438 550 L 581 53 L 704 550 L 761 550 L 614 0 L 548 0 L 403 498 L 257 0 L 191 0 L 44 550 L 101 550 L 224 53 L 367 550 L 438 550 Z" />
<glyph unicode="x" horiz-adv-x="524" d="M 92 0 L 28 0 L 230 286 L 42 550 L 109 550 L 262 326 L 415 550 L 482 550 L 294 286 L 496 0 L 431 0 L 262 245 L 92 0 Z" />
<glyph unicode="y" horiz-adv-x="535" d="M 33 550 L 91 550 L 266 63 L 268 63 L 443 550 L 502 550 L 266 -81 C 257 -103 248 -122 239 -137 C 229 -152 218 -164 206 -173 C 194 -182 180 -188 165 -192 C 149 -196 131 -198 111 -198 C 99 -198 90 -197 82 -196 C 74 -194 65 -192 56 -189 L 56 -142 C 73 -148 91 -152 111 -152 C 123 -152 135 -150 145 -148 C 155 -145 165 -140 173 -134 C 181 -128 189 -119 196 -108 C 203 -96 210 -82 217 -64 L 240 0 L 33 550 Z" />
<glyph unicode="z" horiz-adv-x="528" d="M 71 550 L 461 550 L 461 513 L 129 46 L 479 46 L 479 0 L 61 0 L 61 37 L 393 504 L 71 504 L 71 550 Z" />
<glyph unicode="{" horiz-adv-x="446" d="M 61 337 L 134 337 C 153 337 167 340 176 348 C 184 356 189 370 189 391 L 189 648 C 189 688 198 716 217 734 C 236 752 266 761 308 761 L 374 761 L 374 715 L 308 715 C 285 715 268 709 258 699 C 247 688 242 671 242 648 L 242 394 C 242 374 237 357 229 344 C 221 331 207 321 187 313 C 207 305 221 295 229 282 C 237 269 242 253 242 233 L 242 -21 C 242 -44 247 -61 258 -72 C 268 -82 285 -88 308 -88 L 374 -88 L 374 -134 L 308 -134 C 266 -134 236 -125 217 -107 C 198 -89 189 -61 189 -21 L 189 237 C 189 257 184 270 176 278 C 167 286 153 290 134 290 L 61 290 L 61 337 Z" />
<glyph unicode="|" horiz-adv-x="242" d="M 148 -132 L 94 -132 L 94 759 L 148 759 L 148 -132 Z" />
<glyph unicode="}" horiz-adv-x="446" d="M 385 290 L 311 290 C 291 290 277 286 269 278 C 260 270 256 257 256 237 L 256 -21 C 256 -61 246 -89 228 -107 C 209 -125 179 -134 137 -134 L 71 -134 L 71 -88 L 137 -88 C 160 -88 177 -82 188 -72 C 198 -61 204 -44 204 -21 L 204 233 C 204 253 208 269 216 282 C 224 295 238 305 258 313 C 238 321 224 331 216 344 C 208 357 204 374 204 394 L 204 648 C 204 671 198 688 188 699 C 177 709 160 715 137 715 L 71 715 L 71 761 L 137 761 C 179 761 209 752 228 734 C 246 716 256 688 256 648 L 256 391 C 256 370 260 356 269 348 C 277 340 291 337 311 337 L 385 337 L 385 290 Z" />
<glyph unicode="~" horiz-adv-x="494" d="M 157 726 C 179 726 197 721 213 712 C 228 702 242 692 255 681 C 267 669 280 659 292 650 C 304 640 318 636 334 636 C 357 636 373 642 383 654 C 393 666 398 687 398 715 L 444 715 C 444 669 434 636 416 618 C 397 599 371 590 337 590 C 315 590 297 594 282 604 C 266 613 252 623 239 635 C 226 646 213 656 201 666 C 189 675 175 680 159 680 C 136 680 120 673 110 661 C 100 649 96 629 96 601 L 50 601 C 50 647 59 679 78 698 C 96 716 123 726 157 726 Z" />
<glyph unicode=" " horiz-adv-x="127" d="" />
<glyph unicode="¡" horiz-adv-x="255" d="M 111 334 L 144 334 L 173 -165 L 82 -165 L 111 334 Z M 86 550 L 169 550 L 169 469 L 86 469 L 86 550 Z" />
<glyph unicode="¢" horiz-adv-x="548" d="M 284 597 C 252 597 225 594 203 588 C 181 582 164 572 151 556 C 137 540 128 519 122 492 C 116 465 113 430 113 388 L 113 327 C 113 284 116 249 122 222 C 128 195 137 174 151 158 C 164 142 181 132 203 126 C 225 120 252 118 284 118 C 314 118 338 120 358 125 C 377 129 392 136 404 146 C 416 156 424 168 428 183 C 432 197 435 215 435 235 L 487 235 C 487 179 472 139 444 113 C 416 87 371 73 309 71 L 309 -22 L 256 -22 L 256 71 C 222 73 193 78 169 87 C 144 95 124 109 108 129 C 92 148 80 174 72 206 C 64 238 61 279 61 327 L 61 388 C 61 436 64 476 72 508 C 80 540 92 565 108 585 C 124 604 144 618 169 627 C 193 635 222 640 256 642 L 256 737 L 309 737 L 309 642 C 371 639 416 625 444 600 C 472 574 487 534 487 480 L 435 480 C 435 500 432 517 428 532 C 424 546 416 558 404 568 C 392 578 377 585 358 590 C 338 594 314 597 284 597 Z" />
<glyph unicode="£" horiz-adv-x="608" d="M 148 536 C 148 506 151 476 158 448 C 164 419 172 391 182 364 L 329 364 L 329 318 L 196 318 C 202 296 208 276 212 256 C 216 236 219 216 219 198 C 219 162 213 132 203 107 C 192 81 175 62 152 48 L 389 48 C 427 48 453 56 469 72 C 485 88 493 114 493 150 L 548 150 C 548 100 536 62 514 37 C 491 12 450 0 392 0 L 50 0 L 50 48 L 56 48 C 98 49 127 63 145 89 C 163 115 172 151 172 198 C 172 216 169 236 164 256 C 158 276 152 296 145 318 L 50 318 L 50 364 L 129 364 C 119 390 111 418 104 446 C 97 474 94 504 94 536 C 94 570 98 599 108 623 C 118 647 131 666 149 682 C 166 697 187 708 212 715 C 237 722 265 726 296 726 C 366 726 418 711 450 681 C 482 651 498 603 498 537 L 443 537 C 443 589 431 626 408 647 C 385 667 348 678 296 678 C 246 678 208 667 184 645 C 160 623 148 587 148 536 Z" />
<glyph unicode="¤" horiz-adv-x="673" d="M 507 388 C 507 430 504 464 498 492 C 492 519 483 540 470 556 C 457 571 440 582 418 588 C 396 594 369 597 337 597 C 304 597 277 594 255 588 C 233 582 216 571 203 556 C 189 540 180 519 174 492 C 168 464 166 430 166 388 L 166 327 C 166 285 168 250 174 223 C 180 195 189 174 203 159 C 216 143 233 133 255 127 C 277 121 304 118 337 118 C 369 118 396 121 418 127 C 440 133 457 143 470 159 C 483 174 492 195 498 223 C 504 250 507 285 507 327 L 507 388 Z M 57 69 L 139 164 C 121 200 113 255 113 327 L 113 388 C 113 423 115 454 119 480 C 123 506 129 529 137 549 L 57 643 L 97 676 L 167 593 C 185 611 208 624 236 632 C 263 639 297 643 337 643 C 376 643 409 639 437 632 C 465 624 488 611 506 593 L 577 676 L 616 643 L 535 549 C 543 529 549 506 553 480 C 557 454 560 423 560 388 L 560 327 C 560 257 551 203 535 165 L 616 70 L 576 36 L 504 120 C 486 102 464 90 436 82 C 408 74 375 71 337 71 C 298 71 265 74 237 82 C 209 90 186 102 168 120 L 97 36 L 57 69 Z" />
<glyph unicode="¥" horiz-adv-x="579" d="M 262 125 L 262 205 L 99 205 L 99 249 L 262 249 L 262 288 L 50 715 L 110 715 L 288 342 L 290 342 L 469 715 L 529 715 L 317 288 L 317 249 L 480 249 L 480 205 L 317 205 L 317 125 L 480 125 L 480 81 L 317 81 L 317 0 L 262 0 L 262 81 L 99 81 L 99 125 L 262 125 Z" />
<glyph unicode="¦" horiz-adv-x="242" d="M 148 -132 L 94 -132 L 94 242 L 148 242 L 148 -132 Z M 148 385 L 94 385 L 94 759 L 148 759 L 148 385 Z" />
<glyph unicode="§" horiz-adv-x="610" d="M 539 252 C 539 219 530 191 514 168 C 497 144 475 125 448 111 C 473 97 491 80 503 59 C 514 38 520 13 520 -17 C 520 -69 502 -110 466 -141 C 430 -171 377 -187 309 -187 C 240 -187 187 -172 151 -144 C 115 -115 97 -67 97 0 L 151 0 C 151 -52 163 -89 189 -109 C 215 -129 255 -139 309 -139 C 363 -139 403 -128 428 -107 C 452 -86 465 -56 465 -17 C 465 1 462 17 457 31 C 451 45 442 56 430 66 C 417 75 400 82 380 88 C 360 94 335 98 305 102 C 259 106 222 113 192 123 C 162 132 138 144 120 159 C 102 173 89 191 82 212 C 74 233 71 258 71 287 C 71 319 79 347 96 371 C 113 394 135 413 162 427 C 136 440 118 457 107 478 C 95 499 90 525 90 555 C 90 607 108 648 144 679 C 180 710 232 726 301 726 C 369 726 422 711 459 683 C 495 654 514 606 514 539 L 460 539 C 460 591 447 627 421 647 C 395 667 355 678 301 678 C 247 678 207 667 182 646 C 157 625 145 595 145 555 C 145 536 147 520 153 507 C 159 493 168 482 180 473 C 192 463 209 456 230 450 C 250 444 276 440 306 437 C 350 431 388 424 418 415 C 448 406 472 394 490 380 C 508 365 520 347 528 326 C 535 305 539 280 539 252 Z M 300 392 C 266 394 236 400 211 408 C 181 397 160 381 147 361 C 133 341 127 316 127 287 C 127 265 129 246 135 230 C 140 214 149 201 163 190 C 177 179 195 170 219 164 C 243 157 273 151 310 147 C 327 145 343 142 358 140 C 372 137 386 134 399 131 C 428 141 449 156 463 176 C 477 196 484 222 484 252 C 484 274 481 293 476 309 C 470 325 461 338 447 349 C 433 360 414 369 390 376 C 366 382 336 388 300 392 Z" />
<glyph unicode="¨" horiz-adv-x="418" d="M 238 715 L 308 715 L 308 645 L 238 645 L 238 715 Z M 95 715 L 165 715 L 165 645 L 95 645 L 95 715 Z" />
<glyph unicode="©" horiz-adv-x="862" d="M 71 438 C 71 484 78 526 92 564 C 106 601 128 633 158 659 C 188 685 225 705 271 719 C 316 733 369 740 431 740 C 491 740 544 733 590 719 C 635 705 672 685 702 659 C 732 633 754 601 769 564 C 783 526 791 484 791 438 L 791 277 C 791 230 783 188 769 151 C 754 113 732 82 702 56 C 672 30 635 10 590 -4 C 544 -18 491 -25 431 -25 C 371 -25 318 -18 273 -4 C 228 10 191 30 161 56 C 131 82 108 113 93 151 C 78 188 71 230 71 277 L 71 438 Z M 122 282 C 122 193 147 127 198 85 C 248 42 326 21 431 21 C 535 21 613 42 664 85 C 714 127 740 193 740 282 L 740 433 C 740 521 714 587 664 630 C 613 672 535 694 431 694 C 326 694 248 672 198 630 C 147 587 122 521 122 433 L 122 282 Z M 591 422 C 591 444 588 463 583 480 C 577 496 568 510 556 522 C 544 533 527 542 507 548 C 486 554 460 557 430 557 C 371 557 327 544 299 520 C 270 495 256 451 256 389 L 256 323 C 256 261 270 217 300 193 C 330 168 373 156 430 156 C 462 156 488 159 509 165 C 529 171 546 180 558 192 C 570 203 578 217 583 234 C 588 250 591 269 591 290 L 538 290 C 538 274 536 260 533 249 C 530 237 525 228 517 221 C 509 214 498 209 484 206 C 470 203 452 202 430 202 C 408 202 389 204 373 208 C 357 212 345 218 336 228 C 326 238 319 250 315 266 C 311 281 309 300 309 323 L 309 389 C 309 413 311 432 316 448 C 320 464 327 476 337 485 C 347 494 359 500 375 504 C 390 508 408 510 430 510 C 452 510 470 508 484 505 C 498 502 509 497 517 490 C 525 483 530 474 533 463 C 536 451 538 438 538 422 L 591 422 Z" />
<glyph unicode="ª" horiz-adv-x="454" d="M 50 393 C 50 429 60 457 82 479 C 104 500 138 512 185 516 L 345 527 L 345 585 C 345 603 343 618 340 630 C 336 642 330 652 322 660 C 314 668 302 673 288 677 C 273 680 254 682 232 682 C 190 682 160 675 143 663 C 126 651 118 628 118 594 L 69 594 C 69 620 72 642 80 659 C 88 676 99 689 113 699 C 127 709 145 715 165 719 C 185 723 207 725 232 725 C 261 725 286 722 306 718 C 326 713 343 705 356 694 C 369 683 379 669 385 651 C 391 633 394 611 394 585 L 394 276 L 363 276 L 349 324 C 327 304 304 290 281 281 C 257 271 230 267 200 267 C 154 267 117 277 90 297 C 63 317 50 349 50 393 Z M 204 310 C 233 310 259 314 281 324 C 303 333 325 347 345 365 L 345 492 L 189 477 C 155 473 132 464 119 450 C 105 436 99 417 99 393 C 99 362 108 340 126 328 C 144 316 170 310 204 310 Z" />
<glyph unicode="«" horiz-adv-x="521" d="M 66 275 L 218 473 L 275 473 L 122 275 L 275 77 L 218 77 L 66 275 Z M 246 275 L 398 473 L 455 473 L 302 275 L 455 77 L 398 77 L 246 275 Z" />
<glyph unicode="¬" horiz-adv-x="565" d="M 505 438 L 505 157 L 457 157 L 457 389 L 61 389 L 61 438 L 505 438 Z" />
<glyph unicode="­" horiz-adv-x="374" d="M 50 340 L 324 340 L 324 294 L 50 294 L 50 340 Z" />
<glyph unicode="®" horiz-adv-x="862" d="M 71 438 C 71 484 78 526 92 564 C 106 601 128 633 158 659 C 188 685 225 705 271 719 C 316 733 369 740 431 740 C 491 740 544 733 590 719 C 635 705 672 685 702 659 C 732 633 754 601 769 564 C 783 526 791 484 791 438 L 791 277 C 791 230 783 188 769 151 C 754 113 732 82 702 56 C 672 30 635 10 590 -4 C 544 -18 491 -25 431 -25 C 371 -25 318 -18 273 -4 C 228 10 191 30 161 56 C 131 82 108 113 93 151 C 78 188 71 230 71 277 L 71 438 Z M 122 282 C 122 193 147 127 198 85 C 248 42 326 21 431 21 C 535 21 613 42 664 85 C 714 127 740 193 740 282 L 740 433 C 740 521 714 587 664 630 C 613 672 535 694 431 694 C 326 694 248 672 198 630 C 147 587 122 521 122 433 L 122 282 Z M 472 310 L 342 310 L 342 161 L 289 161 L 289 554 L 460 554 C 508 554 543 544 563 524 C 583 504 594 475 594 437 C 594 403 586 376 572 358 C 558 339 541 326 522 320 L 603 161 L 546 161 L 472 310 Z M 342 356 L 463 356 C 492 356 512 364 523 380 C 534 396 540 414 540 436 C 540 460 534 478 522 490 C 510 502 489 508 459 508 L 342 508 L 342 356 Z" />
<glyph unicode="¯" horiz-adv-x="418" d="M 82 693 L 335 693 L 335 647 L 82 647 L 82 693 Z" />
<glyph unicode="°" horiz-adv-x="462" d="M 402 552 C 402 518 398 489 391 467 C 383 445 372 427 358 414 C 344 400 326 391 305 386 C 283 380 259 378 231 378 C 203 378 178 380 157 386 C 135 391 118 400 104 414 C 90 427 79 445 72 467 C 64 489 61 518 61 552 C 61 585 64 613 72 635 C 79 657 90 675 104 689 C 118 702 135 711 157 717 C 178 723 203 726 231 726 C 259 726 283 723 305 717 C 326 711 344 702 358 689 C 372 675 383 657 391 635 C 398 613 402 585 402 552 Z M 351 552 C 351 578 348 599 344 616 C 339 632 332 646 322 656 C 312 666 300 672 285 676 C 269 680 251 682 231 682 C 209 682 191 680 176 676 C 161 672 149 666 139 656 C 129 646 122 632 118 616 C 113 599 111 578 111 552 C 111 526 113 504 118 487 C 122 470 129 457 139 447 C 149 437 161 431 176 427 C 191 423 209 422 231 422 C 251 422 269 423 285 427 C 300 431 312 437 322 447 C 332 457 339 470 344 487 C 348 504 351 526 351 552 Z" />
<glyph unicode="±" horiz-adv-x="565" d="M 61 0 L 61 48 L 505 48 L 505 0 L 61 0 Z M 61 402 L 258 402 L 258 599 L 307 599 L 307 402 L 505 402 L 505 353 L 307 353 L 307 154 L 258 154 L 258 353 L 61 353 L 61 402 Z" />
<glyph unicode="²" horiz-adv-x="358" d="M 78 451 C 78 470 82 487 91 501 C 99 515 110 527 123 537 C 136 547 150 557 166 565 C 181 573 195 582 208 592 C 221 601 232 611 241 622 C 249 633 254 647 254 663 C 254 685 249 703 240 715 C 230 727 211 733 183 733 C 156 733 137 726 127 714 C 117 701 112 682 112 656 L 77 656 C 77 690 85 716 101 735 C 117 753 145 763 183 763 C 223 763 251 754 266 736 C 281 718 289 693 289 663 C 289 644 284 628 276 615 C 268 601 257 590 245 580 C 232 570 218 561 204 553 C 189 545 175 536 162 527 C 148 518 137 508 128 498 C 118 487 113 474 112 459 L 291 459 L 291 428 L 78 428 L 78 451 Z" />
<glyph unicode="³" horiz-adv-x="367" d="M 66 661 C 66 697 75 723 93 739 C 111 755 137 763 172 763 C 209 763 236 755 253 740 C 269 725 278 700 278 665 C 278 647 274 633 268 622 C 262 611 253 603 242 597 C 257 591 269 582 277 570 C 285 558 290 542 290 521 C 290 486 280 461 260 445 C 240 429 212 422 175 422 C 137 422 109 429 92 445 C 75 461 67 488 67 526 L 102 526 C 102 498 107 479 117 469 C 127 458 147 453 175 453 C 202 453 222 458 235 468 C 248 478 255 496 255 521 C 255 536 251 550 243 562 C 235 574 221 581 201 581 L 150 581 L 150 610 L 201 610 C 209 610 215 611 221 615 C 226 619 230 623 234 629 C 237 634 239 640 241 646 C 242 652 243 659 243 665 C 243 690 237 708 227 718 C 216 728 198 733 172 733 C 147 733 129 727 118 717 C 106 706 101 687 101 661 L 66 661 Z" />
<glyph unicode="´" horiz-adv-x="253" d="M 116 754 L 193 754 L 99 621 L 61 621 L 116 754 Z" />
<glyph unicode="µ" horiz-adv-x="572" d="M 495 550 L 495 179 C 495 141 491 110 484 86 C 476 61 465 41 450 27 C 434 13 415 3 392 -2 C 368 -8 341 -11 309 -11 C 276 -11 246 -5 219 6 C 191 17 162 34 130 58 L 130 -187 L 77 -187 L 77 550 L 130 550 L 130 105 C 158 83 186 65 214 53 C 242 41 272 35 305 35 C 329 35 349 37 367 41 C 384 45 398 52 409 63 C 420 74 428 89 434 107 C 439 125 442 149 442 179 L 442 550 L 495 550 Z" />
<glyph unicode="¶" horiz-adv-x="761" d="M 61 447 C 61 497 67 540 79 574 C 91 608 108 636 131 657 C 154 678 182 693 216 702 C 250 710 289 715 333 715 L 668 715 L 668 -187 L 613 -187 L 613 667 L 525 667 L 525 -187 L 470 -187 L 470 187 L 331 187 C 239 187 171 207 127 248 C 83 289 61 355 61 447 Z" />
<glyph unicode="·" horiz-adv-x="249" d="M 82 405 L 166 405 L 166 323 L 82 323 L 82 405 Z" />
<glyph unicode="¸" horiz-adv-x="263" d="M 140 -55 C 160 -57 177 -63 193 -74 C 209 -85 217 -103 217 -129 C 217 -159 207 -179 187 -191 C 167 -202 138 -208 102 -208 L 47 -208 L 47 -171 L 112 -171 C 133 -171 148 -167 156 -159 C 164 -151 169 -141 169 -129 C 169 -115 164 -105 156 -98 C 148 -90 133 -87 112 -87 L 91 -87 L 117 0 L 155 0 L 140 -55 Z" />
<glyph unicode="¹" horiz-adv-x="256" d="M 133 428 L 133 722 L 77 722 L 77 744 L 147 759 L 168 759 L 168 428 L 133 428 Z" />
<glyph unicode="º" horiz-adv-x="477" d="M 417 473 C 417 433 413 399 407 373 C 400 347 389 326 375 310 C 361 294 342 283 320 277 C 298 271 271 268 239 268 C 207 268 179 271 157 277 C 134 283 116 294 102 310 C 88 326 77 347 71 373 C 64 399 61 433 61 473 L 61 521 C 61 561 64 594 71 620 C 77 646 88 667 102 683 C 116 699 134 710 157 716 C 179 722 207 726 239 726 C 271 726 298 722 320 716 C 342 710 361 699 375 683 C 389 667 400 646 407 620 C 413 594 417 561 417 521 L 417 473 Z M 370 521 C 370 553 367 580 363 601 C 359 622 351 639 341 651 C 331 663 317 671 301 676 C 284 680 263 683 239 683 C 214 683 193 680 177 676 C 160 671 146 663 136 651 C 126 639 118 622 114 601 C 110 580 108 553 108 521 L 108 473 C 108 440 110 413 114 392 C 118 371 126 355 136 343 C 146 331 160 322 177 318 C 193 313 214 311 239 311 C 263 311 284 313 301 318 C 317 322 331 331 341 343 C 351 355 359 371 363 392 C 367 413 370 440 370 473 L 370 521 Z" />
<glyph unicode="»" horiz-adv-x="521" d="M 304 77 L 246 77 L 399 275 L 246 473 L 304 473 L 455 275 L 304 77 Z M 123 77 L 66 77 L 219 275 L 66 473 L 123 473 L 275 275 L 123 77 Z" />
<glyph unicode="¼" horiz-adv-x="701" d="M 561 715 L 599 715 L 116 0 L 77 0 L 561 715 Z M 150 384 L 150 678 L 94 678 L 94 700 L 164 715 L 185 715 L 185 384 L 150 384 Z M 532 79 L 369 79 L 369 102 L 528 331 L 566 331 L 566 110 L 606 110 L 606 79 L 566 79 L 566 0 L 532 0 L 532 79 Z M 532 110 L 532 289 L 406 110 L 532 110 Z" />
<glyph unicode="½" horiz-adv-x="702" d="M 561 715 L 599 715 L 116 0 L 77 0 L 561 715 Z M 150 384 L 150 678 L 94 678 L 94 700 L 164 715 L 185 715 L 185 384 L 150 384 Z M 411 23 C 411 42 415 59 424 73 C 432 87 443 99 456 109 C 469 119 483 129 499 137 C 514 145 528 154 541 164 C 554 173 565 183 574 194 C 582 205 587 219 587 235 C 587 257 582 275 573 287 C 563 299 544 305 516 305 C 489 305 471 298 461 286 C 451 273 446 254 446 228 L 410 228 C 410 262 418 288 434 307 C 450 325 478 335 516 335 C 556 335 584 326 600 308 C 615 290 623 265 623 235 C 623 215 618 199 610 186 C 602 173 591 162 579 152 C 566 142 552 133 537 125 C 522 117 508 108 495 99 C 482 90 471 80 462 70 C 452 59 447 46 446 31 L 625 31 L 625 0 L 411 0 L 411 23 Z" />
<glyph unicode="¾" horiz-adv-x="741" d="M 602 715 L 640 715 L 156 0 L 118 0 L 602 715 Z M 573 79 L 409 79 L 409 102 L 569 331 L 607 331 L 607 110 L 647 110 L 647 79 L 607 79 L 607 0 L 573 0 L 573 79 Z M 573 110 L 573 289 L 447 110 L 573 110 Z M 77 617 C 77 653 86 679 104 695 C 122 711 148 719 183 719 C 220 719 247 711 264 696 C 280 681 289 656 289 621 C 289 603 285 589 279 578 C 273 567 264 559 253 553 C 268 547 280 538 288 526 C 296 514 301 498 301 477 C 301 442 291 417 271 401 C 251 385 223 378 186 378 C 148 378 120 385 103 401 C 86 417 78 444 78 482 L 113 482 C 113 454 118 435 128 425 C 138 414 158 409 186 409 C 213 409 233 414 246 424 C 259 434 266 452 266 477 C 266 492 262 506 254 518 C 246 530 232 537 212 537 L 161 537 L 161 566 L 212 566 C 220 566 226 567 232 571 C 237 575 241 579 245 585 C 248 590 250 596 252 602 C 253 608 254 615 254 621 C 254 646 248 664 238 674 C 227 684 209 689 183 689 C 158 689 140 683 129 673 C 117 662 112 643 112 617 L 77 617 Z" />
<glyph unicode="¿" horiz-adv-x="563" d="M 503 11 C 503 -46 486 -91 453 -125 C 420 -159 367 -176 293 -176 C 251 -176 215 -171 185 -163 C 155 -155 131 -142 113 -125 C 95 -107 81 -85 73 -59 C 65 -32 61 -1 61 35 C 61 102 78 153 113 189 C 148 225 200 244 269 248 L 276 334 L 309 334 L 321 202 C 283 202 251 198 225 192 C 199 186 178 176 162 163 C 146 149 134 132 127 111 C 120 90 117 65 117 35 C 117 6 119 -18 125 -38 C 131 -58 140 -75 154 -89 C 168 -102 186 -112 209 -118 C 231 -124 259 -128 293 -128 C 349 -128 389 -115 413 -91 C 436 -66 448 -32 448 11 L 503 11 Z M 334 469 L 251 469 L 251 550 L 334 550 L 334 469 Z" />
<glyph unicode="À" horiz-adv-x="579" d="M 428 196 L 150 196 L 91 0 L 33 0 L 254 715 L 324 715 L 546 0 L 487 0 L 428 196 Z M 165 244 L 414 244 L 290 652 L 288 652 L 165 244 Z M 314 786 L 275 786 L 182 919 L 258 919 L 314 786 Z" />
<glyph unicode="Á" horiz-adv-x="579" d="M 428 196 L 150 196 L 91 0 L 33 0 L 254 715 L 324 715 L 546 0 L 487 0 L 428 196 Z M 165 244 L 414 244 L 290 652 L 288 652 L 165 244 Z M 329 919 L 406 919 L 312 786 L 274 786 L 329 919 Z" />
<glyph unicode="Â" horiz-adv-x="579" d="M 428 196 L 150 196 L 91 0 L 33 0 L 254 715 L 324 715 L 546 0 L 487 0 L 428 196 Z M 165 244 L 414 244 L 290 652 L 288 652 L 165 244 Z M 396 786 L 356 786 L 289 873 L 222 786 L 183 786 L 253 919 L 326 919 L 396 786 Z" />
<glyph unicode="Ã" horiz-adv-x="579" d="M 428 196 L 150 196 L 91 0 L 33 0 L 254 715 L 324 715 L 546 0 L 487 0 L 428 196 Z M 165 244 L 414 244 L 290 652 L 288 652 L 165 244 Z M 353 802 C 337 802 324 805 313 811 C 302 817 292 823 283 831 C 274 838 265 845 256 851 C 247 857 237 860 227 860 C 209 860 197 854 191 844 C 185 834 183 822 183 808 L 144 808 C 144 844 151 869 166 883 C 180 897 200 904 225 904 C 240 904 253 901 264 895 C 275 889 285 882 294 875 C 303 867 312 861 321 855 C 329 849 339 846 351 846 C 369 846 380 851 386 861 C 392 871 395 884 395 898 L 434 898 C 434 862 426 837 412 823 C 397 809 377 802 353 802 Z" />
<glyph unicode="Ä" horiz-adv-x="579" d="M 428 196 L 150 196 L 91 0 L 33 0 L 254 715 L 324 715 L 546 0 L 487 0 L 428 196 Z M 165 244 L 414 244 L 290 652 L 288 652 L 165 244 Z M 326 880 L 396 880 L 396 810 L 326 810 L 326 880 Z M 183 880 L 253 880 L 253 810 L 183 810 L 183 880 Z" />
<glyph unicode="Å" horiz-adv-x="579" d="M 428 196 L 150 196 L 91 0 L 33 0 L 254 715 L 324 715 L 546 0 L 487 0 L 428 196 Z M 165 244 L 414 244 L 290 652 L 288 652 L 165 244 Z M 390 868 C 390 838 381 816 363 802 C 345 787 320 780 289 780 C 258 780 234 787 216 802 C 198 816 189 838 189 868 C 189 897 198 919 216 934 C 234 948 258 956 289 956 C 320 956 345 948 363 934 C 381 919 390 897 390 868 Z M 346 868 C 346 883 341 895 332 903 C 323 911 309 916 289 916 C 251 916 233 900 233 868 C 233 834 251 818 289 818 C 309 818 323 822 332 831 C 341 839 346 852 346 868 Z" />
<glyph unicode="Æ" horiz-adv-x="947" d="M 836 340 L 540 340 L 540 48 L 876 48 L 876 0 L 485 0 L 485 196 L 204 196 L 89 0 L 28 0 L 451 715 L 876 715 L 876 667 L 540 667 L 540 386 L 836 386 L 836 340 Z M 232 244 L 485 244 L 485 667 L 483 667 L 232 244 Z" />
<glyph unicode="Ç" horiz-adv-x="595" d="M 310 37 C 340 37 365 39 387 44 C 408 48 425 56 439 68 C 453 80 463 95 470 115 C 476 134 480 158 480 188 L 535 188 C 535 152 530 121 521 96 C 512 70 499 50 481 34 C 463 18 440 7 413 0 C 385 -6 353 -10 317 -11 L 305 -55 C 325 -57 342 -63 358 -74 C 374 -85 382 -103 382 -129 C 382 -159 372 -179 352 -191 C 332 -202 303 -208 267 -208 L 212 -208 L 212 -171 L 277 -171 C 298 -171 313 -167 321 -159 C 329 -151 334 -141 334 -129 C 334 -115 329 -105 321 -98 C 313 -90 298 -87 277 -87 L 256 -87 L 278 -10 C 242 -8 210 -2 184 7 C 158 17 136 32 120 52 C 103 72 91 98 83 130 C 75 162 71 201 71 249 L 71 468 C 71 516 75 556 83 589 C 91 621 105 648 124 668 C 143 688 168 703 198 712 C 228 721 266 726 310 726 C 385 726 441 711 479 681 C 516 651 535 600 535 527 L 480 527 C 480 555 476 579 470 599 C 463 619 453 634 439 646 C 425 657 408 665 387 670 C 365 675 340 678 310 678 C 276 678 247 674 224 668 C 200 661 181 650 167 634 C 153 618 142 596 136 569 C 130 542 127 509 127 469 L 127 248 C 127 207 130 173 136 146 C 142 119 152 97 166 81 C 180 65 198 53 222 47 C 245 40 274 37 310 37 Z" />
<glyph unicode="È" horiz-adv-x="555" d="M 444 340 L 148 340 L 148 48 L 484 48 L 484 0 L 94 0 L 94 715 L 484 715 L 484 667 L 148 667 L 148 386 L 444 386 L 444 340 Z M 343 786 L 304 786 L 211 919 L 287 919 L 343 786 Z" />
<glyph unicode="É" horiz-adv-x="555" d="M 444 340 L 148 340 L 148 48 L 484 48 L 484 0 L 94 0 L 94 715 L 484 715 L 484 667 L 148 667 L 148 386 L 444 386 L 444 340 Z M 335 919 L 412 919 L 318 786 L 280 786 L 335 919 Z" />
<glyph unicode="Ê" horiz-adv-x="555" d="M 444 340 L 148 340 L 148 48 L 484 48 L 484 0 L 94 0 L 94 715 L 484 715 L 484 667 L 148 667 L 148 386 L 444 386 L 444 340 Z M 406 786 L 366 786 L 299 873 L 232 786 L 193 786 L 263 919 L 336 919 L 406 786 Z" />
<glyph unicode="Ë" horiz-adv-x="555" d="M 444 340 L 148 340 L 148 48 L 484 48 L 484 0 L 94 0 L 94 715 L 484 715 L 484 667 L 148 667 L 148 386 L 444 386 L 444 340 Z M 334 880 L 404 880 L 404 810 L 334 810 L 334 880 Z M 191 880 L 261 880 L 261 810 L 191 810 L 191 880 Z" />
<glyph unicode="Ì" horiz-adv-x="242" d="M 94 715 L 148 715 L 148 0 L 94 0 L 94 715 Z M 141 786 L 102 786 L 9 919 L 85 919 L 141 786 Z" />
<glyph unicode="Í" horiz-adv-x="242" d="M 94 715 L 148 715 L 148 0 L 94 0 L 94 715 Z M 157 919 L 234 919 L 140 786 L 102 786 L 157 919 Z" />
<glyph unicode="Î" horiz-adv-x="242" d="M 94 715 L 148 715 L 148 0 L 94 0 L 94 715 Z M 228 786 L 188 786 L 121 873 L 54 786 L 15 786 L 85 919 L 158 919 L 228 786 Z" />
<glyph unicode="Ï" horiz-adv-x="242" d="M 94 715 L 148 715 L 148 0 L 94 0 L 94 715 Z M 158 880 L 228 880 L 228 810 L 158 810 L 158 880 Z M 15 880 L 85 880 L 85 810 L 15 810 L 15 880 Z" />
<glyph unicode="Ð" horiz-adv-x="629" d="M 94 0 L 94 340 L 28 340 L 28 386 L 94 386 L 94 715 L 296 715 C 337 715 374 711 407 704 C 439 696 467 683 489 664 C 511 644 528 618 540 585 C 552 552 558 510 558 460 L 558 255 C 558 203 552 161 540 129 C 528 96 511 70 489 51 C 467 31 439 18 407 11 C 374 3 337 0 296 0 L 94 0 Z M 296 48 C 328 48 357 50 383 56 C 409 62 430 72 448 88 C 466 103 479 124 489 151 C 498 178 503 213 503 255 L 503 460 C 503 502 498 536 489 563 C 479 590 466 611 448 627 C 430 642 409 652 383 658 C 357 664 328 667 296 667 L 148 667 L 148 386 L 280 386 L 280 340 L 148 340 L 148 48 L 296 48 Z" />
<glyph unicode="Ñ" horiz-adv-x="648" d="M 554 0 L 482 0 L 148 639 L 148 0 L 94 0 L 94 715 L 166 715 L 499 76 L 499 715 L 554 715 L 554 0 Z M 388 802 C 372 802 359 805 348 811 C 337 817 327 823 318 831 C 309 838 300 845 291 851 C 282 857 272 860 262 860 C 244 860 232 854 226 844 C 220 834 218 822 218 808 L 179 808 C 179 844 186 869 201 883 C 215 897 235 904 260 904 C 275 904 288 901 299 895 C 310 889 320 882 329 875 C 338 867 347 861 356 855 C 364 849 374 846 386 846 C 404 846 415 851 421 861 C 427 871 430 884 430 898 L 469 898 C 469 862 461 837 447 823 C 432 809 412 802 388 802 Z" />
<glyph unicode="Ò" horiz-adv-x="609" d="M 488 468 C 488 510 484 545 478 573 C 471 600 460 621 446 637 C 431 652 412 663 389 669 C 365 675 337 678 305 678 C 272 678 244 675 221 669 C 197 663 178 652 164 637 C 149 621 138 600 131 573 C 124 545 121 510 121 468 L 121 248 C 121 204 124 169 131 142 C 138 114 149 93 164 78 C 178 62 197 52 221 46 C 244 40 272 37 305 37 C 337 37 365 40 389 46 C 412 52 431 62 446 78 C 460 93 471 114 478 142 C 484 169 488 204 488 248 L 488 468 Z M 543 248 C 543 197 538 155 528 122 C 518 88 504 62 484 42 C 464 22 440 9 410 1 C 380 -7 345 -11 305 -11 C 264 -11 229 -7 199 1 C 169 9 144 22 124 42 C 104 62 90 88 80 122 C 70 155 66 197 66 248 L 66 468 C 66 518 70 559 80 593 C 90 626 104 652 124 672 C 144 692 169 706 199 714 C 229 722 264 726 305 726 C 345 726 380 722 410 714 C 440 706 464 692 484 672 C 504 652 518 626 528 593 C 538 559 543 518 543 468 L 543 248 Z M 325 786 L 286 786 L 193 919 L 269 919 L 325 786 Z" />
<glyph unicode="Ó" horiz-adv-x="609" d="M 488 468 C 488 510 484 545 478 573 C 471 600 460 621 446 637 C 431 652 412 663 389 669 C 365 675 337 678 305 678 C 272 678 244 675 221 669 C 197 663 178 652 164 637 C 149 621 138 600 131 573 C 124 545 121 510 121 468 L 121 248 C 121 204 124 169 131 142 C 138 114 149 93 164 78 C 178 62 197 52 221 46 C 244 40 272 37 305 37 C 337 37 365 40 389 46 C 412 52 431 62 446 78 C 460 93 471 114 478 142 C 484 169 488 204 488 248 L 488 468 Z M 543 248 C 543 197 538 155 528 122 C 518 88 504 62 484 42 C 464 22 440 9 410 1 C 380 -7 345 -11 305 -11 C 264 -11 229 -7 199 1 C 169 9 144 22 124 42 C 104 62 90 88 80 122 C 70 155 66 197 66 248 L 66 468 C 66 518 70 559 80 593 C 90 626 104 652 124 672 C 144 692 169 706 199 714 C 229 722 264 726 305 726 C 345 726 380 722 410 714 C 440 706 464 692 484 672 C 504 652 518 626 528 593 C 538 559 543 518 543 468 L 543 248 Z M 348 919 L 425 919 L 331 786 L 293 786 L 348 919 Z" />
<glyph unicode="Ô" horiz-adv-x="609" d="M 488 468 C 488 510 484 545 478 573 C 471 600 460 621 446 637 C 431 652 412 663 389 669 C 365 675 337 678 305 678 C 272 678 244 675 221 669 C 197 663 178 652 164 637 C 149 621 138 600 131 573 C 124 545 121 510 121 468 L 121 248 C 121 204 124 169 131 142 C 138 114 149 93 164 78 C 178 62 197 52 221 46 C 244 40 272 37 305 37 C 337 37 365 40 389 46 C 412 52 431 62 446 78 C 460 93 471 114 478 142 C 484 169 488 204 488 248 L 488 468 Z M 543 248 C 543 197 538 155 528 122 C 518 88 504 62 484 42 C 464 22 440 9 410 1 C 380 -7 345 -11 305 -11 C 264 -11 229 -7 199 1 C 169 9 144 22 124 42 C 104 62 90 88 80 122 C 70 155 66 197 66 248 L 66 468 C 66 518 70 559 80 593 C 90 626 104 652 124 672 C 144 692 169 706 199 714 C 229 722 264 726 305 726 C 345 726 380 722 410 714 C 440 706 464 692 484 672 C 504 652 518 626 528 593 C 538 559 543 518 543 468 L 543 248 Z M 411 786 L 371 786 L 304 873 L 237 786 L 198 786 L 268 919 L 341 919 L 411 786 Z" />
<glyph unicode="Õ" horiz-adv-x="609" d="M 488 468 C 488 510 484 545 478 573 C 471 600 460 621 446 637 C 431 652 412 663 389 669 C 365 675 337 678 305 678 C 272 678 244 675 221 669 C 197 663 178 652 164 637 C 149 621 138 600 131 573 C 124 545 121 510 121 468 L 121 248 C 121 204 124 169 131 142 C 138 114 149 93 164 78 C 178 62 197 52 221 46 C 244 40 272 37 305 37 C 337 37 365 40 389 46 C 412 52 431 62 446 78 C 460 93 471 114 478 142 C 484 169 488 204 488 248 L 488 468 Z M 543 248 C 543 197 538 155 528 122 C 518 88 504 62 484 42 C 464 22 440 9 410 1 C 380 -7 345 -11 305 -11 C 264 -11 229 -7 199 1 C 169 9 144 22 124 42 C 104 62 90 88 80 122 C 70 155 66 197 66 248 L 66 468 C 66 518 70 559 80 593 C 90 626 104 652 124 672 C 144 692 169 706 199 714 C 229 722 264 726 305 726 C 345 726 380 722 410 714 C 440 706 464 692 484 672 C 504 652 518 626 528 593 C 538 559 543 518 543 468 L 543 248 Z M 368 802 C 352 802 339 805 328 811 C 317 817 307 823 298 831 C 289 838 280 845 271 851 C 262 857 252 860 242 860 C 224 860 212 854 206 844 C 200 834 198 822 198 808 L 159 808 C 159 844 166 869 181 883 C 195 897 215 904 240 904 C 255 904 268 901 279 895 C 290 889 300 882 309 875 C 318 867 327 861 336 855 C 344 849 354 846 366 846 C 384 846 395 851 401 861 C 407 871 410 884 410 898 L 449 898 C 449 862 441 837 427 823 C 412 809 392 802 368 802 Z" />
<glyph unicode="Ö" horiz-adv-x="609" d="M 488 468 C 488 510 484 545 478 573 C 471 600 460 621 446 637 C 431 652 412 663 389 669 C 365 675 337 678 305 678 C 272 678 244 675 221 669 C 197 663 178 652 164 637 C 149 621 138 600 131 573 C 124 545 121 510 121 468 L 121 248 C 121 204 124 169 131 142 C 138 114 149 93 164 78 C 178 62 197 52 221 46 C 244 40 272 37 305 37 C 337 37 365 40 389 46 C 412 52 431 62 446 78 C 460 93 471 114 478 142 C 484 169 488 204 488 248 L 488 468 Z M 543 248 C 543 197 538 155 528 122 C 518 88 504 62 484 42 C 464 22 440 9 410 1 C 380 -7 345 -11 305 -11 C 264 -11 229 -7 199 1 C 169 9 144 22 124 42 C 104 62 90 88 80 122 C 70 155 66 197 66 248 L 66 468 C 66 518 70 559 80 593 C 90 626 104 652 124 672 C 144 692 169 706 199 714 C 229 722 264 726 305 726 C 345 726 380 722 410 714 C 440 706 464 692 484 672 C 504 652 518 626 528 593 C 538 559 543 518 543 468 L 543 248 Z M 341 880 L 411 880 L 411 810 L 341 810 L 341 880 Z M 198 880 L 268 880 L 268 810 L 198 810 L 198 880 Z" />
<glyph unicode="×" horiz-adv-x="517" d="M 61 139 L 224 302 L 61 465 L 95 499 L 258 337 L 421 499 L 455 465 L 293 302 L 457 139 L 422 105 L 258 268 L 95 105 L 61 139 Z" />
<glyph unicode="Ø" horiz-adv-x="609" d="M 103 68 C 78 107 66 167 66 248 L 66 468 C 66 518 70 559 80 593 C 90 626 104 652 124 672 C 144 692 169 706 199 714 C 229 722 264 726 305 726 C 341 726 374 722 402 716 C 430 709 454 697 474 681 L 508 737 L 560 737 L 505 647 C 530 607 543 547 543 468 L 543 248 C 543 197 538 155 528 122 C 518 88 504 62 484 42 C 464 22 440 9 410 1 C 380 -7 345 -11 305 -11 C 267 -11 234 -7 206 -1 C 178 5 154 17 134 33 L 101 -22 L 50 -22 L 103 68 Z M 488 468 C 488 520 482 562 472 592 L 163 79 C 178 63 197 52 220 46 C 242 40 271 37 305 37 C 337 37 365 40 389 46 C 412 52 431 62 446 78 C 460 93 471 114 478 142 C 484 169 488 204 488 248 L 488 468 Z M 121 248 C 121 220 122 196 124 176 C 126 156 130 138 136 123 L 447 635 C 431 651 412 663 389 669 C 366 675 338 678 305 678 C 272 678 244 675 221 669 C 197 663 178 652 164 637 C 149 621 138 600 131 573 C 124 545 121 510 121 468 L 121 248 Z" />
<glyph unicode="Ù" horiz-adv-x="627" d="M 137 715 L 137 219 C 137 185 140 156 146 133 C 152 109 163 90 177 76 C 191 62 209 52 231 46 C 253 40 281 37 313 37 C 345 37 373 40 395 46 C 417 52 436 62 450 76 C 464 90 474 109 480 133 C 486 156 490 185 490 219 L 490 715 L 544 715 L 544 219 C 544 173 539 136 529 106 C 519 76 504 53 484 36 C 464 18 440 6 412 0 C 383 -7 350 -11 313 -11 C 275 -11 242 -7 214 0 C 185 6 161 18 141 36 C 121 53 107 76 97 106 C 87 136 82 173 82 219 L 82 715 L 137 715 Z M 343 786 L 304 786 L 211 919 L 287 919 L 343 786 Z" />
<glyph unicode="Ú" horiz-adv-x="627" d="M 137 715 L 137 219 C 137 185 140 156 146 133 C 152 109 163 90 177 76 C 191 62 209 52 231 46 C 253 40 281 37 313 37 C 345 37 373 40 395 46 C 417 52 436 62 450 76 C 464 90 474 109 480 133 C 486 156 490 185 490 219 L 490 715 L 544 715 L 544 219 C 544 173 539 136 529 106 C 519 76 504 53 484 36 C 464 18 440 6 412 0 C 383 -7 350 -11 313 -11 C 275 -11 242 -7 214 0 C 185 6 161 18 141 36 C 121 53 107 76 97 106 C 87 136 82 173 82 219 L 82 715 L 137 715 Z M 345 919 L 422 919 L 328 786 L 290 786 L 345 919 Z" />
<glyph unicode="Û" horiz-adv-x="627" d="M 137 715 L 137 219 C 137 185 140 156 146 133 C 152 109 163 90 177 76 C 191 62 209 52 231 46 C 253 40 281 37 313 37 C 345 37 373 40 395 46 C 417 52 436 62 450 76 C 464 90 474 109 480 133 C 486 156 490 185 490 219 L 490 715 L 544 715 L 544 219 C 544 173 539 136 529 106 C 519 76 504 53 484 36 C 464 18 440 6 412 0 C 383 -7 350 -11 313 -11 C 275 -11 242 -7 214 0 C 185 6 161 18 141 36 C 121 53 107 76 97 106 C 87 136 82 173 82 219 L 82 715 L 137 715 Z M 420 786 L 380 786 L 313 873 L 246 786 L 207 786 L 277 919 L 350 919 L 420 786 Z" />
<glyph unicode="Ü" horiz-adv-x="627" d="M 137 715 L 137 219 C 137 185 140 156 146 133 C 152 109 163 90 177 76 C 191 62 209 52 231 46 C 253 40 281 37 313 37 C 345 37 373 40 395 46 C 417 52 436 62 450 76 C 464 90 474 109 480 133 C 486 156 490 185 490 219 L 490 715 L 544 715 L 544 219 C 544 173 539 136 529 106 C 519 76 504 53 484 36 C 464 18 440 6 412 0 C 383 -7 350 -11 313 -11 C 275 -11 242 -7 214 0 C 185 6 161 18 141 36 C 121 53 107 76 97 106 C 87 136 82 173 82 219 L 82 715 L 137 715 Z M 350 880 L 420 880 L 420 810 L 350 810 L 350 880 Z M 207 880 L 277 880 L 277 810 L 207 810 L 207 880 Z" />
<glyph unicode="Ý" horiz-adv-x="535" d="M 240 288 L 28 715 L 88 715 L 266 342 L 268 342 L 447 715 L 507 715 L 295 288 L 295 0 L 240 0 L 240 288 Z M 299 919 L 376 919 L 282 786 L 244 786 L 299 919 Z" />
<glyph unicode="Þ" horiz-adv-x="603" d="M 94 715 L 148 715 L 148 577 L 309 577 C 350 577 386 573 416 567 C 446 560 470 548 490 532 C 510 515 524 493 534 465 C 543 437 548 401 548 359 C 548 320 543 287 534 260 C 524 232 510 210 491 193 C 471 176 447 164 417 156 C 387 148 352 144 311 144 L 148 144 L 148 0 L 94 0 L 94 715 Z M 148 193 L 311 193 C 344 193 372 195 395 201 C 418 206 437 215 451 228 C 465 241 475 258 481 279 C 487 300 491 327 491 359 C 491 395 487 424 480 446 C 473 468 462 485 448 497 C 433 509 414 518 391 522 C 368 526 341 529 309 529 L 148 529 L 148 193 Z" />
<glyph unicode="ß" horiz-adv-x="617" d="M 255 421 L 288 421 C 342 421 380 433 404 458 C 427 482 439 517 439 562 C 439 607 427 642 404 666 C 381 690 342 702 287 702 C 231 702 191 690 169 666 C 146 642 135 607 135 563 L 135 0 L 82 0 L 82 563 C 82 623 98 669 131 701 C 163 732 215 748 287 748 C 359 748 411 732 443 701 C 475 669 492 623 492 562 C 492 480 458 428 392 406 C 416 402 438 397 458 389 C 478 381 495 370 510 355 C 524 340 536 321 544 298 C 552 275 557 247 557 213 L 557 197 C 557 155 550 120 538 94 C 525 67 508 46 487 30 C 465 14 440 4 411 -2 C 382 -8 351 -11 319 -11 C 277 -11 238 -7 202 0 L 202 46 C 222 41 242 38 260 37 C 278 35 297 35 319 35 C 343 35 366 37 388 41 C 410 45 430 53 447 65 C 464 77 478 93 488 114 C 498 135 504 163 504 197 L 504 213 C 504 247 498 274 488 296 C 478 317 464 333 447 345 C 430 357 410 365 388 369 C 366 373 343 375 319 375 L 255 375 L 255 421 Z" />
<glyph unicode="à" horiz-adv-x="546" d="M 50 145 C 50 190 63 226 90 252 C 117 278 160 293 219 297 L 427 309 L 427 386 C 427 410 424 430 420 447 C 416 463 408 477 397 487 C 385 497 370 504 351 508 C 331 512 307 515 277 515 C 249 515 226 513 208 510 C 189 506 174 500 162 491 C 150 482 141 470 136 455 C 130 439 128 420 128 397 L 75 397 C 75 430 79 457 89 479 C 99 500 112 517 130 529 C 147 541 168 549 193 554 C 218 558 246 561 277 561 C 313 561 344 558 370 552 C 396 546 417 536 433 522 C 449 508 461 490 469 468 C 476 446 480 418 480 386 L 480 0 L 448 0 L 430 61 C 397 36 366 18 337 6 C 308 -5 275 -11 238 -11 C 209 -11 183 -8 160 -2 C 137 4 117 13 101 26 C 85 38 72 54 63 74 C 54 94 50 117 50 145 Z M 242 35 C 280 35 314 41 342 53 C 370 65 399 83 427 105 L 427 268 L 224 252 C 182 248 152 238 132 222 C 112 206 103 181 103 145 C 103 105 115 76 139 60 C 163 43 198 35 242 35 Z M 303 621 L 264 621 L 171 754 L 247 754 L 303 621 Z" />
<glyph unicode="á" horiz-adv-x="546" d="M 50 145 C 50 190 63 226 90 252 C 117 278 160 293 219 297 L 427 309 L 427 386 C 427 410 424 430 420 447 C 416 463 408 477 397 487 C 385 497 370 504 351 508 C 331 512 307 515 277 515 C 249 515 226 513 208 510 C 189 506 174 500 162 491 C 150 482 141 470 136 455 C 130 439 128 420 128 397 L 75 397 C 75 430 79 457 89 479 C 99 500 112 517 130 529 C 147 541 168 549 193 554 C 218 558 246 561 277 561 C 313 561 344 558 370 552 C 396 546 417 536 433 522 C 449 508 461 490 469 468 C 476 446 480 418 480 386 L 480 0 L 448 0 L 430 61 C 397 36 366 18 337 6 C 308 -5 275 -11 238 -11 C 209 -11 183 -8 160 -2 C 137 4 117 13 101 26 C 85 38 72 54 63 74 C 54 94 50 117 50 145 Z M 242 35 C 280 35 314 41 342 53 C 370 65 399 83 427 105 L 427 268 L 224 252 C 182 248 152 238 132 222 C 112 206 103 181 103 145 C 103 105 115 76 139 60 C 163 43 198 35 242 35 Z M 311 754 L 388 754 L 294 621 L 256 621 L 311 754 Z" />
<glyph unicode="â" horiz-adv-x="546" d="M 50 145 C 50 190 63 226 90 252 C 117 278 160 293 219 297 L 427 309 L 427 386 C 427 410 424 430 420 447 C 416 463 408 477 397 487 C 385 497 370 504 351 508 C 331 512 307 515 277 515 C 249 515 226 513 208 510 C 189 506 174 500 162 491 C 150 482 141 470 136 455 C 130 439 128 420 128 397 L 75 397 C 75 430 79 457 89 479 C 99 500 112 517 130 529 C 147 541 168 549 193 554 C 218 558 246 561 277 561 C 313 561 344 558 370 552 C 396 546 417 536 433 522 C 449 508 461 490 469 468 C 476 446 480 418 480 386 L 480 0 L 448 0 L 430 61 C 397 36 366 18 337 6 C 308 -5 275 -11 238 -11 C 209 -11 183 -8 160 -2 C 137 4 117 13 101 26 C 85 38 72 54 63 74 C 54 94 50 117 50 145 Z M 242 35 C 280 35 314 41 342 53 C 370 65 399 83 427 105 L 427 268 L 224 252 C 182 248 152 238 132 222 C 112 206 103 181 103 145 C 103 105 115 76 139 60 C 163 43 198 35 242 35 Z M 380 621 L 340 621 L 273 708 L 206 621 L 167 621 L 237 754 L 310 754 L 380 621 Z" />
<glyph unicode="ã" horiz-adv-x="546" d="M 50 145 C 50 190 63 226 90 252 C 117 278 160 293 219 297 L 427 309 L 427 386 C 427 410 424 430 420 447 C 416 463 408 477 397 487 C 385 497 370 504 351 508 C 331 512 307 515 277 515 C 249 515 226 513 208 510 C 189 506 174 500 162 491 C 150 482 141 470 136 455 C 130 439 128 420 128 397 L 75 397 C 75 430 79 457 89 479 C 99 500 112 517 130 529 C 147 541 168 549 193 554 C 218 558 246 561 277 561 C 313 561 344 558 370 552 C 396 546 417 536 433 522 C 449 508 461 490 469 468 C 476 446 480 418 480 386 L 480 0 L 448 0 L 430 61 C 397 36 366 18 337 6 C 308 -5 275 -11 238 -11 C 209 -11 183 -8 160 -2 C 137 4 117 13 101 26 C 85 38 72 54 63 74 C 54 94 50 117 50 145 Z M 242 35 C 280 35 314 41 342 53 C 370 65 399 83 427 105 L 427 268 L 224 252 C 182 248 152 238 132 222 C 112 206 103 181 103 145 C 103 105 115 76 139 60 C 163 43 198 35 242 35 Z M 341 637 C 325 637 312 640 301 646 C 290 652 280 658 271 666 C 262 673 253 680 244 686 C 235 692 225 695 215 695 C 197 695 185 689 179 679 C 173 669 171 657 171 643 L 132 643 C 132 679 139 704 154 718 C 168 732 188 739 213 739 C 228 739 241 736 252 730 C 263 724 273 717 282 710 C 291 702 300 696 309 690 C 317 684 327 681 339 681 C 357 681 368 686 374 696 C 380 706 383 719 383 733 L 422 733 C 422 697 414 672 400 658 C 385 644 365 637 341 637 Z" />
<glyph unicode="ä" horiz-adv-x="546" d="M 50 145 C 50 190 63 226 90 252 C 117 278 160 293 219 297 L 427 309 L 427 386 C 427 410 424 430 420 447 C 416 463 408 477 397 487 C 385 497 370 504 351 508 C 331 512 307 515 277 515 C 249 515 226 513 208 510 C 189 506 174 500 162 491 C 150 482 141 470 136 455 C 130 439 128 420 128 397 L 75 397 C 75 430 79 457 89 479 C 99 500 112 517 130 529 C 147 541 168 549 193 554 C 218 558 246 561 277 561 C 313 561 344 558 370 552 C 396 546 417 536 433 522 C 449 508 461 490 469 468 C 476 446 480 418 480 386 L 480 0 L 448 0 L 430 61 C 397 36 366 18 337 6 C 308 -5 275 -11 238 -11 C 209 -11 183 -8 160 -2 C 137 4 117 13 101 26 C 85 38 72 54 63 74 C 54 94 50 117 50 145 Z M 242 35 C 280 35 314 41 342 53 C 370 65 399 83 427 105 L 427 268 L 224 252 C 182 248 152 238 132 222 C 112 206 103 181 103 145 C 103 105 115 76 139 60 C 163 43 198 35 242 35 Z M 309 715 L 379 715 L 379 645 L 309 645 L 309 715 Z M 166 715 L 236 715 L 236 645 L 166 645 L 166 715 Z" />
<glyph unicode="å" horiz-adv-x="546" d="M 50 145 C 50 190 63 226 90 252 C 117 278 160 293 219 297 L 427 309 L 427 386 C 427 410 424 430 420 447 C 416 463 408 477 397 487 C 385 497 370 504 351 508 C 331 512 307 515 277 515 C 249 515 226 513 208 510 C 189 506 174 500 162 491 C 150 482 141 470 136 455 C 130 439 128 420 128 397 L 75 397 C 75 430 79 457 89 479 C 99 500 112 517 130 529 C 147 541 168 549 193 554 C 218 558 246 561 277 561 C 313 561 344 558 370 552 C 396 546 417 536 433 522 C 449 508 461 490 469 468 C 476 446 480 418 480 386 L 480 0 L 448 0 L 430 61 C 397 36 366 18 337 6 C 308 -5 275 -11 238 -11 C 209 -11 183 -8 160 -2 C 137 4 117 13 101 26 C 85 38 72 54 63 74 C 54 94 50 117 50 145 Z M 242 35 C 280 35 314 41 342 53 C 370 65 399 83 427 105 L 427 268 L 224 252 C 182 248 152 238 132 222 C 112 206 103 181 103 145 C 103 105 115 76 139 60 C 163 43 198 35 242 35 Z M 377 703 C 377 673 368 651 350 637 C 332 622 307 615 276 615 C 245 615 221 622 203 637 C 185 651 176 673 176 703 C 176 732 185 754 203 769 C 221 783 245 791 276 791 C 307 791 332 783 350 769 C 368 754 377 732 377 703 Z M 333 703 C 333 718 328 730 319 738 C 310 746 296 751 276 751 C 238 751 220 735 220 703 C 220 669 238 653 276 653 C 296 653 310 657 319 666 C 328 674 333 687 333 703 Z" />
<glyph unicode="æ" horiz-adv-x="916" d="M 243 -11 C 183 -11 135 0 101 24 C 67 48 50 88 50 145 C 50 192 63 229 91 257 C 119 284 164 298 226 298 L 427 298 L 427 386 C 427 410 424 430 420 447 C 416 463 408 477 397 487 C 385 497 370 504 351 508 C 331 512 307 515 277 515 C 249 515 226 513 208 510 C 189 506 174 500 162 491 C 150 482 141 470 136 455 C 130 439 128 420 128 397 L 75 397 C 75 430 79 457 89 479 C 99 500 112 517 130 529 C 147 541 168 549 193 554 C 218 558 246 561 277 561 C 331 561 372 554 402 541 C 431 528 451 506 463 474 C 479 507 503 530 534 542 C 565 554 604 561 652 561 C 689 561 721 557 748 549 C 775 541 797 528 815 509 C 833 489 846 463 854 430 C 862 396 867 354 867 304 L 867 252 L 484 252 C 484 208 487 173 495 145 C 502 117 513 94 528 78 C 542 62 561 50 584 44 C 606 38 633 35 665 35 C 699 35 731 37 761 42 C 790 47 817 53 843 59 L 843 11 C 819 5 791 0 761 -4 C 730 -8 695 -11 657 -11 C 607 -11 564 -2 530 14 C 496 30 471 60 455 103 C 439 60 414 30 379 14 C 343 -2 298 -11 243 -11 Z M 814 298 C 814 342 811 378 806 406 C 801 434 793 456 781 472 C 769 488 752 500 731 506 C 710 512 684 515 652 515 C 620 515 594 512 572 506 C 550 500 533 488 520 472 C 507 456 498 434 492 406 C 486 378 484 342 484 298 L 814 298 Z M 242 35 C 274 35 302 37 326 43 C 349 49 368 60 383 76 C 398 92 409 114 416 142 C 423 170 427 207 427 252 L 227 252 C 187 252 156 243 135 226 C 113 209 103 182 103 145 C 103 103 115 75 140 59 C 164 43 198 35 242 35 Z" />
<glyph unicode="ç" horiz-adv-x="548" d="M 284 515 C 252 515 225 512 203 506 C 181 500 164 489 151 474 C 137 458 128 437 122 410 C 116 383 113 348 113 306 L 113 244 C 113 201 116 166 122 139 C 128 112 137 91 151 75 C 164 59 181 49 203 43 C 225 37 252 35 284 35 C 314 35 338 37 358 42 C 377 46 392 54 404 64 C 416 74 424 86 428 101 C 432 115 435 133 435 153 L 487 153 C 487 95 472 54 442 29 C 412 3 364 -9 298 -11 L 286 -55 C 306 -57 324 -63 340 -74 C 355 -85 363 -103 363 -129 C 363 -159 353 -179 333 -191 C 313 -202 285 -208 249 -208 L 194 -208 L 194 -171 L 258 -171 C 279 -171 294 -167 303 -159 C 311 -151 316 -141 316 -129 C 316 -115 311 -105 303 -98 C 294 -90 279 -87 258 -87 L 238 -87 L 260 -10 C 226 -8 196 -3 171 5 C 146 13 125 27 109 47 C 93 66 81 92 73 124 C 65 156 61 196 61 244 L 61 306 C 61 356 65 398 74 431 C 83 464 97 490 115 510 C 133 529 157 542 185 550 C 213 557 246 561 284 561 C 355 561 407 548 439 523 C 471 497 487 455 487 397 L 435 397 C 435 417 432 434 428 449 C 424 463 416 476 404 486 C 392 496 377 503 358 508 C 338 512 314 515 284 515 Z" />
<glyph unicode="è" horiz-adv-x="557" d="M 113 252 C 113 205 116 167 122 139 C 128 111 138 89 152 73 C 166 57 184 47 208 42 C 231 37 260 35 295 35 C 329 35 360 37 390 42 C 419 47 446 53 472 59 L 472 11 C 448 5 421 0 390 -4 C 359 -8 324 -11 286 -11 C 247 -11 213 -7 185 0 C 157 6 133 19 115 38 C 97 57 83 83 74 116 C 65 149 61 192 61 244 L 61 306 C 61 356 65 398 74 431 C 83 464 97 490 115 510 C 133 529 156 542 184 550 C 212 557 244 561 282 561 C 319 561 351 557 378 549 C 405 541 427 528 445 509 C 462 489 475 463 483 430 C 491 396 496 354 496 304 L 496 252 L 113 252 Z M 443 298 C 443 342 440 378 435 406 C 430 434 422 456 410 472 C 398 488 381 500 361 506 C 340 512 314 515 282 515 C 250 515 223 512 202 506 C 180 500 163 488 150 472 C 136 456 127 434 121 406 C 115 378 113 342 113 298 L 443 298 Z M 306 621 L 267 621 L 174 754 L 250 754 L 306 621 Z" />
<glyph unicode="é" horiz-adv-x="557" d="M 113 252 C 113 205 116 167 122 139 C 128 111 138 89 152 73 C 166 57 184 47 208 42 C 231 37 260 35 295 35 C 329 35 360 37 390 42 C 419 47 446 53 472 59 L 472 11 C 448 5 421 0 390 -4 C 359 -8 324 -11 286 -11 C 247 -11 213 -7 185 0 C 157 6 133 19 115 38 C 97 57 83 83 74 116 C 65 149 61 192 61 244 L 61 306 C 61 356 65 398 74 431 C 83 464 97 490 115 510 C 133 529 156 542 184 550 C 212 557 244 561 282 561 C 319 561 351 557 378 549 C 405 541 427 528 445 509 C 462 489 475 463 483 430 C 491 396 496 354 496 304 L 496 252 L 113 252 Z M 443 298 C 443 342 440 378 435 406 C 430 434 422 456 410 472 C 398 488 381 500 361 506 C 340 512 314 515 282 515 C 250 515 223 512 202 506 C 180 500 163 488 150 472 C 136 456 127 434 121 406 C 115 378 113 342 113 298 L 443 298 Z M 328 754 L 405 754 L 311 621 L 273 621 L 328 754 Z" />
<glyph unicode="ê" horiz-adv-x="557" d="M 113 252 C 113 205 116 167 122 139 C 128 111 138 89 152 73 C 166 57 184 47 208 42 C 231 37 260 35 295 35 C 329 35 360 37 390 42 C 419 47 446 53 472 59 L 472 11 C 448 5 421 0 390 -4 C 359 -8 324 -11 286 -11 C 247 -11 213 -7 185 0 C 157 6 133 19 115 38 C 97 57 83 83 74 116 C 65 149 61 192 61 244 L 61 306 C 61 356 65 398 74 431 C 83 464 97 490 115 510 C 133 529 156 542 184 550 C 212 557 244 561 282 561 C 319 561 351 557 378 549 C 405 541 427 528 445 509 C 462 489 475 463 483 430 C 491 396 496 354 496 304 L 496 252 L 113 252 Z M 443 298 C 443 342 440 378 435 406 C 430 434 422 456 410 472 C 398 488 381 500 361 506 C 340 512 314 515 282 515 C 250 515 223 512 202 506 C 180 500 163 488 150 472 C 136 456 127 434 121 406 C 115 378 113 342 113 298 L 443 298 Z M 391 621 L 351 621 L 284 708 L 217 621 L 178 621 L 248 754 L 321 754 L 391 621 Z" />
<glyph unicode="ë" horiz-adv-x="557" d="M 113 252 C 113 205 116 167 122 139 C 128 111 138 89 152 73 C 166 57 184 47 208 42 C 231 37 260 35 295 35 C 329 35 360 37 390 42 C 419 47 446 53 472 59 L 472 11 C 448 5 421 0 390 -4 C 359 -8 324 -11 286 -11 C 247 -11 213 -7 185 0 C 157 6 133 19 115 38 C 97 57 83 83 74 116 C 65 149 61 192 61 244 L 61 306 C 61 356 65 398 74 431 C 83 464 97 490 115 510 C 133 529 156 542 184 550 C 212 557 244 561 282 561 C 319 561 351 557 378 549 C 405 541 427 528 445 509 C 462 489 475 463 483 430 C 491 396 496 354 496 304 L 496 252 L 113 252 Z M 443 298 C 443 342 440 378 435 406 C 430 434 422 456 410 472 C 398 488 381 500 361 506 C 340 512 314 515 282 515 C 250 515 223 512 202 506 C 180 500 163 488 150 472 C 136 456 127 434 121 406 C 115 378 113 342 113 298 L 443 298 Z M 320 715 L 390 715 L 390 645 L 320 645 L 320 715 Z M 177 715 L 247 715 L 247 645 L 177 645 L 177 715 Z" />
<glyph unicode="ì" horiz-adv-x="229" d="M 88 550 L 141 550 L 141 0 L 88 0 L 88 550 Z M 134 621 L 95 621 L 2 754 L 78 754 L 134 621 Z" />
<glyph unicode="í" horiz-adv-x="229" d="M 88 550 L 141 550 L 141 0 L 88 0 L 88 550 Z M 150 754 L 227 754 L 133 621 L 95 621 L 150 754 Z" />
<glyph unicode="î" horiz-adv-x="229" d="M 88 550 L 141 550 L 141 0 L 88 0 L 88 550 Z M 221 621 L 181 621 L 114 708 L 47 621 L 8 621 L 78 754 L 151 754 L 221 621 Z" />
<glyph unicode="ï" horiz-adv-x="229" d="M 144 684 L 212 684 L 212 616 L 144 616 L 144 684 Z M 16 684 L 85 684 L 85 616 L 16 616 L 16 684 Z M 88 550 L 141 550 L 141 0 L 88 0 L 88 550 Z" />
<glyph unicode="ð" horiz-adv-x="577" d="M 507 244 C 507 194 502 152 494 120 C 486 87 473 61 455 42 C 437 22 414 9 386 1 C 358 -7 324 -11 284 -11 C 244 -11 209 -7 181 1 C 153 9 130 22 112 42 C 94 61 81 87 73 120 C 65 152 61 194 61 244 L 61 306 C 61 356 65 397 73 430 C 81 462 94 488 112 508 C 130 527 153 541 181 549 C 209 557 244 561 284 561 C 315 561 343 557 367 551 C 391 545 412 534 430 519 C 415 564 395 607 369 649 L 275 627 L 266 662 L 345 681 C 336 693 327 704 317 715 C 307 726 297 737 286 749 L 348 749 C 356 740 364 731 372 722 C 380 712 387 703 395 693 L 492 717 L 502 682 L 416 661 C 446 611 468 555 484 494 C 499 432 507 370 507 306 L 507 244 Z M 454 306 C 454 348 451 382 445 409 C 439 436 430 457 417 473 C 404 489 387 500 365 506 C 343 512 316 515 284 515 C 251 515 224 512 202 506 C 180 500 163 489 150 473 C 136 457 127 436 121 409 C 115 382 113 348 113 306 L 113 244 C 113 202 115 167 121 140 C 127 113 136 92 150 76 C 163 60 180 50 202 44 C 224 38 251 35 284 35 C 316 35 343 38 365 44 C 387 50 404 60 417 76 C 430 92 439 113 445 140 C 451 167 454 202 454 244 L 454 306 Z" />
<glyph unicode="ñ" horiz-adv-x="577" d="M 448 0 L 448 371 C 448 399 445 423 440 442 C 434 460 426 475 415 486 C 404 497 390 505 372 509 C 354 513 334 515 310 515 C 277 515 247 509 219 497 C 191 485 163 468 135 446 L 135 0 L 82 0 L 82 550 L 114 550 L 132 490 C 160 511 189 528 218 541 C 246 554 279 561 315 561 C 346 561 373 558 397 552 C 420 546 439 536 455 522 C 470 508 481 488 489 464 C 497 439 501 408 501 371 L 501 0 L 448 0 Z M 358 637 C 342 637 329 640 318 646 C 307 652 297 658 288 666 C 279 673 270 680 261 686 C 252 692 242 695 232 695 C 214 695 202 689 196 679 C 190 669 188 657 188 643 L 149 643 C 149 679 156 704 171 718 C 185 732 205 739 230 739 C 245 739 258 736 269 730 C 280 724 290 717 299 710 C 308 702 317 696 326 690 C 334 684 344 681 356 681 C 374 681 385 686 391 696 C 397 706 400 719 400 733 L 439 733 C 439 697 431 672 417 658 C 402 644 382 637 358 637 Z" />
<glyph unicode="ò" horiz-adv-x="568" d="M 507 244 C 507 194 502 152 494 120 C 486 87 473 61 455 42 C 437 22 414 9 386 1 C 358 -7 324 -11 284 -11 C 244 -11 209 -7 181 1 C 153 9 130 22 112 42 C 94 61 81 87 73 120 C 65 152 61 194 61 244 L 61 306 C 61 356 65 397 73 430 C 81 462 94 488 112 508 C 130 527 153 541 181 549 C 209 557 244 561 284 561 C 324 561 358 557 386 549 C 414 541 437 527 455 508 C 473 488 486 462 494 430 C 502 397 507 356 507 306 L 507 244 Z M 454 306 C 454 348 451 382 445 409 C 439 436 430 457 417 473 C 404 489 387 500 365 506 C 343 512 316 515 284 515 C 251 515 224 512 202 506 C 180 500 163 489 150 473 C 136 457 127 436 121 409 C 115 382 113 348 113 306 L 113 244 C 113 202 115 167 121 140 C 127 113 136 92 150 76 C 163 60 180 50 202 44 C 224 38 251 35 284 35 C 316 35 343 38 365 44 C 387 50 404 60 417 76 C 430 92 439 113 445 140 C 451 167 454 202 454 244 L 454 306 Z M 306 621 L 267 621 L 174 754 L 250 754 L 306 621 Z" />
<glyph unicode="ó" horiz-adv-x="568" d="M 507 244 C 507 194 502 152 494 120 C 486 87 473 61 455 42 C 437 22 414 9 386 1 C 358 -7 324 -11 284 -11 C 244 -11 209 -7 181 1 C 153 9 130 22 112 42 C 94 61 81 87 73 120 C 65 152 61 194 61 244 L 61 306 C 61 356 65 397 73 430 C 81 462 94 488 112 508 C 130 527 153 541 181 549 C 209 557 244 561 284 561 C 324 561 358 557 386 549 C 414 541 437 527 455 508 C 473 488 486 462 494 430 C 502 397 507 356 507 306 L 507 244 Z M 454 306 C 454 348 451 382 445 409 C 439 436 430 457 417 473 C 404 489 387 500 365 506 C 343 512 316 515 284 515 C 251 515 224 512 202 506 C 180 500 163 489 150 473 C 136 457 127 436 121 409 C 115 382 113 348 113 306 L 113 244 C 113 202 115 167 121 140 C 127 113 136 92 150 76 C 163 60 180 50 202 44 C 224 38 251 35 284 35 C 316 35 343 38 365 44 C 387 50 404 60 417 76 C 430 92 439 113 445 140 C 451 167 454 202 454 244 L 454 306 Z M 326 754 L 403 754 L 309 621 L 271 621 L 326 754 Z" />
<glyph unicode="ô" horiz-adv-x="568" d="M 507 244 C 507 194 502 152 494 120 C 486 87 473 61 455 42 C 437 22 414 9 386 1 C 358 -7 324 -11 284 -11 C 244 -11 209 -7 181 1 C 153 9 130 22 112 42 C 94 61 81 87 73 120 C 65 152 61 194 61 244 L 61 306 C 61 356 65 397 73 430 C 81 462 94 488 112 508 C 130 527 153 541 181 549 C 209 557 244 561 284 561 C 324 561 358 557 386 549 C 414 541 437 527 455 508 C 473 488 486 462 494 430 C 502 397 507 356 507 306 L 507 244 Z M 454 306 C 454 348 451 382 445 409 C 439 436 430 457 417 473 C 404 489 387 500 365 506 C 343 512 316 515 284 515 C 251 515 224 512 202 506 C 180 500 163 489 150 473 C 136 457 127 436 121 409 C 115 382 113 348 113 306 L 113 244 C 113 202 115 167 121 140 C 127 113 136 92 150 76 C 163 60 180 50 202 44 C 224 38 251 35 284 35 C 316 35 343 38 365 44 C 387 50 404 60 417 76 C 430 92 439 113 445 140 C 451 167 454 202 454 244 L 454 306 Z M 391 621 L 351 621 L 284 708 L 217 621 L 178 621 L 248 754 L 321 754 L 391 621 Z" />
<glyph unicode="õ" horiz-adv-x="568" d="M 507 244 C 507 194 502 152 494 120 C 486 87 473 61 455 42 C 437 22 414 9 386 1 C 358 -7 324 -11 284 -11 C 244 -11 209 -7 181 1 C 153 9 130 22 112 42 C 94 61 81 87 73 120 C 65 152 61 194 61 244 L 61 306 C 61 356 65 397 73 430 C 81 462 94 488 112 508 C 130 527 153 541 181 549 C 209 557 244 561 284 561 C 324 561 358 557 386 549 C 414 541 437 527 455 508 C 473 488 486 462 494 430 C 502 397 507 356 507 306 L 507 244 Z M 454 306 C 454 348 451 382 445 409 C 439 436 430 457 417 473 C 404 489 387 500 365 506 C 343 512 316 515 284 515 C 251 515 224 512 202 506 C 180 500 163 489 150 473 C 136 457 127 436 121 409 C 115 382 113 348 113 306 L 113 244 C 113 202 115 167 121 140 C 127 113 136 92 150 76 C 163 60 180 50 202 44 C 224 38 251 35 284 35 C 316 35 343 38 365 44 C 387 50 404 60 417 76 C 430 92 439 113 445 140 C 451 167 454 202 454 244 L 454 306 Z M 347 637 C 331 637 318 640 307 646 C 296 652 286 658 277 666 C 268 673 259 680 250 686 C 241 692 231 695 221 695 C 203 695 191 689 185 679 C 179 669 177 657 177 643 L 138 643 C 138 679 145 704 160 718 C 174 732 194 739 219 739 C 234 739 247 736 258 730 C 269 724 279 717 288 710 C 297 702 306 696 315 690 C 323 684 333 681 345 681 C 363 681 374 686 380 696 C 386 706 389 719 389 733 L 428 733 C 428 697 420 672 406 658 C 391 644 371 637 347 637 Z" />
<glyph unicode="ö" horiz-adv-x="568" d="M 507 244 C 507 194 502 152 494 120 C 486 87 473 61 455 42 C 437 22 414 9 386 1 C 358 -7 324 -11 284 -11 C 244 -11 209 -7 181 1 C 153 9 130 22 112 42 C 94 61 81 87 73 120 C 65 152 61 194 61 244 L 61 306 C 61 356 65 397 73 430 C 81 462 94 488 112 508 C 130 527 153 541 181 549 C 209 557 244 561 284 561 C 324 561 358 557 386 549 C 414 541 437 527 455 508 C 473 488 486 462 494 430 C 502 397 507 356 507 306 L 507 244 Z M 454 306 C 454 348 451 382 445 409 C 439 436 430 457 417 473 C 404 489 387 500 365 506 C 343 512 316 515 284 515 C 251 515 224 512 202 506 C 180 500 163 489 150 473 C 136 457 127 436 121 409 C 115 382 113 348 113 306 L 113 244 C 113 202 115 167 121 140 C 127 113 136 92 150 76 C 163 60 180 50 202 44 C 224 38 251 35 284 35 C 316 35 343 38 365 44 C 387 50 404 60 417 76 C 430 92 439 113 445 140 C 451 167 454 202 454 244 L 454 306 Z M 320 715 L 390 715 L 390 645 L 320 645 L 320 715 Z M 177 715 L 247 715 L 247 645 L 177 645 L 177 715 Z" />
<glyph unicode="÷" horiz-adv-x="565" d="M 241 168 L 324 168 L 324 87 L 241 87 L 241 168 Z M 241 518 L 324 518 L 324 437 L 241 437 L 241 518 Z M 505 327 L 505 278 L 61 278 L 61 327 L 505 327 Z" />
<glyph unicode="ø" horiz-adv-x="568" d="M 507 244 C 507 194 502 152 494 120 C 486 87 473 61 455 42 C 437 22 414 9 386 1 C 358 -7 324 -11 284 -11 C 251 -11 222 -8 198 -3 C 173 2 152 10 135 22 L 106 -22 L 55 -22 L 105 51 C 75 89 61 153 61 244 L 61 306 C 61 356 65 397 73 430 C 81 462 94 488 112 508 C 130 527 153 541 181 549 C 209 557 244 561 284 561 C 316 561 344 558 368 553 C 392 547 413 539 431 528 L 462 572 L 513 572 L 462 498 C 477 478 488 453 496 422 C 503 390 507 352 507 306 L 507 244 Z M 454 306 C 454 340 452 369 449 393 C 445 417 439 437 431 453 L 164 63 C 177 52 193 45 213 41 C 232 37 256 35 284 35 C 316 35 343 38 365 44 C 387 50 404 60 417 76 C 430 92 439 113 445 140 C 451 167 454 202 454 244 L 454 306 Z M 113 244 C 113 176 120 127 136 97 L 404 486 C 390 496 374 504 354 508 C 334 512 311 515 284 515 C 251 515 224 512 202 506 C 180 500 163 489 150 473 C 136 457 127 436 121 409 C 115 382 113 348 113 306 L 113 244 Z" />
<glyph unicode="ù" horiz-adv-x="572" d="M 130 550 L 130 179 C 130 149 132 125 138 107 C 143 89 151 74 162 63 C 173 52 187 45 205 41 C 222 37 243 35 267 35 C 299 35 330 41 358 53 C 386 65 414 83 442 105 L 442 550 L 495 550 L 495 0 L 463 0 L 446 61 C 430 49 415 38 401 29 C 387 20 372 13 358 7 C 343 1 328 -3 313 -6 C 297 -9 281 -11 263 -11 C 231 -11 203 -8 180 -2 C 156 3 137 13 122 27 C 106 41 95 61 88 86 C 80 110 77 141 77 179 L 77 550 L 130 550 Z M 312 621 L 273 621 L 180 754 L 256 754 L 312 621 Z" />
<glyph unicode="ú" horiz-adv-x="572" d="M 130 550 L 130 179 C 130 149 132 125 138 107 C 143 89 151 74 162 63 C 173 52 187 45 205 41 C 222 37 243 35 267 35 C 299 35 330 41 358 53 C 386 65 414 83 442 105 L 442 550 L 495 550 L 495 0 L 463 0 L 446 61 C 430 49 415 38 401 29 C 387 20 372 13 358 7 C 343 1 328 -3 313 -6 C 297 -9 281 -11 263 -11 C 231 -11 203 -8 180 -2 C 156 3 137 13 122 27 C 106 41 95 61 88 86 C 80 110 77 141 77 179 L 77 550 L 130 550 Z M 322 754 L 399 754 L 305 621 L 267 621 L 322 754 Z" />
<glyph unicode="û" horiz-adv-x="572" d="M 130 550 L 130 179 C 130 149 132 125 138 107 C 143 89 151 74 162 63 C 173 52 187 45 205 41 C 222 37 243 35 267 35 C 299 35 330 41 358 53 C 386 65 414 83 442 105 L 442 550 L 495 550 L 495 0 L 463 0 L 446 61 C 430 49 415 38 401 29 C 387 20 372 13 358 7 C 343 1 328 -3 313 -6 C 297 -9 281 -11 263 -11 C 231 -11 203 -8 180 -2 C 156 3 137 13 122 27 C 106 41 95 61 88 86 C 80 110 77 141 77 179 L 77 550 L 130 550 Z M 393 621 L 353 621 L 286 708 L 219 621 L 180 621 L 250 754 L 323 754 L 393 621 Z" />
<glyph unicode="ü" horiz-adv-x="572" d="M 130 550 L 130 179 C 130 149 132 125 138 107 C 143 89 151 74 162 63 C 173 52 187 45 205 41 C 222 37 243 35 267 35 C 299 35 330 41 358 53 C 386 65 414 83 442 105 L 442 550 L 495 550 L 495 0 L 463 0 L 446 61 C 430 49 415 38 401 29 C 387 20 372 13 358 7 C 343 1 328 -3 313 -6 C 297 -9 281 -11 263 -11 C 231 -11 203 -8 180 -2 C 156 3 137 13 122 27 C 106 41 95 61 88 86 C 80 110 77 141 77 179 L 77 550 L 130 550 Z M 323 715 L 393 715 L 393 645 L 323 645 L 323 715 Z M 180 715 L 250 715 L 250 645 L 180 645 L 180 715 Z" />
<glyph unicode="ý" horiz-adv-x="524" d="M 27 550 L 85 550 L 260 63 L 262 63 L 437 550 L 496 550 L 260 -81 C 251 -103 242 -122 233 -137 C 223 -152 212 -164 200 -173 C 188 -182 174 -188 159 -192 C 143 -196 125 -198 105 -198 C 93 -198 84 -197 76 -196 C 68 -194 59 -192 50 -189 L 50 -142 C 67 -148 85 -152 105 -152 C 117 -152 129 -150 139 -148 C 149 -145 159 -140 167 -134 C 175 -128 183 -119 190 -108 C 197 -96 204 -82 211 -64 L 234 0 L 27 550 Z M 301 754 L 378 754 L 284 621 L 246 621 L 301 754 Z" />
<glyph unicode="þ" horiz-adv-x="592" d="M 82 737 L 135 737 L 135 492 C 161 511 191 527 223 541 C 255 554 286 561 316 561 C 349 561 379 557 405 550 C 431 542 453 529 471 510 C 489 490 502 464 512 431 C 521 398 526 356 526 306 L 526 244 C 526 192 521 150 512 118 C 502 85 489 59 471 40 C 453 20 431 7 405 0 C 379 -7 349 -11 316 -11 C 286 -11 255 -4 223 9 C 191 22 161 38 135 58 L 135 -187 L 82 -187 L 82 737 Z M 135 105 C 163 83 192 65 223 53 C 253 41 283 35 311 35 C 340 35 365 38 385 44 C 405 50 422 60 435 76 C 448 92 458 113 464 140 C 470 167 473 202 473 244 L 473 306 C 473 348 470 382 464 409 C 458 436 448 457 435 473 C 422 489 405 500 385 506 C 365 512 340 515 311 515 C 283 515 253 509 223 497 C 192 485 163 468 135 446 L 135 105 Z" />
<glyph unicode="ÿ" horiz-adv-x="524" d="M 27 550 L 85 550 L 260 63 L 262 63 L 437 550 L 496 550 L 260 -81 C 251 -103 242 -122 233 -137 C 223 -152 212 -164 200 -173 C 188 -182 174 -188 159 -192 C 143 -196 125 -198 105 -198 C 93 -198 84 -197 76 -196 C 68 -194 59 -192 50 -189 L 50 -142 C 67 -148 85 -152 105 -152 C 117 -152 129 -150 139 -148 C 149 -145 159 -140 167 -134 C 175 -128 183 -119 190 -108 C 197 -96 204 -82 211 -64 L 234 0 L 27 550 Z M 299 715 L 369 715 L 369 645 L 299 645 L 299 715 Z M 156 715 L 226 715 L 226 645 L 156 645 L 156 715 Z" />
<glyph unicode="Ā" horiz-adv-x="579" d="M 428 196 L 150 196 L 91 0 L 33 0 L 254 715 L 324 715 L 546 0 L 487 0 L 428 196 Z M 165 244 L 414 244 L 290 652 L 288 652 L 165 244 Z M 162 858 L 415 858 L 415 812 L 162 812 L 162 858 Z" />
<glyph unicode="ā" horiz-adv-x="546" d="M 50 145 C 50 190 63 226 90 252 C 117 278 160 293 219 297 L 427 309 L 427 386 C 427 410 424 430 420 447 C 416 463 408 477 397 487 C 385 497 370 504 351 508 C 331 512 307 515 277 515 C 249 515 226 513 208 510 C 189 506 174 500 162 491 C 150 482 141 470 136 455 C 130 439 128 420 128 397 L 75 397 C 75 430 79 457 89 479 C 99 500 112 517 130 529 C 147 541 168 549 193 554 C 218 558 246 561 277 561 C 313 561 344 558 370 552 C 396 546 417 536 433 522 C 449 508 461 490 469 468 C 476 446 480 418 480 386 L 480 0 L 448 0 L 430 61 C 397 36 366 18 337 6 C 308 -5 275 -11 238 -11 C 209 -11 183 -8 160 -2 C 137 4 117 13 101 26 C 85 38 72 54 63 74 C 54 94 50 117 50 145 Z M 242 35 C 280 35 314 41 342 53 C 370 65 399 83 427 105 L 427 268 L 224 252 C 182 248 152 238 132 222 C 112 206 103 181 103 145 C 103 105 115 76 139 60 C 163 43 198 35 242 35 Z M 146 693 L 399 693 L 399 647 L 146 647 L 146 693 Z" />
<glyph unicode="Ă" horiz-adv-x="579" d="M 428 196 L 150 196 L 91 0 L 33 0 L 254 715 L 324 715 L 546 0 L 487 0 L 428 196 Z M 165 244 L 414 244 L 290 652 L 288 652 L 165 244 Z M 208 916 C 208 888 214 866 228 850 C 241 834 262 827 290 827 C 318 827 338 834 351 850 C 364 866 371 888 371 916 L 416 916 C 416 872 405 839 384 816 C 362 792 331 781 290 781 C 248 781 216 792 195 816 C 173 839 163 872 163 916 L 208 916 Z" />
<glyph unicode="ă" horiz-adv-x="546" d="M 50 145 C 50 190 63 226 90 252 C 117 278 160 293 219 297 L 427 309 L 427 386 C 427 410 424 430 420 447 C 416 463 408 477 397 487 C 385 497 370 504 351 508 C 331 512 307 515 277 515 C 249 515 226 513 208 510 C 189 506 174 500 162 491 C 150 482 141 470 136 455 C 130 439 128 420 128 397 L 75 397 C 75 430 79 457 89 479 C 99 500 112 517 130 529 C 147 541 168 549 193 554 C 218 558 246 561 277 561 C 313 561 344 558 370 552 C 396 546 417 536 433 522 C 449 508 461 490 469 468 C 476 446 480 418 480 386 L 480 0 L 448 0 L 430 61 C 397 36 366 18 337 6 C 308 -5 275 -11 238 -11 C 209 -11 183 -8 160 -2 C 137 4 117 13 101 26 C 85 38 72 54 63 74 C 54 94 50 117 50 145 Z M 242 35 C 280 35 314 41 342 53 C 370 65 399 83 427 105 L 427 268 L 224 252 C 182 248 152 238 132 222 C 112 206 103 181 103 145 C 103 105 115 76 139 60 C 163 43 198 35 242 35 Z M 194 751 C 194 723 200 701 214 685 C 227 669 248 662 276 662 C 304 662 324 669 337 685 C 350 701 357 723 357 751 L 402 751 C 402 707 391 674 370 651 C 348 627 317 616 276 616 C 234 616 202 627 181 651 C 159 674 149 707 149 751 L 194 751 Z" />
<glyph unicode="Ą" horiz-adv-x="579" d="M 424 -110 C 424 -90 429 -71 441 -53 C 452 -35 468 -18 488 -4 L 428 196 L 150 196 L 91 0 L 33 0 L 254 715 L 324 715 L 546 0 C 522 -15 504 -31 492 -48 C 480 -65 474 -81 474 -97 C 474 -112 478 -123 486 -129 C 494 -135 506 -139 520 -139 L 546 -139 L 546 -183 L 507 -183 C 480 -183 459 -177 445 -165 C 431 -153 424 -135 424 -110 Z M 165 244 L 414 244 L 290 652 L 288 652 L 165 244 Z" />
<glyph unicode="ą" horiz-adv-x="568" d="M 491 -183 L 452 -183 C 425 -183 404 -177 390 -165 C 376 -153 369 -135 369 -110 C 369 -89 375 -69 389 -49 C 403 -29 425 -9 455 10 L 441 61 C 408 36 377 18 348 6 C 319 -5 286 -11 249 -11 C 220 -11 194 -8 171 -2 C 148 4 128 13 112 26 C 96 38 83 54 74 74 C 65 94 61 117 61 145 C 61 190 74 226 101 252 C 128 278 171 293 230 297 L 438 309 L 438 386 C 438 410 435 430 431 447 C 427 463 419 477 408 487 C 396 497 381 504 362 508 C 342 512 318 515 288 515 C 260 515 237 513 219 510 C 200 506 185 500 173 491 C 161 482 152 470 147 455 C 141 439 139 420 139 397 L 86 397 C 86 430 90 457 100 479 C 110 500 123 517 141 529 C 158 541 179 549 204 554 C 229 558 257 561 288 561 C 324 561 355 558 381 552 C 407 546 428 536 444 522 C 460 508 472 490 480 468 C 487 446 491 418 491 386 L 491 0 C 467 -15 449 -31 437 -48 C 425 -65 419 -81 419 -97 C 419 -112 423 -123 431 -129 C 439 -135 451 -139 465 -139 L 491 -139 L 491 -183 Z M 253 35 C 291 35 325 41 353 53 C 381 65 410 83 438 105 L 438 268 L 235 252 C 193 248 163 238 143 222 C 123 206 114 181 114 145 C 114 105 126 76 150 60 C 174 43 209 35 253 35 Z" />
<glyph unicode="Ć" horiz-adv-x="595" d="M 310 37 C 340 37 365 39 387 44 C 408 48 425 56 439 68 C 453 80 463 95 470 115 C 476 134 480 158 480 188 L 535 188 C 535 114 516 63 479 33 C 441 3 385 -11 310 -11 C 268 -11 232 -7 202 1 C 172 9 147 23 127 43 C 107 63 93 89 84 123 C 75 156 71 198 71 249 L 71 468 C 71 516 75 556 83 589 C 91 621 105 648 124 668 C 143 688 168 703 198 712 C 228 721 266 726 310 726 C 385 726 441 711 479 681 C 516 651 535 600 535 527 L 480 527 C 480 555 476 579 470 599 C 463 619 453 634 439 646 C 425 657 408 665 387 670 C 365 675 340 678 310 678 C 276 678 247 674 224 668 C 200 661 181 650 167 634 C 153 618 142 596 136 569 C 130 542 127 509 127 469 L 127 248 C 127 207 130 173 136 146 C 142 119 152 97 166 81 C 180 65 198 53 222 47 C 245 40 274 37 310 37 Z M 351 919 L 428 919 L 334 786 L 296 786 L 351 919 Z" />
<glyph unicode="ć" horiz-adv-x="548" d="M 284 515 C 252 515 225 512 203 506 C 181 500 164 489 151 474 C 137 458 128 437 122 410 C 116 383 113 348 113 306 L 113 244 C 113 201 116 166 122 139 C 128 112 137 91 151 75 C 164 59 181 49 203 43 C 225 37 252 35 284 35 C 314 35 338 37 358 42 C 377 46 392 54 404 64 C 416 74 424 86 428 101 C 432 115 435 133 435 153 L 487 153 C 487 123 483 98 475 77 C 467 56 455 39 439 26 C 422 13 401 4 376 -2 C 350 -8 320 -11 284 -11 C 246 -11 213 -7 185 0 C 157 7 133 20 115 40 C 97 59 83 85 74 118 C 65 150 61 192 61 244 L 61 306 C 61 356 65 398 74 431 C 83 464 97 490 115 510 C 133 529 157 542 185 550 C 213 557 246 561 284 561 C 355 561 407 548 439 523 C 471 497 487 455 487 397 L 435 397 C 435 417 432 434 428 449 C 424 463 416 476 404 486 C 392 496 377 503 358 508 C 338 512 314 515 284 515 Z M 322 754 L 399 754 L 305 621 L 267 621 L 322 754 Z" />
<glyph unicode="Ĉ" horiz-adv-x="595" d="M 310 37 C 340 37 365 39 387 44 C 408 48 425 56 439 68 C 453 80 463 95 470 115 C 476 134 480 158 480 188 L 535 188 C 535 114 516 63 479 33 C 441 3 385 -11 310 -11 C 268 -11 232 -7 202 1 C 172 9 147 23 127 43 C 107 63 93 89 84 123 C 75 156 71 198 71 249 L 71 468 C 71 516 75 556 83 589 C 91 621 105 648 124 668 C 143 688 168 703 198 712 C 228 721 266 726 310 726 C 385 726 441 711 479 681 C 516 651 535 600 535 527 L 480 527 C 480 555 476 579 470 599 C 463 619 453 634 439 646 C 425 657 408 665 387 670 C 365 675 340 678 310 678 C 276 678 247 674 224 668 C 200 661 181 650 167 634 C 153 618 142 596 136 569 C 130 542 127 509 127 469 L 127 248 C 127 207 130 173 136 146 C 142 119 152 97 166 81 C 180 65 198 53 222 47 C 245 40 274 37 310 37 Z M 420 786 L 380 786 L 313 873 L 246 786 L 207 786 L 277 919 L 350 919 L 420 786 Z" />
<glyph unicode="ĉ" horiz-adv-x="548" d="M 284 515 C 252 515 225 512 203 506 C 181 500 164 489 151 474 C 137 458 128 437 122 410 C 116 383 113 348 113 306 L 113 244 C 113 201 116 166 122 139 C 128 112 137 91 151 75 C 164 59 181 49 203 43 C 225 37 252 35 284 35 C 314 35 338 37 358 42 C 377 46 392 54 404 64 C 416 74 424 86 428 101 C 432 115 435 133 435 153 L 487 153 C 487 123 483 98 475 77 C 467 56 455 39 439 26 C 422 13 401 4 376 -2 C 350 -8 320 -11 284 -11 C 246 -11 213 -7 185 0 C 157 7 133 20 115 40 C 97 59 83 85 74 118 C 65 150 61 192 61 244 L 61 306 C 61 356 65 398 74 431 C 83 464 97 490 115 510 C 133 529 157 542 185 550 C 213 557 246 561 284 561 C 355 561 407 548 439 523 C 471 497 487 455 487 397 L 435 397 C 435 417 432 434 428 449 C 424 463 416 476 404 486 C 392 496 377 503 358 508 C 338 512 314 515 284 515 Z M 390 621 L 350 621 L 283 708 L 216 621 L 177 621 L 247 754 L 320 754 L 390 621 Z" />
<glyph unicode="Ċ" horiz-adv-x="595" d="M 310 37 C 340 37 365 39 387 44 C 408 48 425 56 439 68 C 453 80 463 95 470 115 C 476 134 480 158 480 188 L 535 188 C 535 114 516 63 479 33 C 441 3 385 -11 310 -11 C 268 -11 232 -7 202 1 C 172 9 147 23 127 43 C 107 63 93 89 84 123 C 75 156 71 198 71 249 L 71 468 C 71 516 75 556 83 589 C 91 621 105 648 124 668 C 143 688 168 703 198 712 C 228 721 266 726 310 726 C 385 726 441 711 479 681 C 516 651 535 600 535 527 L 480 527 C 480 555 476 579 470 599 C 463 619 453 634 439 646 C 425 657 408 665 387 670 C 365 675 340 678 310 678 C 276 678 247 674 224 668 C 200 661 181 650 167 634 C 153 618 142 596 136 569 C 130 542 127 509 127 469 L 127 248 C 127 207 130 173 136 146 C 142 119 152 97 166 81 C 180 65 198 53 222 47 C 245 40 274 37 310 37 Z M 280 880 L 350 880 L 350 810 L 280 810 L 280 880 Z" />
<glyph unicode="ċ" horiz-adv-x="548" d="M 284 515 C 252 515 225 512 203 506 C 181 500 164 489 151 474 C 137 458 128 437 122 410 C 116 383 113 348 113 306 L 113 244 C 113 201 116 166 122 139 C 128 112 137 91 151 75 C 164 59 181 49 203 43 C 225 37 252 35 284 35 C 314 35 338 37 358 42 C 377 46 392 54 404 64 C 416 74 424 86 428 101 C 432 115 435 133 435 153 L 487 153 C 487 123 483 98 475 77 C 467 56 455 39 439 26 C 422 13 401 4 376 -2 C 350 -8 320 -11 284 -11 C 246 -11 213 -7 185 0 C 157 7 133 20 115 40 C 97 59 83 85 74 118 C 65 150 61 192 61 244 L 61 306 C 61 356 65 398 74 431 C 83 464 97 490 115 510 C 133 529 157 542 185 550 C 213 557 246 561 284 561 C 355 561 407 548 439 523 C 471 497 487 455 487 397 L 435 397 C 435 417 432 434 428 449 C 424 463 416 476 404 486 C 392 496 377 503 358 508 C 338 512 314 515 284 515 Z M 250 715 L 320 715 L 320 645 L 250 645 L 250 715 Z" />
<glyph unicode="Č" horiz-adv-x="595" d="M 310 37 C 340 37 365 39 387 44 C 408 48 425 56 439 68 C 453 80 463 95 470 115 C 476 134 480 158 480 188 L 535 188 C 535 114 516 63 479 33 C 441 3 385 -11 310 -11 C 268 -11 232 -7 202 1 C 172 9 147 23 127 43 C 107 63 93 89 84 123 C 75 156 71 198 71 249 L 71 468 C 71 516 75 556 83 589 C 91 621 105 648 124 668 C 143 688 168 703 198 712 C 228 721 266 726 310 726 C 385 726 441 711 479 681 C 516 651 535 600 535 527 L 480 527 C 480 555 476 579 470 599 C 463 619 453 634 439 646 C 425 657 408 665 387 670 C 365 675 340 678 310 678 C 276 678 247 674 224 668 C 200 661 181 650 167 634 C 153 618 142 596 136 569 C 130 542 127 509 127 469 L 127 248 C 127 207 130 173 136 146 C 142 119 152 97 166 81 C 180 65 198 53 222 47 C 245 40 274 37 310 37 Z M 350 786 L 277 786 L 207 919 L 247 919 L 314 832 L 381 919 L 420 919 L 350 786 Z" />
<glyph unicode="č" horiz-adv-x="548" d="M 284 515 C 252 515 225 512 203 506 C 181 500 164 489 151 474 C 137 458 128 437 122 410 C 116 383 113 348 113 306 L 113 244 C 113 201 116 166 122 139 C 128 112 137 91 151 75 C 164 59 181 49 203 43 C 225 37 252 35 284 35 C 314 35 338 37 358 42 C 377 46 392 54 404 64 C 416 74 424 86 428 101 C 432 115 435 133 435 153 L 487 153 C 487 123 483 98 475 77 C 467 56 455 39 439 26 C 422 13 401 4 376 -2 C 350 -8 320 -11 284 -11 C 246 -11 213 -7 185 0 C 157 7 133 20 115 40 C 97 59 83 85 74 118 C 65 150 61 192 61 244 L 61 306 C 61 356 65 398 74 431 C 83 464 97 490 115 510 C 133 529 157 542 185 550 C 213 557 246 561 284 561 C 355 561 407 548 439 523 C 471 497 487 455 487 397 L 435 397 C 435 417 432 434 428 449 C 424 463 416 476 404 486 C 392 496 377 503 358 508 C 338 512 314 515 284 515 Z M 322 621 L 249 621 L 179 754 L 219 754 L 286 667 L 353 754 L 392 754 L 322 621 Z" />
<glyph unicode="Ď" horiz-adv-x="629" d="M 94 0 L 94 715 L 296 715 C 337 715 374 711 407 704 C 439 696 467 683 489 664 C 511 644 528 618 540 585 C 552 552 558 510 558 460 L 558 255 C 558 203 552 161 540 129 C 528 96 511 70 489 51 C 467 31 439 18 407 11 C 374 3 337 0 296 0 L 94 0 Z M 296 48 C 328 48 357 50 383 56 C 409 62 430 72 448 88 C 466 103 479 124 489 151 C 498 178 503 213 503 255 L 503 460 C 503 502 498 536 489 563 C 479 590 466 611 448 627 C 430 642 409 652 383 658 C 357 664 328 667 296 667 L 148 667 L 148 48 L 296 48 Z M 333 786 L 260 786 L 190 919 L 230 919 L 297 832 L 364 919 L 403 919 L 333 786 Z" />
<glyph unicode="ď" horiz-adv-x="641" d="M 275 35 C 303 35 332 41 363 53 C 393 65 423 83 451 105 L 451 446 C 423 468 393 485 363 497 C 332 509 303 515 275 515 C 245 515 220 512 200 506 C 180 500 163 489 150 473 C 137 457 128 436 122 409 C 116 382 113 348 113 306 L 113 244 C 113 202 116 167 122 140 C 128 113 137 92 150 76 C 163 60 180 50 200 44 C 220 38 245 35 275 35 Z M 271 -11 C 237 -11 208 -7 182 0 C 156 7 134 20 116 40 C 98 59 84 85 75 118 C 65 150 61 192 61 244 L 61 306 C 61 356 65 398 75 431 C 84 464 98 490 116 510 C 134 529 156 542 182 550 C 208 557 237 561 271 561 C 301 561 331 554 363 541 C 395 527 424 511 451 492 L 451 737 L 504 737 L 504 0 L 472 0 L 454 61 C 440 51 426 41 411 33 C 396 24 381 16 365 10 C 349 3 333 -1 317 -5 C 301 -9 285 -11 271 -11 Z M 580 737 L 641 737 L 615 528 L 580 528 L 580 737 Z" />
<glyph unicode="Đ" horiz-adv-x="629" d="M 94 0 L 94 340 L 28 340 L 28 386 L 94 386 L 94 715 L 296 715 C 337 715 374 711 407 704 C 439 696 467 683 489 664 C 511 644 528 618 540 585 C 552 552 558 510 558 460 L 558 255 C 558 203 552 161 540 129 C 528 96 511 70 489 51 C 467 31 439 18 407 11 C 374 3 337 0 296 0 L 94 0 Z M 296 48 C 328 48 357 50 383 56 C 409 62 430 72 448 88 C 466 103 479 124 489 151 C 498 178 503 213 503 255 L 503 460 C 503 502 498 536 489 563 C 479 590 466 611 448 627 C 430 642 409 652 383 658 C 357 664 328 667 296 667 L 148 667 L 148 386 L 280 386 L 280 340 L 148 340 L 148 48 L 296 48 Z" />
<glyph unicode="đ" horiz-adv-x="586" d="M 271 -11 C 237 -11 208 -7 182 0 C 156 7 134 20 116 40 C 98 59 84 85 75 118 C 65 150 61 192 61 244 L 61 306 C 61 356 65 398 75 431 C 84 464 98 490 116 510 C 134 529 156 542 182 550 C 208 557 237 561 271 561 C 301 561 331 554 363 541 C 395 527 424 511 451 492 L 451 627 L 330 627 L 330 667 L 451 667 L 451 737 L 504 737 L 504 667 L 564 667 L 564 627 L 504 627 L 504 0 L 472 0 L 454 61 C 440 51 426 41 411 33 C 396 24 381 16 365 10 C 349 3 333 -1 317 -5 C 301 -9 285 -11 271 -11 Z M 275 35 C 303 35 332 41 363 53 C 393 65 423 83 451 105 L 451 446 C 423 468 393 485 363 497 C 332 509 303 515 275 515 C 245 515 220 512 200 506 C 180 500 163 489 150 473 C 137 457 128 436 122 409 C 116 382 113 348 113 306 L 113 244 C 113 202 116 167 122 140 C 128 113 137 92 150 76 C 163 60 180 50 200 44 C 220 38 245 35 275 35 Z" />
<glyph unicode="Ē" horiz-adv-x="555" d="M 444 340 L 148 340 L 148 48 L 484 48 L 484 0 L 94 0 L 94 715 L 484 715 L 484 667 L 148 667 L 148 386 L 444 386 L 444 340 Z M 170 858 L 423 858 L 423 812 L 170 812 L 170 858 Z" />
<glyph unicode="ē" horiz-adv-x="557" d="M 113 252 C 113 205 116 167 122 139 C 128 111 138 89 152 73 C 166 57 184 47 208 42 C 231 37 260 35 295 35 C 329 35 360 37 390 42 C 419 47 446 53 472 59 L 472 11 C 448 5 421 0 390 -4 C 359 -8 324 -11 286 -11 C 247 -11 213 -7 185 0 C 157 6 133 19 115 38 C 97 57 83 83 74 116 C 65 149 61 192 61 244 L 61 306 C 61 356 65 398 74 431 C 83 464 97 490 115 510 C 133 529 156 542 184 550 C 212 557 244 561 282 561 C 319 561 351 557 378 549 C 405 541 427 528 445 509 C 462 489 475 463 483 430 C 491 396 496 354 496 304 L 496 252 L 113 252 Z M 443 298 C 443 342 440 378 435 406 C 430 434 422 456 410 472 C 398 488 381 500 361 506 C 340 512 314 515 282 515 C 250 515 223 512 202 506 C 180 500 163 488 150 472 C 136 456 127 434 121 406 C 115 378 113 342 113 298 L 443 298 Z M 157 693 L 410 693 L 410 647 L 157 647 L 157 693 Z" />
<glyph unicode="Ĕ" horiz-adv-x="555" d="M 444 340 L 148 340 L 148 48 L 484 48 L 484 0 L 94 0 L 94 715 L 484 715 L 484 667 L 148 667 L 148 386 L 444 386 L 444 340 Z M 215 916 C 215 888 221 866 235 850 C 248 834 269 827 297 827 C 325 827 345 834 358 850 C 371 866 378 888 378 916 L 423 916 C 423 872 412 839 391 816 C 369 792 338 781 297 781 C 255 781 223 792 202 816 C 180 839 170 872 170 916 L 215 916 Z" />
<glyph unicode="ĕ" horiz-adv-x="557" d="M 113 252 C 113 205 116 167 122 139 C 128 111 138 89 152 73 C 166 57 184 47 208 42 C 231 37 260 35 295 35 C 329 35 360 37 390 42 C 419 47 446 53 472 59 L 472 11 C 448 5 421 0 390 -4 C 359 -8 324 -11 286 -11 C 247 -11 213 -7 185 0 C 157 6 133 19 115 38 C 97 57 83 83 74 116 C 65 149 61 192 61 244 L 61 306 C 61 356 65 398 74 431 C 83 464 97 490 115 510 C 133 529 156 542 184 550 C 212 557 244 561 282 561 C 319 561 351 557 378 549 C 405 541 427 528 445 509 C 462 489 475 463 483 430 C 491 396 496 354 496 304 L 496 252 L 113 252 Z M 443 298 C 443 342 440 378 435 406 C 430 434 422 456 410 472 C 398 488 381 500 361 506 C 340 512 314 515 282 515 C 250 515 223 512 202 506 C 180 500 163 488 150 472 C 136 456 127 434 121 406 C 115 378 113 342 113 298 L 443 298 Z M 202 751 C 202 723 208 701 222 685 C 235 669 256 662 284 662 C 312 662 332 669 345 685 C 358 701 365 723 365 751 L 410 751 C 410 707 399 674 378 651 C 356 627 325 616 284 616 C 242 616 210 627 189 651 C 167 674 157 707 157 751 L 202 751 Z" />
<glyph unicode="Ė" horiz-adv-x="555" d="M 444 340 L 148 340 L 148 48 L 484 48 L 484 0 L 94 0 L 94 715 L 484 715 L 484 667 L 148 667 L 148 386 L 444 386 L 444 340 Z M 258 880 L 328 880 L 328 810 L 258 810 L 258 880 Z" />
<glyph unicode="ė" horiz-adv-x="557" d="M 113 252 C 113 205 116 167 122 139 C 128 111 138 89 152 73 C 166 57 184 47 208 42 C 231 37 260 35 295 35 C 329 35 360 37 390 42 C 419 47 446 53 472 59 L 472 11 C 448 5 421 0 390 -4 C 359 -8 324 -11 286 -11 C 247 -11 213 -7 185 0 C 157 6 133 19 115 38 C 97 57 83 83 74 116 C 65 149 61 192 61 244 L 61 306 C 61 356 65 398 74 431 C 83 464 97 490 115 510 C 133 529 156 542 184 550 C 212 557 244 561 282 561 C 319 561 351 557 378 549 C 405 541 427 528 445 509 C 462 489 475 463 483 430 C 491 396 496 354 496 304 L 496 252 L 113 252 Z M 443 298 C 443 342 440 378 435 406 C 430 434 422 456 410 472 C 398 488 381 500 361 506 C 340 512 314 515 282 515 C 250 515 223 512 202 506 C 180 500 163 488 150 472 C 136 456 127 434 121 406 C 115 378 113 342 113 298 L 443 298 Z M 248 715 L 318 715 L 318 645 L 248 645 L 248 715 Z" />
<glyph unicode="Ę" horiz-adv-x="555" d="M 484 -183 L 446 -183 C 419 -183 398 -177 384 -165 C 369 -153 362 -135 362 -110 C 362 -89 368 -69 381 -51 C 393 -32 411 -15 433 0 L 94 0 L 94 715 L 484 715 L 484 667 L 148 667 L 148 386 L 444 386 L 444 340 L 148 340 L 148 48 L 484 48 L 484 0 C 460 -15 443 -31 431 -48 C 419 -65 413 -81 413 -97 C 413 -112 417 -123 425 -129 C 433 -135 444 -139 459 -139 L 484 -139 L 484 -183 Z" />
<glyph unicode="ę" horiz-adv-x="557" d="M 472 -172 L 433 -172 C 407 -172 386 -166 372 -154 C 357 -142 350 -124 350 -99 C 350 -81 354 -64 364 -48 C 373 -31 386 -16 403 -2 C 369 -8 330 -11 286 -11 C 247 -11 213 -7 185 0 C 157 6 133 19 115 38 C 97 57 83 83 74 116 C 65 149 61 192 61 244 L 61 306 C 61 356 65 398 74 431 C 83 464 97 490 115 510 C 133 529 156 542 184 550 C 212 557 244 561 282 561 C 319 561 351 557 378 549 C 405 541 427 528 445 509 C 462 489 475 463 483 430 C 491 396 496 354 496 304 L 496 252 L 113 252 C 113 205 116 167 122 139 C 128 111 138 89 152 73 C 166 57 184 47 208 42 C 231 37 260 35 295 35 C 329 35 360 37 390 42 C 419 47 446 53 472 59 L 472 11 C 448 -4 430 -20 418 -37 C 406 -54 400 -70 400 -86 C 400 -101 404 -112 412 -118 C 420 -124 432 -128 447 -128 L 472 -128 L 472 -172 Z M 443 298 C 443 342 440 378 435 406 C 430 434 422 456 410 472 C 398 488 381 500 361 506 C 340 512 314 515 282 515 C 250 515 223 512 202 506 C 180 500 163 488 150 472 C 136 456 127 434 121 406 C 115 378 113 342 113 298 L 443 298 Z" />
<glyph unicode="Ě" horiz-adv-x="555" d="M 444 340 L 148 340 L 148 48 L 484 48 L 484 0 L 94 0 L 94 715 L 484 715 L 484 667 L 148 667 L 148 386 L 444 386 L 444 340 Z M 331 786 L 258 786 L 188 919 L 228 919 L 295 832 L 362 919 L 401 919 L 331 786 Z" />
<glyph unicode="ě" horiz-adv-x="557" d="M 113 252 C 113 205 116 167 122 139 C 128 111 138 89 152 73 C 166 57 184 47 208 42 C 231 37 260 35 295 35 C 329 35 360 37 390 42 C 419 47 446 53 472 59 L 472 11 C 448 5 421 0 390 -4 C 359 -8 324 -11 286 -11 C 247 -11 213 -7 185 0 C 157 6 133 19 115 38 C 97 57 83 83 74 116 C 65 149 61 192 61 244 L 61 306 C 61 356 65 398 74 431 C 83 464 97 490 115 510 C 133 529 156 542 184 550 C 212 557 244 561 282 561 C 319 561 351 557 378 549 C 405 541 427 528 445 509 C 462 489 475 463 483 430 C 491 396 496 354 496 304 L 496 252 L 113 252 Z M 443 298 C 443 342 440 378 435 406 C 430 434 422 456 410 472 C 398 488 381 500 361 506 C 340 512 314 515 282 515 C 250 515 223 512 202 506 C 180 500 163 488 150 472 C 136 456 127 434 121 406 C 115 378 113 342 113 298 L 443 298 Z M 321 621 L 248 621 L 178 754 L 218 754 L 285 667 L 352 754 L 391 754 L 321 621 Z" />
<glyph unicode="Ĝ" horiz-adv-x="628" d="M 310 726 C 385 726 441 711 479 681 C 516 651 535 600 535 527 L 480 527 C 480 555 476 579 470 599 C 463 619 453 634 439 646 C 425 657 408 665 387 670 C 365 675 340 678 310 678 C 276 678 247 674 224 668 C 200 661 181 650 167 634 C 153 618 142 596 136 569 C 130 542 127 509 127 469 L 127 248 C 127 207 130 173 136 146 C 142 119 152 97 166 81 C 180 65 198 53 222 47 C 245 40 274 37 310 37 C 374 37 421 50 449 77 C 477 104 491 139 491 183 L 491 340 L 327 340 L 327 386 L 546 386 L 546 0 L 514 0 L 496 66 C 486 54 476 43 465 33 C 454 23 441 15 427 9 C 412 3 395 -1 376 -5 C 357 -9 335 -11 310 -11 C 268 -11 232 -6 202 1 C 172 9 147 24 127 44 C 107 64 93 90 84 124 C 75 157 71 198 71 248 L 71 469 C 71 515 75 555 83 588 C 91 620 105 647 124 668 C 143 688 168 703 198 712 C 228 721 266 726 310 726 Z M 417 786 L 377 786 L 310 873 L 243 786 L 204 786 L 274 919 L 347 919 L 417 786 Z" />
<glyph unicode="ĝ" horiz-adv-x="586" d="M 451 69 C 424 49 395 33 363 20 C 331 6 301 0 271 0 C 237 0 208 3 182 11 C 156 18 134 31 116 51 C 98 70 84 96 75 129 C 65 161 61 203 61 255 L 61 306 C 61 356 65 398 75 431 C 84 464 98 490 116 510 C 134 529 156 542 182 550 C 208 557 237 561 271 561 C 285 561 301 559 317 555 C 333 551 349 546 365 540 C 381 533 396 525 411 517 C 426 509 440 500 454 490 L 472 550 L 504 550 L 504 0 C 504 -35 500 -65 494 -90 C 488 -115 477 -136 462 -152 C 446 -168 426 -179 400 -187 C 374 -194 342 -198 304 -198 C 272 -198 242 -196 214 -192 C 186 -188 159 -183 134 -176 L 134 -125 C 162 -134 189 -141 217 -145 C 245 -149 274 -152 304 -152 C 331 -152 354 -149 373 -145 C 391 -140 406 -132 418 -121 C 430 -109 438 -94 443 -74 C 448 -54 451 -30 451 0 L 451 69 Z M 275 515 C 245 515 220 512 200 506 C 180 500 163 489 150 473 C 137 457 128 436 122 409 C 116 382 113 348 113 306 L 113 255 C 113 213 116 178 122 151 C 128 124 137 103 150 87 C 163 71 180 61 200 55 C 220 49 245 46 275 46 C 303 46 332 52 363 64 C 393 76 423 93 451 116 L 451 446 C 423 468 393 485 363 497 C 332 509 303 515 275 515 Z M 396 621 L 356 621 L 289 708 L 222 621 L 183 621 L 253 754 L 326 754 L 396 621 Z" />
<glyph unicode="Ğ" horiz-adv-x="628" d="M 310 726 C 385 726 441 711 479 681 C 516 651 535 600 535 527 L 480 527 C 480 555 476 579 470 599 C 463 619 453 634 439 646 C 425 657 408 665 387 670 C 365 675 340 678 310 678 C 276 678 247 674 224 668 C 200 661 181 650 167 634 C 153 618 142 596 136 569 C 130 542 127 509 127 469 L 127 248 C 127 207 130 173 136 146 C 142 119 152 97 166 81 C 180 65 198 53 222 47 C 245 40 274 37 310 37 C 374 37 421 50 449 77 C 477 104 491 139 491 183 L 491 340 L 327 340 L 327 386 L 546 386 L 546 0 L 514 0 L 496 66 C 486 54 476 43 465 33 C 454 23 441 15 427 9 C 412 3 395 -1 376 -5 C 357 -9 335 -11 310 -11 C 268 -11 232 -6 202 1 C 172 9 147 24 127 44 C 107 64 93 90 84 124 C 75 157 71 198 71 248 L 71 469 C 71 515 75 555 83 588 C 91 620 105 647 124 668 C 143 688 168 703 198 712 C 228 721 266 726 310 726 Z M 229 916 C 229 888 235 866 249 850 C 262 834 283 827 311 827 C 339 827 359 834 372 850 C 385 866 392 888 392 916 L 437 916 C 437 872 426 839 405 816 C 383 792 352 781 311 781 C 269 781 237 792 216 816 C 194 839 184 872 184 916 L 229 916 Z" />
<glyph unicode="ğ" horiz-adv-x="586" d="M 451 69 C 424 49 395 33 363 20 C 331 6 301 0 271 0 C 237 0 208 3 182 11 C 156 18 134 31 116 51 C 98 70 84 96 75 129 C 65 161 61 203 61 255 L 61 306 C 61 356 65 398 75 431 C 84 464 98 490 116 510 C 134 529 156 542 182 550 C 208 557 237 561 271 561 C 285 561 301 559 317 555 C 333 551 349 546 365 540 C 381 533 396 525 411 517 C 426 509 440 500 454 490 L 472 550 L 504 550 L 504 0 C 504 -35 500 -65 494 -90 C 488 -115 477 -136 462 -152 C 446 -168 426 -179 400 -187 C 374 -194 342 -198 304 -198 C 272 -198 242 -196 214 -192 C 186 -188 159 -183 134 -176 L 134 -125 C 162 -134 189 -141 217 -145 C 245 -149 274 -152 304 -152 C 331 -152 354 -149 373 -145 C 391 -140 406 -132 418 -121 C 430 -109 438 -94 443 -74 C 448 -54 451 -30 451 0 L 451 69 Z M 275 515 C 245 515 220 512 200 506 C 180 500 163 489 150 473 C 137 457 128 436 122 409 C 116 382 113 348 113 306 L 113 255 C 113 213 116 178 122 151 C 128 124 137 103 150 87 C 163 71 180 61 200 55 C 220 49 245 46 275 46 C 303 46 332 52 363 64 C 393 76 423 93 451 116 L 451 446 C 423 468 393 485 363 497 C 332 509 303 515 275 515 Z M 208 751 C 208 723 214 701 228 685 C 241 669 262 662 290 662 C 318 662 338 669 351 685 C 364 701 371 723 371 751 L 416 751 C 416 707 405 674 384 651 C 362 627 331 616 290 616 C 248 616 216 627 195 651 C 173 674 163 707 163 751 L 208 751 Z" />
<glyph unicode="Ġ" horiz-adv-x="628" d="M 310 726 C 385 726 441 711 479 681 C 516 651 535 600 535 527 L 480 527 C 480 555 476 579 470 599 C 463 619 453 634 439 646 C 425 657 408 665 387 670 C 365 675 340 678 310 678 C 276 678 247 674 224 668 C 200 661 181 650 167 634 C 153 618 142 596 136 569 C 130 542 127 509 127 469 L 127 248 C 127 207 130 173 136 146 C 142 119 152 97 166 81 C 180 65 198 53 222 47 C 245 40 274 37 310 37 C 374 37 421 50 449 77 C 477 104 491 139 491 183 L 491 340 L 327 340 L 327 386 L 546 386 L 546 0 L 514 0 L 496 66 C 486 54 476 43 465 33 C 454 23 441 15 427 9 C 412 3 395 -1 376 -5 C 357 -9 335 -11 310 -11 C 268 -11 232 -6 202 1 C 172 9 147 24 127 44 C 107 64 93 90 84 124 C 75 157 71 198 71 248 L 71 469 C 71 515 75 555 83 588 C 91 620 105 647 124 668 C 143 688 168 703 198 712 C 228 721 266 726 310 726 Z M 274 880 L 344 880 L 344 810 L 274 810 L 274 880 Z" />
<glyph unicode="ġ" horiz-adv-x="586" d="M 451 69 C 424 49 395 33 363 20 C 331 6 301 0 271 0 C 237 0 208 3 182 11 C 156 18 134 31 116 51 C 98 70 84 96 75 129 C 65 161 61 203 61 255 L 61 306 C 61 356 65 398 75 431 C 84 464 98 490 116 510 C 134 529 156 542 182 550 C 208 557 237 561 271 561 C 285 561 301 559 317 555 C 333 551 349 546 365 540 C 381 533 396 525 411 517 C 426 509 440 500 454 490 L 472 550 L 504 550 L 504 0 C 504 -35 500 -65 494 -90 C 488 -115 477 -136 462 -152 C 446 -168 426 -179 400 -187 C 374 -194 342 -198 304 -198 C 272 -198 242 -196 214 -192 C 186 -188 159 -183 134 -176 L 134 -125 C 162 -134 189 -141 217 -145 C 245 -149 274 -152 304 -152 C 331 -152 354 -149 373 -145 C 391 -140 406 -132 418 -121 C 430 -109 438 -94 443 -74 C 448 -54 451 -30 451 0 L 451 69 Z M 275 515 C 245 515 220 512 200 506 C 180 500 163 489 150 473 C 137 457 128 436 122 409 C 116 382 113 348 113 306 L 113 255 C 113 213 116 178 122 151 C 128 124 137 103 150 87 C 163 71 180 61 200 55 C 220 49 245 46 275 46 C 303 46 332 52 363 64 C 393 76 423 93 451 116 L 451 446 C 423 468 393 485 363 497 C 332 509 303 515 275 515 Z M 255 715 L 325 715 L 325 645 L 255 645 L 255 715 Z" />
<glyph unicode="Ģ" horiz-adv-x="628" d="M 310 726 C 385 726 441 711 479 681 C 516 651 535 600 535 527 L 480 527 C 480 555 476 579 470 599 C 463 619 453 634 439 646 C 425 657 408 665 387 670 C 365 675 340 678 310 678 C 276 678 247 674 224 668 C 200 661 181 650 167 634 C 153 618 142 596 136 569 C 130 542 127 509 127 469 L 127 248 C 127 207 130 173 136 146 C 142 119 152 97 166 81 C 180 65 198 53 222 47 C 245 40 274 37 310 37 C 374 37 421 50 449 77 C 477 104 491 139 491 183 L 491 340 L 327 340 L 327 386 L 546 386 L 546 0 L 514 0 L 496 66 C 486 54 476 43 465 33 C 454 23 441 15 427 9 C 412 3 395 -1 376 -5 C 357 -9 335 -11 310 -11 C 268 -11 232 -6 202 1 C 172 9 147 24 127 44 C 107 64 93 90 84 124 C 75 157 71 198 71 248 L 71 469 C 71 515 75 555 83 588 C 91 620 105 647 124 668 C 143 688 168 703 198 712 C 228 721 266 726 310 726 Z M 276 -66 L 343 -66 L 286 -209 L 247 -209 L 276 -66 Z" />
<glyph unicode="ģ" horiz-adv-x="586" d="M 451 69 C 424 49 395 33 363 20 C 331 6 301 0 271 0 C 237 0 208 3 182 11 C 156 18 134 31 116 51 C 98 70 84 96 75 129 C 65 161 61 203 61 255 L 61 306 C 61 356 65 398 75 431 C 84 464 98 490 116 510 C 134 529 156 542 182 550 C 208 557 237 561 271 561 C 285 561 301 559 317 555 C 333 551 349 546 365 540 C 381 533 396 525 411 517 C 426 509 440 500 454 490 L 472 550 L 504 550 L 504 0 C 504 -35 500 -65 494 -90 C 488 -115 477 -136 462 -152 C 446 -168 426 -179 400 -187 C 374 -194 342 -198 304 -198 C 272 -198 242 -196 214 -192 C 186 -188 159 -183 134 -176 L 134 -125 C 162 -134 189 -141 217 -145 C 245 -149 274 -152 304 -152 C 331 -152 354 -149 373 -145 C 391 -140 406 -132 418 -121 C 430 -109 438 -94 443 -74 C 448 -54 451 -30 451 0 L 451 69 Z M 275 515 C 245 515 220 512 200 506 C 180 500 163 489 150 473 C 137 457 128 436 122 409 C 116 382 113 348 113 306 L 113 255 C 113 213 116 178 122 151 C 128 124 137 103 150 87 C 163 71 180 61 200 55 C 220 49 245 46 275 46 C 303 46 332 52 363 64 C 393 76 423 93 451 116 L 451 446 C 423 468 393 485 363 497 C 332 509 303 515 275 515 Z M 323 615 L 256 615 L 313 758 L 352 758 L 323 615 Z" />
<glyph unicode="Ĥ" horiz-adv-x="636" d="M 542 0 L 487 0 L 487 340 L 148 340 L 148 0 L 94 0 L 94 715 L 148 715 L 148 386 L 487 386 L 487 715 L 542 715 L 542 0 Z M 425 786 L 385 786 L 318 873 L 251 786 L 212 786 L 282 919 L 355 919 L 425 786 Z" />
<glyph unicode="ĥ" horiz-adv-x="577" d="M 448 0 L 448 371 C 448 399 445 423 440 442 C 434 460 426 475 415 486 C 404 497 390 505 372 509 C 354 513 334 515 310 515 C 277 515 247 509 219 497 C 191 485 163 468 135 446 L 135 0 L 82 0 L 82 737 L 135 737 L 135 492 C 167 515 196 532 224 544 C 252 555 282 561 315 561 C 346 561 373 558 397 552 C 420 546 439 536 455 522 C 470 508 481 488 489 464 C 497 439 501 408 501 371 L 501 0 L 448 0 Z M 414 621 L 374 621 L 307 708 L 240 621 L 201 621 L 271 754 L 344 754 L 414 621 Z" />
<glyph unicode="Ħ" horiz-adv-x="636" d="M 38 596 L 94 596 L 94 715 L 148 715 L 148 596 L 487 596 L 487 715 L 542 715 L 542 596 L 597 596 L 597 550 L 542 550 L 542 0 L 487 0 L 487 340 L 148 340 L 148 0 L 94 0 L 94 550 L 38 550 L 38 596 Z M 487 386 L 487 550 L 148 550 L 148 386 L 487 386 Z" />
<glyph unicode="ħ" horiz-adv-x="577" d="M 448 0 L 448 371 C 448 399 445 423 440 442 C 434 460 426 475 415 486 C 404 497 390 505 372 509 C 354 513 334 515 310 515 C 277 515 247 509 219 497 C 191 485 163 468 135 446 L 135 0 L 82 0 L 82 737 L 135 737 L 135 673 L 459 673 L 459 630 L 135 630 L 135 492 C 167 515 196 532 224 544 C 252 555 282 561 315 561 C 346 561 373 558 397 552 C 420 546 439 536 455 522 C 470 508 481 488 489 464 C 497 439 501 408 501 371 L 501 0 L 448 0 Z" />
<glyph unicode="Ĩ" horiz-adv-x="242" d="M 168 770 C 155 770 145 772 137 777 C 129 781 121 786 115 792 C 109 797 102 802 96 807 C 90 811 82 814 74 814 C 56 814 47 801 47 776 L 14 776 C 14 827 33 853 71 853 C 83 853 94 850 102 846 C 110 841 118 836 125 831 C 131 825 138 820 144 816 C 150 811 158 809 167 809 C 185 809 194 821 194 847 L 227 847 C 227 819 222 800 212 788 C 202 776 187 770 168 770 Z M 94 715 L 148 715 L 148 0 L 94 0 L 94 715 Z" />
<glyph unicode="ĩ" horiz-adv-x="229" d="M 168 606 C 154 606 142 608 134 613 C 125 618 117 623 110 629 C 103 635 96 640 89 645 C 82 650 74 653 65 653 C 45 653 36 639 36 612 L 0 612 C 0 642 5 663 15 676 C 25 688 41 695 63 695 C 77 695 88 692 97 687 C 106 682 114 677 121 671 C 128 665 135 660 142 655 C 149 650 157 648 167 648 C 186 648 196 662 196 690 L 232 690 C 232 660 226 638 216 625 C 205 612 189 606 168 606 Z M 88 550 L 141 550 L 141 0 L 88 0 L 88 550 Z" />
<glyph unicode="Ī" horiz-adv-x="242" d="M 16 836 L 226 836 L 226 790 L 16 790 L 16 836 Z M 94 715 L 148 715 L 148 0 L 94 0 L 94 715 Z" />
<glyph unicode="ī" horiz-adv-x="229" d="M 16 671 L 212 671 L 212 625 L 16 625 L 16 671 Z M 88 550 L 141 550 L 141 0 L 88 0 L 88 550 Z" />
<glyph unicode="Ĭ" horiz-adv-x="242" d="M 94 715 L 148 715 L 148 0 L 94 0 L 94 715 Z M 39 916 C 39 888 45 866 59 850 C 72 834 93 827 121 827 C 149 827 169 834 182 850 C 195 866 202 888 202 916 L 247 916 C 247 872 236 839 215 816 C 193 792 162 781 121 781 C 79 781 47 792 26 816 C 4 839 -6 872 -6 916 L 39 916 Z" />
<glyph unicode="ĭ" horiz-adv-x="229" d="M 88 550 L 141 550 L 141 0 L 88 0 L 88 550 Z M 33 751 C 33 723 39 701 53 685 C 66 669 87 662 115 662 C 143 662 163 669 176 685 C 189 701 196 723 196 751 L 241 751 C 241 707 230 674 209 651 C 187 627 156 616 115 616 C 73 616 41 627 20 651 C -1 674 -12 707 -12 751 L 33 751 Z" />
<glyph unicode="Į" horiz-adv-x="242" d="M 26 -110 C 26 -90 32 -70 44 -52 C 56 -34 72 -17 94 -2 L 94 715 L 148 715 L 148 0 C 124 -15 107 -31 95 -48 C 83 -65 77 -81 77 -97 C 77 -112 81 -123 89 -129 C 97 -135 109 -139 123 -139 L 148 -139 L 148 -183 L 110 -183 C 83 -183 62 -177 48 -165 C 33 -153 26 -135 26 -110 Z" />
<glyph unicode="į" horiz-adv-x="229" d="M 19 -110 C 19 -89 25 -69 37 -51 C 49 -32 66 -15 88 0 L 88 550 L 141 550 L 141 0 C 117 -15 99 -31 87 -48 C 75 -65 69 -81 69 -97 C 69 -112 73 -123 81 -129 C 89 -135 101 -139 116 -139 L 141 -139 L 141 -183 L 102 -183 C 76 -183 55 -177 41 -165 C 26 -153 19 -135 19 -110 Z M 80 737 L 148 737 L 148 669 L 80 669 L 80 737 Z" />
<glyph unicode="İ" horiz-adv-x="242" d="M 94 715 L 148 715 L 148 0 L 94 0 L 94 715 Z M 86 880 L 156 880 L 156 810 L 86 810 L 86 880 Z" />
<glyph unicode="ı" horiz-adv-x="229" d="M 88 550 L 141 550 L 141 0 L 88 0 L 88 550 Z" />
<glyph unicode="Ĵ" horiz-adv-x="410" d="M 110 667 L 110 715 L 317 715 L 317 137 C 317 87 305 50 283 26 C 260 1 220 -11 163 -11 C 142 -11 122 -10 104 -8 C 85 -6 67 -4 50 0 L 50 51 C 68 46 86 42 104 40 C 122 38 142 37 162 37 C 179 37 194 38 207 41 C 219 43 230 48 238 56 C 246 64 252 74 256 87 C 260 100 262 117 262 137 L 262 667 L 110 667 Z M 317 786 L 277 786 L 210 873 L 143 786 L 104 786 L 174 919 L 247 919 L 317 786 Z" />
<glyph unicode="ĵ" horiz-adv-x="229" d="M 141 -73 C 141 -115 132 -146 116 -167 C 99 -187 70 -198 28 -198 C 0 -198 -24 -194 -46 -187 L -46 -141 C -35 -144 -24 -147 -12 -149 C 0 -151 11 -152 23 -152 C 48 -152 65 -145 74 -133 C 83 -120 88 -100 88 -74 L 88 550 L 141 550 L 141 -73 Z M 221 621 L 181 621 L 114 708 L 47 621 L 8 621 L 78 754 L 151 754 L 221 621 Z" />
<glyph unicode="Ķ" horiz-adv-x="546" d="M 148 0 L 94 0 L 94 715 L 148 715 L 148 391 L 435 715 L 506 715 L 198 371 L 513 0 L 440 0 L 148 346 L 148 0 Z M 249 -66 L 316 -66 L 259 -209 L 220 -209 L 249 -66 Z" />
<glyph unicode="ķ" horiz-adv-x="499" d="M 135 0 L 82 0 L 82 737 L 135 737 L 135 308 L 137 308 L 377 550 L 450 550 L 185 289 L 472 0 L 397 0 L 137 266 L 135 266 L 135 0 Z M 241 -66 L 308 -66 L 251 -209 L 212 -209 L 241 -66 Z" />
<glyph unicode="ĸ" horiz-adv-x="499" d="M 135 0 L 82 0 L 82 550 L 135 550 L 135 308 L 137 308 L 377 550 L 450 550 L 185 289 L 472 0 L 397 0 L 137 266 L 135 266 L 135 0 Z" />
<glyph unicode="Ĺ" horiz-adv-x="459" d="M 94 715 L 148 715 L 148 48 L 420 48 L 420 0 L 94 0 L 94 715 Z M 158 919 L 235 919 L 141 786 L 103 786 L 158 919 Z" />
<glyph unicode="ĺ" horiz-adv-x="218" d="M 82 737 L 135 737 L 135 0 L 82 0 L 82 737 Z M 145 930 L 222 930 L 128 797 L 90 797 L 145 930 Z" />
<glyph unicode="Ļ" horiz-adv-x="459" d="M 94 715 L 148 715 L 148 48 L 420 48 L 420 0 L 94 0 L 94 715 Z M 228 -66 L 295 -66 L 238 -209 L 199 -209 L 228 -66 Z" />
<glyph unicode="ļ" horiz-adv-x="218" d="M 82 737 L 135 737 L 135 0 L 82 0 L 82 737 Z M 77 -66 L 144 -66 L 87 -209 L 48 -209 L 77 -66 Z" />
<glyph unicode="Ľ" horiz-adv-x="459" d="M 94 715 L 148 715 L 148 48 L 420 48 L 420 0 L 94 0 L 94 715 Z M 226 737 L 287 737 L 261 528 L 226 528 L 226 737 Z" />
<glyph unicode="ľ" horiz-adv-x="274" d="M 82 737 L 135 737 L 135 0 L 82 0 L 82 737 Z M 212 737 L 273 737 L 247 528 L 212 528 L 212 737 Z" />
<glyph unicode="Ŀ" horiz-adv-x="459" d="M 94 715 L 148 715 L 148 48 L 420 48 L 420 0 L 94 0 L 94 715 Z M 237 405 L 320 405 L 320 323 L 237 323 L 237 405 Z" />
<glyph unicode="ŀ" horiz-adv-x="319" d="M 82 737 L 135 737 L 135 0 L 82 0 L 82 737 Z M 218 405 L 302 405 L 302 323 L 218 323 L 218 405 Z" />
<glyph unicode="Ł" horiz-adv-x="459" d="M 94 301 L 28 274 L 28 321 L 94 349 L 94 715 L 148 715 L 148 371 L 255 416 L 255 369 L 148 323 L 148 48 L 420 48 L 420 0 L 94 0 L 94 301 Z" />
<glyph unicode="ł" horiz-adv-x="240" d="M 94 309 L 11 274 L 11 319 L 94 354 L 94 737 L 146 737 L 146 377 L 229 414 L 229 369 L 146 332 L 146 0 L 94 0 L 94 309 Z" />
<glyph unicode="Ń" horiz-adv-x="648" d="M 554 0 L 482 0 L 148 639 L 148 0 L 94 0 L 94 715 L 166 715 L 499 76 L 499 715 L 554 715 L 554 0 Z M 357 919 L 434 919 L 340 786 L 302 786 L 357 919 Z" />
<glyph unicode="ń" horiz-adv-x="577" d="M 448 0 L 448 371 C 448 399 445 423 440 442 C 434 460 426 475 415 486 C 404 497 390 505 372 509 C 354 513 334 515 310 515 C 277 515 247 509 219 497 C 191 485 163 468 135 446 L 135 0 L 82 0 L 82 550 L 114 550 L 132 490 C 160 511 189 528 218 541 C 246 554 279 561 315 561 C 346 561 373 558 397 552 C 420 546 439 536 455 522 C 470 508 481 488 489 464 C 497 439 501 408 501 371 L 501 0 L 448 0 Z M 339 754 L 416 754 L 322 621 L 284 621 L 339 754 Z" />
<glyph unicode="Ņ" horiz-adv-x="648" d="M 554 0 L 482 0 L 148 639 L 148 0 L 94 0 L 94 715 L 166 715 L 499 76 L 499 715 L 554 715 L 554 0 Z M 306 -66 L 373 -66 L 316 -209 L 277 -209 L 306 -66 Z" />
<glyph unicode="ņ" horiz-adv-x="577" d="M 448 0 L 448 371 C 448 399 445 423 440 442 C 434 460 426 475 415 486 C 404 497 390 505 372 509 C 354 513 334 515 310 515 C 277 515 247 509 219 497 C 191 485 163 468 135 446 L 135 0 L 82 0 L 82 550 L 114 550 L 132 490 C 160 511 189 528 218 541 C 246 554 279 561 315 561 C 346 561 373 558 397 552 C 420 546 439 536 455 522 C 470 508 481 488 489 464 C 497 439 501 408 501 371 L 501 0 L 448 0 Z M 259 -66 L 326 -66 L 269 -209 L 230 -209 L 259 -66 Z" />
<glyph unicode="Ň" horiz-adv-x="648" d="M 554 0 L 482 0 L 148 639 L 148 0 L 94 0 L 94 715 L 166 715 L 499 76 L 499 715 L 554 715 L 554 0 Z M 360 786 L 287 786 L 217 919 L 257 919 L 324 832 L 391 919 L 430 919 L 360 786 Z" />
<glyph unicode="ň" horiz-adv-x="577" d="M 448 0 L 448 371 C 448 399 445 423 440 442 C 434 460 426 475 415 486 C 404 497 390 505 372 509 C 354 513 334 515 310 515 C 277 515 247 509 219 497 C 191 485 163 468 135 446 L 135 0 L 82 0 L 82 550 L 114 550 L 132 490 C 160 511 189 528 218 541 C 246 554 279 561 315 561 C 346 561 373 558 397 552 C 420 546 439 536 455 522 C 470 508 481 488 489 464 C 497 439 501 408 501 371 L 501 0 L 448 0 Z M 332 621 L 259 621 L 189 754 L 229 754 L 296 667 L 363 754 L 402 754 L 332 621 Z" />
<glyph unicode="Ŋ" horiz-adv-x="648" d="M 554 715 L 554 -50 C 554 -99 542 -136 520 -161 C 498 -185 458 -198 400 -198 C 380 -198 360 -197 341 -195 C 322 -193 304 -191 287 -187 L 287 -136 C 324 -145 361 -150 399 -150 C 417 -150 432 -148 445 -146 C 457 -143 468 -138 476 -130 C 484 -122 489 -112 493 -99 C 497 -86 499 -70 499 -50 L 499 -34 L 148 639 L 148 0 L 94 0 L 94 715 L 166 715 L 499 76 L 499 715 L 554 715 Z" />
<glyph unicode="ŋ" horiz-adv-x="577" d="M 448 371 C 448 399 445 423 440 442 C 434 460 426 475 415 486 C 404 497 390 505 372 509 C 354 513 334 515 310 515 C 277 515 247 509 219 497 C 191 485 163 468 135 446 L 135 0 L 82 0 L 82 550 L 114 550 L 132 490 C 160 511 189 528 218 541 C 246 554 279 561 315 561 C 346 561 373 558 397 552 C 420 546 439 536 455 522 C 470 508 481 488 489 464 C 497 439 501 408 501 371 L 501 -73 C 501 -115 492 -146 475 -167 C 458 -187 429 -198 387 -198 C 359 -198 335 -194 313 -187 L 313 -141 C 323 -144 335 -147 347 -149 C 359 -151 371 -152 383 -152 C 407 -152 424 -145 434 -132 C 443 -118 448 -99 448 -73 L 448 371 Z" />
<glyph unicode="Ō" horiz-adv-x="609" d="M 488 468 C 488 510 484 545 478 573 C 471 600 460 621 446 637 C 431 652 412 663 389 669 C 365 675 337 678 305 678 C 272 678 244 675 221 669 C 197 663 178 652 164 637 C 149 621 138 600 131 573 C 124 545 121 510 121 468 L 121 248 C 121 204 124 169 131 142 C 138 114 149 93 164 78 C 178 62 197 52 221 46 C 244 40 272 37 305 37 C 337 37 365 40 389 46 C 412 52 431 62 446 78 C 460 93 471 114 478 142 C 484 169 488 204 488 248 L 488 468 Z M 543 248 C 543 197 538 155 528 122 C 518 88 504 62 484 42 C 464 22 440 9 410 1 C 380 -7 345 -11 305 -11 C 264 -11 229 -7 199 1 C 169 9 144 22 124 42 C 104 62 90 88 80 122 C 70 155 66 197 66 248 L 66 468 C 66 518 70 559 80 593 C 90 626 104 652 124 672 C 144 692 169 706 199 714 C 229 722 264 726 305 726 C 345 726 380 722 410 714 C 440 706 464 692 484 672 C 504 652 518 626 528 593 C 538 559 543 518 543 468 L 543 248 Z M 178 858 L 431 858 L 431 812 L 178 812 L 178 858 Z" />
<glyph unicode="ō" horiz-adv-x="568" d="M 507 244 C 507 194 502 152 494 120 C 486 87 473 61 455 42 C 437 22 414 9 386 1 C 358 -7 324 -11 284 -11 C 244 -11 209 -7 181 1 C 153 9 130 22 112 42 C 94 61 81 87 73 120 C 65 152 61 194 61 244 L 61 306 C 61 356 65 397 73 430 C 81 462 94 488 112 508 C 130 527 153 541 181 549 C 209 557 244 561 284 561 C 324 561 358 557 386 549 C 414 541 437 527 455 508 C 473 488 486 462 494 430 C 502 397 507 356 507 306 L 507 244 Z M 454 306 C 454 348 451 382 445 409 C 439 436 430 457 417 473 C 404 489 387 500 365 506 C 343 512 316 515 284 515 C 251 515 224 512 202 506 C 180 500 163 489 150 473 C 136 457 127 436 121 409 C 115 382 113 348 113 306 L 113 244 C 113 202 115 167 121 140 C 127 113 136 92 150 76 C 163 60 180 50 202 44 C 224 38 251 35 284 35 C 316 35 343 38 365 44 C 387 50 404 60 417 76 C 430 92 439 113 445 140 C 451 167 454 202 454 244 L 454 306 Z M 157 693 L 410 693 L 410 647 L 157 647 L 157 693 Z" />
<glyph unicode="Ŏ" horiz-adv-x="609" d="M 488 468 C 488 510 484 545 478 573 C 471 600 460 621 446 637 C 431 652 412 663 389 669 C 365 675 337 678 305 678 C 272 678 244 675 221 669 C 197 663 178 652 164 637 C 149 621 138 600 131 573 C 124 545 121 510 121 468 L 121 248 C 121 204 124 169 131 142 C 138 114 149 93 164 78 C 178 62 197 52 221 46 C 244 40 272 37 305 37 C 337 37 365 40 389 46 C 412 52 431 62 446 78 C 460 93 471 114 478 142 C 484 169 488 204 488 248 L 488 468 Z M 543 248 C 543 197 538 155 528 122 C 518 88 504 62 484 42 C 464 22 440 9 410 1 C 380 -7 345 -11 305 -11 C 264 -11 229 -7 199 1 C 169 9 144 22 124 42 C 104 62 90 88 80 122 C 70 155 66 197 66 248 L 66 468 C 66 518 70 559 80 593 C 90 626 104 652 124 672 C 144 692 169 706 199 714 C 229 722 264 726 305 726 C 345 726 380 722 410 714 C 440 706 464 692 484 672 C 504 652 518 626 528 593 C 538 559 543 518 543 468 L 543 248 Z M 223 916 C 223 888 229 866 243 850 C 256 834 277 827 305 827 C 333 827 353 834 366 850 C 379 866 386 888 386 916 L 431 916 C 431 872 420 839 399 816 C 377 792 346 781 305 781 C 263 781 231 792 210 816 C 188 839 178 872 178 916 L 223 916 Z" />
<glyph unicode="ŏ" horiz-adv-x="568" d="M 507 244 C 507 194 502 152 494 120 C 486 87 473 61 455 42 C 437 22 414 9 386 1 C 358 -7 324 -11 284 -11 C 244 -11 209 -7 181 1 C 153 9 130 22 112 42 C 94 61 81 87 73 120 C 65 152 61 194 61 244 L 61 306 C 61 356 65 397 73 430 C 81 462 94 488 112 508 C 130 527 153 541 181 549 C 209 557 244 561 284 561 C 324 561 358 557 386 549 C 414 541 437 527 455 508 C 473 488 486 462 494 430 C 502 397 507 356 507 306 L 507 244 Z M 454 306 C 454 348 451 382 445 409 C 439 436 430 457 417 473 C 404 489 387 500 365 506 C 343 512 316 515 284 515 C 251 515 224 512 202 506 C 180 500 163 489 150 473 C 136 457 127 436 121 409 C 115 382 113 348 113 306 L 113 244 C 113 202 115 167 121 140 C 127 113 136 92 150 76 C 163 60 180 50 202 44 C 224 38 251 35 284 35 C 316 35 343 38 365 44 C 387 50 404 60 417 76 C 430 92 439 113 445 140 C 451 167 454 202 454 244 L 454 306 Z M 202 751 C 202 723 208 701 222 685 C 235 669 256 662 284 662 C 312 662 332 669 345 685 C 358 701 365 723 365 751 L 410 751 C 410 707 399 674 378 651 C 356 627 325 616 284 616 C 242 616 210 627 189 651 C 167 674 157 707 157 751 L 202 751 Z" />
<glyph unicode="Ő" horiz-adv-x="609" d="M 488 468 C 488 510 484 545 478 573 C 471 600 460 621 446 637 C 431 652 412 663 389 669 C 365 675 337 678 305 678 C 272 678 244 675 221 669 C 197 663 178 652 164 637 C 149 621 138 600 131 573 C 124 545 121 510 121 468 L 121 248 C 121 204 124 169 131 142 C 138 114 149 93 164 78 C 178 62 197 52 221 46 C 244 40 272 37 305 37 C 337 37 365 40 389 46 C 412 52 431 62 446 78 C 460 93 471 114 478 142 C 484 169 488 204 488 248 L 488 468 Z M 543 248 C 543 197 538 155 528 122 C 518 88 504 62 484 42 C 464 22 440 9 410 1 C 380 -7 345 -11 305 -11 C 264 -11 229 -7 199 1 C 169 9 144 22 124 42 C 104 62 90 88 80 122 C 70 155 66 197 66 248 L 66 468 C 66 518 70 559 80 593 C 90 626 104 652 124 672 C 144 692 169 706 199 714 C 229 722 264 726 305 726 C 345 726 380 722 410 714 C 440 706 464 692 484 672 C 504 652 518 626 528 593 C 538 559 543 518 543 468 L 543 248 Z M 251 919 L 325 919 L 264 786 L 229 786 L 251 919 Z M 401 919 L 478 919 L 385 786 L 347 786 L 401 919 Z" />
<glyph unicode="ő" horiz-adv-x="568" d="M 507 244 C 507 194 502 152 494 120 C 486 87 473 61 455 42 C 437 22 414 9 386 1 C 358 -7 324 -11 284 -11 C 244 -11 209 -7 181 1 C 153 9 130 22 112 42 C 94 61 81 87 73 120 C 65 152 61 194 61 244 L 61 306 C 61 356 65 397 73 430 C 81 462 94 488 112 508 C 130 527 153 541 181 549 C 209 557 244 561 284 561 C 324 561 358 557 386 549 C 414 541 437 527 455 508 C 473 488 486 462 494 430 C 502 397 507 356 507 306 L 507 244 Z M 454 306 C 454 348 451 382 445 409 C 439 436 430 457 417 473 C 404 489 387 500 365 506 C 343 512 316 515 284 515 C 251 515 224 512 202 506 C 180 500 163 489 150 473 C 136 457 127 436 121 409 C 115 382 113 348 113 306 L 113 244 C 113 202 115 167 121 140 C 127 113 136 92 150 76 C 163 60 180 50 202 44 C 224 38 251 35 284 35 C 316 35 343 38 365 44 C 387 50 404 60 417 76 C 430 92 439 113 445 140 C 451 167 454 202 454 244 L 454 306 Z M 226 754 L 300 754 L 239 621 L 204 621 L 226 754 Z M 376 754 L 453 754 L 360 621 L 322 621 L 376 754 Z" />
<glyph unicode="Œ" horiz-adv-x="930" d="M 319 667 C 286 667 258 664 234 658 C 210 652 190 642 174 628 C 158 613 146 593 138 567 C 130 541 127 508 127 468 L 127 248 C 127 207 131 174 139 148 C 147 122 160 102 176 87 C 192 72 212 62 236 56 C 260 50 287 48 319 48 L 468 48 L 468 667 L 319 667 Z M 319 0 C 280 0 245 3 215 11 C 184 19 158 32 137 51 C 115 69 99 95 88 127 C 76 159 71 199 71 248 L 71 468 C 71 517 76 558 88 590 C 99 622 115 647 137 665 C 158 683 184 696 215 704 C 245 711 280 715 319 715 L 858 715 L 858 667 L 522 667 L 522 386 L 818 386 L 818 340 L 522 340 L 522 48 L 858 48 L 858 0 L 319 0 Z" />
<glyph unicode="œ" horiz-adv-x="950" d="M 507 252 C 507 205 510 167 516 139 C 522 111 532 89 546 73 C 560 57 578 47 602 42 C 625 37 654 35 689 35 C 723 35 754 37 784 42 C 813 47 840 53 866 59 L 866 11 C 842 5 814 0 784 -4 C 753 -8 718 -11 680 -11 C 626 -11 583 -3 551 10 C 519 24 495 52 481 92 C 473 72 464 56 453 43 C 441 29 428 19 412 11 C 396 3 377 -2 356 -6 C 334 -9 310 -11 284 -11 C 244 -11 209 -7 181 1 C 153 9 130 22 112 42 C 94 61 81 87 73 120 C 65 152 61 194 61 244 L 61 306 C 61 356 65 397 73 430 C 81 462 94 488 112 508 C 130 527 153 541 181 549 C 209 557 244 561 284 561 C 338 561 380 553 412 538 C 444 523 467 496 481 457 C 495 497 518 524 550 539 C 582 553 623 561 675 561 C 712 561 744 557 771 549 C 798 541 820 528 838 509 C 856 489 869 463 877 430 C 885 396 890 354 890 304 L 890 252 L 507 252 Z M 454 306 C 454 348 451 382 445 409 C 439 436 430 457 417 473 C 404 489 387 500 365 506 C 343 512 316 515 284 515 C 251 515 224 512 202 506 C 180 500 163 489 150 473 C 136 457 127 436 121 409 C 115 382 113 348 113 306 L 113 244 C 113 202 115 167 121 140 C 127 113 136 92 150 76 C 163 60 180 50 202 44 C 224 38 251 35 284 35 C 316 35 343 38 365 44 C 387 50 404 60 417 76 C 430 92 439 113 445 140 C 451 167 454 202 454 244 L 454 306 Z M 837 298 C 837 342 834 378 829 406 C 824 434 816 456 804 472 C 792 488 775 500 754 506 C 733 512 707 515 675 515 C 643 515 617 512 595 506 C 573 500 556 488 543 472 C 530 456 521 434 515 406 C 509 378 507 342 507 298 L 837 298 Z" />
<glyph unicode="Ŕ" horiz-adv-x="616" d="M 94 715 L 309 715 C 350 715 386 711 416 705 C 446 698 470 686 490 670 C 510 653 524 630 534 602 C 543 574 548 538 548 496 C 548 436 537 389 515 357 C 493 325 459 303 413 291 L 555 0 L 496 0 L 359 283 C 351 282 344 282 336 282 C 328 282 319 282 311 282 L 148 282 L 148 0 L 94 0 L 94 715 Z M 148 330 L 311 330 C 344 330 372 332 395 338 C 418 343 437 352 451 365 C 465 378 475 395 481 417 C 487 438 491 464 491 496 C 491 532 487 561 480 583 C 473 605 462 622 448 635 C 433 647 414 656 391 660 C 368 664 341 667 309 667 L 148 667 L 148 330 Z M 326 919 L 403 919 L 309 786 L 271 786 L 326 919 Z" />
<glyph unicode="ŕ" horiz-adv-x="337" d="M 298 508 C 278 508 261 506 246 504 C 231 501 217 497 205 492 C 192 486 180 479 169 471 C 158 463 147 453 135 442 L 135 0 L 82 0 L 82 550 L 114 550 L 132 490 C 155 510 180 527 206 541 C 232 554 262 561 298 561 L 298 508 Z M 230 754 L 307 754 L 213 621 L 175 621 L 230 754 Z" />
<glyph unicode="Ŗ" horiz-adv-x="616" d="M 94 715 L 309 715 C 350 715 386 711 416 705 C 446 698 470 686 490 670 C 510 653 524 630 534 602 C 543 574 548 538 548 496 C 548 436 537 389 515 357 C 493 325 459 303 413 291 L 555 0 L 496 0 L 359 283 C 351 282 344 282 336 282 C 328 282 319 282 311 282 L 148 282 L 148 0 L 94 0 L 94 715 Z M 148 330 L 311 330 C 344 330 372 332 395 338 C 418 343 437 352 451 365 C 465 378 475 395 481 417 C 487 438 491 464 491 496 C 491 532 487 561 480 583 C 473 605 462 622 448 635 C 433 647 414 656 391 660 C 368 664 341 667 309 667 L 148 667 L 148 330 Z M 279 -66 L 346 -66 L 289 -209 L 250 -209 L 279 -66 Z" />
<glyph unicode="ŗ" horiz-adv-x="337" d="M 298 508 C 278 508 261 506 246 504 C 231 501 217 497 205 492 C 192 486 180 479 169 471 C 158 463 147 453 135 442 L 135 0 L 82 0 L 82 550 L 114 550 L 132 490 C 155 510 180 527 206 541 C 232 554 262 561 298 561 L 298 508 Z M 76 -66 L 143 -66 L 86 -209 L 47 -209 L 76 -66 Z" />
<glyph unicode="Ř" horiz-adv-x="616" d="M 94 715 L 309 715 C 350 715 386 711 416 705 C 446 698 470 686 490 670 C 510 653 524 630 534 602 C 543 574 548 538 548 496 C 548 436 537 389 515 357 C 493 325 459 303 413 291 L 555 0 L 496 0 L 359 283 C 351 282 344 282 336 282 C 328 282 319 282 311 282 L 148 282 L 148 0 L 94 0 L 94 715 Z M 148 330 L 311 330 C 344 330 372 332 395 338 C 418 343 437 352 451 365 C 465 378 475 395 481 417 C 487 438 491 464 491 496 C 491 532 487 561 480 583 C 473 605 462 622 448 635 C 433 647 414 656 391 660 C 368 664 341 667 309 667 L 148 667 L 148 330 Z M 344 786 L 271 786 L 201 919 L 241 919 L 308 832 L 375 919 L 414 919 L 344 786 Z" />
<glyph unicode="ř" horiz-adv-x="337" d="M 298 508 C 278 508 261 506 246 504 C 231 501 217 497 205 492 C 192 486 180 479 169 471 C 158 463 147 453 135 442 L 135 0 L 82 0 L 82 550 L 114 550 L 132 490 C 155 510 180 527 206 541 C 232 554 262 561 298 561 L 298 508 Z M 231 621 L 158 621 L 88 754 L 128 754 L 195 667 L 262 754 L 301 754 L 231 621 Z" />
<glyph unicode="Ś" horiz-adv-x="595" d="M 294 343 C 251 347 215 355 187 365 C 159 375 136 389 119 405 C 101 421 89 440 82 462 C 74 484 71 509 71 537 C 71 599 89 646 126 678 C 163 710 219 726 293 726 C 330 726 363 722 391 715 C 419 708 442 697 461 681 C 479 665 493 645 503 620 C 512 594 517 563 517 527 L 462 527 C 462 555 458 579 452 599 C 445 619 435 634 421 646 C 407 657 390 665 369 670 C 347 675 322 678 293 678 C 235 678 193 666 167 644 C 141 621 128 585 128 537 C 128 515 130 497 136 481 C 141 465 150 451 163 439 C 176 427 194 418 216 411 C 238 403 265 398 299 394 C 348 388 388 380 419 369 C 449 358 473 344 491 327 C 508 309 520 289 526 265 C 532 241 535 213 535 182 C 535 150 530 121 522 97 C 514 73 500 53 481 37 C 462 21 437 9 407 1 C 377 -7 340 -11 297 -11 C 261 -11 229 -8 200 -2 C 171 3 146 13 126 28 C 105 42 89 62 78 88 C 66 113 61 145 61 184 L 116 184 C 116 154 120 129 128 110 C 136 91 147 76 163 65 C 179 54 198 47 220 43 C 242 39 268 37 297 37 C 331 37 360 40 384 46 C 407 52 426 61 440 73 C 454 85 464 100 470 118 C 476 136 479 158 479 182 C 479 206 477 228 473 246 C 469 264 461 279 448 292 C 435 304 416 315 392 323 C 368 331 335 338 294 343 Z M 335 919 L 412 919 L 318 786 L 280 786 L 335 919 Z" />
<glyph unicode="ś" horiz-adv-x="551" d="M 113 153 C 113 132 115 114 121 100 C 126 85 135 73 147 63 C 159 53 175 46 195 42 C 215 37 241 35 271 35 C 307 35 337 37 359 43 C 381 49 397 57 409 67 C 420 77 427 89 431 103 C 435 117 437 132 437 150 C 437 166 434 181 429 193 C 423 205 414 215 402 223 C 390 231 373 237 352 242 C 331 246 305 250 274 253 C 204 259 153 274 121 297 C 89 320 73 356 73 406 C 73 461 91 501 127 525 C 163 549 212 561 274 561 C 343 561 394 548 426 523 C 458 497 475 455 475 397 L 422 397 C 422 439 410 469 388 487 C 366 505 328 515 274 515 C 226 515 190 507 164 492 C 138 476 126 448 126 406 C 126 368 138 342 164 328 C 189 313 228 303 282 299 C 322 295 356 289 383 282 C 409 275 431 266 447 254 C 463 242 474 228 480 211 C 486 194 490 174 490 150 C 490 127 487 106 482 86 C 476 66 466 49 451 35 C 435 21 413 9 384 1 C 355 -6 317 -11 271 -11 C 229 -11 194 -7 167 0 C 139 8 118 19 102 33 C 86 47 75 65 69 85 C 63 105 60 128 60 153 L 113 153 Z M 318 754 L 395 754 L 301 621 L 263 621 L 318 754 Z" />
<glyph unicode="Ŝ" horiz-adv-x="595" d="M 294 343 C 251 347 215 355 187 365 C 159 375 136 389 119 405 C 101 421 89 440 82 462 C 74 484 71 509 71 537 C 71 599 89 646 126 678 C 163 710 219 726 293 726 C 330 726 363 722 391 715 C 419 708 442 697 461 681 C 479 665 493 645 503 620 C 512 594 517 563 517 527 L 462 527 C 462 555 458 579 452 599 C 445 619 435 634 421 646 C 407 657 390 665 369 670 C 347 675 322 678 293 678 C 235 678 193 666 167 644 C 141 621 128 585 128 537 C 128 515 130 497 136 481 C 141 465 150 451 163 439 C 176 427 194 418 216 411 C 238 403 265 398 299 394 C 348 388 388 380 419 369 C 449 358 473 344 491 327 C 508 309 520 289 526 265 C 532 241 535 213 535 182 C 535 150 530 121 522 97 C 514 73 500 53 481 37 C 462 21 437 9 407 1 C 377 -7 340 -11 297 -11 C 261 -11 229 -8 200 -2 C 171 3 146 13 126 28 C 105 42 89 62 78 88 C 66 113 61 145 61 184 L 116 184 C 116 154 120 129 128 110 C 136 91 147 76 163 65 C 179 54 198 47 220 43 C 242 39 268 37 297 37 C 331 37 360 40 384 46 C 407 52 426 61 440 73 C 454 85 464 100 470 118 C 476 136 479 158 479 182 C 479 206 477 228 473 246 C 469 264 461 279 448 292 C 435 304 416 315 392 323 C 368 331 335 338 294 343 Z M 405 786 L 365 786 L 298 873 L 231 786 L 192 786 L 262 919 L 335 919 L 405 786 Z" />
<glyph unicode="ŝ" horiz-adv-x="551" d="M 113 153 C 113 132 115 114 121 100 C 126 85 135 73 147 63 C 159 53 175 46 195 42 C 215 37 241 35 271 35 C 307 35 337 37 359 43 C 381 49 397 57 409 67 C 420 77 427 89 431 103 C 435 117 437 132 437 150 C 437 166 434 181 429 193 C 423 205 414 215 402 223 C 390 231 373 237 352 242 C 331 246 305 250 274 253 C 204 259 153 274 121 297 C 89 320 73 356 73 406 C 73 461 91 501 127 525 C 163 549 212 561 274 561 C 343 561 394 548 426 523 C 458 497 475 455 475 397 L 422 397 C 422 439 410 469 388 487 C 366 505 328 515 274 515 C 226 515 190 507 164 492 C 138 476 126 448 126 406 C 126 368 138 342 164 328 C 189 313 228 303 282 299 C 322 295 356 289 383 282 C 409 275 431 266 447 254 C 463 242 474 228 480 211 C 486 194 490 174 490 150 C 490 127 487 106 482 86 C 476 66 466 49 451 35 C 435 21 413 9 384 1 C 355 -6 317 -11 271 -11 C 229 -11 194 -7 167 0 C 139 8 118 19 102 33 C 86 47 75 65 69 85 C 63 105 60 128 60 153 L 113 153 Z M 386 621 L 346 621 L 279 708 L 212 621 L 173 621 L 243 754 L 316 754 L 386 621 Z" />
<glyph unicode="Ş" horiz-adv-x="595" d="M 294 343 C 251 347 215 355 187 365 C 159 375 136 389 119 405 C 101 421 89 440 82 462 C 74 484 71 509 71 537 C 71 599 89 646 126 678 C 163 710 219 726 293 726 C 330 726 363 722 391 715 C 419 708 442 697 461 681 C 479 665 493 645 503 620 C 512 594 517 563 517 527 L 462 527 C 462 555 458 579 452 599 C 445 619 435 634 421 646 C 407 657 390 665 369 670 C 347 675 322 678 293 678 C 235 678 193 666 167 644 C 141 621 128 585 128 537 C 128 515 130 497 136 481 C 141 465 150 451 163 439 C 176 427 194 418 216 411 C 238 403 265 398 299 394 C 348 388 388 380 419 369 C 449 358 473 344 491 327 C 508 309 520 289 526 265 C 532 241 535 213 535 182 C 535 150 531 123 523 99 C 515 75 502 55 484 39 C 466 23 442 10 414 2 C 386 -5 351 -10 311 -11 L 299 -55 C 319 -57 337 -63 353 -74 C 368 -85 376 -103 376 -129 C 376 -159 366 -179 346 -191 C 326 -202 298 -208 262 -208 L 207 -208 L 207 -171 L 272 -171 C 293 -171 308 -167 316 -159 C 324 -151 329 -141 329 -129 C 329 -115 324 -105 316 -98 C 308 -90 293 -87 272 -87 L 251 -87 L 273 -10 C 241 -9 211 -5 185 1 C 159 7 136 18 118 33 C 100 48 86 68 76 92 C 66 116 61 147 61 184 L 116 184 C 116 154 120 129 128 110 C 136 91 147 76 163 65 C 179 54 198 47 220 43 C 242 39 268 37 297 37 C 331 37 360 40 384 46 C 407 52 426 61 440 73 C 454 85 464 100 470 118 C 476 136 479 158 479 182 C 479 206 477 228 473 246 C 469 264 461 279 448 292 C 435 304 416 315 392 323 C 368 331 335 338 294 343 Z" />
<glyph unicode="ş" horiz-adv-x="551" d="M 113 153 C 113 132 115 114 121 100 C 126 85 135 73 147 63 C 159 53 176 46 196 42 C 216 37 242 35 272 35 C 308 35 337 37 359 43 C 381 49 397 57 409 67 C 421 77 428 89 432 103 C 436 117 438 132 438 150 C 438 166 435 181 430 193 C 424 205 415 215 403 223 C 391 231 374 237 353 242 C 332 246 306 250 275 253 C 205 259 154 274 122 297 C 90 320 74 356 74 406 C 74 461 92 501 128 525 C 164 549 213 561 275 561 C 344 561 395 548 427 523 C 459 497 475 455 475 397 L 422 397 C 422 439 411 469 389 487 C 367 505 329 515 275 515 C 227 515 190 507 165 492 C 139 476 127 448 127 406 C 127 368 139 342 165 328 C 190 313 229 303 283 299 C 323 295 357 289 384 282 C 410 275 432 266 448 254 C 464 242 475 228 481 211 C 487 194 491 174 491 150 C 491 128 488 107 483 88 C 478 69 468 52 454 38 C 439 23 418 11 392 3 C 365 -5 330 -10 287 -11 L 275 -55 C 295 -57 313 -63 329 -74 C 344 -85 352 -103 352 -129 C 352 -159 342 -179 322 -191 C 302 -202 274 -208 238 -208 L 183 -208 L 183 -171 L 248 -171 C 269 -171 284 -167 292 -159 C 300 -151 305 -141 305 -129 C 305 -115 300 -105 292 -98 C 284 -90 269 -87 248 -87 L 227 -87 L 249 -10 C 211 -8 180 -3 156 4 C 132 12 113 24 99 38 C 85 52 75 68 69 88 C 63 107 61 129 61 153 L 113 153 Z" />
<glyph unicode="Š" horiz-adv-x="595" d="M 294 343 C 251 347 215 355 187 365 C 159 375 136 389 119 405 C 101 421 89 440 82 462 C 74 484 71 509 71 537 C 71 599 89 646 126 678 C 163 710 219 726 293 726 C 330 726 363 722 391 715 C 419 708 442 697 461 681 C 479 665 493 645 503 620 C 512 594 517 563 517 527 L 462 527 C 462 555 458 579 452 599 C 445 619 435 634 421 646 C 407 657 390 665 369 670 C 347 675 322 678 293 678 C 235 678 193 666 167 644 C 141 621 128 585 128 537 C 128 515 130 497 136 481 C 141 465 150 451 163 439 C 176 427 194 418 216 411 C 238 403 265 398 299 394 C 348 388 388 380 419 369 C 449 358 473 344 491 327 C 508 309 520 289 526 265 C 532 241 535 213 535 182 C 535 150 530 121 522 97 C 514 73 500 53 481 37 C 462 21 437 9 407 1 C 377 -7 340 -11 297 -11 C 261 -11 229 -8 200 -2 C 171 3 146 13 126 28 C 105 42 89 62 78 88 C 66 113 61 145 61 184 L 116 184 C 116 154 120 129 128 110 C 136 91 147 76 163 65 C 179 54 198 47 220 43 C 242 39 268 37 297 37 C 331 37 360 40 384 46 C 407 52 426 61 440 73 C 454 85 464 100 470 118 C 476 136 479 158 479 182 C 479 206 477 228 473 246 C 469 264 461 279 448 292 C 435 304 416 315 392 323 C 368 331 335 338 294 343 Z M 335 786 L 262 786 L 192 919 L 232 919 L 299 832 L 366 919 L 405 919 L 335 786 Z" />
<glyph unicode="š" horiz-adv-x="551" d="M 113 153 C 113 132 115 114 121 100 C 126 85 135 73 147 63 C 159 53 175 46 195 42 C 215 37 241 35 271 35 C 307 35 337 37 359 43 C 381 49 397 57 409 67 C 420 77 427 89 431 103 C 435 117 437 132 437 150 C 437 166 434 181 429 193 C 423 205 414 215 402 223 C 390 231 373 237 352 242 C 331 246 305 250 274 253 C 204 259 153 274 121 297 C 89 320 73 356 73 406 C 73 461 91 501 127 525 C 163 549 212 561 274 561 C 343 561 394 548 426 523 C 458 497 475 455 475 397 L 422 397 C 422 439 410 469 388 487 C 366 505 328 515 274 515 C 226 515 190 507 164 492 C 138 476 126 448 126 406 C 126 368 138 342 164 328 C 189 313 228 303 282 299 C 322 295 356 289 383 282 C 409 275 431 266 447 254 C 463 242 474 228 480 211 C 486 194 490 174 490 150 C 490 127 487 106 482 86 C 476 66 466 49 451 35 C 435 21 413 9 384 1 C 355 -6 317 -11 271 -11 C 229 -11 194 -7 167 0 C 139 8 118 19 102 33 C 86 47 75 65 69 85 C 63 105 60 128 60 153 L 113 153 Z M 311 621 L 238 621 L 168 754 L 208 754 L 275 667 L 342 754 L 381 754 L 311 621 Z" />
<glyph unicode="Ţ" horiz-adv-x="491" d="M 219 667 L 28 667 L 28 715 L 463 715 L 463 667 L 274 667 L 274 0 L 219 0 L 219 667 Z M 216 -66 L 283 -66 L 226 -209 L 187 -209 L 216 -66 Z" />
<glyph unicode="ţ" horiz-adv-x="339" d="M 99 683 L 152 693 L 152 550 L 284 550 L 284 504 L 152 504 L 152 117 C 152 91 157 70 167 56 C 177 42 195 35 222 35 C 239 35 254 36 268 38 C 282 40 294 43 306 46 L 306 0 C 294 -3 282 -6 268 -8 C 254 -10 238 -11 221 -11 C 180 -11 149 0 129 19 C 109 39 99 72 99 117 L 99 504 L 33 504 L 33 539 L 99 550 L 99 683 Z M 161 -66 L 228 -66 L 171 -209 L 132 -209 L 161 -66 Z" />
<glyph unicode="Ť" horiz-adv-x="491" d="M 219 667 L 28 667 L 28 715 L 463 715 L 463 667 L 274 667 L 274 0 L 219 0 L 219 667 Z M 282 786 L 209 786 L 139 919 L 179 919 L 246 832 L 313 919 L 352 919 L 282 786 Z" />
<glyph unicode="ť" horiz-adv-x="339" d="M 248 759 L 305 759 L 282 594 L 248 594 L 248 759 Z M 99 683 L 152 693 L 152 550 L 284 550 L 284 504 L 152 504 L 152 117 C 152 91 157 70 167 56 C 177 42 195 35 222 35 C 239 35 254 36 268 38 C 282 40 294 43 306 46 L 306 0 C 294 -3 282 -6 268 -8 C 254 -10 238 -11 221 -11 C 180 -11 149 0 129 19 C 109 39 99 72 99 117 L 99 504 L 33 504 L 33 539 L 99 550 L 99 683 Z" />
<glyph unicode="Ŧ" horiz-adv-x="491" d="M 108 386 L 219 386 L 219 667 L 28 667 L 28 715 L 463 715 L 463 667 L 274 667 L 274 386 L 383 386 L 383 340 L 274 340 L 274 0 L 219 0 L 219 340 L 108 340 L 108 386 Z" />
<glyph unicode="ŧ" horiz-adv-x="339" d="M 48 322 L 99 322 L 99 504 L 33 504 L 33 539 L 99 550 L 99 683 L 152 693 L 152 550 L 284 550 L 284 504 L 152 504 L 152 322 L 262 322 L 262 280 L 152 280 L 152 117 C 152 91 157 70 167 56 C 177 42 195 35 222 35 C 239 35 254 36 268 38 C 282 40 294 43 306 46 L 306 0 C 294 -3 282 -6 268 -8 C 254 -10 238 -11 221 -11 C 180 -11 149 0 129 19 C 109 39 99 72 99 117 L 99 280 L 48 280 L 48 322 Z" />
<glyph unicode="Ũ" horiz-adv-x="627" d="M 137 715 L 137 219 C 137 185 140 156 146 133 C 152 109 163 90 177 76 C 191 62 209 52 231 46 C 253 40 281 37 313 37 C 345 37 373 40 395 46 C 417 52 436 62 450 76 C 464 90 474 109 480 133 C 486 156 490 185 490 219 L 490 715 L 544 715 L 544 219 C 544 173 539 136 529 106 C 519 76 504 53 484 36 C 464 18 440 6 412 0 C 383 -7 350 -11 313 -11 C 275 -11 242 -7 214 0 C 185 6 161 18 141 36 C 121 53 107 76 97 106 C 87 136 82 173 82 219 L 82 715 L 137 715 Z M 377 802 C 361 802 348 805 337 811 C 326 817 316 823 307 831 C 298 838 289 845 280 851 C 271 857 261 860 251 860 C 233 860 221 854 215 844 C 209 834 207 822 207 808 L 168 808 C 168 844 175 869 190 883 C 204 897 224 904 249 904 C 264 904 277 901 288 895 C 299 889 309 882 318 875 C 327 867 336 861 345 855 C 353 849 363 846 375 846 C 393 846 404 851 410 861 C 416 871 419 884 419 898 L 458 898 C 458 862 450 837 436 823 C 421 809 401 802 377 802 Z" />
<glyph unicode="ũ" horiz-adv-x="572" d="M 130 550 L 130 179 C 130 149 132 125 138 107 C 143 89 151 74 162 63 C 173 52 187 45 205 41 C 222 37 243 35 267 35 C 299 35 330 41 358 53 C 386 65 414 83 442 105 L 442 550 L 495 550 L 495 0 L 463 0 L 446 61 C 430 49 415 38 401 29 C 387 20 372 13 358 7 C 343 1 328 -3 313 -6 C 297 -9 281 -11 263 -11 C 231 -11 203 -8 180 -2 C 156 3 137 13 122 27 C 106 41 95 61 88 86 C 80 110 77 141 77 179 L 77 550 L 130 550 Z M 349 637 C 333 637 320 640 309 646 C 298 652 288 658 279 666 C 270 673 261 680 252 686 C 243 692 233 695 223 695 C 205 695 193 689 187 679 C 181 669 179 657 179 643 L 140 643 C 140 679 147 704 162 718 C 176 732 196 739 221 739 C 236 739 249 736 260 730 C 271 724 281 717 290 710 C 299 702 308 696 317 690 C 325 684 335 681 347 681 C 365 681 376 686 382 696 C 388 706 391 719 391 733 L 430 733 C 430 697 422 672 408 658 C 393 644 373 637 349 637 Z" />
<glyph unicode="Ū" horiz-adv-x="627" d="M 137 715 L 137 219 C 137 185 140 156 146 133 C 152 109 163 90 177 76 C 191 62 209 52 231 46 C 253 40 281 37 313 37 C 345 37 373 40 395 46 C 417 52 436 62 450 76 C 464 90 474 109 480 133 C 486 156 490 185 490 219 L 490 715 L 544 715 L 544 219 C 544 173 539 136 529 106 C 519 76 504 53 484 36 C 464 18 440 6 412 0 C 383 -7 350 -11 313 -11 C 275 -11 242 -7 214 0 C 185 6 161 18 141 36 C 121 53 107 76 97 106 C 87 136 82 173 82 219 L 82 715 L 137 715 Z M 187 858 L 440 858 L 440 812 L 187 812 L 187 858 Z" />
<glyph unicode="ū" horiz-adv-x="572" d="M 130 550 L 130 179 C 130 149 132 125 138 107 C 143 89 151 74 162 63 C 173 52 187 45 205 41 C 222 37 243 35 267 35 C 299 35 330 41 358 53 C 386 65 414 83 442 105 L 442 550 L 495 550 L 495 0 L 463 0 L 446 61 C 430 49 415 38 401 29 C 387 20 372 13 358 7 C 343 1 328 -3 313 -6 C 297 -9 281 -11 263 -11 C 231 -11 203 -8 180 -2 C 156 3 137 13 122 27 C 106 41 95 61 88 86 C 80 110 77 141 77 179 L 77 550 L 130 550 Z M 159 693 L 412 693 L 412 647 L 159 647 L 159 693 Z" />
<glyph unicode="Ŭ" horiz-adv-x="627" d="M 137 715 L 137 219 C 137 185 140 156 146 133 C 152 109 163 90 177 76 C 191 62 209 52 231 46 C 253 40 281 37 313 37 C 345 37 373 40 395 46 C 417 52 436 62 450 76 C 464 90 474 109 480 133 C 486 156 490 185 490 219 L 490 715 L 544 715 L 544 219 C 544 173 539 136 529 106 C 519 76 504 53 484 36 C 464 18 440 6 412 0 C 383 -7 350 -11 313 -11 C 275 -11 242 -7 214 0 C 185 6 161 18 141 36 C 121 53 107 76 97 106 C 87 136 82 173 82 219 L 82 715 L 137 715 Z M 232 916 C 232 888 238 866 252 850 C 265 834 286 827 314 827 C 342 827 362 834 375 850 C 388 866 395 888 395 916 L 440 916 C 440 872 429 839 408 816 C 386 792 355 781 314 781 C 272 781 240 792 219 816 C 197 839 187 872 187 916 L 232 916 Z" />
<glyph unicode="ŭ" horiz-adv-x="572" d="M 130 550 L 130 179 C 130 149 132 125 138 107 C 143 89 151 74 162 63 C 173 52 187 45 205 41 C 222 37 243 35 267 35 C 299 35 330 41 358 53 C 386 65 414 83 442 105 L 442 550 L 495 550 L 495 0 L 463 0 L 446 61 C 430 49 415 38 401 29 C 387 20 372 13 358 7 C 343 1 328 -3 313 -6 C 297 -9 281 -11 263 -11 C 231 -11 203 -8 180 -2 C 156 3 137 13 122 27 C 106 41 95 61 88 86 C 80 110 77 141 77 179 L 77 550 L 130 550 Z M 204 751 C 204 723 210 701 224 685 C 237 669 258 662 286 662 C 314 662 334 669 347 685 C 360 701 367 723 367 751 L 412 751 C 412 707 401 674 380 651 C 358 627 327 616 286 616 C 244 616 212 627 191 651 C 169 674 159 707 159 751 L 204 751 Z" />
<glyph unicode="Ů" horiz-adv-x="627" d="M 137 715 L 137 219 C 137 185 140 156 146 133 C 152 109 163 90 177 76 C 191 62 209 52 231 46 C 253 40 281 37 313 37 C 345 37 373 40 395 46 C 417 52 436 62 450 76 C 464 90 474 109 480 133 C 486 156 490 185 490 219 L 490 715 L 544 715 L 544 219 C 544 173 539 136 529 106 C 519 76 504 53 484 36 C 464 18 440 6 412 0 C 383 -7 350 -11 313 -11 C 275 -11 242 -7 214 0 C 185 6 161 18 141 36 C 121 53 107 76 97 106 C 87 136 82 173 82 219 L 82 715 L 137 715 Z M 414 868 C 414 838 405 816 387 802 C 369 787 344 780 313 780 C 282 780 258 787 240 802 C 222 816 213 838 213 868 C 213 897 222 919 240 934 C 258 948 282 956 313 956 C 344 956 369 948 387 934 C 405 919 414 897 414 868 Z M 370 868 C 370 883 365 895 356 903 C 347 911 333 916 313 916 C 275 916 257 900 257 868 C 257 834 275 818 313 818 C 333 818 347 822 356 831 C 365 839 370 852 370 868 Z" />
<glyph unicode="ů" horiz-adv-x="572" d="M 130 550 L 130 179 C 130 149 132 125 138 107 C 143 89 151 74 162 63 C 173 52 187 45 205 41 C 222 37 243 35 267 35 C 299 35 330 41 358 53 C 386 65 414 83 442 105 L 442 550 L 495 550 L 495 0 L 463 0 L 446 61 C 430 49 415 38 401 29 C 387 20 372 13 358 7 C 343 1 328 -3 313 -6 C 297 -9 281 -11 263 -11 C 231 -11 203 -8 180 -2 C 156 3 137 13 122 27 C 106 41 95 61 88 86 C 80 110 77 141 77 179 L 77 550 L 130 550 Z M 387 703 C 387 673 378 651 360 637 C 342 622 317 615 286 615 C 255 615 231 622 213 637 C 195 651 186 673 186 703 C 186 732 195 754 213 769 C 231 783 255 791 286 791 C 317 791 342 783 360 769 C 378 754 387 732 387 703 Z M 343 703 C 343 718 338 730 329 738 C 320 746 306 751 286 751 C 248 751 230 735 230 703 C 230 669 248 653 286 653 C 306 653 320 657 329 666 C 338 674 343 687 343 703 Z" />
<glyph unicode="Ű" horiz-adv-x="627" d="M 137 715 L 137 219 C 137 185 140 156 146 133 C 152 109 163 90 177 76 C 191 62 209 52 231 46 C 253 40 281 37 313 37 C 345 37 373 40 395 46 C 417 52 436 62 450 76 C 464 90 474 109 480 133 C 486 156 490 185 490 219 L 490 715 L 544 715 L 544 219 C 544 173 539 136 529 106 C 519 76 504 53 484 36 C 464 18 440 6 412 0 C 383 -7 350 -11 313 -11 C 275 -11 242 -7 214 0 C 185 6 161 18 141 36 C 121 53 107 76 97 106 C 87 136 82 173 82 219 L 82 715 L 137 715 Z M 254 919 L 328 919 L 267 786 L 232 786 L 254 919 Z M 404 919 L 481 919 L 388 786 L 350 786 L 404 919 Z" />
<glyph unicode="ű" horiz-adv-x="572" d="M 130 550 L 130 179 C 130 149 132 125 138 107 C 143 89 151 74 162 63 C 173 52 187 45 205 41 C 222 37 243 35 267 35 C 299 35 330 41 358 53 C 386 65 414 83 442 105 L 442 550 L 495 550 L 495 0 L 463 0 L 446 61 C 430 49 415 38 401 29 C 387 20 372 13 358 7 C 343 1 328 -3 313 -6 C 297 -9 281 -11 263 -11 C 231 -11 203 -8 180 -2 C 156 3 137 13 122 27 C 106 41 95 61 88 86 C 80 110 77 141 77 179 L 77 550 L 130 550 Z M 220 754 L 294 754 L 233 621 L 198 621 L 220 754 Z M 370 754 L 447 754 L 354 621 L 316 621 L 370 754 Z" />
<glyph unicode="Ų" horiz-adv-x="627" d="M 411 -183 L 373 -183 C 346 -183 325 -177 311 -165 C 296 -153 289 -135 289 -110 C 289 -92 294 -74 304 -56 C 314 -38 328 -23 346 -10 C 340 -10 335 -10 329 -10 C 323 -10 318 -11 313 -11 C 275 -11 242 -7 214 0 C 185 6 161 18 141 36 C 121 53 107 76 97 106 C 87 136 82 173 82 219 L 82 715 L 137 715 L 137 219 C 137 185 140 156 146 133 C 152 109 163 90 177 76 C 191 62 209 52 231 46 C 253 40 281 37 313 37 C 345 37 373 40 395 46 C 417 52 436 62 450 76 C 464 90 474 109 480 133 C 486 156 490 185 490 219 L 490 715 L 544 715 L 544 219 C 544 184 541 154 535 129 C 529 103 521 82 509 64 C 497 46 483 32 467 22 C 450 12 431 4 409 -1 C 386 -16 369 -32 357 -49 C 345 -65 340 -81 340 -97 C 340 -112 344 -123 352 -129 C 360 -135 372 -139 386 -139 L 411 -139 L 411 -183 Z" />
<glyph unicode="ų" horiz-adv-x="572" d="M 495 -183 L 457 -183 C 430 -183 409 -177 395 -165 C 380 -153 373 -135 373 -110 C 373 -89 380 -69 394 -49 C 408 -29 430 -9 461 11 L 446 61 C 430 49 415 38 401 29 C 387 20 372 13 358 7 C 343 1 328 -3 313 -6 C 297 -9 281 -11 263 -11 C 231 -11 203 -8 180 -2 C 156 3 137 13 122 27 C 106 41 95 61 88 86 C 80 110 77 141 77 179 L 77 550 L 130 550 L 130 179 C 130 149 132 125 138 107 C 143 89 151 74 162 63 C 173 52 187 45 205 41 C 222 37 243 35 267 35 C 299 35 330 41 358 53 C 386 65 414 83 442 105 L 442 550 L 495 550 L 495 0 C 471 -15 454 -31 442 -48 C 430 -65 424 -81 424 -97 C 424 -112 428 -123 436 -129 C 444 -135 455 -139 470 -139 L 495 -139 L 495 -183 Z" />
<glyph unicode="Ŵ" horiz-adv-x="909" d="M 491 715 L 653 73 L 656 73 L 799 715 L 859 715 L 687 0 L 620 0 L 454 650 L 288 0 L 221 0 L 50 715 L 110 715 L 253 73 L 255 73 L 418 715 L 491 715 Z M 561 786 L 521 786 L 454 873 L 387 786 L 348 786 L 418 919 L 491 919 L 561 786 Z" />
<glyph unicode="ŵ" horiz-adv-x="805" d="M 438 550 L 581 53 L 704 550 L 761 550 L 614 0 L 548 0 L 403 498 L 257 0 L 191 0 L 44 550 L 101 550 L 224 53 L 367 550 L 438 550 Z M 509 621 L 469 621 L 402 708 L 335 621 L 296 621 L 366 754 L 439 754 L 509 621 Z" />
<glyph unicode="Ŷ" horiz-adv-x="535" d="M 240 288 L 28 715 L 88 715 L 266 342 L 268 342 L 447 715 L 507 715 L 295 288 L 295 0 L 240 0 L 240 288 Z M 374 786 L 334 786 L 267 873 L 200 786 L 161 786 L 231 919 L 304 919 L 374 786 Z" />
<glyph unicode="ŷ" horiz-adv-x="524" d="M 27 550 L 85 550 L 260 63 L 262 63 L 437 550 L 496 550 L 260 -81 C 251 -103 242 -122 233 -137 C 223 -152 212 -164 200 -173 C 188 -182 174 -188 159 -192 C 143 -196 125 -198 105 -198 C 93 -198 84 -197 76 -196 C 68 -194 59 -192 50 -189 L 50 -142 C 67 -148 85 -152 105 -152 C 117 -152 129 -150 139 -148 C 149 -145 159 -140 167 -134 C 175 -128 183 -119 190 -108 C 197 -96 204 -82 211 -64 L 234 0 L 27 550 Z M 369 621 L 329 621 L 262 708 L 195 621 L 156 621 L 226 754 L 299 754 L 369 621 Z" />
<glyph unicode="Ÿ" horiz-adv-x="535" d="M 240 288 L 28 715 L 88 715 L 266 342 L 268 342 L 447 715 L 507 715 L 295 288 L 295 0 L 240 0 L 240 288 Z M 304 880 L 374 880 L 374 810 L 304 810 L 304 880 Z M 161 880 L 231 880 L 231 810 L 161 810 L 161 880 Z" />
<glyph unicode="Ź" horiz-adv-x="547" d="M 71 715 L 486 715 L 486 674 L 127 48 L 497 48 L 497 0 L 61 0 L 61 38 L 421 667 L 71 667 L 71 715 Z M 300 919 L 377 919 L 283 786 L 245 786 L 300 919 Z" />
<glyph unicode="ź" horiz-adv-x="528" d="M 71 550 L 461 550 L 461 513 L 129 46 L 479 46 L 479 0 L 61 0 L 61 37 L 393 504 L 71 504 L 71 550 Z M 295 754 L 372 754 L 278 621 L 240 621 L 295 754 Z" />
<glyph unicode="Ż" horiz-adv-x="547" d="M 71 715 L 486 715 L 486 674 L 127 48 L 497 48 L 497 0 L 61 0 L 61 38 L 421 667 L 71 667 L 71 715 Z M 237 880 L 307 880 L 307 810 L 237 810 L 237 880 Z" />
<glyph unicode="ż" horiz-adv-x="528" d="M 71 550 L 461 550 L 461 513 L 129 46 L 479 46 L 479 0 L 61 0 L 61 37 L 393 504 L 71 504 L 71 550 Z M 229 715 L 299 715 L 299 645 L 229 645 L 229 715 Z" />
<glyph unicode="Ž" horiz-adv-x="547" d="M 71 715 L 486 715 L 486 674 L 127 48 L 497 48 L 497 0 L 61 0 L 61 38 L 421 667 L 71 667 L 71 715 Z M 309 786 L 236 786 L 166 919 L 206 919 L 273 832 L 340 919 L 379 919 L 309 786 Z" />
<glyph unicode="ž" horiz-adv-x="528" d="M 71 550 L 461 550 L 461 513 L 129 46 L 479 46 L 479 0 L 61 0 L 61 37 L 393 504 L 71 504 L 71 550 Z M 300 621 L 227 621 L 157 754 L 197 754 L 264 667 L 331 754 L 370 754 L 300 621 Z" />
<glyph unicode="ƒ" horiz-adv-x="396" d="M 148 504 L 82 504 L 82 539 L 148 550 L 148 632 C 148 672 158 701 180 720 C 201 738 231 748 271 748 C 288 748 302 747 314 745 C 326 743 336 740 344 737 L 344 691 C 334 693 324 696 312 698 C 300 700 287 702 272 702 C 246 702 228 696 217 686 C 206 675 201 657 201 631 L 201 550 L 311 550 L 311 504 L 201 504 L 201 -83 C 201 -123 190 -152 169 -170 C 148 -188 118 -198 79 -198 C 61 -198 47 -197 35 -195 C 23 -193 13 -190 5 -187 L 5 -141 C 14 -143 25 -146 37 -148 C 49 -150 62 -152 78 -152 C 103 -152 121 -146 132 -136 C 142 -125 148 -107 148 -81 L 148 504 Z" />
<glyph unicode="Ș" horiz-adv-x="595" d="M 294 343 C 251 347 215 355 187 365 C 159 375 136 389 119 405 C 101 421 89 440 82 462 C 74 484 71 509 71 537 C 71 599 89 646 126 678 C 163 710 219 726 293 726 C 330 726 363 722 391 715 C 419 708 442 697 461 681 C 479 665 493 645 503 620 C 512 594 517 563 517 527 L 462 527 C 462 555 458 579 452 599 C 445 619 435 634 421 646 C 407 657 390 665 369 670 C 347 675 322 678 293 678 C 235 678 193 666 167 644 C 141 621 128 585 128 537 C 128 515 130 497 136 481 C 141 465 150 451 163 439 C 176 427 194 418 216 411 C 238 403 265 398 299 394 C 348 388 388 380 419 369 C 449 358 473 344 491 327 C 508 309 520 289 526 265 C 532 241 535 213 535 182 C 535 150 530 121 522 97 C 514 73 500 53 481 37 C 462 21 437 9 407 1 C 377 -7 340 -11 297 -11 C 261 -11 229 -8 200 -2 C 171 3 146 13 126 28 C 105 42 89 62 78 88 C 66 113 61 145 61 184 L 116 184 C 116 154 120 129 128 110 C 136 91 147 76 163 65 C 179 54 198 47 220 43 C 242 39 268 37 297 37 C 331 37 360 40 384 46 C 407 52 426 61 440 73 C 454 85 464 100 470 118 C 476 136 479 158 479 182 C 479 206 477 228 473 246 C 469 264 461 279 448 292 C 435 304 416 315 392 323 C 368 331 335 338 294 343 Z M 266 -66 L 333 -66 L 276 -209 L 237 -209 L 266 -66 Z" />
<glyph unicode="ș" horiz-adv-x="551" d="M 113 153 C 113 132 115 114 121 100 C 126 85 135 73 147 63 C 159 53 175 46 195 42 C 215 37 241 35 271 35 C 307 35 337 37 359 43 C 381 49 397 57 409 67 C 420 77 427 89 431 103 C 435 117 437 132 437 150 C 437 166 434 181 429 193 C 423 205 414 215 402 223 C 390 231 373 237 352 242 C 331 246 305 250 274 253 C 204 259 153 274 121 297 C 89 320 73 356 73 406 C 73 461 91 501 127 525 C 163 549 212 561 274 561 C 343 561 394 548 426 523 C 458 497 475 455 475 397 L 422 397 C 422 439 410 469 388 487 C 366 505 328 515 274 515 C 226 515 190 507 164 492 C 138 476 126 448 126 406 C 126 368 138 342 164 328 C 189 313 228 303 282 299 C 322 295 356 289 383 282 C 409 275 431 266 447 254 C 463 242 474 228 480 211 C 486 194 490 174 490 150 C 490 127 487 106 482 86 C 476 66 466 49 451 35 C 435 21 413 9 384 1 C 355 -6 317 -11 271 -11 C 229 -11 194 -7 167 0 C 139 8 118 19 102 33 C 86 47 75 65 69 85 C 63 105 60 128 60 153 L 113 153 Z M 242 -66 L 309 -66 L 252 -209 L 213 -209 L 242 -66 Z" />
<glyph unicode="ˆ" horiz-adv-x="334" d="M 274 621 L 234 621 L 167 708 L 100 621 L 61 621 L 131 754 L 204 754 L 274 621 Z" />
<glyph unicode="ˇ" horiz-adv-x="382" d="M 230 621 L 157 621 L 87 754 L 127 754 L 194 667 L 261 754 L 300 754 L 230 621 Z" />
<glyph unicode="˘" horiz-adv-x="367" d="M 102 751 C 102 723 108 701 122 685 C 135 669 156 662 184 662 C 212 662 232 669 245 685 C 258 701 265 723 265 751 L 310 751 C 310 707 299 674 278 651 C 256 627 225 616 184 616 C 142 616 110 627 89 651 C 67 674 57 707 57 751 L 102 751 Z" />
<glyph unicode="˙" horiz-adv-x="220" d="M 78 715 L 148 715 L 148 645 L 78 645 L 78 715 Z" />
<glyph unicode="˚" horiz-adv-x="341" d="M 271 703 C 271 673 262 651 244 637 C 226 622 201 615 170 615 C 139 615 115 622 97 637 C 79 651 70 673 70 703 C 70 732 79 754 97 769 C 115 783 139 791 170 791 C 201 791 226 783 244 769 C 262 754 271 732 271 703 Z M 227 703 C 227 718 222 730 213 738 C 204 746 190 751 170 751 C 132 751 114 735 114 703 C 114 669 132 653 170 653 C 190 653 204 657 213 666 C 222 674 227 687 227 703 Z" />
<glyph unicode="˛" horiz-adv-x="234" d="M 174 -183 L 135 -183 C 108 -183 87 -177 73 -165 C 59 -153 52 -135 52 -110 C 52 -89 58 -69 71 -51 C 83 -32 101 -15 123 0 L 174 0 C 150 -15 132 -31 120 -48 C 108 -65 102 -81 102 -97 C 102 -112 106 -123 114 -129 C 122 -135 134 -139 148 -139 L 174 -139 L 174 -183 Z" />
<glyph unicode="˜" horiz-adv-x="451" d="M 290 637 C 274 637 261 640 250 646 C 239 652 229 658 220 666 C 211 673 202 680 193 686 C 184 692 174 695 164 695 C 146 695 134 689 128 679 C 122 669 120 657 120 643 L 81 643 C 81 679 88 704 103 718 C 117 732 137 739 162 739 C 177 739 190 736 201 730 C 212 724 222 717 231 710 C 240 702 249 696 258 690 C 266 684 276 681 288 681 C 306 681 317 686 323 696 C 329 706 332 719 332 733 L 371 733 C 371 697 363 672 349 658 C 334 644 314 637 290 637 Z" />
<glyph unicode="˝" horiz-adv-x="433" d="M 119 754 L 193 754 L 132 621 L 97 621 L 119 754 Z M 269 754 L 346 754 L 253 621 L 215 621 L 269 754 Z" />
<glyph unicode="π" horiz-adv-x="673" d="M 182 504 L 61 504 L 61 550 L 613 550 L 613 504 L 492 504 L 492 119 C 492 93 497 75 507 63 C 517 51 536 46 564 46 L 580 46 L 580 0 L 564 0 C 522 0 490 9 470 28 C 449 46 439 77 439 119 L 439 504 L 234 504 L 234 0 L 182 0 L 182 504 Z" />
<glyph unicode="Ḃ" horiz-adv-x="617" d="M 94 715 L 318 715 C 358 715 393 711 421 705 C 449 698 471 687 489 672 C 507 657 520 638 528 615 C 536 591 540 563 540 531 C 540 488 529 452 508 423 C 486 393 457 374 421 364 C 471 352 507 332 529 304 C 551 276 562 239 562 191 C 562 155 557 124 548 100 C 538 75 524 55 505 41 C 486 26 462 15 434 9 C 405 3 372 0 334 0 L 94 0 L 94 715 Z M 148 340 L 148 48 L 334 48 C 366 48 394 50 416 56 C 438 62 455 71 469 83 C 483 95 492 110 498 128 C 504 146 507 168 507 194 C 507 242 493 279 467 303 C 440 327 398 340 341 340 L 148 340 Z M 148 386 L 341 386 C 366 386 388 389 406 397 C 424 404 438 414 450 427 C 462 439 470 454 476 472 C 481 489 484 508 484 528 C 484 554 481 575 475 593 C 469 611 459 625 446 636 C 433 647 416 655 395 660 C 373 664 348 667 318 667 L 148 667 L 148 386 Z M 277 880 L 347 880 L 347 810 L 277 810 L 277 880 Z" />
<glyph unicode="ḃ" horiz-adv-x="586" d="M 311 35 C 340 35 365 38 385 44 C 405 50 422 60 435 76 C 448 92 458 113 464 140 C 470 167 473 202 473 244 L 473 306 C 473 348 470 382 464 409 C 458 436 448 457 435 473 C 422 489 405 500 385 506 C 365 512 340 515 311 515 C 283 515 253 509 223 497 C 192 485 163 468 135 446 L 135 105 C 163 83 192 65 223 53 C 253 41 283 35 311 35 Z M 316 -11 C 286 -11 254 -4 221 10 C 188 24 158 41 132 61 L 114 0 L 82 0 L 82 737 L 135 737 L 135 492 C 161 511 191 527 223 541 C 255 554 286 561 316 561 C 349 561 379 557 405 550 C 431 542 453 529 471 510 C 489 490 502 464 512 431 C 521 398 526 356 526 306 L 526 244 C 526 192 521 150 512 118 C 502 85 489 59 471 40 C 453 20 431 7 405 0 C 379 -7 349 -11 316 -11 Z M 279 715 L 349 715 L 349 645 L 279 645 L 279 715 Z" />
<glyph unicode="Ḋ" horiz-adv-x="629" d="M 94 0 L 94 715 L 296 715 C 337 715 374 711 407 704 C 439 696 467 683 489 664 C 511 644 528 618 540 585 C 552 552 558 510 558 460 L 558 255 C 558 203 552 161 540 129 C 528 96 511 70 489 51 C 467 31 439 18 407 11 C 374 3 337 0 296 0 L 94 0 Z M 296 48 C 328 48 357 50 383 56 C 409 62 430 72 448 88 C 466 103 479 124 489 151 C 498 178 503 213 503 255 L 503 460 C 503 502 498 536 489 563 C 479 590 466 611 448 627 C 430 642 409 652 383 658 C 357 664 328 667 296 667 L 148 667 L 148 48 L 296 48 Z M 262 880 L 332 880 L 332 810 L 262 810 L 262 880 Z" />
<glyph unicode="ḋ" horiz-adv-x="586" d="M 275 35 C 303 35 332 41 363 53 C 393 65 423 83 451 105 L 451 446 C 423 468 393 485 363 497 C 332 509 303 515 275 515 C 245 515 220 512 200 506 C 180 500 163 489 150 473 C 137 457 128 436 122 409 C 116 382 113 348 113 306 L 113 244 C 113 202 116 167 122 140 C 128 113 137 92 150 76 C 163 60 180 50 200 44 C 220 38 245 35 275 35 Z M 271 -11 C 237 -11 208 -7 182 0 C 156 7 134 20 116 40 C 98 59 84 85 75 118 C 65 150 61 192 61 244 L 61 306 C 61 356 65 398 75 431 C 84 464 98 490 116 510 C 134 529 156 542 182 550 C 208 557 237 561 271 561 C 301 561 331 554 363 541 C 395 527 424 511 451 492 L 451 737 L 504 737 L 504 0 L 472 0 L 454 61 C 440 51 426 41 411 33 C 396 24 381 16 365 10 C 349 3 333 -1 317 -5 C 301 -9 285 -11 271 -11 Z M 231 715 L 301 715 L 301 645 L 231 645 L 231 715 Z" />
<glyph unicode="Ḟ" horiz-adv-x="524" d="M 425 340 L 148 340 L 148 0 L 94 0 L 94 715 L 463 715 L 463 667 L 148 667 L 148 386 L 425 386 L 425 340 Z M 254 880 L 324 880 L 324 810 L 254 810 L 254 880 Z" />
<glyph unicode="ḟ" horiz-adv-x="328" d="M 300 691 C 290 693 280 696 268 698 C 256 700 242 702 227 702 C 202 702 184 696 173 686 C 162 675 157 657 157 631 L 157 550 L 267 550 L 267 504 L 157 504 L 157 0 L 104 0 L 104 504 L 38 504 L 38 539 L 104 550 L 104 632 C 104 672 114 701 135 720 C 156 738 186 748 226 748 C 243 748 257 747 269 745 C 281 743 291 740 300 737 L 300 691 Z M 179 891 L 249 891 L 249 821 L 179 821 L 179 891 Z" />
<glyph unicode="Ṁ" horiz-adv-x="805" d="M 402 67 L 404 67 L 621 715 L 712 715 L 712 0 L 657 0 L 657 662 L 431 0 L 374 0 L 148 662 L 148 0 L 94 0 L 94 715 L 184 715 L 402 67 Z M 367 880 L 437 880 L 437 810 L 367 810 L 367 880 Z" />
<glyph unicode="ṁ" horiz-adv-x="871" d="M 464 0 L 411 0 L 411 404 C 411 424 409 441 406 455 C 402 469 396 480 388 489 C 380 498 369 505 355 509 C 341 513 323 515 301 515 C 274 515 247 509 219 497 C 191 485 163 468 135 446 L 135 0 L 82 0 L 82 550 L 114 550 L 132 490 C 163 513 193 531 223 543 C 252 555 282 561 313 561 C 333 561 351 559 366 556 C 381 552 394 547 405 541 C 416 534 425 526 433 517 C 441 508 448 498 455 488 C 487 512 517 530 547 542 C 577 554 608 561 641 561 C 673 561 699 557 719 550 C 739 542 754 532 765 519 C 776 505 784 489 788 470 C 792 450 794 428 794 404 L 794 0 L 741 0 L 741 404 C 741 444 733 472 717 489 C 701 506 672 515 629 515 C 603 515 576 509 548 497 C 520 485 492 468 464 446 L 464 0 Z M 402 715 L 472 715 L 472 645 L 402 645 L 402 715 Z" />
<glyph unicode="Ṗ" horiz-adv-x="603" d="M 94 715 L 309 715 C 350 715 386 711 416 705 C 446 698 470 686 490 670 C 510 653 524 630 534 602 C 543 574 548 538 548 496 C 548 457 543 424 534 397 C 524 369 510 347 491 330 C 471 313 447 301 417 293 C 387 285 352 282 311 282 L 148 282 L 148 0 L 94 0 L 94 715 Z M 148 330 L 311 330 C 344 330 372 332 395 338 C 418 343 437 352 451 365 C 465 378 475 395 481 417 C 487 438 491 464 491 496 C 491 532 487 561 480 583 C 473 605 462 622 448 635 C 433 647 414 656 391 660 C 368 664 341 667 309 667 L 148 667 L 148 330 Z M 262 880 L 332 880 L 332 810 L 262 810 L 262 880 Z" />
<glyph unicode="ṗ" horiz-adv-x="592" d="M 311 515 C 283 515 253 509 223 497 C 192 485 163 468 135 446 L 135 105 C 163 83 192 65 223 53 C 253 41 283 35 311 35 C 340 35 365 38 385 44 C 405 50 422 60 435 76 C 448 92 458 113 464 140 C 470 167 473 202 473 244 L 473 306 C 473 348 470 382 464 409 C 458 436 448 457 435 473 C 422 489 405 500 385 506 C 365 512 340 515 311 515 Z M 316 561 C 349 561 379 557 405 550 C 431 542 453 529 471 510 C 489 490 502 464 512 431 C 521 398 526 356 526 306 L 526 244 C 526 192 521 150 512 118 C 502 85 489 59 471 40 C 453 20 431 7 405 0 C 379 -7 349 -11 316 -11 C 286 -11 255 -4 223 9 C 191 22 161 38 135 58 L 135 -187 L 82 -187 L 82 550 L 114 550 L 132 490 C 158 509 188 526 221 540 C 254 554 286 561 316 561 Z M 272 715 L 342 715 L 342 645 L 272 645 L 272 715 Z" />
<glyph unicode="Ṡ" horiz-adv-x="595" d="M 294 343 C 251 347 215 355 187 365 C 159 375 136 389 119 405 C 101 421 89 440 82 462 C 74 484 71 509 71 537 C 71 599 89 646 126 678 C 163 710 219 726 293 726 C 330 726 363 722 391 715 C 419 708 442 697 461 681 C 479 665 493 645 503 620 C 512 594 517 563 517 527 L 462 527 C 462 555 458 579 452 599 C 445 619 435 634 421 646 C 407 657 390 665 369 670 C 347 675 322 678 293 678 C 235 678 193 666 167 644 C 141 621 128 585 128 537 C 128 515 130 497 136 481 C 141 465 150 451 163 439 C 176 427 194 418 216 411 C 238 403 265 398 299 394 C 348 388 388 380 419 369 C 449 358 473 344 491 327 C 508 309 520 289 526 265 C 532 241 535 213 535 182 C 535 150 530 121 522 97 C 514 73 500 53 481 37 C 462 21 437 9 407 1 C 377 -7 340 -11 297 -11 C 261 -11 229 -8 200 -2 C 171 3 146 13 126 28 C 105 42 89 62 78 88 C 66 113 61 145 61 184 L 116 184 C 116 154 120 129 128 110 C 136 91 147 76 163 65 C 179 54 198 47 220 43 C 242 39 268 37 297 37 C 331 37 360 40 384 46 C 407 52 426 61 440 73 C 454 85 464 100 470 118 C 476 136 479 158 479 182 C 479 206 477 228 473 246 C 469 264 461 279 448 292 C 435 304 416 315 392 323 C 368 331 335 338 294 343 Z M 264 880 L 334 880 L 334 810 L 264 810 L 264 880 Z" />
<glyph unicode="ṡ" horiz-adv-x="551" d="M 113 153 C 113 132 115 114 121 100 C 126 85 135 73 147 63 C 159 53 175 46 195 42 C 215 37 241 35 271 35 C 307 35 337 37 359 43 C 381 49 397 57 409 67 C 420 77 427 89 431 103 C 435 117 437 132 437 150 C 437 166 434 181 429 193 C 423 205 414 215 402 223 C 390 231 373 237 352 242 C 331 246 305 250 274 253 C 204 259 153 274 121 297 C 89 320 73 356 73 406 C 73 461 91 501 127 525 C 163 549 212 561 274 561 C 343 561 394 548 426 523 C 458 497 475 455 475 397 L 422 397 C 422 439 410 469 388 487 C 366 505 328 515 274 515 C 226 515 190 507 164 492 C 138 476 126 448 126 406 C 126 368 138 342 164 328 C 189 313 228 303 282 299 C 322 295 356 289 383 282 C 409 275 431 266 447 254 C 463 242 474 228 480 211 C 486 194 490 174 490 150 C 490 127 487 106 482 86 C 476 66 466 49 451 35 C 435 21 413 9 384 1 C 355 -6 317 -11 271 -11 C 229 -11 194 -7 167 0 C 139 8 118 19 102 33 C 86 47 75 65 69 85 C 63 105 60 128 60 153 L 113 153 Z M 240 715 L 310 715 L 310 645 L 240 645 L 240 715 Z" />
<glyph unicode="Ṫ" horiz-adv-x="491" d="M 219 667 L 28 667 L 28 715 L 463 715 L 463 667 L 274 667 L 274 0 L 219 0 L 219 667 Z M 210 880 L 280 880 L 280 810 L 210 810 L 210 880 Z" />
<glyph unicode="ṫ" horiz-adv-x="339" d="M 99 683 L 152 693 L 152 550 L 284 550 L 284 504 L 152 504 L 152 117 C 152 91 157 70 167 56 C 177 42 195 35 222 35 C 239 35 254 36 268 38 C 282 40 294 43 306 46 L 306 0 C 294 -3 282 -6 268 -8 C 254 -10 238 -11 221 -11 C 180 -11 149 0 129 19 C 109 39 99 72 99 117 L 99 504 L 33 504 L 33 539 L 99 550 L 99 683 Z M 92 842 L 162 842 L 162 772 L 92 772 L 92 842 Z" />
<glyph unicode="Ẁ" horiz-adv-x="909" d="M 491 715 L 653 73 L 656 73 L 799 715 L 859 715 L 687 0 L 620 0 L 454 650 L 288 0 L 221 0 L 50 715 L 110 715 L 253 73 L 255 73 L 418 715 L 491 715 Z M 479 786 L 440 786 L 347 919 L 423 919 L 479 786 Z" />
<glyph unicode="ẁ" horiz-adv-x="805" d="M 438 550 L 581 53 L 704 550 L 761 550 L 614 0 L 548 0 L 403 498 L 257 0 L 191 0 L 44 550 L 101 550 L 224 53 L 367 550 L 438 550 Z M 425 621 L 386 621 L 293 754 L 369 754 L 425 621 Z" />
<glyph unicode="Ẃ" horiz-adv-x="909" d="M 491 715 L 653 73 L 656 73 L 799 715 L 859 715 L 687 0 L 620 0 L 454 650 L 288 0 L 221 0 L 50 715 L 110 715 L 253 73 L 255 73 L 418 715 L 491 715 Z M 489 919 L 566 919 L 472 786 L 434 786 L 489 919 Z" />
<glyph unicode="ẃ" horiz-adv-x="805" d="M 438 550 L 581 53 L 704 550 L 761 550 L 614 0 L 548 0 L 403 498 L 257 0 L 191 0 L 44 550 L 101 550 L 224 53 L 367 550 L 438 550 Z M 438 754 L 515 754 L 421 621 L 383 621 L 438 754 Z" />
<glyph unicode="Ẅ" horiz-adv-x="909" d="M 491 715 L 653 73 L 656 73 L 799 715 L 859 715 L 687 0 L 620 0 L 454 650 L 288 0 L 221 0 L 50 715 L 110 715 L 253 73 L 255 73 L 418 715 L 491 715 Z M 491 880 L 561 880 L 561 810 L 491 810 L 491 880 Z M 348 880 L 418 880 L 418 810 L 348 810 L 348 880 Z" />
<glyph unicode="ẅ" horiz-adv-x="805" d="M 438 550 L 581 53 L 704 550 L 761 550 L 614 0 L 548 0 L 403 498 L 257 0 L 191 0 L 44 550 L 101 550 L 224 53 L 367 550 L 438 550 Z M 439 715 L 509 715 L 509 645 L 439 645 L 439 715 Z M 296 715 L 366 715 L 366 645 L 296 645 L 296 715 Z" />
<glyph unicode="Ỳ" horiz-adv-x="535" d="M 240 288 L 28 715 L 88 715 L 266 342 L 268 342 L 447 715 L 507 715 L 295 288 L 295 0 L 240 0 L 240 288 Z M 290 786 L 251 786 L 158 919 L 234 919 L 290 786 Z" />
<glyph unicode="ỳ" horiz-adv-x="524" d="M 27 550 L 85 550 L 260 63 L 262 63 L 437 550 L 496 550 L 260 -81 C 251 -103 242 -122 233 -137 C 223 -152 212 -164 200 -173 C 188 -182 174 -188 159 -192 C 143 -196 125 -198 105 -198 C 93 -198 84 -197 76 -196 C 68 -194 59 -192 50 -189 L 50 -142 C 67 -148 85 -152 105 -152 C 117 -152 129 -150 139 -148 C 149 -145 159 -140 167 -134 C 175 -128 183 -119 190 -108 C 197 -96 204 -82 211 -64 L 234 0 L 27 550 Z M 284 621 L 245 621 L 152 754 L 228 754 L 284 621 Z" />
<glyph unicode="–" horiz-adv-x="512" d="M 50 340 L 462 340 L 462 294 L 50 294 L 50 340 Z" />
<glyph unicode="—" horiz-adv-x="792" d="M 71 340 L 721 340 L 721 294 L 71 294 L 71 340 Z" />
<glyph unicode="‘" horiz-adv-x="198" d="M 132 451 L 97 451 L 55 715 L 132 715 L 132 451 Z" />
<glyph unicode="’" horiz-adv-x="198" d="M 66 715 L 143 715 L 101 451 L 66 451 L 66 715 Z" />
<glyph unicode="‚" horiz-adv-x="220" d="M 77 132 L 154 132 L 112 -132 L 77 -132 L 77 132 Z" />
<glyph unicode="“" horiz-adv-x="319" d="M 132 451 L 97 451 L 55 715 L 132 715 L 132 451 Z M 253 451 L 218 451 L 176 715 L 253 715 L 253 451 Z" />
<glyph unicode="”" horiz-adv-x="319" d="M 187 715 L 264 715 L 222 451 L 187 451 L 187 715 Z M 66 715 L 143 715 L 101 451 L 66 451 L 66 715 Z" />
<glyph unicode="„" horiz-adv-x="341" d="M 198 132 L 275 132 L 233 -132 L 198 -132 L 198 132 Z M 77 132 L 154 132 L 112 -132 L 77 -132 L 77 132 Z" />
<glyph unicode="†" horiz-adv-x="376" d="M 163 577 L 50 577 L 50 618 L 163 618 L 163 737 L 213 737 L 213 618 L 327 618 L 327 577 L 213 577 L 213 286 L 163 286 L 163 577 Z" />
<glyph unicode="‡" horiz-adv-x="376" d="M 163 618 L 163 737 L 213 737 L 213 618 L 327 618 L 327 577 L 213 577 L 213 446 L 327 446 L 327 405 L 213 405 L 213 286 L 163 286 L 163 405 L 50 405 L 50 446 L 163 446 L 163 577 L 50 577 L 50 618 L 163 618 Z" />
<glyph unicode="•" horiz-adv-x="480" d="M 408 334 C 408 300 404 273 398 252 C 391 230 381 214 367 202 C 353 190 336 181 315 177 C 293 172 268 170 240 170 C 210 170 185 172 164 177 C 142 181 125 190 111 202 C 97 214 87 230 81 252 C 74 273 71 300 71 334 L 71 381 C 71 414 74 441 81 462 C 87 483 97 500 111 512 C 125 524 142 532 164 537 C 185 541 210 544 240 544 C 268 544 293 541 315 537 C 336 532 353 524 367 512 C 381 500 391 483 398 462 C 404 441 408 414 408 381 L 408 334 Z" />
<glyph unicode="…" horiz-adv-x="559" d="M 71 81 L 155 81 L 155 0 L 71 0 L 71 81 Z M 243 81 L 327 81 L 327 0 L 243 0 L 243 81 Z M 415 81 L 498 81 L 498 0 L 415 0 L 415 81 Z" />
<glyph unicode="‰" horiz-adv-x="987" d="M 162 0 L 103 0 L 579 715 L 637 715 L 162 0 Z M 358 566 C 358 506 345 465 321 442 C 296 418 259 407 209 407 C 159 407 121 418 97 442 C 73 465 61 506 61 566 C 61 624 73 666 97 690 C 121 714 159 726 209 726 C 259 726 296 714 321 690 C 345 666 358 624 358 566 Z M 307 566 C 307 610 299 640 283 657 C 267 673 243 682 209 682 C 175 682 150 673 134 657 C 118 640 111 610 111 566 C 111 543 112 524 116 510 C 120 495 126 483 134 475 C 142 466 152 460 164 456 C 176 452 191 451 209 451 C 225 451 240 452 252 456 C 264 460 275 466 283 475 C 291 483 297 495 301 510 C 305 524 307 543 307 566 Z M 926 148 C 926 88 913 47 889 24 C 865 0 828 -11 778 -11 C 746 -11 719 -6 699 4 C 679 14 664 31 654 55 C 644 31 629 14 609 4 C 589 -6 563 -11 531 -11 C 481 -11 443 0 419 24 C 395 47 383 88 383 148 C 383 206 395 248 419 272 C 443 296 481 308 531 308 C 563 308 589 302 609 292 C 629 281 644 264 654 240 C 664 264 679 281 699 292 C 719 302 746 308 778 308 C 828 308 865 296 889 272 C 913 248 926 206 926 148 Z M 876 148 C 876 192 868 223 852 239 C 836 255 812 264 778 264 C 744 264 719 255 703 239 C 687 223 680 192 680 148 C 680 125 681 106 685 92 C 689 77 695 65 703 57 C 711 48 721 42 733 38 C 745 34 760 33 778 33 C 794 33 809 34 821 38 C 833 42 844 48 852 57 C 860 65 866 77 870 92 C 874 106 876 125 876 148 Z M 629 148 C 629 192 621 223 605 239 C 589 255 565 264 531 264 C 497 264 472 255 456 239 C 440 223 433 192 433 148 C 433 125 434 106 438 92 C 442 77 448 65 456 57 C 464 48 474 42 486 38 C 498 34 513 33 531 33 C 547 33 562 34 574 38 C 586 42 597 48 605 57 C 613 65 619 77 623 92 C 627 106 629 125 629 148 Z" />
<glyph unicode="‹" horiz-adv-x="341" d="M 66 275 L 218 473 L 275 473 L 122 275 L 275 77 L 218 77 L 66 275 Z" />
<glyph unicode="›" horiz-adv-x="341" d="M 123 77 L 66 77 L 219 275 L 66 473 L 123 473 L 275 275 L 123 77 Z" />
<glyph unicode="€" horiz-adv-x="647" d="M 178 399 L 178 316 L 424 316 L 416 269 L 178 269 L 178 248 C 178 207 181 173 187 146 C 193 119 203 97 217 81 C 231 65 249 53 273 47 C 297 40 326 37 362 37 C 392 37 417 39 439 44 C 460 48 477 56 491 68 C 505 80 515 95 521 115 C 527 134 531 158 531 188 L 586 188 C 586 114 567 63 530 33 C 493 3 437 -11 362 -11 C 320 -11 284 -7 254 1 C 224 9 199 23 179 43 C 159 63 145 89 136 123 C 127 156 123 198 123 249 L 123 269 L 50 269 L 50 316 L 123 316 L 123 399 L 50 399 L 50 446 L 123 446 L 123 468 C 123 516 127 556 135 589 C 143 621 157 648 176 668 C 195 688 220 703 250 712 C 280 721 318 726 362 726 C 437 726 493 711 530 681 C 567 651 586 600 586 527 L 531 527 C 531 555 527 579 521 599 C 515 619 505 634 491 646 C 477 657 460 665 439 670 C 417 675 392 678 362 678 C 327 678 298 674 275 668 C 251 661 232 650 218 634 C 204 618 193 596 187 569 C 181 542 178 509 178 469 L 178 446 L 446 446 L 438 399 L 178 399 Z" />
<glyph unicode="™" horiz-adv-x="632" d="M 129 686 L 50 686 L 50 715 L 242 715 L 242 686 L 163 686 L 163 429 L 129 429 L 129 686 Z M 405 429 L 318 674 L 318 429 L 284 429 L 284 715 L 334 715 L 422 462 L 510 715 L 561 715 L 561 429 L 527 429 L 527 674 L 440 429 L 405 429 Z" />
<glyph unicode="⅓" horiz-adv-x="712" d="M 561 715 L 599 715 L 116 0 L 77 0 L 561 715 Z M 150 384 L 150 678 L 94 678 L 94 700 L 164 715 L 185 715 L 185 384 L 150 384 Z M 410 233 C 410 269 419 295 437 311 C 455 327 482 335 516 335 C 554 335 581 327 598 312 C 614 297 623 272 623 238 C 623 220 619 206 613 195 C 606 184 597 175 586 169 C 601 163 613 154 622 143 C 630 131 635 115 635 94 C 635 58 625 33 605 17 C 585 1 556 -6 519 -6 C 481 -6 453 1 436 17 C 419 33 411 60 411 98 L 447 98 C 447 70 452 51 462 41 C 472 30 491 25 519 25 C 546 25 566 30 579 40 C 592 50 599 68 599 94 C 599 109 595 123 587 135 C 579 147 565 153 546 153 L 494 153 L 494 183 L 546 183 C 553 183 559 184 565 188 C 570 192 574 196 578 202 C 581 207 583 213 585 219 C 586 225 587 232 587 238 C 587 262 581 280 571 290 C 561 300 542 305 516 305 C 492 305 474 299 463 289 C 451 278 446 259 446 233 L 410 233 Z" />
<glyph unicode="⅔" horiz-adv-x="752" d="M 602 715 L 640 715 L 156 0 L 118 0 L 602 715 Z M 451 233 C 451 269 460 295 478 311 C 496 327 522 335 557 335 C 594 335 621 327 638 312 C 654 297 663 272 663 238 C 663 220 659 206 653 195 C 647 184 638 175 627 169 C 642 163 654 154 662 143 C 670 131 675 115 675 94 C 675 58 665 33 645 17 C 625 1 597 -6 560 -6 C 522 -6 494 1 477 17 C 460 33 452 60 452 98 L 487 98 C 487 70 492 51 502 41 C 512 30 532 25 560 25 C 587 25 607 30 620 40 C 633 50 640 68 640 94 C 640 109 636 123 628 135 C 620 147 606 153 586 153 L 535 153 L 535 183 L 586 183 C 594 183 600 184 606 188 C 611 192 615 196 619 202 C 622 207 624 213 626 219 C 627 225 628 232 628 238 C 628 262 622 280 612 290 C 601 300 583 305 557 305 C 532 305 514 299 503 289 C 491 278 486 259 486 233 L 451 233 Z M 78 407 C 78 427 82 443 91 457 C 99 471 110 483 123 493 C 136 503 150 513 166 521 C 181 529 195 538 208 548 C 221 557 232 567 241 578 C 249 589 254 603 254 619 C 254 641 249 659 240 671 C 230 683 211 689 183 689 C 156 689 137 682 127 670 C 117 657 112 638 112 612 L 77 612 C 77 646 85 672 101 691 C 117 709 145 719 183 719 C 223 719 251 710 266 692 C 281 674 289 649 289 619 C 289 600 284 584 276 571 C 268 557 257 546 245 536 C 232 526 218 517 204 509 C 189 501 175 492 162 483 C 148 474 137 464 128 454 C 118 443 113 430 112 415 L 291 415 L 291 384 L 78 384 L 78 407 Z" />
<glyph unicode="⅛" horiz-adv-x="711" d="M 561 715 L 599 715 L 116 0 L 77 0 L 561 715 Z M 150 384 L 150 678 L 94 678 L 94 700 L 164 715 L 185 715 L 185 384 L 150 384 Z M 516 -6 C 474 -6 443 1 425 16 C 407 31 398 55 398 88 C 398 128 416 154 452 168 C 436 175 424 185 418 199 C 411 213 408 228 408 246 C 408 279 417 302 437 315 C 456 328 482 335 516 335 C 549 335 575 328 595 315 C 614 302 624 279 624 246 C 624 228 620 213 613 199 C 605 185 594 175 580 168 C 616 154 634 128 634 88 C 634 55 624 31 606 16 C 587 1 557 -6 516 -6 Z M 530 183 C 550 183 564 188 574 200 C 583 211 588 226 588 244 C 588 267 582 283 570 292 C 558 300 540 305 516 305 C 490 305 472 300 460 292 C 448 283 442 267 442 244 C 442 226 446 211 456 200 C 466 188 481 183 501 183 L 530 183 Z M 501 153 C 475 153 457 146 447 133 C 437 119 432 105 432 89 C 432 66 438 50 451 40 C 463 30 485 25 516 25 C 546 25 567 30 579 40 C 591 50 598 66 598 89 C 598 105 593 119 583 133 C 573 146 556 153 530 153 L 501 153 Z" />
<glyph unicode="⅜" horiz-adv-x="740" d="M 591 715 L 629 715 L 145 0 L 107 0 L 591 715 Z M 546 -6 C 504 -6 473 1 455 16 C 437 31 428 55 428 88 C 428 128 446 154 482 168 C 466 175 454 185 448 199 C 441 213 438 228 438 246 C 438 279 447 302 467 315 C 486 328 512 335 546 335 C 579 335 605 328 624 315 C 643 302 653 279 653 246 C 653 228 649 213 642 199 C 635 185 624 175 609 168 C 645 154 663 128 663 88 C 663 55 653 31 635 16 C 617 1 587 -6 546 -6 Z M 560 183 C 579 183 593 188 603 200 C 613 211 618 226 618 244 C 618 267 612 283 600 292 C 588 300 570 305 546 305 C 520 305 502 300 490 292 C 478 283 472 267 472 244 C 472 226 476 211 486 200 C 496 188 510 183 530 183 L 560 183 Z M 530 153 C 504 153 487 146 477 133 C 467 119 462 105 462 89 C 462 66 468 50 481 40 C 493 30 515 25 546 25 C 576 25 597 30 609 40 C 621 50 628 66 628 89 C 628 105 623 119 613 133 C 603 146 586 153 560 153 L 530 153 Z M 77 617 C 77 653 86 679 104 695 C 122 711 148 719 183 719 C 220 719 247 711 264 696 C 280 681 289 656 289 621 C 289 603 285 589 279 578 C 273 567 264 559 253 553 C 268 547 280 538 288 526 C 296 514 301 498 301 477 C 301 442 291 417 271 401 C 251 385 223 378 186 378 C 148 378 120 385 103 401 C 86 417 78 444 78 482 L 113 482 C 113 454 118 435 128 425 C 138 414 158 409 186 409 C 213 409 233 414 246 424 C 259 434 266 452 266 477 C 266 492 262 506 254 518 C 246 530 232 537 212 537 L 161 537 L 161 566 L 212 566 C 220 566 226 567 232 571 C 237 575 241 579 245 585 C 248 590 250 596 252 602 C 253 608 254 615 254 621 C 254 646 248 664 238 674 C 227 684 209 689 183 689 C 158 689 140 683 129 673 C 117 662 112 643 112 617 L 77 617 Z" />
</font>
</defs>
</svg>
