<svg version="1" id="Ebene_1" xmlns="http://www.w3.org/2000/svg" viewBox="0 0 187.158 27.865"><path fill="#1A171B" d="M58.01 19.807l-1.736 8.05H47.87l1.736-8.05L46.924 0h7.338l.947 12.47h.433L62.035 0h7.023zM89.866 27.856h-9.193L78.147 9.312h-.394l-3.946 18.544h-7.18L72.543 0h9.707l2.21 17.4h.435L88.603 0h7.18zM111.168 27.856l.196-6.233h-7.456l-2.445 6.233h-7.89l10.61-24.62C105.486.196 106.628 0 109.51 0h5.76c3.117 0 3.828.277 3.867 3.275l.196 24.58h-8.165zm-.79-22.844l-4.654 11.64h5.957l.316-11.64h-1.617zM138.334 22.53c-.514 2.327-2.13 5.326-6.51 5.326h-9.153l.987-4.696h6.155L134.744 0h8.363l-4.773 22.53zM163.105 4.696h-8.917l-1.42 6.59h8.956L160.7 15.98h-8.92l-1.577 7.18h8.955l-.985 4.696h-17.32L146.77 0h17.322zM186.174 4.736h-5.88l-4.933 23.12H167l4.892-23.12h-5.762L167.115 0h20.043z"/><path fill="#0086C0" d="M0 27.865l.71-3.47L28.066 7.84l-3.143 14.65z"/><path fill="#1A171B" d="M39.24 0H21.405l-2.68 12.607 8.947-5.414.587-.354.446-2.105h5.125c1.543 0 1.08 1.505 1.08 1.505l-3.315 15.69s-.193 1.23-1.233 1.23h-4.955l-.326.07-9.023 1.946-.57 2.68H33.48c4.38 0 5.8-2.96 6.312-5.287l3.67-17.44c.118-.63.196-1.145.196-1.617 0-2.92-2.21-3.512-4.42-3.512"/></svg>