<svg version="1" id="Ebene_1" xmlns="http://www.w3.org/2000/svg" width="180" height="180" viewBox="0 0 180 180"><path fill="#0086C0" d="M3.637 143.935l2.81-13.73L114.63 64.742l-12.432 57.944z"/><path fill="#1A171B" d="M158.82 33.736H88.295L77.7 83.588l35.38-21.41 2.318-1.4 1.765-8.32h20.27c6.098 0 4.27 5.952 4.27 5.952l-13.113 62.056s-.767 4.86-4.874 4.86h-19.598l-1.29.274-35.688 7.7-2.252 10.6h71.154c17.317 0 22.933-11.71 24.963-20.908l14.512-68.973c.47-2.49.78-4.528.78-6.394 0-11.55-8.737-13.89-17.477-13.89"/></svg>