<svg id="Ebene_1" xmlns="http://www.w3.org/2000/svg" width="50" height="60.229" viewBox="0 0 50 60.229"><g fill="#FFF" id="Flat_copy"><path d="M47.57 29.198c-2.396-2.394-22.58-2.424-22.58-2.422 0-.002-20.182.03-22.583 2.42C.007 31.594 0 43.42 0 43.49c0 .09.006 11.898 2.407 14.296 2.4 2.39 22.582 2.442 22.582 2.442s20.184-.053 22.58-2.442C49.98 55.383 50 43.49 50 43.49c0-.068-.027-11.895-2.43-14.292zm-32.178 6.97h-3.398V53.35h-3.29V36.17H5.308v-2.92H15.39v2.92zM25 53.348h-2.912V51.72c-.543.603-1.1 1.062-1.687 1.374-.582.318-1.145.472-1.693.472-.676 0-1.178-.217-1.526-.663-.335-.444-.51-1.1-.51-1.986v-12.4h2.915v11.376c0 .354.062.604.18.763.13.16.328.236.6.236.214 0 .488-.104.814-.315.328-.21.625-.473.905-.794v-11.27H25V53.35zm10.583-3.06c0 1.048-.228 1.852-.687 2.414-.452.562-1.118.836-1.984.836-.574 0-1.08-.104-1.524-.32a3.75 3.75 0 0 1-1.246-1.005v1.138h-2.948V33.248h2.948v6.474c.396-.45.81-.797 1.25-1.03a2.835 2.835 0 0 1 1.344-.355c.925 0 1.628.314 2.114.945.49.634.732 1.56.732 2.774v8.233zm10.11-3.993h-5.577v2.788c0 .783.095 1.323.284 1.626.197.303.524.45.99.45.482 0 .82-.128 1.012-.383.19-.255.292-.817.292-1.692v-.676h2.998v.76c0 1.522-.363 2.666-1.097 3.44-.727.767-1.82 1.148-3.27 1.148-1.305 0-2.337-.404-3.086-1.22-.75-.813-1.13-1.935-1.13-3.367v-6.658c0-1.283.414-2.336 1.24-3.145.822-.81 1.885-1.216 3.192-1.216 1.335 0 2.36.378 3.08 1.127.716.748 1.07 1.826 1.07 3.234l.002 3.785z"/><path d="M41.418 40.747c-.464 0-.798.13-1.002.408-.203.26-.302.71-.302 1.33v1.496h2.577v-1.496c0-.622-.103-1.068-.308-1.33-.19-.278-.52-.407-.964-.407zM31.363 40.694c-.21 0-.415.043-.618.143-.203.097-.402.25-.6.452v9.24c.235.24.467.42.692.525.225.104.456.16.704.16.358 0 .62-.104.787-.315.167-.207.255-.542.255-1.02v-7.66c0-.5-.104-.883-.31-1.14-.212-.258-.517-.386-.91-.386zM41.407 22.147h-3.284v-1.804c-.6.663-1.23 1.175-1.888 1.52-.654.347-1.29.52-1.904.52-.764 0-1.33-.244-1.715-.73-.382-.487-.576-1.215-.576-2.19V5.806h3.277v12.527c0 .387.076.667.212.838.132.174.36.26.666.26.24 0 .547-.115.916-.343.367-.23.707-.522 1.01-.882v-12.4h3.284v16.34zM28.075 6.584c-.872-.792-1.986-1.188-3.344-1.188-1.488 0-2.68.376-3.56 1.126-.888.748-1.33 1.756-1.328 3.023v8.468c0 1.39.433 2.492 1.29 3.315.865.82 2.016 1.23 3.45 1.23 1.493 0 2.662-.398 3.518-1.194.848-.798 1.273-1.892 1.273-3.288V9.638c0-1.246-.435-2.264-1.298-3.054zM26.03 18.322c0 .435-.13.78-.393 1.032-.265.248-.614.373-1.06.373-.436 0-.77-.12-1.002-.365-.232-.25-.352-.593-.352-1.04v-8.9c0-.357.13-.647.377-.867.253-.218.575-.33.98-.33.43 0 .78.11 1.048.33.268.22.402.51.402.867v8.9zM10.9 0H7.175l4.403 13.373v8.774h3.696v-9.19L19.576 0h-3.76l-2.283 8.852H13.3z"/></g></svg>