<svg id="Ebene_1" xmlns="http://www.w3.org/2000/svg" width="221.965" height="219.23" viewBox="0 0 221.965 219.23"><path fill="#FFF" d="M126.75 9.858v155.548l70.153-69.447c3.852-3.813 10.1-3.79 13.92.052l8.277 8.32c1.914 1.928 2.877 4.272 2.865 6.988-.01 2.72-.99 5.053-2.922 6.965l-97.662 96.678c-5.747 5.69-15.05 5.69-20.798 0l-97.66-96.678C.99 116.373.007 114.04 0 111.32c-.01-2.718.95-5.06 2.865-6.987l8.278-8.32c3.82-3.843 10.066-3.868 13.92-.055l70.154 69.448V9.858c0-5.43 4.426-9.856 9.853-9.856L116.897 0c5.427 0 9.854 4.428 9.854 9.858z" id="Ebene_x0020_1"/></svg>