<svg id="Ebene_1" xmlns="http://www.w3.org/2000/svg" width="102.969" height="207.695" viewBox="0 0 102.969 207.695"><g id="Ebene_x0020_1" fill="#FFF"><path d="M34.045 207.695c18.798 0 34.043-15.245 34.043-34.044 0-18.8-15.245-34.044-34.044-34.044S0 154.85 0 173.65c0 18.8 15.244 34.045 34.045 34.045z"/><path d="M80.65 166.698l5.258-.927v-.02l.008.02c1.673-.295 3.103-1.223 4.092-2.498.056-.088.112-.17.172-.258.986-1.416 1.443-3.178 1.134-4.952l-.023.003v-.003L74.767 64.334l-.003-.008.022-.003c-.312-1.77-1.348-3.27-2.76-4.26l.01-.014-.014-.01a6.616 6.616 0 0 0-4.945-1.11l.004.022h-.002l-.005-.023-12.95 2.282-12.956 2.286.008.022h-.008V63.5a18.31 18.31 0 0 1-6.747-.072l1.868 10.604.36 2.043 23.242-4.1c2.37-.418 4.64 1.133 5.05 3.45l15.78 89.5a4.23 4.23 0 0 1-.07 1.775zM52.112 49.832l12.954-2.28-.004-.022.008.02c4.938-.868 9.78.355 13.6 3.026l.012-.014a18.16 18.16 0 0 1 7.482 11.756l.022-.003v.003l16.526 93.73.004.004h-.025a18.154 18.154 0 0 1-3.013 13.61c-.1.143-.203.278-.312.412a18.14 18.14 0 0 1-11.442 7.075l.01.02h-.01l-.004-.022-12.563 2.214c.255-1.867.39-3.774.39-5.715 0-22.802-18.31-41.332-41.023-41.693l-5.82-33.007-4.04-22.902-4.82-27.315-3.496-19.844L12.652 6.81a5.81 5.81 0 0 1 4.71-6.722 5.798 5.798 0 0 1 6.716 4.71l3.895 22.072 3.498 19.84.003.01.093.526a6.645 6.645 0 0 0 2.38 3.565c.09.054.174.115.262.17 1.413.99 3.175 1.447 4.95 1.14l-.002-.024.007.023 12.95-2.288z"/></g></svg>