<svg id="Ebene_1" xmlns="http://www.w3.org/2000/svg" width="286.483" height="300" viewBox="6.759 0 286.483 300"><g id="Ebene_x0020_1" fill="#FFF"><path d="M150 37.21c-72.56 0-131.4 58.84-131.4 131.39C18.6 241.16 77.44 300 150 300s131.4-58.84 131.4-131.4c0-72.55-58.84-131.39-131.4-131.39zm0 245.5c-63.01 0-114.1-51.1-114.1-114.11 0-63 51.09-114.1 114.1-114.1s114.1 51.1 114.1 114.1c0 63.01-51.09 114.11-114.1 114.11z"/><path d="M78.06 48.618L54.8 25.36 6.76 73.403l23.256 23.26A140.63 140.63 0 0 1 78.06 48.618zM269.983 96.66l23.258-23.258-48.043-48.04-23.26 23.256a140.633 140.633 0 0 1 48.044 48.042zm-86.01-63.784V0h-67.945v32.876A140.112 140.112 0 0 1 150 28.712c11.718 0 23.096 1.45 33.973 4.164zM150 168.604V68.318a100.395 100.395 0 0 1 50.14 13.443c47.956 27.687 64.393 89.028 36.706 136.983L150 168.603z"/></g></svg>