<svg id="Ebene_1" xmlns="http://www.w3.org/2000/svg" width="221.965" height="219.23" viewBox="0 0 221.965 219.23"><path fill="#FFF" d="M126.75 209.373c0 5.43-4.426 9.858-9.853 9.858H105.07c-5.427 0-9.853-4.428-9.853-9.857V53.825l-70.154 69.448c-3.854 3.812-10.1 3.788-13.92-.055l-8.277-8.32C.95 112.972-.01 110.628 0 107.91c.01-2.718.99-5.052 2.922-6.964l97.66-96.678c5.75-5.69 15.052-5.69 20.8 0l97.662 96.678c1.932 1.912 2.912 4.246 2.922 6.965.012 2.717-.95 5.062-2.865 6.988l-8.274 8.32c-3.82 3.842-10.07 3.865-13.922.054l-70.15-69.447v155.548h-.003z" id="Ebene_x0020_1"/></svg>